<svg width="135" height="205" viewBox="0 0 135 205" fill="none" xmlns="http://www.w3.org/2000/svg">
<g clip-path="url(#clip0_43_782)">
<rect width="135" height="205" rx="22" fill="#FC4A50"/>
<path d="M86.4585 87.7251L25.3123 195.47H182.96L124.956 87.7251H86.4585Z" fill="#2490F6"/>
<path d="M137.753 135.099C138.594 133.394 139.037 131.521 139.047 129.619C139.058 127.718 138.636 125.84 137.813 124.126C136.991 122.411 135.789 120.907 134.3 119.726C132.81 118.544 131.071 117.717 129.215 117.307C128.415 117.132 127.686 116.723 127.118 116.134V116.124C126.032 114.987 125.845 113.968 124.304 110.879C124.138 110.544 124 110.276 123.92 110.122L111.077 115.103L114.558 125.745C113.842 127.992 113.774 130.396 114.362 132.68C114.95 134.964 116.171 137.036 117.883 138.657C119.595 140.279 121.73 141.385 124.042 141.849C126.355 142.313 128.751 142.115 130.956 141.278C131.062 142.332 131.458 143.336 132.101 144.178C132.743 145.02 133.607 145.667 134.596 146.047C135.585 146.426 136.66 146.524 137.701 146.328C138.742 146.133 139.708 145.652 140.492 144.94C141.276 144.227 141.846 143.311 142.14 142.293C142.433 141.276 142.438 140.196 142.154 139.176C141.87 138.155 141.308 137.234 140.531 136.514C139.754 135.794 138.792 135.304 137.753 135.099V135.099Z" fill="#343434"/>
<path d="M99.9656 141.579C103.427 141.579 106.232 138.773 106.232 135.312C106.232 131.851 103.427 129.045 99.9656 129.045C96.5045 129.045 93.6987 131.851 93.6987 135.312C93.6987 138.773 96.5045 141.579 99.9656 141.579Z" fill="#343434"/>
<path d="M120.122 118.76C120.127 117.658 119.699 116.597 118.929 115.809C118.159 115.02 117.109 114.566 116.007 114.546L115.748 111.723C115.672 110.828 115.42 109.957 115.006 109.159C114.593 108.362 114.026 107.654 113.339 107.076C112.651 106.498 111.856 106.061 110.999 105.791C110.143 105.52 109.241 105.422 108.346 105.5L97.9495 106.47C96.5884 106.605 95.3363 107.274 94.4679 108.331C93.5994 109.388 93.1854 110.746 93.3166 112.107L94.4686 124.806C94.5594 125.872 94.8598 126.91 95.3524 127.86C95.8451 128.81 96.5204 129.654 97.3396 130.343C98.1588 131.031 99.1058 131.551 100.126 131.873C101.147 132.195 102.221 132.313 103.287 132.219L103.769 132.173L104.42 139.212L118.154 137.933L117.386 129.596H117.374L116.764 122.894C117.714 122.698 118.568 122.179 119.18 121.426C119.792 120.672 120.125 119.731 120.122 118.76V118.76Z" fill="#F2EACC"/>
<path d="M115.905 120.768C115.583 120.768 115.268 120.673 115 120.494C114.732 120.315 114.523 120.06 114.399 119.762C114.276 119.464 114.244 119.136 114.307 118.82C114.37 118.504 114.525 118.214 114.753 117.986C114.981 117.758 115.271 117.602 115.587 117.54C115.904 117.477 116.231 117.509 116.529 117.632C116.827 117.756 117.082 117.965 117.261 118.233C117.44 118.501 117.536 118.816 117.536 119.138C117.535 119.57 117.363 119.985 117.058 120.29C116.752 120.596 116.338 120.768 115.905 120.768ZM115.905 118.272C115.735 118.272 115.568 118.323 115.427 118.418C115.285 118.512 115.174 118.647 115.109 118.805C115.044 118.962 115.027 119.135 115.06 119.303C115.093 119.47 115.175 119.623 115.296 119.744C115.416 119.865 115.57 119.947 115.737 119.98C115.905 120.013 116.078 119.996 116.235 119.931C116.393 119.866 116.528 119.755 116.622 119.613C116.717 119.472 116.768 119.305 116.768 119.134C116.766 118.907 116.675 118.689 116.513 118.528C116.352 118.367 116.133 118.277 115.905 118.276V118.272Z" fill="#343434"/>
<path d="M103.74 132.185L111.918 131.169C111.97 131.162 112.023 131.175 112.068 131.204C112.112 131.233 112.144 131.277 112.159 131.328C112.174 131.379 112.17 131.433 112.148 131.481C112.127 131.53 112.088 131.569 112.04 131.591L104.036 135.416L103.74 132.185Z" fill="#343434"/>
<path d="M114.704 119.847C114.613 119.848 114.526 119.818 114.455 119.762C114.385 119.705 114.337 119.626 114.32 119.538C114.231 119.102 114.259 118.651 114.4 118.229C114.541 117.808 114.79 117.431 115.122 117.136C115.443 116.865 115.824 116.675 116.234 116.582C116.643 116.488 117.069 116.495 117.476 116.6C117.574 116.627 117.657 116.692 117.707 116.781C117.757 116.87 117.77 116.974 117.743 117.072C117.716 117.17 117.65 117.253 117.562 117.303C117.473 117.354 117.369 117.366 117.271 117.339C116.988 117.268 116.693 117.265 116.409 117.329C116.125 117.393 115.859 117.523 115.635 117.708C115.403 117.913 115.23 118.176 115.133 118.47C115.035 118.763 115.016 119.077 115.078 119.38C115.088 119.43 115.088 119.481 115.078 119.53C115.069 119.58 115.049 119.627 115.021 119.669C114.993 119.711 114.957 119.748 114.915 119.776C114.873 119.804 114.826 119.823 114.777 119.833C114.753 119.84 114.728 119.844 114.704 119.847Z" fill="#343434"/>
<path d="M95.7665 120.035C96.215 120.035 96.5787 119.671 96.5787 119.223C96.5787 118.774 96.215 118.41 95.7665 118.41C95.318 118.41 94.9543 118.774 94.9543 119.223C94.9543 119.671 95.318 120.035 95.7665 120.035Z" fill="#343434"/>
<path d="M104.432 119.031C104.88 119.031 105.244 118.667 105.244 118.219C105.244 117.77 104.88 117.406 104.432 117.406C103.983 117.406 103.619 117.77 103.619 118.219C103.619 118.667 103.983 119.031 104.432 119.031Z" fill="#343434"/>
<path d="M99.286 122.462C99.2555 122.462 99.2252 122.458 99.1957 122.45C98.5832 122.302 97.9496 122.08 97.9055 121.567C97.9009 121.372 97.9734 121.184 98.1071 121.043C98.1455 120.993 98.1896 120.935 98.2376 120.86C98.4169 120.573 98.5077 120.239 98.4988 119.9L98.4815 116.36C98.4815 116.258 98.5219 116.16 98.5939 116.088C98.666 116.016 98.7636 115.976 98.8655 115.976C98.9673 115.976 99.065 116.016 99.137 116.088C99.209 116.16 99.2495 116.258 99.2495 116.36L99.2668 119.9C99.2719 120.382 99.1386 120.854 98.8828 121.262C98.8213 121.356 98.7714 121.425 98.7272 121.482C98.931 121.581 99.1465 121.654 99.3685 121.699C99.461 121.72 99.5424 121.775 99.5971 121.852C99.6518 121.93 99.6759 122.025 99.6646 122.119C99.6534 122.213 99.6078 122.3 99.5364 122.363C99.4651 122.425 99.3731 122.459 99.2783 122.458L99.286 122.462Z" fill="#343434"/>
<path d="M100.607 125.843C100.088 125.836 99.5767 125.715 99.1092 125.49C99.0186 125.443 98.9502 125.362 98.919 125.265C98.8879 125.168 98.8966 125.063 98.9431 124.972C98.9897 124.882 99.0704 124.813 99.1675 124.782C99.2645 124.751 99.3699 124.759 99.4606 124.806C99.4721 124.806 100.357 125.255 101.156 124.998C101.374 124.919 101.573 124.796 101.742 124.637C101.911 124.479 102.046 124.287 102.139 124.075C102.16 124.027 102.19 123.983 102.228 123.948C102.266 123.912 102.311 123.884 102.36 123.866C102.409 123.848 102.461 123.841 102.514 123.844C102.566 123.847 102.617 123.86 102.664 123.884C102.71 123.907 102.752 123.94 102.785 123.98C102.819 124.02 102.844 124.066 102.859 124.116C102.874 124.166 102.879 124.219 102.873 124.271C102.867 124.323 102.85 124.373 102.824 124.418C102.688 124.723 102.49 124.997 102.244 125.223C101.997 125.449 101.706 125.621 101.39 125.73C101.137 125.808 100.872 125.847 100.607 125.843V125.843Z" fill="#343434"/>
<path d="M117.768 133.907L103.873 135.188L104.462 141.584L118.358 140.302L117.768 133.907Z" fill="#2490F6"/>
<path d="M98.1473 106.958C99.3685 106.862 100.534 107.866 101.219 108.759C102.371 110.264 102.857 112.1 103.744 113.751C105.505 117.015 109.792 117.424 112.916 116.064L124.686 111.673C124.394 110.734 122.885 105.426 117.488 102.857C114.99 101.689 112.205 101.28 109.477 101.682L99.572 102.2C98.419 102.252 97.2971 102.59 96.308 103.185C94.5166 104.289 92.5582 106.641 93.2513 111.608C93.4093 110.387 93.9831 109.257 94.8762 108.41C95.7694 107.562 96.9273 107.048 98.155 106.954L98.1473 106.958Z" fill="#343434"/>
<path d="M94.0923 139.882C94.0923 139.882 89.6379 140.506 86.7118 149.447C85.988 151.659 85.22 153.848 84.3329 156.006L78.3291 169.627L82.7009 188.421L92.5025 182.047L89.2289 173.582C87.3896 169.166 86.8481 164.189 88.2363 159.616L94.0923 139.882Z" fill="#F2EACC"/>
<path d="M132.494 176.212L91.7 180.991C89.8702 176.454 89.5189 176.037 87.691 171.504C86.1956 167.799 86.0013 163.697 87.14 159.867L92.8482 140.734C92.9735 140.309 93.2294 139.935 93.5794 139.663C93.9295 139.392 94.3561 139.237 94.7989 139.221L130.787 137.852C131.665 153.606 131.626 160.458 132.494 176.212Z" fill="#FC4A50"/>
<path d="M88.413 125.538C89.6878 126.267 90.4347 127.6 91.101 128.855C91.8724 130.298 92.5477 131.79 93.1227 133.321C94.2736 136.376 95.0129 139.571 95.3211 142.821C95.624 146.002 95.4714 149.209 94.868 152.347C94.2949 155.292 93.3173 158.144 91.963 160.821C90.609 163.508 88.8661 165.98 86.7905 168.158C86.5345 168.43 86.2683 168.698 85.9918 168.96C85.4581 169.477 86.2722 170.291 86.8059 169.774C89.0436 167.599 90.9448 165.103 92.4469 162.367C93.9579 159.633 95.0798 156.701 95.78 153.656C96.5071 150.454 96.7715 147.164 96.5653 143.887C96.354 140.498 95.6842 137.154 94.5742 133.945C94.0134 132.318 93.3457 130.729 92.5755 129.189C91.8824 127.803 91.1413 126.319 89.9758 125.265C89.6783 124.993 89.3519 124.754 89.0024 124.553C88.3573 124.184 87.7774 125.179 88.4264 125.547L88.413 125.538Z" fill="white"/>
<path d="M117.34 192.248C117.196 187.887 118.042 183.55 119.814 179.562C121.574 175.555 124.202 171.988 127.508 169.12C129.236 167.635 131.217 166.153 133.494 165.702C134.504 165.497 135.551 165.581 136.515 165.944C136.91 166.106 137.287 166.308 137.642 166.547C137.998 166.791 138.33 167.071 138.63 167.382C139.957 168.726 140.846 170.531 141.48 172.297C142.325 174.663 142.881 177.157 143.331 179.624C144.284 184.86 144.526 190.201 144.051 195.502C143.992 196.167 143.921 196.83 143.839 197.491C143.801 197.801 144.131 198.067 144.415 198.067C144.567 198.064 144.712 198.002 144.819 197.895C144.926 197.788 144.988 197.643 144.991 197.491C145.661 191.985 145.568 186.413 144.715 180.931C144.313 178.274 143.722 175.648 142.947 173.075C142.338 171.074 141.497 169.102 140.207 167.443C138.945 165.817 137.196 164.636 135.109 164.456C132.577 164.239 130.184 165.595 128.232 167.063C124.583 169.826 121.611 173.383 119.54 177.464C117.447 181.536 116.298 186.027 116.176 190.604C116.163 191.152 116.176 191.697 116.188 192.244C116.213 192.983 117.365 192.987 117.34 192.244V192.248Z" fill="white"/>
<path d="M96.2388 182.485C95.703 179.367 95.7147 176.179 96.2734 173.065C96.7822 170.229 97.698 167.415 99.2071 164.948C99.8852 163.822 100.716 162.796 101.676 161.899C102.141 161.472 102.642 161.086 103.174 160.747C103.67 160.425 104.196 160.152 104.744 159.931C105.832 159.505 106.994 159.3 108.162 159.328C109.268 159.341 110.359 159.588 111.363 160.052C112.405 160.536 113.284 161.313 113.893 162.288C114.606 163.45 114.888 164.873 114.469 166.151C114.285 166.71 113.97 167.217 113.551 167.63C113.144 168.029 112.578 168.398 111.979 168.45C111.729 168.468 111.479 168.427 111.248 168.33C111.017 168.234 110.811 168.085 110.648 167.895C110.264 167.478 109.983 166.977 109.827 166.432C108.966 163.6 110.19 160.505 111.647 158.097C113.075 155.777 114.911 153.735 117.065 152.068C119.313 150.328 121.82 148.949 124.494 147.982C127.451 146.917 130.53 146.229 133.66 145.934C134.428 145.857 135.196 145.799 135.964 145.761C136.115 145.757 136.259 145.695 136.367 145.588C136.474 145.481 136.536 145.337 136.54 145.185C136.54 145.032 136.479 144.886 136.371 144.778C136.263 144.67 136.116 144.609 135.964 144.609C132.602 144.755 129.27 145.306 126.041 146.251C123.016 147.139 120.151 148.5 117.551 150.283C115.111 151.963 112.993 154.069 111.299 156.5C109.542 159.061 108.087 162.248 108.458 165.428C108.623 166.85 109.139 168.34 110.378 169.172C111.702 170.055 113.369 169.444 114.4 168.404C114.915 167.868 115.306 167.225 115.544 166.521C115.782 165.817 115.861 165.07 115.777 164.331C115.595 162.817 114.893 161.412 113.79 160.359C111.935 158.575 109.216 157.941 106.71 158.268C103.926 158.631 101.513 160.167 99.714 162.288C97.794 164.56 96.546 167.338 95.7454 170.187C94.8241 173.469 94.499 176.89 94.7854 180.286C94.8564 181.129 94.9774 181.972 95.1118 182.807C95.1526 182.955 95.2501 183.079 95.3829 183.155C95.5158 183.23 95.6731 183.249 95.8202 183.209C95.966 183.166 96.0895 183.068 96.1647 182.936C96.2399 182.804 96.2609 182.648 96.2234 182.5L96.2388 182.485Z" fill="white"/>
<path d="M153.731 174.438H153.752L150.832 167.641L144.688 153.328C143.804 151.269 142.919 149.21 142.035 147.149C140.829 144.344 139.846 141.308 137.304 139.396C134.04 136.944 129.105 136.439 125.742 138.972C122.879 141.126 122.094 145.039 122.145 148.445C122.214 152.306 123.489 156.062 125.167 159.499C126.895 163.039 128.316 166.725 129.904 170.333L132.496 176.22L93.618 180.766C92.3282 180.916 91.0693 181.264 89.8855 181.797C88.2535 182.536 86.5934 183.33 84.9051 184.178C83.9156 184.675 82.9492 185.175 82.0059 185.68L84.4462 195.472H139.903C150.807 195.472 158.011 184.29 153.731 174.438Z" fill="#F2EACC"/>
<path d="M140.132 172.574C140.132 171.646 136.845 170.894 132.788 170.894C128.731 170.894 125.444 171.646 125.444 172.574L124.655 180.86C126.494 180.561 129.071 180.542 131.344 181.955C132.154 182.474 133.049 182.847 133.988 183.059C135.568 183.391 137.947 183.47 140.81 182.256L140.132 172.574Z" fill="white"/>
<path d="M136.06 183.654C135.337 183.655 134.615 183.582 133.907 183.435C132.926 183.213 131.991 182.824 131.143 182.283C128.935 180.916 126.429 180.962 124.716 181.241L124.225 181.321L125.062 172.555C125.104 170.94 130.127 170.512 132.788 170.512C135.449 170.512 140.483 170.936 140.516 172.558L141.211 182.504L140.958 182.61C139.412 183.285 137.746 183.64 136.06 183.654ZM126.613 180.313C128.349 180.282 130.058 180.738 131.548 181.629C132.319 182.123 133.171 182.48 134.065 182.683C135.47 182.978 137.696 183.093 140.401 182.007L139.748 172.574C139.748 172.263 137.655 171.278 132.788 171.278C127.921 171.278 125.828 172.263 125.828 172.574V172.61L125.083 180.411C125.591 180.347 126.102 180.314 126.613 180.313V180.313Z" fill="#343434"/>
<path d="M141.317 181.577C138.27 182.79 135.735 182.711 134.053 182.379C133.062 182.168 132.112 181.795 131.243 181.275C128.81 179.86 126.078 179.881 124.119 180.179L123.319 188.064C123.216 189.069 123.326 190.083 123.64 191.043C123.954 192.002 124.466 192.885 125.143 193.634C125.82 194.383 126.646 194.982 127.569 195.392C128.492 195.802 129.49 196.013 130.499 196.013H134.614C135.607 196.013 136.589 195.809 137.5 195.412C138.41 195.015 139.229 194.434 139.904 193.707C140.58 192.979 141.099 192.12 141.427 191.183C141.756 190.245 141.887 189.251 141.814 188.26L141.317 181.577Z" fill="#FC8823"/>
<path d="M132.204 191.031H132.17C132.069 191.021 131.975 190.972 131.91 190.894C131.845 190.816 131.813 190.715 131.822 190.614L134.213 164.156C134.247 163.754 134.431 163.38 134.729 163.108C135.027 162.836 135.416 162.686 135.82 162.688H141.507C141.609 162.688 141.706 162.728 141.778 162.8C141.85 162.872 141.891 162.97 141.891 163.072C141.891 163.173 141.85 163.271 141.778 163.343C141.706 163.415 141.609 163.456 141.507 163.456H135.82C135.609 163.455 135.405 163.534 135.249 163.676C135.093 163.818 134.996 164.013 134.977 164.224L132.586 190.681C132.578 190.777 132.534 190.865 132.463 190.93C132.393 190.995 132.3 191.031 132.204 191.031Z" fill="#343434"/>
<path d="M132.773 174.584C132.552 174.584 132.331 174.584 132.112 174.573C129.749 174.483 127.427 173.923 125.283 172.923C125.237 172.902 125.196 172.872 125.162 172.835C125.128 172.797 125.101 172.754 125.084 172.706C125.067 172.659 125.059 172.609 125.061 172.558C125.063 172.508 125.075 172.458 125.096 172.413C125.118 172.367 125.148 172.326 125.185 172.292C125.222 172.257 125.266 172.231 125.313 172.214C125.361 172.196 125.411 172.189 125.461 172.191C125.512 172.193 125.561 172.205 125.607 172.226C127.656 173.182 129.876 173.719 132.135 173.805C134.833 173.901 137.515 173.361 139.965 172.226C140.011 172.205 140.06 172.192 140.111 172.19C140.162 172.188 140.212 172.195 140.26 172.213C140.307 172.23 140.351 172.257 140.388 172.291C140.426 172.325 140.456 172.366 140.477 172.412C140.498 172.458 140.51 172.508 140.512 172.559C140.514 172.609 140.506 172.66 140.489 172.707C140.471 172.755 140.444 172.798 140.41 172.835C140.375 172.872 140.334 172.902 140.288 172.923C137.932 174.012 135.368 174.579 132.773 174.584V174.584Z" fill="#343434"/>
<path d="M108.5 139.361C108.402 139.362 108.308 139.324 108.236 139.257C108.165 139.19 108.122 139.098 108.116 139L107.89 135.095C107.884 134.993 107.919 134.893 107.986 134.817C108.054 134.741 108.15 134.695 108.251 134.689C108.353 134.683 108.453 134.718 108.529 134.786C108.606 134.854 108.652 134.949 108.658 135.051L108.884 138.954C108.887 139.005 108.88 139.055 108.864 139.103C108.847 139.151 108.822 139.195 108.788 139.233C108.755 139.271 108.714 139.301 108.668 139.324C108.623 139.346 108.574 139.358 108.523 139.361H108.5Z" fill="#343434"/>
<path d="M112.394 139.077C112.296 139.078 112.202 139.04 112.13 138.973C112.059 138.906 112.016 138.814 112.01 138.716L111.783 134.811C111.78 134.761 111.788 134.71 111.804 134.663C111.821 134.615 111.847 134.571 111.88 134.533C111.914 134.495 111.955 134.465 112 134.443C112.045 134.421 112.095 134.408 112.145 134.405C112.196 134.402 112.246 134.409 112.294 134.426C112.342 134.442 112.386 134.468 112.423 134.502C112.461 134.536 112.492 134.576 112.514 134.622C112.536 134.667 112.548 134.717 112.551 134.767L112.778 138.68C112.781 138.73 112.774 138.781 112.758 138.829C112.741 138.877 112.715 138.921 112.682 138.958C112.648 138.996 112.608 139.027 112.562 139.049C112.517 139.071 112.467 139.084 112.417 139.087L112.394 139.077Z" fill="#343434"/>
<path d="M113.043 195.925H82.0059V189.214H113.043C113.471 189.214 113.883 189.385 114.186 189.688C114.489 189.991 114.659 190.402 114.659 190.831V194.306C114.66 194.519 114.618 194.729 114.537 194.926C114.456 195.122 114.337 195.3 114.186 195.451C114.036 195.601 113.858 195.72 113.662 195.802C113.466 195.883 113.255 195.925 113.043 195.925V195.925Z" fill="#343434"/>
<path d="M85.5098 195.925H49.1335C48.4555 195.931 47.7935 195.718 47.2462 195.318C46.6988 194.918 46.2955 194.351 46.0961 193.703L37.1892 163.506C36.6132 161.549 38.1281 159.6 40.2266 159.6H74.5332C75.2411 159.592 75.9309 159.824 76.4904 160.257C77.0499 160.691 77.4462 161.301 77.6148 161.989L85.5098 195.925Z" fill="#343434"/>
<path d="M59.0908 185.666C61.8743 185.666 64.1308 183.41 64.1308 180.626C64.1308 177.843 61.8743 175.586 59.0908 175.586C56.3073 175.586 54.0508 177.843 54.0508 180.626C54.0508 183.41 56.3073 185.666 59.0908 185.666Z" fill="#FC4A50"/>
<path d="M57.9829 177.044C57.8969 177.043 57.8134 177.014 57.7459 176.961C57.6784 176.908 57.6307 176.833 57.6104 176.75L57.0076 174.281C56.9956 174.232 56.9934 174.181 57.0011 174.131C57.0088 174.081 57.0262 174.033 57.0524 173.99C57.1054 173.903 57.1908 173.84 57.2898 173.816C57.3888 173.792 57.4934 173.808 57.5806 173.861C57.6677 173.914 57.7303 173.999 57.7544 174.098L58.3573 176.567C58.3694 176.616 58.3716 176.667 58.3639 176.717C58.3562 176.767 58.3388 176.815 58.3126 176.858C58.2864 176.901 58.2519 176.939 58.2111 176.969C58.1704 176.999 58.1241 177.02 58.0751 177.032C58.0449 177.04 58.014 177.043 57.9829 177.044V177.044Z" fill="#6DC8C2"/>
<path d="M105.706 92.719C104.413 92.7209 103.148 92.3391 102.072 91.6219C100.995 90.9047 100.156 89.8843 99.6596 88.6899C99.1633 87.4955 99.0325 86.1807 99.2836 84.9119C99.5348 83.6431 100.157 82.4773 101.071 81.562C101.985 80.6468 103.149 80.0232 104.418 79.7701C105.686 79.5171 107.001 79.646 108.196 80.1405C109.392 80.6351 110.413 81.473 111.132 82.5483C111.851 83.6236 112.234 84.888 112.234 86.1814C112.232 87.9128 111.544 89.5728 110.32 90.798C109.097 92.0232 107.438 92.7139 105.706 92.719ZM105.706 80.4118C104.567 80.4118 103.454 80.7496 102.506 81.3825C101.559 82.0154 100.821 82.915 100.385 83.9675C99.9489 85.02 99.8348 86.1782 100.057 87.2955C100.279 88.4128 100.828 89.4392 101.633 90.2447C102.439 91.0503 103.465 91.5989 104.583 91.8211C105.7 92.0434 106.858 91.9293 107.911 91.4933C108.963 91.0574 109.863 90.3191 110.496 89.3719C111.129 88.4247 111.466 87.311 111.466 86.1718C111.462 84.6454 110.854 83.1827 109.775 82.1033C108.696 81.024 107.233 80.4158 105.706 80.4118V80.4118Z" fill="white"/>
<path d="M105.977 63.4258H105.438C104.615 63.4258 103.948 64.0928 103.948 64.9157V77.2306C103.948 78.0534 104.615 78.7205 105.438 78.7205H105.977C106.8 78.7205 107.467 78.0534 107.467 77.2306V64.9157C107.467 64.0928 106.8 63.4258 105.977 63.4258Z" fill="#343434"/>
<path d="M105.426 74.4541C101.361 74.5155 97.3884 75.6713 93.9252 77.7999C90.4619 79.9286 87.6365 82.9513 85.746 86.5501C85.6811 86.6728 85.649 86.8102 85.6529 86.949C85.6568 87.0877 85.6965 87.2231 85.7682 87.342C85.8399 87.4609 85.9412 87.5591 86.0621 87.6273C86.183 87.6954 86.3195 87.7311 86.4584 87.7309H124.964C125.103 87.7308 125.239 87.6949 125.36 87.6266C125.48 87.5583 125.581 87.46 125.653 87.3412C125.724 87.2224 125.764 87.0871 125.767 86.9485C125.771 86.8099 125.739 86.6727 125.674 86.5501C123.739 82.8664 120.824 79.7882 117.252 77.6541C113.679 75.5199 109.587 74.4127 105.426 74.4541V74.4541Z" fill="white"/>
<path d="M93.8792 84.0463C91.3524 84.0463 89.2923 82.3394 89.2616 82.3183C89.1837 82.2526 89.135 82.1586 89.1264 82.0571C89.1177 81.9556 89.1498 81.8547 89.2155 81.7768C89.2812 81.6989 89.3751 81.6503 89.4767 81.6417C89.5782 81.633 89.679 81.6651 89.7569 81.7308V81.7308C89.9259 81.8728 93.9195 85.1637 97.3294 81.7538L97.5617 81.5215L97.8286 81.7135C98.0206 81.8517 102.517 85.0696 105.837 81.7519L106.062 81.5253L106.327 81.7058C107.082 82.1907 107.91 82.5535 108.778 82.781C110.574 83.2341 112.06 82.8885 113.194 81.7519L113.432 81.5138L113.699 81.7173C113.878 81.8536 118.129 85.0312 121.41 81.7519C121.483 81.6856 121.579 81.6498 121.677 81.6521C121.776 81.6543 121.87 81.6944 121.939 81.764C122.009 81.8335 122.05 81.9273 122.052 82.0258C122.055 82.1244 122.019 82.2202 121.953 82.2933C118.701 85.5458 114.586 83.2245 113.505 82.5141C112.204 83.6661 110.504 84.0156 108.567 83.5202C107.721 83.2961 106.91 82.9548 106.158 82.5064C102.894 85.4767 98.7368 83.1996 97.6462 82.5064C96.3963 83.6565 95.0849 84.0463 93.8792 84.0463Z" fill="#EE786B"/>
<path d="M82.9928 185.839C82.9102 185.837 82.8305 185.808 82.7655 185.757C82.7005 185.706 82.6538 185.635 82.6322 185.556C82.6106 185.476 82.6154 185.391 82.6458 185.314C82.6761 185.237 82.7305 185.172 82.8008 185.129C84.0488 184.361 85.3429 183.647 86.6408 182.984C88.3688 182.111 90.1487 181.312 91.9496 180.611C92.0446 180.574 92.1503 180.576 92.2436 180.618C92.3369 180.659 92.41 180.735 92.4469 180.83C92.4838 180.925 92.4815 181.031 92.4405 181.124C92.3994 181.217 92.323 181.29 92.228 181.327C90.4501 182.018 88.6875 182.806 86.9883 183.67C85.7039 184.322 84.429 185.035 83.1944 185.782C83.1341 185.82 83.0642 185.84 82.9928 185.839Z" fill="#343434"/>
<path d="M33.4357 174.788L35.661 166.363H23.037L25.0415 174.88C22.7648 175.873 20.9016 177.623 19.7676 179.833C18.6337 182.043 18.2986 184.577 18.8193 187.006C19.3401 189.434 20.6845 191.608 22.6248 193.159C24.5651 194.71 26.9819 195.543 29.4657 195.515C31.9494 195.488 34.3474 194.603 36.2532 193.01C38.159 191.417 39.4553 189.214 39.9226 186.774C40.3898 184.334 39.9993 181.808 38.817 179.624C37.6348 177.439 35.7336 175.731 33.4357 174.788V174.788Z" fill="white"/>
<path d="M29.348 195.896C26.8152 195.894 24.3586 195.03 22.3823 193.445C20.4061 191.861 19.0281 189.651 18.475 187.18C17.9219 184.708 18.2266 182.122 19.3392 179.846C20.4517 177.571 22.3057 175.742 24.596 174.661L22.5512 165.979H36.1582L33.8926 174.565C36.2229 175.607 38.1251 177.417 39.2816 179.692C40.4381 181.968 40.7788 184.572 40.2469 187.068C39.715 189.565 38.3426 191.803 36.359 193.41C34.3754 195.017 31.9006 195.894 29.348 195.896V195.896ZM23.5208 166.747L25.4888 175.104L25.195 175.231C22.9989 176.189 21.2016 177.876 20.1075 180.008C19.0134 182.139 18.69 184.584 19.192 186.926C19.694 189.269 20.9905 191.366 22.8619 192.862C24.7332 194.358 27.0643 195.161 29.46 195.135C31.8558 195.109 34.1688 194.255 36.007 192.719C37.8453 191.182 39.0958 189.057 39.5466 186.704C39.9973 184.351 39.6206 181.915 38.4803 179.807C37.34 177.7 35.5062 176.052 33.2898 175.143L32.9787 175.014L35.1618 166.747H23.5208Z" fill="#343434"/>
<path d="M29.3441 167.409C33.1169 167.409 36.1754 166.761 36.1754 165.961C36.1754 165.162 33.1169 164.514 29.3441 164.514C25.5712 164.514 22.5127 165.162 22.5127 165.961C22.5127 166.761 25.5712 167.409 29.3441 167.409Z" fill="#343434"/>
<path d="M27.4856 167.127C27.4073 167.126 27.3309 167.102 27.2667 167.057C27.2025 167.012 27.1536 166.949 27.1266 166.875C24.7957 160.52 19.9784 155.355 19.9304 155.311C19.8958 155.274 19.8687 155.231 19.8507 155.184C19.8327 155.137 19.8242 155.087 19.8256 155.036C19.827 154.986 19.8384 154.936 19.859 154.89C19.8796 154.844 19.9091 154.802 19.9458 154.768C19.9825 154.733 20.0256 154.706 20.0728 154.688C20.12 154.67 20.1702 154.661 20.2207 154.663C20.2711 154.664 20.3208 154.676 20.3669 154.696C20.4129 154.717 20.4545 154.746 20.4892 154.783C20.5391 154.837 25.462 160.105 27.8466 166.61C27.8796 166.705 27.8744 166.808 27.8321 166.899C27.7898 166.99 27.7137 167.06 27.62 167.096C27.5774 167.114 27.5319 167.124 27.4856 167.127V167.127Z" fill="#343434"/>
<path d="M30.5615 167.179C30.4596 167.179 30.362 167.138 30.29 167.066C30.2179 166.994 30.1775 166.896 30.1775 166.795V161.296C30.1775 161.194 30.2179 161.096 30.29 161.024C30.362 160.952 30.4596 160.912 30.5615 160.912C30.6633 160.912 30.761 160.952 30.833 161.024C30.905 161.096 30.9455 161.194 30.9455 161.296V166.795C30.9455 166.896 30.905 166.994 30.833 167.066C30.761 167.138 30.6633 167.179 30.5615 167.179Z" fill="#343434"/>
<path d="M22.1538 151.467H20.516C20.4853 151.383 20.4507 151.3 20.4143 151.219L21.6066 150.163C21.7328 150.055 21.8362 149.922 21.9107 149.773C21.9853 149.624 22.0295 149.462 22.0408 149.295C22.0521 149.129 22.0302 148.963 21.9765 148.805C21.9228 148.647 21.8383 148.502 21.7279 148.377C21.6175 148.252 21.4834 148.151 21.3335 148.078C21.1835 148.006 21.0206 147.964 20.8543 147.955C20.6879 147.945 20.5214 147.97 20.3645 148.025C20.2076 148.081 20.0633 148.168 19.94 148.28L18.6843 149.391C18.6651 149.409 18.6498 149.43 18.6306 149.449C18.5519 149.413 18.4712 149.38 18.3887 149.349V147.827C18.3759 147.501 18.2378 147.194 18.0032 146.968C17.7685 146.742 17.4556 146.616 17.1301 146.616C16.8046 146.616 16.4917 146.742 16.257 146.968C16.0224 147.194 15.8842 147.501 15.8715 147.827V149.349C15.7552 149.392 15.6411 149.441 15.5298 149.495C15.4944 149.451 15.4559 149.41 15.4146 149.372L14.1493 148.28C13.8946 148.077 13.5713 147.98 13.247 148.011C12.9228 148.041 12.6229 148.196 12.4103 148.442C12.1977 148.689 12.0889 149.008 12.1067 149.334C12.1245 149.659 12.2675 149.964 12.5058 150.186L13.7768 151.283C13.7869 151.291 13.7978 151.299 13.8095 151.306C13.7864 151.359 13.7672 151.415 13.7461 151.471H12.1679C11.836 151.472 11.5182 151.605 11.2837 151.84C11.0492 152.075 10.917 152.393 10.916 152.725V152.725C10.916 153.058 11.0485 153.378 11.2842 153.615C11.52 153.851 11.8399 153.984 12.1736 153.984H13.7365L13.7749 154.088H13.7634L12.5058 155.199C12.2682 155.424 12.1273 155.732 12.1127 156.059C12.0982 156.385 12.2112 156.705 12.4278 156.949C12.6444 157.194 12.9477 157.345 13.2736 157.371C13.5995 157.396 13.9225 157.293 14.1743 157.085L15.4299 155.973L15.4568 155.944C15.5941 156.019 15.7366 156.083 15.8831 156.136V157.646C15.8958 157.971 16.0339 158.279 16.2686 158.504C16.5032 158.73 16.8161 158.856 17.1416 158.856C17.4671 158.856 17.78 158.73 18.0147 158.504C18.2493 158.279 18.3875 157.971 18.4002 157.646V156.152C18.4866 156.119 18.573 156.085 18.6575 156.044L19.8901 157.106C20.1439 157.323 20.4737 157.431 20.8067 157.405C21.1398 157.379 21.4489 157.222 21.6661 156.968C21.8833 156.714 21.9907 156.384 21.9648 156.051C21.9389 155.718 21.7817 155.409 21.5279 155.192L20.4335 154.247C20.4719 154.161 20.5064 154.072 20.5391 153.984H22.1538C22.4878 153.984 22.8082 153.851 23.0444 153.615C23.2806 153.379 23.4133 153.059 23.4133 152.725V152.725C23.4128 152.391 23.2799 152.071 23.0437 151.835C22.8076 151.599 22.4875 151.467 22.1538 151.467V151.467Z" fill="#C7B8F8"/>
<path d="M22.1538 151.467H20.516C20.4853 151.383 20.4507 151.3 20.4143 151.219L21.6066 150.163C21.7328 150.055 21.8362 149.922 21.9107 149.773C21.9853 149.624 22.0295 149.462 22.0408 149.295C22.0521 149.129 22.0302 148.963 21.9765 148.805C21.9228 148.647 21.8383 148.502 21.7279 148.377C21.6175 148.252 21.4834 148.151 21.3335 148.078C21.1835 148.006 21.0206 147.964 20.8543 147.955C20.6879 147.945 20.5214 147.97 20.3645 148.025C20.2076 148.081 20.0633 148.168 19.94 148.28L18.6843 149.391C18.6651 149.409 18.6498 149.43 18.6306 149.449C18.5519 149.413 18.4712 149.38 18.3887 149.349V147.827C18.3759 147.501 18.2378 147.194 18.0032 146.968C17.7685 146.742 17.4556 146.616 17.1301 146.616C16.8046 146.616 16.4917 146.742 16.257 146.968C16.0224 147.194 15.8842 147.501 15.8715 147.827V149.349C15.7552 149.392 15.6411 149.441 15.5298 149.495C15.4944 149.451 15.4559 149.41 15.4146 149.372L14.1493 148.28C13.8946 148.077 13.5713 147.98 13.247 148.011C12.9228 148.041 12.6229 148.196 12.4103 148.442C12.1977 148.689 12.0889 149.008 12.1067 149.334C12.1245 149.659 12.2675 149.964 12.5058 150.186L13.7768 151.283C13.7869 151.291 13.7978 151.299 13.8095 151.306C13.7864 151.359 13.7672 151.415 13.7461 151.471H12.1679C11.836 151.472 11.5182 151.605 11.2837 151.84C11.0492 152.075 10.917 152.393 10.916 152.725V152.725C10.916 153.058 11.0485 153.378 11.2842 153.615C11.52 153.851 11.8399 153.984 12.1736 153.984H13.7365L13.7749 154.088H13.7634L12.5058 155.199C12.2682 155.424 12.1273 155.732 12.1127 156.059C12.0982 156.385 12.2112 156.705 12.4278 156.949C12.6444 157.194 12.9477 157.345 13.2736 157.371C13.5995 157.396 13.9225 157.293 14.1743 157.085L15.4299 155.973L15.4568 155.944C15.5941 156.019 15.7366 156.083 15.8831 156.136V157.646C15.8958 157.971 16.0339 158.279 16.2686 158.504C16.5032 158.73 16.8161 158.856 17.1416 158.856C17.4671 158.856 17.78 158.73 18.0147 158.504C18.2493 158.279 18.3875 157.971 18.4002 157.646V156.152C18.4866 156.119 18.573 156.085 18.6575 156.044L19.8901 157.106C20.1439 157.323 20.4737 157.431 20.8067 157.405C21.1398 157.379 21.4489 157.222 21.6661 156.968C21.8833 156.714 21.9907 156.384 21.9648 156.051C21.9389 155.718 21.7817 155.409 21.5279 155.192L20.4335 154.247C20.4719 154.161 20.5064 154.072 20.5391 153.984H22.1538C22.4878 153.984 22.8082 153.851 23.0444 153.615C23.2806 153.379 23.4133 153.059 23.4133 152.725V152.725C23.4128 152.391 23.2799 152.071 23.0437 151.835C22.8076 151.599 22.4875 151.467 22.1538 151.467V151.467Z" fill="#C7B8F8"/>
<path d="M22.1538 151.467H20.516C20.4853 151.383 20.4507 151.3 20.4143 151.219L21.6066 150.163C21.7328 150.055 21.8362 149.922 21.9107 149.773C21.9853 149.624 22.0295 149.462 22.0408 149.295C22.0521 149.129 22.0302 148.963 21.9765 148.805C21.9228 148.647 21.8383 148.502 21.7279 148.377C21.6175 148.252 21.4834 148.151 21.3335 148.078C21.1835 148.006 21.0206 147.964 20.8543 147.955C20.6879 147.945 20.5214 147.97 20.3645 148.025C20.2076 148.081 20.0633 148.168 19.94 148.28L18.6843 149.391C18.6651 149.409 18.6498 149.43 18.6306 149.449C18.5519 149.413 18.4712 149.38 18.3887 149.349V147.827C18.3759 147.501 18.2378 147.194 18.0032 146.968C17.7685 146.742 17.4556 146.616 17.1301 146.616C16.8046 146.616 16.4917 146.742 16.257 146.968C16.0224 147.194 15.8842 147.501 15.8715 147.827V149.349C15.7552 149.392 15.6411 149.441 15.5298 149.495C15.4944 149.451 15.4559 149.41 15.4146 149.372L14.1493 148.28C13.8946 148.077 13.5713 147.98 13.247 148.011C12.9228 148.041 12.6229 148.196 12.4103 148.442C12.1977 148.689 12.0889 149.008 12.1067 149.334C12.1245 149.659 12.2675 149.964 12.5058 150.186L13.7768 151.283C13.7869 151.291 13.7978 151.299 13.8095 151.306C13.7864 151.359 13.7672 151.415 13.7461 151.471H12.1679C11.836 151.472 11.5182 151.605 11.2837 151.84C11.0492 152.075 10.917 152.393 10.916 152.725V152.725C10.916 153.058 11.0485 153.378 11.2842 153.615C11.52 153.851 11.8399 153.984 12.1736 153.984H13.7365L13.7749 154.088H13.7634L12.5058 155.199C12.2682 155.424 12.1273 155.732 12.1127 156.059C12.0982 156.385 12.2112 156.705 12.4278 156.949C12.6444 157.194 12.9477 157.345 13.2736 157.371C13.5995 157.396 13.9225 157.293 14.1743 157.085L15.4299 155.973L15.4568 155.944C15.5941 156.019 15.7366 156.083 15.8831 156.136V157.646C15.8958 157.971 16.0339 158.279 16.2686 158.504C16.5032 158.73 16.8161 158.856 17.1416 158.856C17.4671 158.856 17.78 158.73 18.0147 158.504C18.2493 158.279 18.3875 157.971 18.4002 157.646V156.152C18.4866 156.119 18.573 156.085 18.6575 156.044L19.8901 157.106C20.1439 157.323 20.4737 157.431 20.8067 157.405C21.1398 157.379 21.4489 157.222 21.6661 156.968C21.8833 156.714 21.9907 156.384 21.9648 156.051C21.9389 155.718 21.7817 155.409 21.5279 155.192L20.4335 154.247C20.4719 154.161 20.5064 154.072 20.5391 153.984H22.1538C22.4878 153.984 22.8082 153.851 23.0444 153.615C23.2806 153.379 23.4133 153.059 23.4133 152.725V152.725C23.4128 152.391 23.2799 152.071 23.0437 151.835C22.8076 151.599 22.4875 151.467 22.1538 151.467V151.467Z" fill="#C7B8F8"/>
<path d="M22.1538 151.467H20.516C20.4853 151.383 20.4507 151.3 20.4143 151.219L21.6066 150.163C21.7328 150.055 21.8362 149.922 21.9107 149.773C21.9853 149.624 22.0295 149.462 22.0408 149.295C22.0521 149.129 22.0302 148.963 21.9765 148.805C21.9228 148.647 21.8383 148.502 21.7279 148.377C21.6175 148.252 21.4834 148.151 21.3335 148.078C21.1835 148.006 21.0206 147.964 20.8543 147.955C20.6879 147.945 20.5214 147.97 20.3645 148.025C20.2076 148.081 20.0633 148.168 19.94 148.28L18.6843 149.391C18.6651 149.409 18.6498 149.43 18.6306 149.449C18.5519 149.413 18.4712 149.38 18.3887 149.349V147.827C18.3759 147.501 18.2378 147.194 18.0032 146.968C17.7685 146.742 17.4556 146.616 17.1301 146.616C16.8046 146.616 16.4917 146.742 16.257 146.968C16.0224 147.194 15.8842 147.501 15.8715 147.827V149.349C15.7552 149.392 15.6411 149.441 15.5298 149.495C15.4944 149.451 15.4559 149.41 15.4146 149.372L14.1493 148.28C13.8946 148.077 13.5713 147.98 13.247 148.011C12.9228 148.041 12.6229 148.196 12.4103 148.442C12.1977 148.689 12.0889 149.008 12.1067 149.334C12.1245 149.659 12.2675 149.964 12.5058 150.186L13.7768 151.283C13.7869 151.291 13.7978 151.299 13.8095 151.306C13.7864 151.359 13.7672 151.415 13.7461 151.471H12.1679C11.836 151.472 11.5182 151.605 11.2837 151.84C11.0492 152.075 10.917 152.393 10.916 152.725V152.725C10.916 153.058 11.0485 153.378 11.2842 153.615C11.52 153.851 11.8399 153.984 12.1736 153.984H13.7365L13.7749 154.088H13.7634L12.5058 155.199C12.2682 155.424 12.1273 155.732 12.1127 156.059C12.0982 156.385 12.2112 156.705 12.4278 156.949C12.6444 157.194 12.9477 157.345 13.2736 157.371C13.5995 157.396 13.9225 157.293 14.1743 157.085L15.4299 155.973L15.4568 155.944C15.5941 156.019 15.7366 156.083 15.8831 156.136V157.646C15.8958 157.971 16.0339 158.279 16.2686 158.504C16.5032 158.73 16.8161 158.856 17.1416 158.856C17.4671 158.856 17.78 158.73 18.0147 158.504C18.2493 158.279 18.3875 157.971 18.4002 157.646V156.152C18.4866 156.119 18.573 156.085 18.6575 156.044L19.8901 157.106C20.1439 157.323 20.4737 157.431 20.8067 157.405C21.1398 157.379 21.4489 157.222 21.6661 156.968C21.8833 156.714 21.9907 156.384 21.9648 156.051C21.9389 155.718 21.7817 155.409 21.5279 155.192L20.4335 154.247C20.4719 154.161 20.5064 154.072 20.5391 153.984H22.1538C22.4878 153.984 22.8082 153.851 23.0444 153.615C23.2806 153.379 23.4133 153.059 23.4133 152.725V152.725C23.4128 152.391 23.2799 152.071 23.0437 151.835C22.8076 151.599 22.4875 151.467 22.1538 151.467V151.467Z" fill="#C7B8F8"/>
<path d="M22.1538 151.467H20.516C20.4853 151.383 20.4507 151.3 20.4143 151.219L21.6066 150.163C21.7328 150.055 21.8362 149.922 21.9107 149.773C21.9853 149.624 22.0295 149.462 22.0408 149.295C22.0521 149.129 22.0302 148.963 21.9765 148.805C21.9228 148.647 21.8383 148.502 21.7279 148.377C21.6175 148.252 21.4834 148.151 21.3335 148.078C21.1835 148.006 21.0206 147.964 20.8543 147.955C20.6879 147.945 20.5214 147.97 20.3645 148.025C20.2076 148.081 20.0633 148.168 19.94 148.28L18.6843 149.391C18.6651 149.409 18.6498 149.43 18.6306 149.449C18.5519 149.413 18.4712 149.38 18.3887 149.349V147.827C18.3759 147.501 18.2378 147.194 18.0032 146.968C17.7685 146.742 17.4556 146.616 17.1301 146.616C16.8046 146.616 16.4917 146.742 16.257 146.968C16.0224 147.194 15.8842 147.501 15.8715 147.827V149.349C15.7552 149.392 15.6411 149.441 15.5298 149.495C15.4944 149.451 15.4559 149.41 15.4146 149.372L14.1493 148.28C13.8946 148.077 13.5713 147.98 13.247 148.011C12.9228 148.041 12.6229 148.196 12.4103 148.442C12.1977 148.689 12.0889 149.008 12.1067 149.334C12.1245 149.659 12.2675 149.964 12.5058 150.186L13.7768 151.283C13.7869 151.291 13.7978 151.299 13.8095 151.306C13.7864 151.359 13.7672 151.415 13.7461 151.471H12.1679C11.836 151.472 11.5182 151.605 11.2837 151.84C11.0492 152.075 10.917 152.393 10.916 152.725V152.725C10.916 153.058 11.0485 153.378 11.2842 153.615C11.52 153.851 11.8399 153.984 12.1736 153.984H13.7365L13.7749 154.088H13.7634L12.5058 155.199C12.2682 155.424 12.1273 155.732 12.1127 156.059C12.0982 156.385 12.2112 156.705 12.4278 156.949C12.6444 157.194 12.9477 157.345 13.2736 157.371C13.5995 157.396 13.9225 157.293 14.1743 157.085L15.4299 155.973L15.4568 155.944C15.5941 156.019 15.7366 156.083 15.8831 156.136V157.646C15.8958 157.971 16.0339 158.279 16.2686 158.504C16.5032 158.73 16.8161 158.856 17.1416 158.856C17.4671 158.856 17.78 158.73 18.0147 158.504C18.2493 158.279 18.3875 157.971 18.4002 157.646V156.152C18.4866 156.119 18.573 156.085 18.6575 156.044L19.8901 157.106C20.1439 157.323 20.4737 157.431 20.8067 157.405C21.1398 157.379 21.4489 157.222 21.6661 156.968C21.8833 156.714 21.9907 156.384 21.9648 156.051C21.9389 155.718 21.7817 155.409 21.5279 155.192L20.4335 154.247C20.4719 154.161 20.5064 154.072 20.5391 153.984H22.1538C22.4878 153.984 22.8082 153.851 23.0444 153.615C23.2806 153.379 23.4133 153.059 23.4133 152.725V152.725C23.4128 152.391 23.2799 152.071 23.0437 151.835C22.8076 151.599 22.4875 151.467 22.1538 151.467V151.467Z" fill="#C7B8F8"/>
<path d="M22.1538 151.467H20.516C20.4853 151.383 20.4507 151.3 20.4143 151.219L21.6066 150.163C21.7328 150.055 21.8362 149.922 21.9107 149.773C21.9853 149.624 22.0295 149.462 22.0408 149.295C22.0521 149.129 22.0302 148.963 21.9765 148.805C21.9228 148.647 21.8383 148.502 21.7279 148.377C21.6175 148.252 21.4834 148.151 21.3335 148.078C21.1835 148.006 21.0206 147.964 20.8543 147.955C20.6879 147.945 20.5214 147.97 20.3645 148.025C20.2076 148.081 20.0633 148.168 19.94 148.28L18.6843 149.391C18.6651 149.409 18.6498 149.43 18.6306 149.449C18.5519 149.413 18.4712 149.38 18.3887 149.349V147.827C18.3759 147.501 18.2378 147.194 18.0032 146.968C17.7685 146.742 17.4556 146.616 17.1301 146.616C16.8046 146.616 16.4917 146.742 16.257 146.968C16.0224 147.194 15.8842 147.501 15.8715 147.827V149.349C15.7552 149.392 15.6411 149.441 15.5298 149.495C15.4944 149.451 15.4559 149.41 15.4146 149.372L14.1493 148.28C13.8946 148.077 13.5713 147.98 13.247 148.011C12.9228 148.041 12.6229 148.196 12.4103 148.442C12.1977 148.689 12.0889 149.008 12.1067 149.334C12.1245 149.659 12.2675 149.964 12.5058 150.186L13.7768 151.283C13.7869 151.291 13.7978 151.299 13.8095 151.306C13.7864 151.359 13.7672 151.415 13.7461 151.471H12.1679C11.836 151.472 11.5182 151.605 11.2837 151.84C11.0492 152.075 10.917 152.393 10.916 152.725V152.725C10.916 153.058 11.0485 153.378 11.2842 153.615C11.52 153.851 11.8399 153.984 12.1736 153.984H13.7365L13.7749 154.088H13.7634L12.5058 155.199C12.2682 155.424 12.1273 155.732 12.1127 156.059C12.0982 156.385 12.2112 156.705 12.4278 156.949C12.6444 157.194 12.9477 157.345 13.2736 157.371C13.5995 157.396 13.9225 157.293 14.1743 157.085L15.4299 155.973L15.4568 155.944C15.5941 156.019 15.7366 156.083 15.8831 156.136V157.646C15.8958 157.971 16.0339 158.279 16.2686 158.504C16.5032 158.73 16.8161 158.856 17.1416 158.856C17.4671 158.856 17.78 158.73 18.0147 158.504C18.2493 158.279 18.3875 157.971 18.4002 157.646V156.152C18.4866 156.119 18.573 156.085 18.6575 156.044L19.8901 157.106C20.1439 157.323 20.4737 157.431 20.8067 157.405C21.1398 157.379 21.4489 157.222 21.6661 156.968C21.8833 156.714 21.9907 156.384 21.9648 156.051C21.9389 155.718 21.7817 155.409 21.5279 155.192L20.4335 154.247C20.4719 154.161 20.5064 154.072 20.5391 153.984H22.1538C22.4878 153.984 22.8082 153.851 23.0444 153.615C23.2806 153.379 23.4133 153.059 23.4133 152.725V152.725C23.4128 152.391 23.2799 152.071 23.0437 151.835C22.8076 151.599 22.4875 151.467 22.1538 151.467V151.467Z" fill="#C7B8F8"/>
<path d="M22.1538 151.467H20.516C20.4853 151.383 20.4507 151.3 20.4143 151.219L21.6066 150.163C21.7328 150.055 21.8362 149.922 21.9107 149.773C21.9853 149.624 22.0295 149.462 22.0408 149.295C22.0521 149.129 22.0302 148.963 21.9765 148.805C21.9228 148.647 21.8383 148.502 21.7279 148.377C21.6175 148.252 21.4834 148.151 21.3335 148.078C21.1835 148.006 21.0206 147.964 20.8543 147.955C20.6879 147.945 20.5214 147.97 20.3645 148.025C20.2076 148.081 20.0633 148.168 19.94 148.28L18.6843 149.391C18.6651 149.409 18.6498 149.43 18.6306 149.449C18.5519 149.413 18.4712 149.38 18.3887 149.349V147.827C18.3759 147.501 18.2378 147.194 18.0032 146.968C17.7685 146.742 17.4556 146.616 17.1301 146.616C16.8046 146.616 16.4917 146.742 16.257 146.968C16.0224 147.194 15.8842 147.501 15.8715 147.827V149.349C15.7552 149.392 15.6411 149.441 15.5298 149.495C15.4944 149.451 15.4559 149.41 15.4146 149.372L14.1493 148.28C13.8946 148.077 13.5713 147.98 13.247 148.011C12.9228 148.041 12.6229 148.196 12.4103 148.442C12.1977 148.689 12.0889 149.008 12.1067 149.334C12.1245 149.659 12.2675 149.964 12.5058 150.186L13.7768 151.283C13.7869 151.291 13.7978 151.299 13.8095 151.306C13.7864 151.359 13.7672 151.415 13.7461 151.471H12.1679C11.836 151.472 11.5182 151.605 11.2837 151.84C11.0492 152.075 10.917 152.393 10.916 152.725C10.916 153.058 11.0485 153.378 11.2842 153.615C11.52 153.851 11.8399 153.984 12.1736 153.984H13.7365L13.7749 154.088H13.7634L12.5058 155.199C12.2682 155.424 12.1273 155.732 12.1127 156.059C12.0982 156.385 12.2112 156.705 12.4278 156.949C12.6444 157.194 12.9477 157.345 13.2736 157.371C13.5995 157.396 13.9225 157.293 14.1743 157.085L15.4299 155.973L15.4568 155.944C15.5941 156.019 15.7366 156.083 15.8831 156.136V157.646C15.8958 157.971 16.0339 158.279 16.2686 158.504C16.5032 158.73 16.8161 158.856 17.1416 158.856C17.4671 158.856 17.78 158.73 18.0147 158.504C18.2493 158.279 18.3875 157.971 18.4002 157.646V156.152C18.4866 156.119 18.573 156.085 18.6575 156.044L19.8901 157.106C20.1439 157.323 20.4737 157.431 20.8067 157.405C21.1398 157.379 21.4489 157.222 21.6661 156.968C21.8833 156.714 21.9907 156.384 21.9648 156.051C21.9389 155.718 21.7817 155.409 21.5279 155.192L20.4335 154.247C20.4719 154.161 20.5064 154.072 20.5391 153.984H22.1538C22.4878 153.984 22.8082 153.851 23.0444 153.615C23.2806 153.379 23.4133 153.059 23.4133 152.725C23.4128 152.391 23.2799 152.071 23.0437 151.835C22.8076 151.599 22.4875 151.467 22.1538 151.467Z" fill="#2490F6"/>
<path d="M35.5553 156.104H33.9252C33.8945 156.02 33.8599 155.939 33.8215 155.858L35.0158 154.802C35.2533 154.578 35.3942 154.27 35.4088 153.943C35.4234 153.617 35.3104 153.297 35.0938 153.052C34.8771 152.808 34.5738 152.657 34.2479 152.631C33.922 152.606 33.5991 152.708 33.3473 152.917L32.0916 154.029C32.0727 154.047 32.0548 154.066 32.0378 154.086C31.9591 154.05 31.8766 154.017 31.794 153.986V152.464C31.7813 152.138 31.6431 151.831 31.4085 151.605C31.1739 151.379 30.861 151.253 30.5354 151.253C30.2099 151.253 29.897 151.379 29.6624 151.605C29.4278 151.831 29.2896 152.138 29.2769 152.464V153.986C29.1617 154.029 29.0484 154.078 28.937 154.132C28.9012 154.089 28.8627 154.048 28.8218 154.009L27.5508 152.913C27.4268 152.798 27.2807 152.708 27.1214 152.65C26.962 152.593 26.7927 152.568 26.6234 152.577C26.4542 152.586 26.2886 152.63 26.1365 152.704C25.9844 152.779 25.8489 152.884 25.7383 153.012C25.6276 153.141 25.544 153.29 25.4924 153.451C25.4409 153.613 25.4224 153.783 25.4382 153.952C25.454 154.121 25.5037 154.284 25.5843 154.434C25.6649 154.583 25.7747 154.714 25.9073 154.82L27.1764 155.916C27.1875 155.924 27.199 155.932 27.211 155.939C27.1879 155.993 27.1668 156.048 27.1476 156.104H25.5694C25.2358 156.104 24.916 156.237 24.6801 156.472C24.4443 156.708 24.3118 157.028 24.3118 157.362C24.3118 157.695 24.4442 158.015 24.68 158.252C24.9158 158.488 25.2357 158.621 25.5694 158.621H27.1322C27.1438 158.656 27.1572 158.692 27.1706 158.727C27.1706 158.727 27.1706 158.727 27.1591 158.727L25.9015 159.838C25.7714 159.946 25.6643 160.079 25.5866 160.229C25.5089 160.379 25.4621 160.543 25.449 160.711C25.436 160.88 25.4569 161.049 25.5106 161.209C25.5643 161.369 25.6496 161.517 25.7615 161.643C25.8735 161.77 26.0097 161.872 26.1621 161.945C26.3145 162.018 26.48 162.059 26.6487 162.067C26.8174 162.074 26.9859 162.048 27.1442 161.989C27.3025 161.93 27.4473 161.84 27.57 161.724L28.8257 160.612L28.8526 160.585C28.9898 160.658 29.1315 160.722 29.2769 160.777V162.296C29.2896 162.621 29.4278 162.929 29.6624 163.155C29.897 163.38 30.2099 163.506 30.5354 163.506C30.861 163.506 31.1739 163.38 31.4085 163.155C31.6431 162.929 31.7813 162.621 31.794 162.296V160.779C31.8823 160.747 31.9687 160.712 32.0532 160.672L33.2839 161.734C33.409 161.842 33.5541 161.924 33.711 161.976C33.8679 162.028 34.0335 162.048 34.1983 162.036C34.3631 162.024 34.524 161.98 34.6716 161.906C34.8193 161.832 34.9509 161.729 35.059 161.604C35.167 161.479 35.2494 161.334 35.3013 161.177C35.3533 161.02 35.3738 160.854 35.3618 160.69C35.3498 160.525 35.3054 160.364 35.2312 160.216C35.157 160.069 35.0544 159.937 34.9294 159.829L33.833 158.884C33.8734 158.798 33.9079 158.71 33.9406 158.621H35.5553C35.889 158.621 36.2089 158.488 36.4447 158.252C36.6805 158.015 36.8129 157.695 36.8129 157.362C36.8129 157.197 36.7804 157.033 36.7172 156.88C36.654 156.728 36.5613 156.589 36.4445 156.472C36.3278 156.356 36.1891 156.263 36.0366 156.2C35.884 156.137 35.7204 156.104 35.5553 156.104V156.104Z" fill="#C7B8F8"/>
<path d="M35.5553 156.104H33.9252C33.8945 156.02 33.8599 155.939 33.8215 155.858L35.0158 154.802C35.2533 154.578 35.3942 154.27 35.4088 153.943C35.4234 153.617 35.3104 153.297 35.0938 153.052C34.8771 152.808 34.5738 152.657 34.2479 152.631C33.922 152.606 33.5991 152.708 33.3473 152.917L32.0916 154.029C32.0727 154.047 32.0548 154.066 32.0378 154.086C31.9591 154.05 31.8766 154.017 31.794 153.986V152.464C31.7813 152.138 31.6431 151.831 31.4085 151.605C31.1739 151.379 30.861 151.253 30.5354 151.253C30.2099 151.253 29.897 151.379 29.6624 151.605C29.4278 151.831 29.2896 152.138 29.2769 152.464V153.986C29.1617 154.029 29.0484 154.078 28.937 154.132C28.9012 154.089 28.8627 154.048 28.8218 154.009L27.5508 152.913C27.4268 152.798 27.2807 152.708 27.1214 152.65C26.962 152.593 26.7927 152.568 26.6234 152.577C26.4542 152.586 26.2886 152.63 26.1365 152.704C25.9844 152.779 25.8489 152.884 25.7383 153.012C25.6276 153.141 25.544 153.29 25.4924 153.451C25.4409 153.613 25.4224 153.783 25.4382 153.952C25.454 154.121 25.5037 154.284 25.5843 154.434C25.6649 154.583 25.7747 154.714 25.9073 154.82L27.1764 155.916C27.1875 155.924 27.199 155.932 27.211 155.939C27.1879 155.993 27.1668 156.048 27.1476 156.104H25.5694C25.2358 156.104 24.916 156.237 24.6801 156.472C24.4443 156.708 24.3118 157.028 24.3118 157.362C24.3118 157.695 24.4442 158.015 24.68 158.252C24.9158 158.488 25.2357 158.621 25.5694 158.621H27.1322C27.1438 158.656 27.1572 158.692 27.1706 158.727C27.1706 158.727 27.1706 158.727 27.1591 158.727L25.9015 159.838C25.7714 159.946 25.6643 160.079 25.5866 160.229C25.5089 160.379 25.4621 160.543 25.449 160.711C25.436 160.88 25.4569 161.049 25.5106 161.209C25.5643 161.369 25.6496 161.517 25.7615 161.643C25.8735 161.77 26.0097 161.872 26.1621 161.945C26.3145 162.018 26.48 162.059 26.6487 162.067C26.8174 162.074 26.9859 162.048 27.1442 161.989C27.3025 161.93 27.4473 161.84 27.57 161.724L28.8257 160.612L28.8526 160.585C28.9898 160.658 29.1315 160.722 29.2769 160.777V162.296C29.2896 162.621 29.4278 162.929 29.6624 163.155C29.897 163.38 30.2099 163.506 30.5354 163.506C30.861 163.506 31.1739 163.38 31.4085 163.155C31.6431 162.929 31.7813 162.621 31.794 162.296V160.779C31.8823 160.747 31.9687 160.712 32.0532 160.672L33.2839 161.734C33.409 161.842 33.5541 161.924 33.711 161.976C33.8679 162.028 34.0335 162.048 34.1983 162.036C34.3631 162.024 34.524 161.98 34.6716 161.906C34.8193 161.832 34.9509 161.729 35.059 161.604C35.167 161.479 35.2494 161.334 35.3013 161.177C35.3533 161.02 35.3738 160.854 35.3618 160.69C35.3498 160.525 35.3054 160.364 35.2312 160.216C35.157 160.069 35.0544 159.937 34.9294 159.829L33.833 158.884C33.8734 158.798 33.9079 158.71 33.9406 158.621H35.5553C35.889 158.621 36.2089 158.488 36.4447 158.252C36.6805 158.015 36.8129 157.695 36.8129 157.362C36.8129 157.197 36.7804 157.033 36.7172 156.88C36.654 156.728 36.5613 156.589 36.4445 156.472C36.3278 156.356 36.1891 156.263 36.0366 156.2C35.884 156.137 35.7204 156.104 35.5553 156.104V156.104Z" fill="#C7B8F8"/>
<path d="M35.5553 156.104H33.9252C33.8945 156.02 33.8599 155.939 33.8215 155.858L35.0158 154.802C35.2533 154.578 35.3942 154.27 35.4088 153.943C35.4234 153.617 35.3104 153.297 35.0938 153.052C34.8771 152.808 34.5738 152.657 34.2479 152.631C33.922 152.606 33.5991 152.708 33.3473 152.917L32.0916 154.029C32.0727 154.047 32.0548 154.066 32.0378 154.086C31.9591 154.05 31.8766 154.017 31.794 153.986V152.464C31.7813 152.138 31.6431 151.831 31.4085 151.605C31.1739 151.379 30.861 151.253 30.5354 151.253C30.2099 151.253 29.897 151.379 29.6624 151.605C29.4278 151.831 29.2896 152.138 29.2769 152.464V153.986C29.1617 154.029 29.0484 154.078 28.937 154.132C28.9012 154.089 28.8627 154.048 28.8218 154.009L27.5508 152.913C27.4268 152.798 27.2807 152.708 27.1214 152.65C26.962 152.593 26.7927 152.568 26.6234 152.577C26.4542 152.586 26.2886 152.63 26.1365 152.704C25.9844 152.779 25.8489 152.884 25.7383 153.012C25.6276 153.141 25.544 153.29 25.4924 153.451C25.4409 153.613 25.4224 153.783 25.4382 153.952C25.454 154.121 25.5037 154.284 25.5843 154.434C25.6649 154.583 25.7747 154.714 25.9073 154.82L27.1764 155.916C27.1875 155.924 27.199 155.932 27.211 155.939C27.1879 155.993 27.1668 156.048 27.1476 156.104H25.5694C25.2358 156.104 24.916 156.237 24.6801 156.472C24.4443 156.708 24.3118 157.028 24.3118 157.362C24.3118 157.695 24.4442 158.015 24.68 158.252C24.9158 158.488 25.2357 158.621 25.5694 158.621H27.1322C27.1438 158.656 27.1572 158.692 27.1706 158.727C27.1706 158.727 27.1706 158.727 27.1591 158.727L25.9015 159.838C25.7714 159.946 25.6643 160.079 25.5866 160.229C25.5089 160.379 25.4621 160.543 25.449 160.711C25.436 160.88 25.4569 161.049 25.5106 161.209C25.5643 161.369 25.6496 161.517 25.7615 161.643C25.8735 161.77 26.0097 161.872 26.1621 161.945C26.3145 162.018 26.48 162.059 26.6487 162.067C26.8174 162.074 26.9859 162.048 27.1442 161.989C27.3025 161.93 27.4473 161.84 27.57 161.724L28.8257 160.612L28.8526 160.585C28.9898 160.658 29.1315 160.722 29.2769 160.777V162.296C29.2896 162.621 29.4278 162.929 29.6624 163.155C29.897 163.38 30.2099 163.506 30.5354 163.506C30.861 163.506 31.1739 163.38 31.4085 163.155C31.6431 162.929 31.7813 162.621 31.794 162.296V160.779C31.8823 160.747 31.9687 160.712 32.0532 160.672L33.2839 161.734C33.409 161.842 33.5541 161.924 33.711 161.976C33.8679 162.028 34.0335 162.048 34.1983 162.036C34.3631 162.024 34.524 161.98 34.6716 161.906C34.8193 161.832 34.9509 161.729 35.059 161.604C35.167 161.479 35.2494 161.334 35.3013 161.177C35.3533 161.02 35.3738 160.854 35.3618 160.69C35.3498 160.525 35.3054 160.364 35.2312 160.216C35.157 160.069 35.0544 159.937 34.9294 159.829L33.833 158.884C33.8734 158.798 33.9079 158.71 33.9406 158.621H35.5553C35.889 158.621 36.2089 158.488 36.4447 158.252C36.6805 158.015 36.8129 157.695 36.8129 157.362C36.8129 157.197 36.7804 157.033 36.7172 156.88C36.654 156.728 36.5613 156.589 36.4445 156.472C36.3278 156.356 36.1891 156.263 36.0366 156.2C35.884 156.137 35.7204 156.104 35.5553 156.104V156.104Z" fill="#C7B8F8"/>
<path d="M35.5553 156.104H33.9252C33.8945 156.02 33.8599 155.939 33.8215 155.858L35.0158 154.802C35.2533 154.578 35.3942 154.27 35.4088 153.943C35.4234 153.617 35.3104 153.297 35.0938 153.052C34.8771 152.808 34.5738 152.657 34.2479 152.631C33.922 152.606 33.5991 152.708 33.3473 152.917L32.0916 154.029C32.0727 154.047 32.0548 154.066 32.0378 154.086C31.9591 154.05 31.8766 154.017 31.794 153.986V152.464C31.7813 152.138 31.6431 151.831 31.4085 151.605C31.1739 151.379 30.861 151.253 30.5354 151.253C30.2099 151.253 29.897 151.379 29.6624 151.605C29.4278 151.831 29.2896 152.138 29.2769 152.464V153.986C29.1617 154.029 29.0484 154.078 28.937 154.132C28.9012 154.089 28.8627 154.048 28.8218 154.009L27.5508 152.913C27.4268 152.798 27.2807 152.708 27.1214 152.65C26.962 152.593 26.7927 152.568 26.6234 152.577C26.4542 152.586 26.2886 152.63 26.1365 152.704C25.9844 152.779 25.8489 152.884 25.7383 153.012C25.6276 153.141 25.544 153.29 25.4924 153.451C25.4409 153.613 25.4224 153.783 25.4382 153.952C25.454 154.121 25.5037 154.284 25.5843 154.434C25.6649 154.583 25.7747 154.714 25.9073 154.82L27.1764 155.916C27.1875 155.924 27.199 155.932 27.211 155.939C27.1879 155.993 27.1668 156.048 27.1476 156.104H25.5694C25.2358 156.104 24.916 156.237 24.6801 156.472C24.4443 156.708 24.3118 157.028 24.3118 157.362C24.3118 157.695 24.4442 158.015 24.68 158.252C24.9158 158.488 25.2357 158.621 25.5694 158.621H27.1322C27.1438 158.656 27.1572 158.692 27.1706 158.727C27.1706 158.727 27.1706 158.727 27.1591 158.727L25.9015 159.838C25.7714 159.946 25.6643 160.079 25.5866 160.229C25.5089 160.379 25.4621 160.543 25.449 160.711C25.436 160.88 25.4569 161.049 25.5106 161.209C25.5643 161.369 25.6496 161.517 25.7615 161.643C25.8735 161.77 26.0097 161.872 26.1621 161.945C26.3145 162.018 26.48 162.059 26.6487 162.067C26.8174 162.074 26.9859 162.048 27.1442 161.989C27.3025 161.93 27.4473 161.84 27.57 161.724L28.8257 160.612L28.8526 160.585C28.9898 160.658 29.1315 160.722 29.2769 160.777V162.296C29.2896 162.621 29.4278 162.929 29.6624 163.155C29.897 163.38 30.2099 163.506 30.5354 163.506C30.861 163.506 31.1739 163.38 31.4085 163.155C31.6431 162.929 31.7813 162.621 31.794 162.296V160.779C31.8823 160.747 31.9687 160.712 32.0532 160.672L33.2839 161.734C33.409 161.842 33.5541 161.924 33.711 161.976C33.8679 162.028 34.0335 162.048 34.1983 162.036C34.3631 162.024 34.524 161.98 34.6716 161.906C34.8193 161.832 34.9509 161.729 35.059 161.604C35.167 161.479 35.2494 161.334 35.3013 161.177C35.3533 161.02 35.3738 160.854 35.3618 160.69C35.3498 160.525 35.3054 160.364 35.2312 160.216C35.157 160.069 35.0544 159.937 34.9294 159.829L33.833 158.884C33.8734 158.798 33.9079 158.71 33.9406 158.621H35.5553C35.889 158.621 36.2089 158.488 36.4447 158.252C36.6805 158.015 36.8129 157.695 36.8129 157.362C36.8129 157.197 36.7804 157.033 36.7172 156.88C36.654 156.728 36.5613 156.589 36.4445 156.472C36.3278 156.356 36.1891 156.263 36.0366 156.2C35.884 156.137 35.7204 156.104 35.5553 156.104V156.104Z" fill="#C7B8F8"/>
<path d="M35.5553 156.104H33.9252C33.8945 156.02 33.8599 155.939 33.8215 155.858L35.0158 154.802C35.2533 154.578 35.3942 154.27 35.4088 153.943C35.4234 153.617 35.3104 153.297 35.0938 153.052C34.8771 152.808 34.5738 152.657 34.2479 152.631C33.922 152.606 33.5991 152.708 33.3473 152.917L32.0916 154.029C32.0727 154.047 32.0548 154.066 32.0378 154.086C31.9591 154.05 31.8766 154.017 31.794 153.986V152.464C31.7813 152.138 31.6431 151.831 31.4085 151.605C31.1739 151.379 30.861 151.253 30.5354 151.253C30.2099 151.253 29.897 151.379 29.6624 151.605C29.4278 151.831 29.2896 152.138 29.2769 152.464V153.986C29.1617 154.029 29.0484 154.078 28.937 154.132C28.9012 154.089 28.8627 154.048 28.8218 154.009L27.5508 152.913C27.4268 152.798 27.2807 152.708 27.1214 152.65C26.962 152.593 26.7927 152.568 26.6234 152.577C26.4542 152.586 26.2886 152.63 26.1365 152.704C25.9844 152.779 25.8489 152.884 25.7383 153.012C25.6276 153.141 25.544 153.29 25.4924 153.451C25.4409 153.613 25.4224 153.783 25.4382 153.952C25.454 154.121 25.5037 154.284 25.5843 154.434C25.6649 154.583 25.7747 154.714 25.9073 154.82L27.1764 155.916C27.1875 155.924 27.199 155.932 27.211 155.939C27.1879 155.993 27.1668 156.048 27.1476 156.104H25.5694C25.2358 156.104 24.916 156.237 24.6801 156.472C24.4443 156.708 24.3118 157.028 24.3118 157.362C24.3118 157.695 24.4442 158.015 24.68 158.252C24.9158 158.488 25.2357 158.621 25.5694 158.621H27.1322C27.1438 158.656 27.1572 158.692 27.1706 158.727C27.1706 158.727 27.1706 158.727 27.1591 158.727L25.9015 159.838C25.7714 159.946 25.6643 160.079 25.5866 160.229C25.5089 160.379 25.4621 160.543 25.449 160.711C25.436 160.88 25.4569 161.049 25.5106 161.209C25.5643 161.369 25.6496 161.517 25.7615 161.643C25.8735 161.77 26.0097 161.872 26.1621 161.945C26.3145 162.018 26.48 162.059 26.6487 162.067C26.8174 162.074 26.9859 162.048 27.1442 161.989C27.3025 161.93 27.4473 161.84 27.57 161.724L28.8257 160.612L28.8526 160.585C28.9898 160.658 29.1315 160.722 29.2769 160.777V162.296C29.2896 162.621 29.4278 162.929 29.6624 163.155C29.897 163.38 30.2099 163.506 30.5354 163.506C30.861 163.506 31.1739 163.38 31.4085 163.155C31.6431 162.929 31.7813 162.621 31.794 162.296V160.779C31.8823 160.747 31.9687 160.712 32.0532 160.672L33.2839 161.734C33.409 161.842 33.5541 161.924 33.711 161.976C33.8679 162.028 34.0335 162.048 34.1983 162.036C34.3631 162.024 34.524 161.98 34.6716 161.906C34.8193 161.832 34.9509 161.729 35.059 161.604C35.167 161.479 35.2494 161.334 35.3013 161.177C35.3533 161.02 35.3738 160.854 35.3618 160.69C35.3498 160.525 35.3054 160.364 35.2312 160.216C35.157 160.069 35.0544 159.937 34.9294 159.829L33.833 158.884C33.8734 158.798 33.9079 158.71 33.9406 158.621H35.5553C35.889 158.621 36.2089 158.488 36.4447 158.252C36.6805 158.015 36.8129 157.695 36.8129 157.362C36.8129 157.197 36.7804 157.033 36.7172 156.88C36.654 156.728 36.5613 156.589 36.4445 156.472C36.3278 156.356 36.1891 156.263 36.0366 156.2C35.884 156.137 35.7204 156.104 35.5553 156.104V156.104Z" fill="#C7B8F8"/>
<path d="M35.5553 156.104H33.9252C33.8945 156.02 33.8599 155.939 33.8215 155.858L35.0158 154.802C35.2533 154.578 35.3942 154.27 35.4088 153.943C35.4234 153.617 35.3104 153.297 35.0938 153.052C34.8771 152.808 34.5738 152.657 34.2479 152.631C33.922 152.606 33.5991 152.708 33.3473 152.917L32.0916 154.029C32.0727 154.047 32.0548 154.066 32.0378 154.086C31.9591 154.05 31.8766 154.017 31.794 153.986V152.464C31.7813 152.138 31.6431 151.831 31.4085 151.605C31.1739 151.379 30.861 151.253 30.5354 151.253C30.2099 151.253 29.897 151.379 29.6624 151.605C29.4278 151.831 29.2896 152.138 29.2769 152.464V153.986C29.1617 154.029 29.0484 154.078 28.937 154.132C28.9012 154.089 28.8627 154.048 28.8218 154.009L27.5508 152.913C27.4268 152.798 27.2807 152.708 27.1214 152.65C26.962 152.593 26.7927 152.568 26.6234 152.577C26.4542 152.586 26.2886 152.63 26.1365 152.704C25.9844 152.779 25.8489 152.884 25.7383 153.012C25.6276 153.141 25.544 153.29 25.4924 153.451C25.4409 153.613 25.4224 153.783 25.4382 153.952C25.454 154.121 25.5037 154.284 25.5843 154.434C25.6649 154.583 25.7747 154.714 25.9073 154.82L27.1764 155.916C27.1875 155.924 27.199 155.932 27.211 155.939C27.1879 155.993 27.1668 156.048 27.1476 156.104H25.5694C25.2358 156.104 24.916 156.237 24.6801 156.472C24.4443 156.708 24.3118 157.028 24.3118 157.362C24.3118 157.695 24.4442 158.015 24.68 158.252C24.9158 158.488 25.2357 158.621 25.5694 158.621H27.1322C27.1438 158.656 27.1572 158.692 27.1706 158.727C27.1706 158.727 27.1706 158.727 27.1591 158.727L25.9015 159.838C25.7714 159.946 25.6643 160.079 25.5866 160.229C25.5089 160.379 25.4621 160.543 25.449 160.711C25.436 160.88 25.4569 161.049 25.5106 161.209C25.5643 161.369 25.6496 161.517 25.7615 161.643C25.8735 161.77 26.0097 161.872 26.1621 161.945C26.3145 162.018 26.48 162.059 26.6487 162.067C26.8174 162.074 26.9859 162.048 27.1442 161.989C27.3025 161.93 27.4473 161.84 27.57 161.724L28.8257 160.612L28.8526 160.585C28.9898 160.658 29.1315 160.722 29.2769 160.777V162.296C29.2896 162.621 29.4278 162.929 29.6624 163.155C29.897 163.38 30.2099 163.506 30.5354 163.506C30.861 163.506 31.1739 163.38 31.4085 163.155C31.6431 162.929 31.7813 162.621 31.794 162.296V160.779C31.8823 160.747 31.9687 160.712 32.0532 160.672L33.2839 161.734C33.409 161.842 33.5541 161.924 33.711 161.976C33.8679 162.028 34.0335 162.048 34.1983 162.036C34.3631 162.024 34.524 161.98 34.6716 161.906C34.8193 161.832 34.9509 161.729 35.059 161.604C35.167 161.479 35.2494 161.334 35.3013 161.177C35.3533 161.02 35.3738 160.854 35.3618 160.69C35.3498 160.525 35.3054 160.364 35.2312 160.216C35.157 160.069 35.0544 159.937 34.9294 159.829L33.833 158.884C33.8734 158.798 33.9079 158.71 33.9406 158.621H35.5553C35.889 158.621 36.2089 158.488 36.4447 158.252C36.6805 158.015 36.8129 157.695 36.8129 157.362C36.8129 157.197 36.7804 157.033 36.7172 156.88C36.654 156.728 36.5613 156.589 36.4445 156.472C36.3278 156.356 36.1891 156.263 36.0366 156.2C35.884 156.137 35.7204 156.104 35.5553 156.104V156.104Z" fill="#C7B8F8"/>
<path d="M35.5553 156.104H33.9252C33.8945 156.02 33.8599 155.939 33.8215 155.858L35.0158 154.802C35.2533 154.578 35.3942 154.27 35.4088 153.943C35.4234 153.617 35.3104 153.297 35.0938 153.052C34.8771 152.808 34.5738 152.657 34.2479 152.631C33.922 152.606 33.5991 152.708 33.3473 152.917L32.0916 154.029C32.0727 154.047 32.0548 154.066 32.0378 154.086C31.9591 154.05 31.8766 154.017 31.794 153.986V152.464C31.7813 152.138 31.6431 151.831 31.4085 151.605C31.1739 151.379 30.861 151.253 30.5354 151.253C30.2099 151.253 29.897 151.379 29.6624 151.605C29.4278 151.831 29.2896 152.138 29.2769 152.464V153.986C29.1617 154.029 29.0484 154.078 28.937 154.132C28.9012 154.089 28.8627 154.048 28.8218 154.009L27.5508 152.913C27.4268 152.798 27.2807 152.708 27.1214 152.65C26.962 152.593 26.7927 152.568 26.6234 152.577C26.4542 152.586 26.2886 152.63 26.1365 152.704C25.9844 152.779 25.8489 152.884 25.7383 153.012C25.6276 153.141 25.544 153.29 25.4924 153.451C25.4409 153.613 25.4224 153.783 25.4382 153.952C25.454 154.121 25.5037 154.284 25.5843 154.434C25.6649 154.583 25.7747 154.714 25.9073 154.82L27.1764 155.916C27.1875 155.924 27.199 155.932 27.211 155.939C27.1879 155.993 27.1668 156.048 27.1476 156.104H25.5694C25.2358 156.104 24.916 156.237 24.6801 156.472C24.4443 156.708 24.3118 157.028 24.3118 157.362C24.3118 157.695 24.4442 158.015 24.68 158.252C24.9158 158.488 25.2357 158.621 25.5694 158.621H27.1322C27.1438 158.656 27.1572 158.692 27.1706 158.727C27.1706 158.727 27.1706 158.727 27.1591 158.727L25.9015 159.838C25.7714 159.946 25.6643 160.079 25.5866 160.229C25.5089 160.379 25.4621 160.543 25.449 160.711C25.436 160.88 25.4569 161.049 25.5106 161.209C25.5643 161.369 25.6496 161.517 25.7615 161.643C25.8735 161.77 26.0097 161.872 26.1621 161.945C26.3145 162.018 26.48 162.059 26.6487 162.067C26.8174 162.074 26.9859 162.048 27.1442 161.989C27.3025 161.93 27.4473 161.84 27.57 161.724L28.8257 160.612L28.8526 160.585C28.9898 160.658 29.1315 160.722 29.2769 160.777V162.296C29.2896 162.621 29.4278 162.929 29.6624 163.155C29.897 163.38 30.2099 163.506 30.5354 163.506C30.861 163.506 31.1739 163.38 31.4085 163.155C31.6431 162.929 31.7813 162.621 31.794 162.296V160.779C31.8823 160.747 31.9687 160.712 32.0532 160.672L33.2839 161.734C33.409 161.842 33.5541 161.924 33.711 161.976C33.8679 162.028 34.0335 162.048 34.1983 162.036C34.3631 162.024 34.524 161.98 34.6716 161.906C34.8193 161.832 34.9509 161.729 35.059 161.604C35.167 161.479 35.2494 161.334 35.3013 161.177C35.3533 161.02 35.3738 160.854 35.3618 160.69C35.3498 160.525 35.3054 160.364 35.2312 160.216C35.157 160.069 35.0544 159.937 34.9294 159.829L33.833 158.884C33.8734 158.798 33.9079 158.71 33.9406 158.621H35.5553C35.889 158.621 36.2089 158.488 36.4447 158.252C36.6805 158.015 36.8129 157.695 36.8129 157.362C36.8129 157.197 36.7804 157.033 36.7172 156.88C36.654 156.728 36.5613 156.589 36.4445 156.472C36.3278 156.356 36.1891 156.263 36.0366 156.2C35.884 156.137 35.7204 156.104 35.5553 156.104V156.104Z" fill="#2490F6"/>
<path d="M17.1617 154.405C18.0821 154.405 18.8282 153.659 18.8282 152.738C18.8282 151.818 18.0821 151.072 17.1617 151.072C16.2413 151.072 15.4951 151.818 15.4951 152.738C15.4951 153.659 16.2413 154.405 17.1617 154.405Z" fill="white"/>
<path d="M30.5633 159.132C31.4837 159.132 32.2298 158.386 32.2298 157.465C32.2298 156.545 31.4837 155.799 30.5633 155.799C29.6429 155.799 28.8967 156.545 28.8967 157.465C28.8967 158.386 29.6429 159.132 30.5633 159.132Z" fill="white"/>
<path d="M32.7522 187.592C32.1279 187.592 31.5176 187.407 30.9985 187.06C30.4795 186.713 30.0749 186.22 29.836 185.643C29.5971 185.067 29.5346 184.432 29.6564 183.82C29.7781 183.207 30.0788 182.645 30.5202 182.203C30.9617 181.762 31.5241 181.461 32.1364 181.34C32.7487 181.218 33.3833 181.28 33.9601 181.519C34.5369 181.758 35.0299 182.163 35.3767 182.682C35.7235 183.201 35.9087 183.811 35.9087 184.435C35.9076 185.272 35.5748 186.075 34.983 186.666C34.3913 187.258 33.589 187.591 32.7522 187.592V187.592ZM32.7522 182.047C32.2798 182.047 31.818 182.187 31.4252 182.449C31.0324 182.712 30.7263 183.085 30.5455 183.521C30.3647 183.958 30.3174 184.438 30.4096 184.901C30.5018 185.365 30.7292 185.79 31.0633 186.124C31.3973 186.458 31.8229 186.686 32.2862 186.778C32.7495 186.87 33.2298 186.823 33.6662 186.642C34.1027 186.461 34.4757 186.155 34.7381 185.762C35.0006 185.37 35.1407 184.908 35.1407 184.435C35.1391 183.802 34.887 183.196 34.4394 182.748C33.9918 182.301 33.3852 182.048 32.7522 182.047V182.047Z" fill="#343434"/>
<path d="M27.7794 192.843C27.3469 192.843 26.9241 192.715 26.5644 192.475C26.2048 192.234 25.9245 191.893 25.759 191.493C25.5935 191.094 25.5502 190.654 25.6346 190.23C25.7189 189.806 25.9272 189.416 26.2331 189.11C26.5389 188.804 26.9286 188.596 27.3528 188.512C27.777 188.427 28.2167 188.47 28.6163 188.636C29.0159 188.801 29.3574 189.082 29.5977 189.441C29.838 189.801 29.9663 190.224 29.9663 190.656C29.9658 191.236 29.7352 191.792 29.3252 192.202C28.9152 192.612 28.3593 192.843 27.7794 192.843V192.843ZM27.7794 189.237C27.4988 189.237 27.2245 189.321 26.9911 189.477C26.7578 189.633 26.5759 189.854 26.4685 190.113C26.3611 190.373 26.333 190.658 26.3878 190.933C26.4425 191.208 26.5777 191.461 26.7761 191.66C26.9745 191.858 27.2274 191.993 27.5026 192.048C27.7778 192.103 28.0631 192.075 28.3224 191.967C28.5817 191.86 28.8033 191.678 28.9592 191.445C29.1151 191.211 29.1983 190.937 29.1983 190.656C29.1978 190.28 29.0481 189.92 28.7821 189.654C28.5162 189.388 28.1556 189.238 27.7794 189.237V189.237Z" fill="#343434"/>
<path d="M72.3579 107.96H37.435C35.0895 107.96 33.188 109.862 33.188 112.207V133.534C33.188 135.88 35.0895 137.782 37.435 137.782H72.3579C74.7035 137.782 76.6049 135.88 76.6049 133.534V112.207C76.6049 109.862 74.7035 107.96 72.3579 107.96Z" fill="white"/>
<path d="M72.3579 138.165H37.435C36.2072 138.164 35.0302 137.675 34.162 136.807C33.2939 135.939 32.8055 134.762 32.804 133.534V112.207C32.8055 110.979 33.2939 109.802 34.162 108.934C35.0302 108.066 36.2072 107.577 37.435 107.576H72.3579C73.5856 107.577 74.7627 108.066 75.6308 108.934C76.499 109.802 76.9874 110.979 76.9889 112.207V133.534C76.9874 134.762 76.499 135.939 75.6308 136.807C74.7627 137.675 73.5856 138.164 72.3579 138.165V138.165ZM37.435 108.344C36.4108 108.345 35.4288 108.752 34.7045 109.477C33.9803 110.201 33.573 111.183 33.572 112.207V133.534C33.573 134.559 33.9803 135.541 34.7045 136.265C35.4288 136.989 36.4108 137.396 37.435 137.397H72.3579C73.3819 137.396 74.3636 136.988 75.0878 136.264C75.8119 135.54 76.2194 134.558 76.2209 133.534V112.207C76.2199 111.183 75.8126 110.201 75.0883 109.477C74.3641 108.752 73.3821 108.345 72.3579 108.344H37.435Z" fill="#343434"/>
<path d="M57.296 118.592C58.0118 118.592 58.592 118.012 58.592 117.296C58.592 116.58 58.0118 116 57.296 116C56.5802 116 56 116.58 56 117.296C56 118.012 56.5802 118.592 57.296 118.592Z" fill="#FC4A50"/>
<path d="M61.7848 118.592C62.5005 118.592 63.0808 118.012 63.0808 117.296C63.0808 116.58 62.5005 116 61.7848 116C61.069 116 60.4888 116.58 60.4888 117.296C60.4888 118.012 61.069 118.592 61.7848 118.592Z" fill="#FC4A50"/>
<path d="M66.2757 118.592C66.9915 118.592 67.5717 118.012 67.5717 117.296C67.5717 116.58 66.9915 116 66.2757 116C65.56 116 64.9797 116.58 64.9797 117.296C64.9797 118.012 65.56 118.592 66.2757 118.592Z" fill="#FC4A50"/>
<path d="M70.3324 118.864C71.0481 118.864 71.6284 118.283 71.6284 117.568C71.6284 116.852 71.0481 116.272 70.3324 116.272C69.6166 116.272 69.0364 116.852 69.0364 117.568C69.0364 118.283 69.6166 118.864 70.3324 118.864Z" fill="#FC4A50"/>
<path d="M44.3355 123.898C45.7256 123.898 46.8526 122.771 46.8526 121.381C46.8526 119.991 45.7256 118.864 44.3355 118.864C42.9453 118.864 41.8184 119.991 41.8184 121.381C41.8184 122.771 42.9453 123.898 44.3355 123.898Z" fill="#2490F6"/>
<path d="M44.1129 125.184C43.2741 125.178 42.4476 125.386 41.7108 125.787C40.9741 126.188 40.3511 126.769 39.9004 127.477C41.1115 128.435 42.6001 128.976 44.144 129.02C45.688 129.063 47.2045 128.606 48.4674 127.717C48.0352 126.943 47.403 126.3 46.6369 125.854C45.8708 125.409 44.9991 125.177 44.1129 125.184V125.184Z" fill="#2490F6"/>
<path d="M71.6283 122.796H55.3083C55.2065 122.796 55.1088 122.755 55.0368 122.683C54.9648 122.611 54.9243 122.514 54.9243 122.412C54.9243 122.31 54.9648 122.212 55.0368 122.14C55.1088 122.068 55.2065 122.028 55.3083 122.028H71.6283C71.7302 122.028 71.8278 122.068 71.8998 122.14C71.9719 122.212 72.0123 122.31 72.0123 122.412C72.0123 122.514 71.9719 122.611 71.8998 122.683C71.8278 122.755 71.7302 122.796 71.6283 122.796Z" fill="#343434"/>
<path d="M71.6283 125.81H55.3083C55.2065 125.81 55.1088 125.77 55.0368 125.698C54.9648 125.626 54.9243 125.528 54.9243 125.426C54.9243 125.324 54.9648 125.226 55.0368 125.154C55.1088 125.082 55.2065 125.042 55.3083 125.042H71.6283C71.7302 125.042 71.8278 125.082 71.8998 125.154C71.9719 125.226 72.0123 125.324 72.0123 125.426C72.0123 125.528 71.9719 125.626 71.8998 125.698C71.8278 125.77 71.7302 125.81 71.6283 125.81Z" fill="#343434"/>
<path d="M65.5668 128.828H55.3159C55.214 128.828 55.1164 128.788 55.0444 128.716C54.9723 128.644 54.9319 128.546 54.9319 128.444C54.9319 128.343 54.9723 128.245 55.0444 128.173C55.1164 128.101 55.214 128.06 55.3159 128.06H65.5668C65.6686 128.06 65.7663 128.101 65.8383 128.173C65.9103 128.245 65.9508 128.343 65.9508 128.444C65.9508 128.546 65.9103 128.644 65.8383 128.716C65.7663 128.788 65.6686 128.828 65.5668 128.828Z" fill="#343434"/>
<path d="M44.1837 129.201C42.8444 129.201 41.5351 128.804 40.4215 128.06C39.3079 127.315 38.4399 126.258 37.9273 125.02C37.4148 123.783 37.2807 122.421 37.542 121.108C37.8033 119.794 38.4482 118.588 39.3953 117.641C40.3424 116.693 41.549 116.049 42.8626 115.787C44.1762 115.526 45.5378 115.66 46.7752 116.173C48.0126 116.685 49.0702 117.553 49.8143 118.667C50.5584 119.78 50.9556 121.09 50.9556 122.429C50.9535 124.224 50.2394 125.946 48.9699 127.215C47.7004 128.485 45.9791 129.199 44.1837 129.201V129.201ZM44.1837 116.427C42.9962 116.427 41.8353 116.779 40.848 117.439C39.8606 118.099 39.0911 119.037 38.6367 120.134C38.1823 121.231 38.0635 122.438 38.2954 123.603C38.5272 124.768 39.0992 125.837 39.939 126.677C40.7789 127.516 41.8488 128.088 43.0136 128.32C44.1783 128.551 45.3856 128.432 46.4826 127.977C47.5796 127.522 48.5172 126.753 49.1766 125.765C49.8361 124.777 50.1879 123.616 50.1876 122.429C50.1855 120.837 49.5523 119.312 48.4267 118.187C47.3012 117.061 45.7752 116.429 44.1837 116.427V116.427Z" fill="#343434"/>
<path d="M17.5099 64.6V63.77H19.3899V71H18.4699V64.6H17.5099ZM20.933 65.59C20.9797 64.9767 21.2163 64.4967 21.643 64.15C22.0697 63.8033 22.623 63.63 23.303 63.63C23.7563 63.63 24.1463 63.7133 24.473 63.88C24.8063 64.04 25.0563 64.26 25.223 64.54C25.3963 64.82 25.483 65.1367 25.483 65.49C25.483 65.9033 25.363 66.26 25.123 66.56C24.8897 66.86 24.583 67.0533 24.203 67.14V67.19C24.6363 67.2967 24.9797 67.5067 25.233 67.82C25.4863 68.1333 25.613 68.5433 25.613 69.05C25.613 69.43 25.5263 69.7733 25.353 70.08C25.1797 70.38 24.9197 70.6167 24.573 70.79C24.2263 70.9633 23.8097 71.05 23.323 71.05C22.6163 71.05 22.0363 70.8667 21.583 70.5C21.1297 70.1267 20.8763 69.6 20.823 68.92H21.703C21.7497 69.32 21.913 69.6467 22.193 69.9C22.473 70.1533 22.8463 70.28 23.313 70.28C23.7797 70.28 24.133 70.16 24.373 69.92C24.6197 69.6733 24.743 69.3567 24.743 68.97C24.743 68.47 24.5763 68.11 24.243 67.89C23.9097 67.67 23.4063 67.56 22.733 67.56H22.503V66.8H22.743C23.3563 66.7933 23.8197 66.6933 24.133 66.5C24.4463 66.3 24.603 65.9933 24.603 65.58C24.603 65.2267 24.4863 64.9433 24.253 64.73C24.0263 64.5167 23.6997 64.41 23.273 64.41C22.8597 64.41 22.5263 64.5167 22.273 64.73C22.0197 64.9433 21.8697 65.23 21.823 65.59H20.933ZM27.2817 71.06C27.1083 71.06 26.9617 71 26.8417 70.88C26.7217 70.76 26.6617 70.6133 26.6617 70.44C26.6617 70.2667 26.7217 70.12 26.8417 70C26.9617 69.88 27.1083 69.82 27.2817 69.82C27.4483 69.82 27.5883 69.88 27.7017 70C27.8217 70.12 27.8817 70.2667 27.8817 70.44C27.8817 70.6133 27.8217 70.76 27.7017 70.88C27.5883 71 27.4483 71.06 27.2817 71.06ZM28.9413 67.31C28.9413 66.1633 29.128 65.27 29.5013 64.63C29.8746 63.9833 30.528 63.66 31.4613 63.66C32.388 63.66 33.038 63.9833 33.4113 64.63C33.7846 65.27 33.9713 66.1633 33.9713 67.31C33.9713 68.4767 33.7846 69.3833 33.4113 70.03C33.038 70.6767 32.388 71 31.4613 71C30.528 71 29.8746 70.6767 29.5013 70.03C29.128 69.3833 28.9413 68.4767 28.9413 67.31ZM33.0713 67.31C33.0713 66.73 33.0313 66.24 32.9513 65.84C32.878 65.4333 32.7213 65.1067 32.4813 64.86C32.248 64.6133 31.908 64.49 31.4613 64.49C31.008 64.49 30.6613 64.6133 30.4213 64.86C30.188 65.1067 30.0313 65.4333 29.9513 65.84C29.878 66.24 29.8413 66.73 29.8413 67.31C29.8413 67.91 29.878 68.4133 29.9513 68.82C30.0313 69.2267 30.188 69.5533 30.4213 69.8C30.6613 70.0467 31.008 70.17 31.4613 70.17C31.908 70.17 32.248 70.0467 32.4813 69.8C32.7213 69.5533 32.878 69.2267 32.9513 68.82C33.0313 68.4133 33.0713 67.91 33.0713 67.31ZM35.2206 67.31C35.2206 66.1633 35.4073 65.27 35.7806 64.63C36.1539 63.9833 36.8073 63.66 37.7406 63.66C38.6673 63.66 39.3173 63.9833 39.6906 64.63C40.0639 65.27 40.2506 66.1633 40.2506 67.31C40.2506 68.4767 40.0639 69.3833 39.6906 70.03C39.3173 70.6767 38.6673 71 37.7406 71C36.8073 71 36.1539 70.6767 35.7806 70.03C35.4073 69.3833 35.2206 68.4767 35.2206 67.31ZM39.3506 67.31C39.3506 66.73 39.3106 66.24 39.2306 65.84C39.1573 65.4333 39.0006 65.1067 38.7606 64.86C38.5273 64.6133 38.1873 64.49 37.7406 64.49C37.2873 64.49 36.9406 64.6133 36.7006 64.86C36.4673 65.1067 36.3106 65.4333 36.2306 65.84C36.1573 66.24 36.1206 66.73 36.1206 67.31C36.1206 67.91 36.1573 68.4133 36.2306 68.82C36.3106 69.2267 36.4673 69.5533 36.7006 69.8C36.9406 70.0467 37.2873 70.17 37.7406 70.17C38.1873 70.17 38.5273 70.0467 38.7606 69.8C39.0006 69.5533 39.1573 69.2267 39.2306 68.82C39.3106 68.4133 39.3506 67.91 39.3506 67.31ZM48.1159 66.95V67.72H44.1259V66.95H48.1159ZM52.0997 64.6V63.77H53.9797V71H53.0597V64.6H52.0997ZM55.3229 69.39V68.7L58.8329 63.84H59.9229V68.6H60.9229V69.39H59.9229V71H59.0229V69.39H55.3229ZM59.0629 64.79L56.3729 68.6H59.0629V64.79ZM62.2719 71.06C62.0986 71.06 61.9519 71 61.8319 70.88C61.7119 70.76 61.6519 70.6133 61.6519 70.44C61.6519 70.2667 61.7119 70.12 61.8319 70C61.9519 69.88 62.0986 69.82 62.2719 69.82C62.4386 69.82 62.5786 69.88 62.6919 70C62.8119 70.12 62.8719 70.2667 62.8719 70.44C62.8719 70.6133 62.8119 70.76 62.6919 70.88C62.5786 71 62.4386 71.06 62.2719 71.06ZM63.9315 67.31C63.9315 66.1633 64.1182 65.27 64.4915 64.63C64.8649 63.9833 65.5182 63.66 66.4515 63.66C67.3782 63.66 68.0282 63.9833 68.4015 64.63C68.7749 65.27 68.9615 66.1633 68.9615 67.31C68.9615 68.4767 68.7749 69.3833 68.4015 70.03C68.0282 70.6767 67.3782 71 66.4515 71C65.5182 71 64.8649 70.6767 64.4915 70.03C64.1182 69.3833 63.9315 68.4767 63.9315 67.31ZM68.0615 67.31C68.0615 66.73 68.0215 66.24 67.9415 65.84C67.8682 65.4333 67.7115 65.1067 67.4715 64.86C67.2382 64.6133 66.8982 64.49 66.4515 64.49C65.9982 64.49 65.6515 64.6133 65.4115 64.86C65.1782 65.1067 65.0215 65.4333 64.9415 65.84C64.8682 66.24 64.8315 66.73 64.8315 67.31C64.8315 67.91 64.8682 68.4133 64.9415 68.82C65.0215 69.2267 65.1782 69.5533 65.4115 69.8C65.6515 70.0467 65.9982 70.17 66.4515 70.17C66.8982 70.17 67.2382 70.0467 67.4715 69.8C67.7115 69.5533 67.8682 69.2267 67.9415 68.82C68.0215 68.4133 68.0615 67.91 68.0615 67.31ZM70.2108 67.31C70.2108 66.1633 70.3975 65.27 70.7708 64.63C71.1442 63.9833 71.7975 63.66 72.7308 63.66C73.6575 63.66 74.3075 63.9833 74.6808 64.63C75.0542 65.27 75.2408 66.1633 75.2408 67.31C75.2408 68.4767 75.0542 69.3833 74.6808 70.03C74.3075 70.6767 73.6575 71 72.7308 71C71.7975 71 71.1442 70.6767 70.7708 70.03C70.3975 69.3833 70.2108 68.4767 70.2108 67.31ZM74.3408 67.31C74.3408 66.73 74.3008 66.24 74.2208 65.84C74.1475 65.4333 73.9908 65.1067 73.7508 64.86C73.5175 64.6133 73.1775 64.49 72.7308 64.49C72.2775 64.49 71.9308 64.6133 71.6908 64.86C71.4575 65.1067 71.3008 65.4333 71.2208 65.84C71.1475 66.24 71.1108 66.73 71.1108 67.31C71.1108 67.91 71.1475 68.4133 71.2208 68.82C71.3008 69.2267 71.4575 69.5533 71.6908 69.8C71.9308 70.0467 72.2775 70.17 72.7308 70.17C73.1775 70.17 73.5175 70.0467 73.7508 69.8C73.9908 69.5533 74.1475 69.2267 74.2208 68.82C74.3008 68.4133 74.3408 67.91 74.3408 67.31Z" fill="white"/>
<path d="M19.624 18.66C20.512 18.66 21.288 18.832 21.952 19.176C22.624 19.512 23.14 20 23.5 20.64C23.868 21.272 24.052 22.012 24.052 22.86C24.052 23.708 23.868 24.444 23.5 25.068C23.14 25.692 22.624 26.172 21.952 26.508C21.288 26.836 20.512 27 19.624 27H16.9V18.66H19.624ZM19.624 25.884C20.6 25.884 21.348 25.62 21.868 25.092C22.388 24.564 22.648 23.82 22.648 22.86C22.648 21.892 22.388 21.136 21.868 20.592C21.348 20.048 20.6 19.776 19.624 19.776H18.268V25.884H19.624ZM28.2758 27.108C27.6518 27.108 27.0878 26.968 26.5838 26.688C26.0798 26.4 25.6838 26 25.3958 25.488C25.1078 24.968 24.9638 24.368 24.9638 23.688C24.9638 23.016 25.1118 22.42 25.4078 21.9C25.7038 21.38 26.1078 20.98 26.6198 20.7C27.1318 20.42 27.7038 20.28 28.3358 20.28C28.9678 20.28 29.5398 20.42 30.0518 20.7C30.5638 20.98 30.9678 21.38 31.2638 21.9C31.5598 22.42 31.7078 23.016 31.7078 23.688C31.7078 24.36 31.5558 24.956 31.2518 25.476C30.9478 25.996 30.5318 26.4 30.0038 26.688C29.4838 26.968 28.9078 27.108 28.2758 27.108ZM28.2758 25.92C28.6278 25.92 28.9558 25.836 29.2598 25.668C29.5718 25.5 29.8238 25.248 30.0158 24.912C30.2078 24.576 30.3038 24.168 30.3038 23.688C30.3038 23.208 30.2118 22.804 30.0278 22.476C29.8438 22.14 29.5998 21.888 29.2958 21.72C28.9918 21.552 28.6638 21.468 28.3118 21.468C27.9598 21.468 27.6318 21.552 27.3278 21.72C27.0318 21.888 26.7958 22.14 26.6198 22.476C26.4438 22.804 26.3558 23.208 26.3558 23.688C26.3558 24.4 26.5358 24.952 26.8958 25.344C27.2638 25.728 27.7238 25.92 28.2758 25.92ZM36.3962 20.28C36.9162 20.28 37.3802 20.388 37.7882 20.604C38.2042 20.82 38.5282 21.14 38.7602 21.564C38.9922 21.988 39.1082 22.5 39.1082 23.1V27H37.7522V23.304C37.7522 22.712 37.6042 22.26 37.3082 21.948C37.0122 21.628 36.6082 21.468 36.0962 21.468C35.5842 21.468 35.1762 21.628 34.8722 21.948C34.5762 22.26 34.4282 22.712 34.4282 23.304V27H33.0602V20.388H34.4282V21.144C34.6522 20.872 34.9362 20.66 35.2802 20.508C35.6322 20.356 36.0042 20.28 36.3962 20.28ZM44.1891 20.28C44.7091 20.28 45.1731 20.388 45.5811 20.604C45.9971 20.82 46.3211 21.14 46.5531 21.564C46.7851 21.988 46.9011 22.5 46.9011 23.1V27H45.5451V23.304C45.5451 22.712 45.3971 22.26 45.1011 21.948C44.8051 21.628 44.4011 21.468 43.8891 21.468C43.3771 21.468 42.9691 21.628 42.6651 21.948C42.3691 22.26 42.2211 22.712 42.2211 23.304V27H40.8531V20.388H42.2211V21.144C42.4451 20.872 42.7291 20.66 43.0731 20.508C43.4251 20.356 43.7971 20.28 44.1891 20.28ZM54.7061 23.532C54.7061 23.78 54.6901 24.004 54.6581 24.204H49.6061C49.6461 24.732 49.8421 25.156 50.1941 25.476C50.5461 25.796 50.9781 25.956 51.4901 25.956C52.2261 25.956 52.7461 25.648 53.0501 25.032H54.5261C54.3261 25.64 53.9621 26.14 53.4341 26.532C52.9141 26.916 52.2661 27.108 51.4901 27.108C50.8581 27.108 50.2901 26.968 49.7861 26.688C49.2901 26.4 48.8981 26 48.6101 25.488C48.3301 24.968 48.1901 24.368 48.1901 23.688C48.1901 23.008 48.3261 22.412 48.5981 21.9C48.8781 21.38 49.2661 20.98 49.7621 20.7C50.2661 20.42 50.8421 20.28 51.4901 20.28C52.1141 20.28 52.6701 20.416 53.1581 20.688C53.6461 20.96 54.0261 21.344 54.2981 21.84C54.5701 22.328 54.7061 22.892 54.7061 23.532ZM53.2781 23.1C53.2701 22.596 53.0901 22.192 52.7381 21.888C52.3861 21.584 51.9501 21.432 51.4301 21.432C50.9581 21.432 50.5541 21.584 50.2181 21.888C49.8821 22.184 49.6821 22.588 49.6181 23.1H53.2781ZM57.4203 21.348C57.6203 21.012 57.8843 20.752 58.2123 20.568C58.5483 20.376 58.9443 20.28 59.4003 20.28V21.696H59.0523C58.5163 21.696 58.1083 21.832 57.8283 22.104C57.5563 22.376 57.4203 22.848 57.4203 23.52V27H56.0523V20.388H57.4203V21.348ZM69.763 20.388V27H68.395V26.22C68.179 26.492 67.895 26.708 67.543 26.868C67.199 27.02 66.831 27.096 66.439 27.096C65.919 27.096 65.451 26.988 65.035 26.772C64.627 26.556 64.303 26.236 64.063 25.812C63.831 25.388 63.715 24.876 63.715 24.276V20.388H65.071V24.072C65.071 24.664 65.219 25.12 65.515 25.44C65.811 25.752 66.215 25.908 66.727 25.908C67.239 25.908 67.643 25.752 67.939 25.44C68.243 25.12 68.395 24.664 68.395 24.072V20.388H69.763ZM74.904 20.28C75.424 20.28 75.888 20.388 76.296 20.604C76.712 20.82 77.036 21.14 77.268 21.564C77.5 21.988 77.616 22.5 77.616 23.1V27H76.26V23.304C76.26 22.712 76.112 22.26 75.816 21.948C75.52 21.628 75.116 21.468 74.604 21.468C74.092 21.468 73.684 21.628 73.38 21.948C73.084 22.26 72.936 22.712 72.936 23.304V27H71.568V20.388H72.936V21.144C73.16 20.872 73.444 20.66 73.788 20.508C74.14 20.356 74.512 20.28 74.904 20.28ZM16.444 41.688C16.444 41.008 16.58 40.412 16.852 39.9C17.132 39.38 17.516 38.98 18.004 38.7C18.492 38.42 19.052 38.28 19.684 38.28C20.484 38.28 21.144 38.472 21.664 38.856C22.192 39.232 22.548 39.772 22.732 40.476H21.256C21.136 40.148 20.944 39.892 20.68 39.708C20.416 39.524 20.084 39.432 19.684 39.432C19.124 39.432 18.676 39.632 18.34 40.032C18.012 40.424 17.848 40.976 17.848 41.688C17.848 42.4 18.012 42.956 18.34 43.356C18.676 43.756 19.124 43.956 19.684 43.956C20.476 43.956 21 43.608 21.256 42.912H22.732C22.54 43.584 22.18 44.12 21.652 44.52C21.124 44.912 20.468 45.108 19.684 45.108C19.052 45.108 18.492 44.968 18.004 44.688C17.516 44.4 17.132 44 16.852 43.488C16.58 42.968 16.444 42.368 16.444 41.688ZM26.9633 45.108C26.3393 45.108 25.7753 44.968 25.2713 44.688C24.7673 44.4 24.3713 44 24.0833 43.488C23.7953 42.968 23.6513 42.368 23.6513 41.688C23.6513 41.016 23.7993 40.42 24.0953 39.9C24.3913 39.38 24.7953 38.98 25.3073 38.7C25.8193 38.42 26.3913 38.28 27.0233 38.28C27.6553 38.28 28.2273 38.42 28.7393 38.7C29.2513 38.98 29.6553 39.38 29.9513 39.9C30.2473 40.42 30.3953 41.016 30.3953 41.688C30.3953 42.36 30.2433 42.956 29.9393 43.476C29.6353 43.996 29.2193 44.4 28.6913 44.688C28.1713 44.968 27.5953 45.108 26.9633 45.108ZM26.9633 43.92C27.3153 43.92 27.6433 43.836 27.9473 43.668C28.2593 43.5 28.5113 43.248 28.7033 42.912C28.8953 42.576 28.9913 42.168 28.9913 41.688C28.9913 41.208 28.8993 40.804 28.7153 40.476C28.5313 40.14 28.2873 39.888 27.9833 39.72C27.6793 39.552 27.3513 39.468 26.9993 39.468C26.6473 39.468 26.3193 39.552 26.0153 39.72C25.7193 39.888 25.4833 40.14 25.3073 40.476C25.1313 40.804 25.0433 41.208 25.0433 41.688C25.0433 42.4 25.2233 42.952 25.5833 43.344C25.9513 43.728 26.4113 43.92 26.9633 43.92ZM37.7357 38.388V45H36.3677V44.22C36.1517 44.492 35.8677 44.708 35.5157 44.868C35.1717 45.02 34.8037 45.096 34.4117 45.096C33.8917 45.096 33.4237 44.988 33.0077 44.772C32.5997 44.556 32.2757 44.236 32.0357 43.812C31.8037 43.388 31.6877 42.876 31.6877 42.276V38.388H33.0437V42.072C33.0437 42.664 33.1917 43.12 33.4877 43.44C33.7837 43.752 34.1877 43.908 34.6997 43.908C35.2117 43.908 35.6157 43.752 35.9117 43.44C36.2157 43.12 36.3677 42.664 36.3677 42.072V38.388H37.7357ZM40.9086 39.348C41.1086 39.012 41.3726 38.752 41.7006 38.568C42.0366 38.376 42.4326 38.28 42.8886 38.28V39.696H42.5406C42.0046 39.696 41.5966 39.832 41.3166 40.104C41.0446 40.376 40.9086 40.848 40.9086 41.52V45H39.5406V38.388H40.9086V39.348ZM46.5461 45.108C46.0261 45.108 45.5581 45.016 45.1421 44.832C44.7341 44.64 44.4101 44.384 44.1701 44.064C43.9301 43.736 43.8021 43.372 43.7861 42.972H45.2021C45.2261 43.252 45.3581 43.488 45.5981 43.68C45.8461 43.864 46.1541 43.956 46.5221 43.956C46.9061 43.956 47.2021 43.884 47.4101 43.74C47.6261 43.588 47.7341 43.396 47.7341 43.164C47.7341 42.916 47.6141 42.732 47.3741 42.612C47.1421 42.492 46.7701 42.36 46.2581 42.216C45.7621 42.08 45.3581 41.948 45.0461 41.82C44.7341 41.692 44.4621 41.496 44.2301 41.232C44.0061 40.968 43.8941 40.62 43.8941 40.188C43.8941 39.836 43.9981 39.516 44.2061 39.228C44.4141 38.932 44.7101 38.7 45.0941 38.532C45.4861 38.364 45.9341 38.28 46.4381 38.28C47.1901 38.28 47.7941 38.472 48.2501 38.856C48.7141 39.232 48.9621 39.748 48.9941 40.404H47.6261C47.6021 40.108 47.4821 39.872 47.2661 39.696C47.0501 39.52 46.7581 39.432 46.3901 39.432C46.0301 39.432 45.7541 39.5 45.5621 39.636C45.3701 39.772 45.2741 39.952 45.2741 40.176C45.2741 40.352 45.3381 40.5 45.4661 40.62C45.5941 40.74 45.7501 40.836 45.9341 40.908C46.1181 40.972 46.3901 41.056 46.7501 41.16C47.2301 41.288 47.6221 41.42 47.9261 41.556C48.2381 41.684 48.5061 41.876 48.7301 42.132C48.9541 42.388 49.0701 42.728 49.0781 43.152C49.0781 43.528 48.9741 43.864 48.7661 44.16C48.5581 44.456 48.2621 44.688 47.8781 44.856C47.5021 45.024 47.0581 45.108 46.5461 45.108ZM59.7334 41.532C59.7334 41.78 59.7174 42.004 59.6854 42.204H54.6334C54.6734 42.732 54.8694 43.156 55.2214 43.476C55.5734 43.796 56.0054 43.956 56.5174 43.956C57.2534 43.956 57.7734 43.648 58.0774 43.032H59.5534C59.3534 43.64 58.9894 44.14 58.4614 44.532C57.9414 44.916 57.2934 45.108 56.5174 45.108C55.8854 45.108 55.3174 44.968 54.8134 44.688C54.3174 44.4 53.9254 44 53.6374 43.488C53.3574 42.968 53.2174 42.368 53.2174 41.688C53.2174 41.008 53.3534 40.412 53.6254 39.9C53.9054 39.38 54.2934 38.98 54.7894 38.7C55.2934 38.42 55.8694 38.28 56.5174 38.28C57.1414 38.28 57.6974 38.416 58.1854 38.688C58.6734 38.96 59.0534 39.344 59.3254 39.84C59.5974 40.328 59.7334 40.892 59.7334 41.532ZM58.3054 41.1C58.2974 40.596 58.1174 40.192 57.7654 39.888C57.4134 39.584 56.9774 39.432 56.4574 39.432C55.9854 39.432 55.5814 39.584 55.2454 39.888C54.9094 40.184 54.7094 40.588 54.6454 41.1H58.3054ZM64.4157 38.28C64.9357 38.28 65.3997 38.388 65.8077 38.604C66.2237 38.82 66.5477 39.14 66.7797 39.564C67.0117 39.988 67.1277 40.5 67.1277 41.1V45H65.7717V41.304C65.7717 40.712 65.6237 40.26 65.3277 39.948C65.0317 39.628 64.6277 39.468 64.1157 39.468C63.6037 39.468 63.1957 39.628 62.8917 39.948C62.5957 40.26 62.4477 40.712 62.4477 41.304V45H61.0797V38.388H62.4477V39.144C62.6717 38.872 62.9557 38.66 63.2997 38.508C63.6517 38.356 64.0237 38.28 64.4157 38.28ZM73.3578 36.12V45H71.9898V36.12H73.3578ZM75.8499 37.512C75.6019 37.512 75.3939 37.428 75.2259 37.26C75.0579 37.092 74.9739 36.884 74.9739 36.636C74.9739 36.388 75.0579 36.18 75.2259 36.012C75.3939 35.844 75.6019 35.76 75.8499 35.76C76.0899 35.76 76.2939 35.844 76.4619 36.012C76.6299 36.18 76.7139 36.388 76.7139 36.636C76.7139 36.884 76.6299 37.092 76.4619 37.26C76.2939 37.428 76.0899 37.512 75.8499 37.512ZM76.5219 38.388V45H75.1539V38.388H76.5219ZM80.982 38.28C81.494 38.28 81.946 38.384 82.338 38.592C82.738 38.792 83.05 39.044 83.274 39.348V38.388H84.654V45.108C84.654 45.716 84.526 46.256 84.27 46.728C84.014 47.208 83.642 47.584 83.154 47.856C82.674 48.128 82.098 48.264 81.426 48.264C80.53 48.264 79.786 48.052 79.194 47.628C78.602 47.212 78.266 46.644 78.186 45.924H79.542C79.646 46.268 79.866 46.544 80.202 46.752C80.546 46.968 80.954 47.076 81.426 47.076C81.978 47.076 82.422 46.908 82.758 46.572C83.102 46.236 83.274 45.748 83.274 45.108V44.004C83.042 44.316 82.726 44.58 82.326 44.796C81.934 45.004 81.486 45.108 80.982 45.108C80.406 45.108 79.878 44.964 79.398 44.676C78.926 44.38 78.55 43.972 78.27 43.452C77.998 42.924 77.862 42.328 77.862 41.664C77.862 41 77.998 40.412 78.27 39.9C78.55 39.388 78.926 38.992 79.398 38.712C79.878 38.424 80.406 38.28 80.982 38.28ZM83.274 41.688C83.274 41.232 83.178 40.836 82.986 40.5C82.802 40.164 82.558 39.908 82.254 39.732C81.95 39.556 81.622 39.468 81.27 39.468C80.918 39.468 80.59 39.556 80.286 39.732C79.982 39.9 79.734 40.152 79.542 40.488C79.358 40.816 79.266 41.208 79.266 41.664C79.266 42.12 79.358 42.52 79.542 42.864C79.734 43.208 79.982 43.472 80.286 43.656C80.598 43.832 80.926 43.92 81.27 43.92C81.622 43.92 81.95 43.832 82.254 43.656C82.558 43.48 82.802 43.224 82.986 42.888C83.178 42.544 83.274 42.144 83.274 41.688ZM89.7868 38.28C90.3068 38.28 90.7708 38.388 91.1788 38.604C91.5948 38.82 91.9188 39.14 92.1508 39.564C92.3828 39.988 92.4988 40.5 92.4988 41.1V45H91.1428V41.304C91.1428 40.712 90.9948 40.26 90.6988 39.948C90.4028 39.628 89.9988 39.468 89.4868 39.468C88.9748 39.468 88.5668 39.628 88.2628 39.948C87.9668 40.26 87.8188 40.712 87.8188 41.304V45H86.4508V38.388H87.8188V39.144C88.0428 38.872 88.3268 38.66 88.6708 38.508C89.0228 38.356 89.3948 38.28 89.7868 38.28ZM100.304 41.532C100.304 41.78 100.288 42.004 100.256 42.204H95.2038C95.2438 42.732 95.4398 43.156 95.7918 43.476C96.1438 43.796 96.5758 43.956 97.0878 43.956C97.8238 43.956 98.3438 43.648 98.6478 43.032H100.124C99.9238 43.64 99.5598 44.14 99.0318 44.532C98.5118 44.916 97.8638 45.108 97.0878 45.108C96.4558 45.108 95.8878 44.968 95.3838 44.688C94.8878 44.4 94.4958 44 94.2078 43.488C93.9278 42.968 93.7878 42.368 93.7878 41.688C93.7878 41.008 93.9238 40.412 94.1958 39.9C94.4758 39.38 94.8638 38.98 95.3598 38.7C95.8638 38.42 96.4398 38.28 97.0878 38.28C97.7118 38.28 98.2678 38.416 98.7558 38.688C99.2438 38.96 99.6238 39.344 99.8958 39.84C100.168 40.328 100.304 40.892 100.304 41.532ZM98.8758 41.1C98.8678 40.596 98.6878 40.192 98.3358 39.888C97.9838 39.584 97.5478 39.432 97.0278 39.432C96.5558 39.432 96.1518 39.584 95.8158 39.888C95.4798 40.184 95.2798 40.588 95.2158 41.1H98.8758Z" fill="white"/>
</g>
<defs>
<clipPath id="clip0_43_782">
<rect width="135" height="205" rx="22" fill="white"/>
</clipPath>
</defs>
</svg>
