<svg width="331" height="56" viewBox="0 0 331 56" fill="none" xmlns="http://www.w3.org/2000/svg">
<rect x="113" width="105" height="56" rx="8" fill="white"/>
<path d="M156.42 30.4656L155.597 33.537L152.59 33.6007C151.692 31.9338 151.182 30.0267 151.182 28C151.182 26.0403 151.658 24.1922 152.503 22.565H152.504L155.181 23.0558L156.354 25.7169C156.108 26.4325 155.975 27.2007 155.975 28C155.975 28.8676 156.132 29.6988 156.42 30.4656Z" fill="#FBBB00"/>
<path d="M174.612 25.7922C174.747 26.5071 174.818 27.2454 174.818 28C174.818 28.8461 174.729 29.6714 174.56 30.4675C173.984 33.1766 172.481 35.5422 170.399 37.2162L170.398 37.2156L167.026 37.0435L166.549 34.0643C167.931 33.2539 169.01 31.9857 169.579 30.4675H163.26V25.7922H169.672H174.612Z" fill="#518EF8"/>
<path d="M170.398 37.2156L170.399 37.2163C168.373 38.8442 165.801 39.8182 163 39.8182C158.499 39.8182 154.586 37.3026 152.59 33.6007L156.42 30.4656C157.418 33.1293 159.988 35.0254 163 35.0254C164.295 35.0254 165.508 34.6754 166.549 34.0643L170.398 37.2156Z" fill="#28B446"/>
<path d="M170.544 18.9026L166.715 22.037C165.638 21.3636 164.364 20.9747 163 20.9747C159.92 20.9747 157.302 22.9578 156.354 25.7169L152.504 22.5649H152.503C154.47 18.7727 158.433 16.1818 163 16.1818C165.868 16.1818 168.497 17.2033 170.544 18.9026Z" fill="#F14336"/>
<rect width="105" height="56" rx="8" fill="white"/>
<path d="M51.7956 40.0001V29.0703H55.3496L55.8779 24.791H51.7956V22.0652C51.7956 20.8304 52.1272 19.9849 53.8355 19.9849H56V16.1696C54.9468 16.0525 53.8882 15.996 52.829 16.0003C49.6877 16.0003 47.5308 17.9899 47.5308 21.6425V24.783H44V29.0623H47.5386V40.0001H51.7956Z" fill="#4092FF"/>
<rect x="226" width="105" height="56" rx="8" fill="white"/>
<g clip-path="url(#clip0_119_458)">
<rect width="26" height="26" transform="translate(263 15)" fill="white"/>
<path d="M270.668 40.5133C270.156 40.1723 269.701 39.7509 269.323 39.2653C268.906 38.7641 268.521 38.2383 268.167 37.6907C267.339 36.4767 266.689 35.1498 266.238 33.7509C265.696 32.1259 265.433 30.5683 265.433 29.0449C265.433 27.3435 265.801 25.8582 266.521 24.6102C267.055 23.6348 267.84 22.8196 268.794 22.2491C269.719 21.6747 270.781 21.3603 271.87 21.3391C272.251 21.3391 272.661 21.3944 273.097 21.5C273.41 21.5886 273.791 21.7283 274.256 21.9022C274.849 22.1305 275.174 22.2702 275.285 22.3044C275.632 22.4311 275.924 22.4864 276.153 22.4864C276.327 22.4864 276.572 22.4311 276.851 22.3466C277.007 22.2914 277.303 22.1939 277.727 22.0127C278.146 21.8599 278.476 21.7291 278.738 21.6316C279.14 21.513 279.529 21.4033 279.876 21.3481C280.288 21.2832 280.705 21.266 281.12 21.2969C281.84 21.3439 282.549 21.4964 283.224 21.7494C284.328 22.1939 285.221 22.8877 285.886 23.8741C285.605 24.0473 285.341 24.247 285.098 24.4705C284.57 24.939 284.12 25.4889 283.765 26.0996C283.301 26.934 283.061 27.8741 283.067 28.8287C283.084 30.0012 283.385 31.0339 283.977 31.9268C284.413 32.5886 284.978 33.1545 285.64 33.59C285.979 33.8183 286.271 33.9751 286.55 34.0807C286.419 34.487 286.28 34.8802 286.115 35.2702C285.741 36.1448 285.287 36.9833 284.76 37.7752C284.291 38.4569 283.923 38.9647 283.643 39.3027C283.208 39.8186 282.788 40.2127 282.365 40.4873C281.9 40.7961 281.349 40.961 280.79 40.961C280.412 40.9755 280.033 40.9297 279.669 40.8253C279.356 40.7197 279.047 40.6051 278.742 40.4743C278.425 40.3288 278.099 40.2058 277.765 40.1062C276.939 39.8941 276.073 39.8928 275.247 40.1022C274.908 40.1997 274.582 40.3134 274.26 40.4532C273.808 40.6433 273.507 40.7709 273.333 40.8253C272.986 40.9269 272.626 40.9902 272.262 41.0114C271.699 41.0114 271.175 40.8505 270.655 40.5247L270.668 40.5133ZM278.095 20.5136C277.358 20.8817 276.656 21.0385 275.958 20.9873C275.848 20.2845 275.958 19.5654 276.249 18.7781C276.498 18.1111 276.865 17.4945 277.332 16.9581C277.826 16.3934 278.426 15.9306 279.097 15.5956C279.812 15.2275 280.494 15.0284 281.146 14.9992C281.23 15.7353 281.146 16.4592 280.875 17.2417C280.625 17.9333 280.258 18.5774 279.792 19.1462C279.316 19.7116 278.732 20.1763 278.073 20.5128L278.095 20.5136Z" fill="black"/>
</g>
<defs>
<clipPath id="clip0_119_458">
<rect width="26" height="26" fill="white" transform="translate(263 15)"/>
</clipPath>
</defs>
</svg>
