<svg width="135" height="205" viewBox="0 0 135 205" fill="none" xmlns="http://www.w3.org/2000/svg">
<g clip-path="url(#clip0_417_818)">
<rect width="135" height="205" rx="22" fill="#2ED82E"/>
<path d="M12.795 64.6V63.77H14.675V71H13.755V64.6H12.795ZM17.5582 67.24C17.1848 67.0933 16.8982 66.88 16.6982 66.6C16.4982 66.32 16.3982 65.98 16.3982 65.58C16.3982 65.22 16.4882 64.8967 16.6682 64.61C16.8482 64.3167 17.1148 64.0867 17.4682 63.92C17.8282 63.7467 18.2615 63.66 18.7682 63.66C19.2748 63.66 19.7048 63.7467 20.0582 63.92C20.4182 64.0867 20.6882 64.3167 20.8682 64.61C21.0548 64.8967 21.1482 65.22 21.1482 65.58C21.1482 65.9667 21.0448 66.3067 20.8382 66.6C20.6315 66.8867 20.3482 67.1 19.9882 67.24C20.4015 67.3667 20.7282 67.59 20.9682 67.91C21.2148 68.2233 21.3382 68.6033 21.3382 69.05C21.3382 69.4833 21.2315 69.8633 21.0182 70.19C20.8048 70.51 20.5015 70.76 20.1082 70.94C19.7215 71.1133 19.2748 71.2 18.7682 71.2C18.2615 71.2 17.8148 71.1133 17.4282 70.94C17.0482 70.76 16.7515 70.51 16.5382 70.19C16.3248 69.8633 16.2182 69.4833 16.2182 69.05C16.2182 68.6033 16.3382 68.22 16.5782 67.9C16.8182 67.58 17.1448 67.36 17.5582 67.24ZM20.2682 65.69C20.2682 65.2833 20.1348 64.97 19.8682 64.75C19.6015 64.53 19.2348 64.42 18.7682 64.42C18.3082 64.42 17.9448 64.53 17.6782 64.75C17.4115 64.97 17.2782 65.2867 17.2782 65.7C17.2782 66.0733 17.4148 66.3733 17.6882 66.6C17.9682 66.8267 18.3282 66.94 18.7682 66.94C19.2148 66.94 19.5748 66.8267 19.8482 66.6C20.1282 66.3667 20.2682 66.0633 20.2682 65.69ZM18.7682 67.64C18.2748 67.64 17.8715 67.7567 17.5582 67.99C17.2448 68.2167 17.0882 68.56 17.0882 69.02C17.0882 69.4467 17.2382 69.79 17.5382 70.05C17.8448 70.31 18.2548 70.44 18.7682 70.44C19.2815 70.44 19.6882 70.31 19.9882 70.05C20.2882 69.79 20.4382 69.4467 20.4382 69.02C20.4382 68.5733 20.2848 68.2333 19.9782 68C19.6715 67.76 19.2682 67.64 18.7682 67.64ZM22.9868 71.06C22.8134 71.06 22.6668 71 22.5468 70.88C22.4268 70.76 22.3668 70.6133 22.3668 70.44C22.3668 70.2667 22.4268 70.12 22.5468 70C22.6668 69.88 22.8134 69.82 22.9868 69.82C23.1534 69.82 23.2934 69.88 23.4068 70C23.5268 70.12 23.5868 70.2667 23.5868 70.44C23.5868 70.6133 23.5268 70.76 23.4068 70.88C23.2934 71 23.1534 71.06 22.9868 71.06ZM24.6464 67.31C24.6464 66.1633 24.833 65.27 25.2064 64.63C25.5797 63.9833 26.233 63.66 27.1664 63.66C28.093 63.66 28.743 63.9833 29.1164 64.63C29.4897 65.27 29.6764 66.1633 29.6764 67.31C29.6764 68.4767 29.4897 69.3833 29.1164 70.03C28.743 70.6767 28.093 71 27.1664 71C26.233 71 25.5797 70.6767 25.2064 70.03C24.833 69.3833 24.6464 68.4767 24.6464 67.31ZM28.7764 67.31C28.7764 66.73 28.7364 66.24 28.6564 65.84C28.583 65.4333 28.4264 65.1067 28.1864 64.86C27.953 64.6133 27.613 64.49 27.1664 64.49C26.713 64.49 26.3664 64.6133 26.1264 64.86C25.893 65.1067 25.7364 65.4333 25.6564 65.84C25.583 66.24 25.5464 66.73 25.5464 67.31C25.5464 67.91 25.583 68.4133 25.6564 68.82C25.7364 69.2267 25.893 69.5533 26.1264 69.8C26.3664 70.0467 26.713 70.17 27.1664 70.17C27.613 70.17 27.953 70.0467 28.1864 69.8C28.4264 69.5533 28.583 69.2267 28.6564 68.82C28.7364 68.4133 28.7764 67.91 28.7764 67.31ZM30.9257 67.31C30.9257 66.1633 31.1123 65.27 31.4857 64.63C31.859 63.9833 32.5123 63.66 33.4457 63.66C34.3723 63.66 35.0223 63.9833 35.3957 64.63C35.769 65.27 35.9557 66.1633 35.9557 67.31C35.9557 68.4767 35.769 69.3833 35.3957 70.03C35.0223 70.6767 34.3723 71 33.4457 71C32.5123 71 31.859 70.6767 31.4857 70.03C31.1123 69.3833 30.9257 68.4767 30.9257 67.31ZM35.0557 67.31C35.0557 66.73 35.0157 66.24 34.9357 65.84C34.8623 65.4333 34.7057 65.1067 34.4657 64.86C34.2323 64.6133 33.8923 64.49 33.4457 64.49C32.9923 64.49 32.6457 64.6133 32.4057 64.86C32.1723 65.1067 32.0157 65.4333 31.9357 65.84C31.8623 66.24 31.8257 66.73 31.8257 67.31C31.8257 67.91 31.8623 68.4133 31.9357 68.82C32.0157 69.2267 32.1723 69.5533 32.4057 69.8C32.6457 70.0467 32.9923 70.17 33.4457 70.17C33.8923 70.17 34.2323 70.0467 34.4657 69.8C34.7057 69.5533 34.8623 69.2267 34.9357 68.82C35.0157 68.4133 35.0557 67.91 35.0557 67.31ZM43.821 66.95V67.72H39.831V66.95H43.821ZM47.8048 64.6V63.77H49.6848V71H48.7648V64.6H47.8048ZM52.4179 69.06C52.4846 69.44 52.6379 69.7333 52.8779 69.94C53.1246 70.1467 53.4546 70.25 53.8679 70.25C54.4213 70.25 54.8279 70.0333 55.0879 69.6C55.3546 69.1667 55.4813 68.4367 55.4679 67.41C55.3279 67.71 55.0946 67.9467 54.7679 68.12C54.4413 68.2867 54.0779 68.37 53.6779 68.37C53.2313 68.37 52.8313 68.28 52.4779 68.1C52.1313 67.9133 51.8579 67.6433 51.6579 67.29C51.4579 66.9367 51.3579 66.51 51.3579 66.01C51.3579 65.2967 51.5646 64.7233 51.9779 64.29C52.3913 63.85 52.9779 63.63 53.7379 63.63C54.6713 63.63 55.3246 63.9333 55.6979 64.54C56.0779 65.1467 56.2679 66.05 56.2679 67.25C56.2679 68.09 56.1913 68.7833 56.0379 69.33C55.8913 69.8767 55.6379 70.2933 55.2779 70.58C54.9246 70.8667 54.4379 71.01 53.8179 71.01C53.1379 71.01 52.6079 70.8267 52.2279 70.46C51.8479 70.0933 51.6313 69.6267 51.5779 69.06H52.4179ZM53.8279 67.6C54.2746 67.6 54.6413 67.4633 54.9279 67.19C55.2146 66.91 55.3579 66.5333 55.3579 66.06C55.3579 65.56 55.2179 65.1567 54.9379 64.85C54.6579 64.5433 54.2646 64.39 53.7579 64.39C53.2913 64.39 52.9179 64.5367 52.6379 64.83C52.3646 65.1233 52.2279 65.51 52.2279 65.99C52.2279 66.4767 52.3646 66.8667 52.6379 67.16C52.9113 67.4533 53.3079 67.6 53.8279 67.6ZM57.9868 71.06C57.8134 71.06 57.6668 71 57.5468 70.88C57.4268 70.76 57.3668 70.6133 57.3668 70.44C57.3668 70.2667 57.4268 70.12 57.5468 70C57.6668 69.88 57.8134 69.82 57.9868 69.82C58.1534 69.82 58.2934 69.88 58.4068 70C58.5268 70.12 58.5868 70.2667 58.5868 70.44C58.5868 70.6133 58.5268 70.76 58.4068 70.88C58.2934 71 58.1534 71.06 57.9868 71.06ZM59.6464 67.31C59.6464 66.1633 59.833 65.27 60.2064 64.63C60.5797 63.9833 61.233 63.66 62.1664 63.66C63.093 63.66 63.743 63.9833 64.1164 64.63C64.4897 65.27 64.6764 66.1633 64.6764 67.31C64.6764 68.4767 64.4897 69.3833 64.1164 70.03C63.743 70.6767 63.093 71 62.1664 71C61.233 71 60.5797 70.6767 60.2064 70.03C59.833 69.3833 59.6464 68.4767 59.6464 67.31ZM63.7764 67.31C63.7764 66.73 63.7364 66.24 63.6564 65.84C63.583 65.4333 63.4264 65.1067 63.1864 64.86C62.953 64.6133 62.613 64.49 62.1664 64.49C61.713 64.49 61.3664 64.6133 61.1264 64.86C60.893 65.1067 60.7364 65.4333 60.6564 65.84C60.583 66.24 60.5464 66.73 60.5464 67.31C60.5464 67.91 60.583 68.4133 60.6564 68.82C60.7364 69.2267 60.893 69.5533 61.1264 69.8C61.3664 70.0467 61.713 70.17 62.1664 70.17C62.613 70.17 62.953 70.0467 63.1864 69.8C63.4264 69.5533 63.583 69.2267 63.6564 68.82C63.7364 68.4133 63.7764 67.91 63.7764 67.31ZM65.9257 67.31C65.9257 66.1633 66.1123 65.27 66.4857 64.63C66.859 63.9833 67.5123 63.66 68.4457 63.66C69.3723 63.66 70.0223 63.9833 70.3957 64.63C70.769 65.27 70.9557 66.1633 70.9557 67.31C70.9557 68.4767 70.769 69.3833 70.3957 70.03C70.0223 70.6767 69.3723 71 68.4457 71C67.5123 71 66.859 70.6767 66.4857 70.03C66.1123 69.3833 65.9257 68.4767 65.9257 67.31ZM70.0557 67.31C70.0557 66.73 70.0157 66.24 69.9357 65.84C69.8623 65.4333 69.7057 65.1067 69.4657 64.86C69.2323 64.6133 68.8923 64.49 68.4457 64.49C67.9923 64.49 67.6457 64.6133 67.4057 64.86C67.1723 65.1067 67.0157 65.4333 66.9357 65.84C66.8623 66.24 66.8257 66.73 66.8257 67.31C66.8257 67.91 66.8623 68.4133 66.9357 68.82C67.0157 69.2267 67.1723 69.5533 67.4057 69.8C67.6457 70.0467 67.9923 70.17 68.4457 70.17C68.8923 70.17 69.2323 70.0467 69.4657 69.8C69.7057 69.5533 69.8623 69.2267 69.9357 68.82C70.0157 68.4133 70.0557 67.91 70.0557 67.31Z" fill="white"/>
<path d="M21.448 18.66V24.672C21.448 25.416 21.22 26.004 20.764 26.436C20.316 26.868 19.724 27.084 18.988 27.084C18.252 27.084 17.656 26.868 17.2 26.436C16.752 26.004 16.528 25.416 16.528 24.672H17.908C17.916 25.04 18.008 25.332 18.184 25.548C18.368 25.764 18.636 25.872 18.988 25.872C19.34 25.872 19.608 25.764 19.792 25.548C19.976 25.324 20.068 25.032 20.068 24.672V18.66H21.448ZM26.5414 27.108C25.9174 27.108 25.3534 26.968 24.8494 26.688C24.3454 26.4 23.9494 26 23.6614 25.488C23.3734 24.968 23.2294 24.368 23.2294 23.688C23.2294 23.016 23.3774 22.42 23.6734 21.9C23.9694 21.38 24.3734 20.98 24.8854 20.7C25.3974 20.42 25.9694 20.28 26.6014 20.28C27.2334 20.28 27.8054 20.42 28.3174 20.7C28.8294 20.98 29.2334 21.38 29.5294 21.9C29.8254 22.42 29.9734 23.016 29.9734 23.688C29.9734 24.36 29.8214 24.956 29.5174 25.476C29.2134 25.996 28.7974 26.4 28.2694 26.688C27.7494 26.968 27.1734 27.108 26.5414 27.108ZM26.5414 25.92C26.8934 25.92 27.2214 25.836 27.5254 25.668C27.8374 25.5 28.0894 25.248 28.2814 24.912C28.4734 24.576 28.5694 24.168 28.5694 23.688C28.5694 23.208 28.4774 22.804 28.2934 22.476C28.1094 22.14 27.8654 21.888 27.5614 21.72C27.2574 21.552 26.9294 21.468 26.5774 21.468C26.2254 21.468 25.8974 21.552 25.5934 21.72C25.2974 21.888 25.0614 22.14 24.8854 22.476C24.7094 22.804 24.6214 23.208 24.6214 23.688C24.6214 24.4 24.8014 24.952 25.1614 25.344C25.5294 25.728 25.9894 25.92 26.5414 25.92ZM37.3138 20.388V27H35.9458V26.22C35.7298 26.492 35.4458 26.708 35.0938 26.868C34.7498 27.02 34.3818 27.096 33.9898 27.096C33.4698 27.096 33.0018 26.988 32.5858 26.772C32.1778 26.556 31.8538 26.236 31.6138 25.812C31.3818 25.388 31.2658 24.876 31.2658 24.276V20.388H32.6218V24.072C32.6218 24.664 32.7698 25.12 33.0658 25.44C33.3618 25.752 33.7658 25.908 34.2778 25.908C34.7898 25.908 35.1938 25.752 35.4898 25.44C35.7938 25.12 35.9458 24.664 35.9458 24.072V20.388H37.3138ZM45.1788 23.532C45.1788 23.78 45.1628 24.004 45.1308 24.204H40.0788C40.1188 24.732 40.3148 25.156 40.6668 25.476C41.0188 25.796 41.4508 25.956 41.9628 25.956C42.6988 25.956 43.2188 25.648 43.5228 25.032H44.9987C44.7988 25.64 44.4348 26.14 43.9068 26.532C43.3868 26.916 42.7388 27.108 41.9628 27.108C41.3308 27.108 40.7628 26.968 40.2588 26.688C39.7628 26.4 39.3708 26 39.0828 25.488C38.8028 24.968 38.6628 24.368 38.6628 23.688C38.6628 23.008 38.7988 22.412 39.0708 21.9C39.3508 21.38 39.7388 20.98 40.2348 20.7C40.7388 20.42 41.3148 20.28 41.9628 20.28C42.5868 20.28 43.1428 20.416 43.6308 20.688C44.1188 20.96 44.4988 21.344 44.7708 21.84C45.0428 22.328 45.1788 22.892 45.1788 23.532ZM43.7508 23.1C43.7428 22.596 43.5628 22.192 43.2108 21.888C42.8588 21.584 42.4228 21.432 41.9028 21.432C41.4308 21.432 41.0268 21.584 40.6908 21.888C40.3548 22.184 40.1548 22.588 40.0908 23.1H43.7508ZM47.893 21.348C48.093 21.012 48.357 20.752 48.685 20.568C49.021 20.376 49.417 20.28 49.873 20.28V21.696H49.525C48.989 21.696 48.581 21.832 48.301 22.104C48.029 22.376 47.893 22.848 47.893 23.52V27H46.525V20.388H47.893V21.348ZM53.7917 23.664C53.7917 23 53.9277 22.412 54.1997 21.9C54.4797 21.388 54.8557 20.992 55.3277 20.712C55.8077 20.424 56.3357 20.28 56.9117 20.28C57.4317 20.28 57.8837 20.384 58.2677 20.592C58.6597 20.792 58.9717 21.044 59.2037 21.348V20.388H60.5837V27H59.2037V26.016C58.9717 26.328 58.6557 26.588 58.2557 26.796C57.8557 27.004 57.3997 27.108 56.8877 27.108C56.3197 27.108 55.7997 26.964 55.3277 26.676C54.8557 26.38 54.4797 25.972 54.1997 25.452C53.9277 24.924 53.7917 24.328 53.7917 23.664ZM59.2037 23.688C59.2037 23.232 59.1077 22.836 58.9157 22.5C58.7317 22.164 58.4877 21.908 58.1837 21.732C57.8797 21.556 57.5517 21.468 57.1997 21.468C56.8477 21.468 56.5197 21.556 56.2157 21.732C55.9117 21.9 55.6637 22.152 55.4717 22.488C55.2877 22.816 55.1957 23.208 55.1957 23.664C55.1957 24.12 55.2877 24.52 55.4717 24.864C55.6637 25.208 55.9117 25.472 56.2157 25.656C56.5277 25.832 56.8557 25.92 57.1997 25.92C57.5517 25.92 57.8797 25.832 58.1837 25.656C58.4877 25.48 58.7317 25.224 58.9157 24.888C59.1077 24.544 59.2037 24.144 59.2037 23.688ZM64.9365 25.776L66.8085 20.388H68.2605L65.7405 27H64.1085L61.6005 20.388H63.0645L64.9365 25.776ZM75.3545 23.532C75.3545 23.78 75.3385 24.004 75.3065 24.204H70.2545C70.2945 24.732 70.4905 25.156 70.8425 25.476C71.1945 25.796 71.6265 25.956 72.1385 25.956C72.8745 25.956 73.3945 25.648 73.6985 25.032H75.1745C74.9745 25.64 74.6105 26.14 74.0825 26.532C73.5625 26.916 72.9145 27.108 72.1385 27.108C71.5065 27.108 70.9385 26.968 70.4345 26.688C69.9385 26.4 69.5465 26 69.2585 25.488C68.9785 24.968 68.8385 24.368 68.8385 23.688C68.8385 23.008 68.9745 22.412 69.2465 21.9C69.5265 21.38 69.9145 20.98 70.4105 20.7C70.9145 20.42 71.4905 20.28 72.1385 20.28C72.7625 20.28 73.3185 20.416 73.8065 20.688C74.2945 20.96 74.6745 21.344 74.9465 21.84C75.2185 22.328 75.3545 22.892 75.3545 23.532ZM73.9265 23.1C73.9185 22.596 73.7385 22.192 73.3865 21.888C73.0345 21.584 72.5985 21.432 72.0785 21.432C71.6065 21.432 71.2025 21.584 70.8665 21.888C70.5305 22.184 70.3305 22.588 70.2665 23.1H73.9265ZM76.2448 23.688C76.2448 23.008 76.3808 22.412 76.6528 21.9C76.9328 21.38 77.3168 20.98 77.8048 20.7C78.2928 20.42 78.8528 20.28 79.4848 20.28C80.2848 20.28 80.9448 20.472 81.4648 20.856C81.9928 21.232 82.3488 21.772 82.5328 22.476H81.0568C80.9368 22.148 80.7448 21.892 80.4808 21.708C80.2168 21.524 79.8848 21.432 79.4848 21.432C78.9248 21.432 78.4768 21.632 78.1408 22.032C77.8128 22.424 77.6488 22.976 77.6488 23.688C77.6488 24.4 77.8128 24.956 78.1408 25.356C78.4768 25.756 78.9248 25.956 79.4848 25.956C80.2768 25.956 80.8008 25.608 81.0568 24.912H82.5328C82.3408 25.584 81.9808 26.12 81.4528 26.52C80.9248 26.912 80.2688 27.108 79.4848 27.108C78.8528 27.108 78.2928 26.968 77.8048 26.688C77.3168 26.4 76.9328 26 76.6528 25.488C76.3808 24.968 76.2448 24.368 76.2448 23.688ZM88.3813 18.12V27H87.0133V18.12H88.3813ZM96.2373 23.532C96.2373 23.78 96.2213 24.004 96.1893 24.204H91.1373C91.1773 24.732 91.3733 25.156 91.7253 25.476C92.0773 25.796 92.5093 25.956 93.0213 25.956C93.7573 25.956 94.2773 25.648 94.5813 25.032H96.0573C95.8573 25.64 95.4933 26.14 94.9653 26.532C94.4453 26.916 93.7973 27.108 93.0213 27.108C92.3893 27.108 91.8213 26.968 91.3173 26.688C90.8213 26.4 90.4293 26 90.1413 25.488C89.8613 24.968 89.7213 24.368 89.7213 23.688C89.7213 23.008 89.8573 22.412 90.1293 21.9C90.4093 21.38 90.7973 20.98 91.2933 20.7C91.7973 20.42 92.3733 20.28 93.0213 20.28C93.6453 20.28 94.2013 20.416 94.6893 20.688C95.1773 20.96 95.5573 21.344 95.8293 21.84C96.1013 22.328 96.2373 22.892 96.2373 23.532ZM94.8093 23.1C94.8013 22.596 94.6213 22.192 94.2693 21.888C93.9173 21.584 93.4813 21.432 92.9613 21.432C92.4893 21.432 92.0853 21.584 91.7493 21.888C91.4133 22.184 91.2133 22.588 91.1493 23.1H94.8093ZM99.9836 27.108C99.4636 27.108 98.9956 27.016 98.5796 26.832C98.1716 26.64 97.8476 26.384 97.6076 26.064C97.3676 25.736 97.2396 25.372 97.2236 24.972H98.6396C98.6636 25.252 98.7956 25.488 99.0356 25.68C99.2836 25.864 99.5916 25.956 99.9596 25.956C100.344 25.956 100.64 25.884 100.848 25.74C101.064 25.588 101.172 25.396 101.172 25.164C101.172 24.916 101.052 24.732 100.812 24.612C100.58 24.492 100.208 24.36 99.6956 24.216C99.1996 24.08 98.7956 23.948 98.4836 23.82C98.1716 23.692 97.8996 23.496 97.6676 23.232C97.4436 22.968 97.3316 22.62 97.3316 22.188C97.3316 21.836 97.4356 21.516 97.6436 21.228C97.8516 20.932 98.1476 20.7 98.5316 20.532C98.9236 20.364 99.3716 20.28 99.8756 20.28C100.628 20.28 101.232 20.472 101.688 20.856C102.152 21.232 102.4 21.748 102.432 22.404H101.064C101.04 22.108 100.92 21.872 100.704 21.696C100.488 21.52 100.196 21.432 99.8276 21.432C99.4676 21.432 99.1916 21.5 98.9996 21.636C98.8076 21.772 98.7116 21.952 98.7116 22.176C98.7116 22.352 98.7756 22.5 98.9036 22.62C99.0316 22.74 99.1876 22.836 99.3716 22.908C99.5556 22.972 99.8276 23.056 100.188 23.16C100.668 23.288 101.06 23.42 101.364 23.556C101.676 23.684 101.944 23.876 102.168 24.132C102.392 24.388 102.508 24.728 102.516 25.152C102.516 25.528 102.412 25.864 102.204 26.16C101.996 26.456 101.7 26.688 101.316 26.856C100.94 27.024 100.496 27.108 99.9836 27.108ZM22.96 41.532C22.96 41.78 22.944 42.004 22.912 42.204H17.86C17.9 42.732 18.096 43.156 18.448 43.476C18.8 43.796 19.232 43.956 19.744 43.956C20.48 43.956 21 43.648 21.304 43.032H22.78C22.58 43.64 22.216 44.14 21.688 44.532C21.168 44.916 20.52 45.108 19.744 45.108C19.112 45.108 18.544 44.968 18.04 44.688C17.544 44.4 17.152 44 16.864 43.488C16.584 42.968 16.444 42.368 16.444 41.688C16.444 41.008 16.58 40.412 16.852 39.9C17.132 39.38 17.52 38.98 18.016 38.7C18.52 38.42 19.096 38.28 19.744 38.28C20.368 38.28 20.924 38.416 21.412 38.688C21.9 38.96 22.28 39.344 22.552 39.84C22.824 40.328 22.96 40.892 22.96 41.532ZM21.532 41.1C21.524 40.596 21.344 40.192 20.992 39.888C20.64 39.584 20.204 39.432 19.684 39.432C19.212 39.432 18.808 39.584 18.472 39.888C18.136 40.184 17.936 40.588 17.872 41.1H21.532ZM27.6423 38.28C28.1623 38.28 28.6263 38.388 29.0343 38.604C29.4503 38.82 29.7743 39.14 30.0063 39.564C30.2383 39.988 30.3543 40.5 30.3543 41.1V45H28.9983V41.304C28.9983 40.712 28.8503 40.26 28.5543 39.948C28.2583 39.628 27.8543 39.468 27.3423 39.468C26.8303 39.468 26.4223 39.628 26.1183 39.948C25.8223 40.26 25.6743 40.712 25.6743 41.304V45H24.3063V38.388H25.6743V39.144C25.8983 38.872 26.1823 38.66 26.5263 38.508C26.8783 38.356 27.2503 38.28 27.6423 38.28ZM34.8712 39.504H33.6472V45H32.2672V39.504H31.4872V38.388H32.2672V37.92C32.2672 37.16 32.4672 36.608 32.8672 36.264C33.2752 35.912 33.9112 35.736 34.7752 35.736V36.876C34.3592 36.876 34.0672 36.956 33.8992 37.116C33.7312 37.268 33.6472 37.536 33.6472 37.92V38.388H34.8712V39.504ZM35.6276 41.664C35.6276 41 35.7636 40.412 36.0356 39.9C36.3156 39.388 36.6916 38.992 37.1636 38.712C37.6436 38.424 38.1716 38.28 38.7476 38.28C39.2676 38.28 39.7196 38.384 40.1036 38.592C40.4956 38.792 40.8076 39.044 41.0396 39.348V38.388H42.4196V45H41.0396V44.016C40.8076 44.328 40.4916 44.588 40.0916 44.796C39.6916 45.004 39.2356 45.108 38.7236 45.108C38.1556 45.108 37.6356 44.964 37.1636 44.676C36.6916 44.38 36.3156 43.972 36.0356 43.452C35.7636 42.924 35.6276 42.328 35.6276 41.664ZM41.0396 41.688C41.0396 41.232 40.9436 40.836 40.7516 40.5C40.5676 40.164 40.3236 39.908 40.0196 39.732C39.7156 39.556 39.3876 39.468 39.0356 39.468C38.6836 39.468 38.3556 39.556 38.0516 39.732C37.7476 39.9 37.4996 40.152 37.3076 40.488C37.1236 40.816 37.0316 41.208 37.0316 41.664C37.0316 42.12 37.1236 42.52 37.3076 42.864C37.4996 43.208 37.7476 43.472 38.0516 43.656C38.3636 43.832 38.6916 43.92 39.0356 43.92C39.3876 43.92 39.7156 43.832 40.0196 43.656C40.3236 43.48 40.5676 43.224 40.7516 42.888C40.9436 42.544 41.0396 42.144 41.0396 41.688ZM47.5524 38.28C48.0724 38.28 48.5364 38.388 48.9444 38.604C49.3604 38.82 49.6844 39.14 49.9164 39.564C50.1484 39.988 50.2644 40.5 50.2644 41.1V45H48.9084V41.304C48.9084 40.712 48.7604 40.26 48.4644 39.948C48.1684 39.628 47.7644 39.468 47.2524 39.468C46.7404 39.468 46.3324 39.628 46.0284 39.948C45.7324 40.26 45.5844 40.712 45.5844 41.304V45H44.2164V38.388H45.5844V39.144C45.8084 38.872 46.0924 38.66 46.4364 38.508C46.7884 38.356 47.1604 38.28 47.5524 38.28ZM53.6054 39.504V43.164C53.6054 43.412 53.6614 43.592 53.7734 43.704C53.8934 43.808 54.0934 43.86 54.3734 43.86H55.2134V45H54.1334C53.5174 45 53.0454 44.856 52.7174 44.568C52.3894 44.28 52.2254 43.812 52.2254 43.164V39.504H51.4454V38.388H52.2254V36.744H53.6054V38.388H55.2134V39.504H53.6054ZM58.8742 45.108C58.3542 45.108 57.8862 45.016 57.4702 44.832C57.0622 44.64 56.7382 44.384 56.4982 44.064C56.2582 43.736 56.1302 43.372 56.1142 42.972H57.5302C57.5542 43.252 57.6862 43.488 57.9262 43.68C58.1742 43.864 58.4822 43.956 58.8502 43.956C59.2342 43.956 59.5302 43.884 59.7382 43.74C59.9542 43.588 60.0622 43.396 60.0622 43.164C60.0622 42.916 59.9422 42.732 59.7022 42.612C59.4702 42.492 59.0982 42.36 58.5862 42.216C58.0902 42.08 57.6862 41.948 57.3742 41.82C57.0622 41.692 56.7902 41.496 56.5582 41.232C56.3342 40.968 56.2222 40.62 56.2222 40.188C56.2222 39.836 56.3262 39.516 56.5342 39.228C56.7422 38.932 57.0382 38.7 57.4222 38.532C57.8142 38.364 58.2622 38.28 58.7662 38.28C59.5182 38.28 60.1222 38.472 60.5782 38.856C61.0422 39.232 61.2902 39.748 61.3222 40.404H59.9542C59.9302 40.108 59.8102 39.872 59.5942 39.696C59.3782 39.52 59.0862 39.432 58.7182 39.432C58.3582 39.432 58.0822 39.5 57.8902 39.636C57.6982 39.772 57.6022 39.952 57.6022 40.176C57.6022 40.352 57.6662 40.5 57.7942 40.62C57.9222 40.74 58.0782 40.836 58.2622 40.908C58.4462 40.972 58.7182 41.056 59.0782 41.16C59.5582 41.288 59.9502 41.42 60.2542 41.556C60.5662 41.684 60.8342 41.876 61.0582 42.132C61.2822 42.388 61.3982 42.728 61.4062 43.152C61.4062 43.528 61.3022 43.864 61.0942 44.16C60.8862 44.456 60.5902 44.688 60.2062 44.856C59.8302 45.024 59.3862 45.108 58.8742 45.108Z" fill="white"/>
<path d="M135 178H-1V206H135V178Z" fill="#FFBB45"/>
<path d="M91.6074 196.819C91.5917 196.821 91.576 196.821 91.5603 196.819C91.5195 196.813 91.4802 196.799 91.4449 196.778C91.4095 196.756 91.3787 196.728 91.3542 196.695C91.3297 196.662 91.3119 196.624 91.3021 196.584C91.2922 196.544 91.2903 196.502 91.2965 196.461L105.651 101.564C105.715 101.138 105.687 100.703 105.568 100.288C105.449 99.8741 105.241 99.4903 104.96 99.1635C104.679 98.8366 104.331 98.5743 103.939 98.3944C103.547 98.2145 103.121 98.1213 102.69 98.1211H85.2175C84.5149 98.1208 83.8346 98.3675 83.2956 98.8181C82.7566 99.2687 82.3932 99.8945 82.269 100.586L65.2455 195.284C65.2403 195.326 65.2265 195.367 65.2049 195.404C65.1834 195.441 65.1545 195.473 65.1201 195.498C65.0857 195.524 65.0465 195.542 65.0049 195.551C64.9633 195.561 64.9201 195.562 64.878 195.554C64.836 195.547 64.7959 195.531 64.7603 195.507C64.7247 195.484 64.6943 195.453 64.671 195.417C64.6476 195.381 64.6318 195.341 64.6245 195.299C64.6172 195.257 64.6186 195.214 64.6285 195.172L81.652 100.475C81.8014 99.6378 82.2405 98.8803 82.8924 98.3349C83.5444 97.7894 84.3675 97.4909 85.2175 97.4916H102.682C103.204 97.4916 103.719 97.6042 104.193 97.8218C104.667 98.0394 105.089 98.3567 105.429 98.7522C105.769 99.1476 106.02 99.6119 106.164 100.113C106.309 100.614 106.343 101.141 106.265 101.657L91.9183 196.552C91.907 196.627 91.8694 196.694 91.8124 196.743C91.7553 196.792 91.6826 196.819 91.6074 196.819Z" fill="black"/>
<path d="M101.825 128.413H77.0049C76.9216 128.413 76.8418 128.38 76.7829 128.321C76.724 128.262 76.6909 128.182 76.6909 128.099C76.6909 128.016 76.724 127.936 76.7829 127.877C76.8418 127.818 76.9216 127.785 77.0049 127.785H101.825C101.908 127.785 101.988 127.818 102.047 127.877C102.106 127.936 102.139 128.016 102.139 128.099C102.139 128.182 102.106 128.262 102.047 128.321C101.988 128.38 101.908 128.413 101.825 128.413Z" fill="black"/>
<path d="M97.2546 159.471H71.5066C71.4233 159.471 71.3435 159.437 71.2846 159.379C71.2257 159.32 71.1926 159.24 71.1926 159.157C71.1926 159.073 71.2257 158.993 71.2846 158.934C71.3435 158.876 71.4233 158.843 71.5066 158.843H97.2546C97.3379 158.843 97.4178 158.876 97.4767 158.934C97.5356 158.993 97.5686 159.073 97.5686 159.157C97.5686 159.24 97.5356 159.32 97.4767 159.379C97.4178 159.437 97.3379 159.471 97.2546 159.471Z" fill="black"/>
<path d="M116.362 196.819C116.284 196.82 116.21 196.792 116.152 196.741C116.094 196.69 116.057 196.619 116.048 196.543L105.158 104.823C105.148 104.74 105.172 104.656 105.223 104.59C105.275 104.524 105.351 104.482 105.434 104.472C105.518 104.462 105.601 104.485 105.667 104.537C105.733 104.589 105.776 104.665 105.786 104.748L116.679 196.469C116.688 196.552 116.665 196.635 116.613 196.7C116.562 196.766 116.487 196.808 116.404 196.818L116.362 196.819Z" fill="black"/>
<path d="M82.28 116.905C83.2182 116.905 83.9788 116.144 83.9788 115.206C83.9788 114.268 83.2182 113.507 82.28 113.507C81.3419 113.507 80.5813 114.268 80.5813 115.206C80.5813 116.144 81.3419 116.905 82.28 116.905Z" fill="#2490F6"/>
<path d="M94.2135 123.982C95.4283 123.982 96.413 122.997 96.413 121.783C96.413 120.568 95.4283 119.583 94.2135 119.583C92.9987 119.583 92.0139 120.568 92.0139 121.783C92.0139 122.997 92.9987 123.982 94.2135 123.982Z" fill="#2490F6"/>
<path d="M84.1844 128.06C85.8805 128.06 87.2554 126.685 87.2554 124.989C87.2554 123.293 85.8805 121.918 84.1844 121.918C82.4884 121.918 81.1135 123.293 81.1135 124.989C81.1135 126.685 82.4884 128.06 84.1844 128.06Z" fill="#FFBB45"/>
<path d="M83.5799 122.265C83.3726 122.263 83.1716 122.193 83.0081 122.066C82.8446 121.938 82.7277 121.76 82.6755 121.56L81.8026 118.106C81.7592 117.934 81.7656 117.754 81.8209 117.586C81.8763 117.417 81.9783 117.269 82.1151 117.156C82.2519 117.044 82.4179 116.973 82.5936 116.951C82.7693 116.93 82.9474 116.959 83.1073 117.035L87.2097 118.983C87.3698 119.059 87.5053 119.178 87.6001 119.327C87.6949 119.477 87.7453 119.65 87.7453 119.827C87.7453 120.004 87.6949 120.178 87.6001 120.327C87.5053 120.476 87.3698 120.596 87.2097 120.671L83.9739 122.172C83.8508 122.231 83.7164 122.263 83.5799 122.265V122.265ZM82.7069 117.57C82.6365 117.572 82.5684 117.596 82.5138 117.641C82.468 117.678 82.4338 117.727 82.4157 117.783C82.3975 117.838 82.3962 117.898 82.4118 117.955L83.2847 121.409C83.2956 121.453 83.3159 121.493 83.3443 121.528C83.3727 121.563 83.4084 121.591 83.4489 121.61C83.4894 121.629 83.5337 121.64 83.5786 121.64C83.6235 121.64 83.6679 121.63 83.7086 121.612L86.9381 120.106C86.9903 120.081 87.0343 120.042 87.0652 119.993C87.096 119.944 87.1124 119.887 87.1124 119.83C87.1124 119.772 87.096 119.715 87.0652 119.666C87.0343 119.617 86.9903 119.578 86.9381 119.553L82.8357 117.605C82.7957 117.584 82.7518 117.573 82.7069 117.57Z" fill="black"/>
<path d="M88.8411 127.786H99.4794C99.099 126.678 98.3819 125.716 97.4282 125.035C96.4746 124.354 95.332 123.988 94.1602 123.988C92.9884 123.988 91.8459 124.354 90.8922 125.035C89.9386 125.716 89.2215 126.678 88.8411 127.786V127.786Z" fill="#FFBB45"/>
<path d="M95.7599 126.337C95.1647 126.337 94.5828 126.161 94.0878 125.83C93.5929 125.499 93.2071 125.029 92.9793 124.479C92.7515 123.929 92.6919 123.324 92.8081 122.74C92.9242 122.157 93.2108 121.62 93.6318 121.199C94.0527 120.778 94.5889 120.492 95.1728 120.376C95.7566 120.26 96.3617 120.319 96.9117 120.547C97.4616 120.775 97.9317 121.161 98.2624 121.655C98.5931 122.15 98.7696 122.732 98.7696 123.328C98.7688 124.126 98.4514 124.891 97.8872 125.455C97.3229 126.019 96.5579 126.336 95.7599 126.337ZM95.7599 120.946C95.2889 120.946 94.8284 121.086 94.4367 121.347C94.0451 121.609 93.7398 121.981 93.5595 122.416C93.3793 122.851 93.3321 123.33 93.424 123.792C93.5159 124.254 93.7427 124.679 94.0758 125.012C94.4089 125.345 94.8333 125.572 95.2953 125.663C95.7573 125.755 96.2362 125.708 96.6714 125.528C97.1066 125.348 97.4785 125.042 97.7402 124.651C98.0019 124.259 98.1416 123.799 98.1416 123.328C98.1408 122.696 97.8896 122.091 97.4431 121.644C96.9966 121.198 96.3913 120.947 95.7599 120.946V120.946Z" fill="#FC4A50"/>
<path d="M90.8928 131.245C90.5918 131.243 90.292 131.206 89.9995 131.135C88.9695 130.895 87.8941 130.278 86.9725 129.397C86.0509 128.516 85.3821 127.471 85.0885 126.453C84.7839 125.376 84.9315 124.452 85.5108 123.847C86.0902 123.243 87.0055 123.05 88.0935 123.304C89.1234 123.544 90.1989 124.161 91.122 125.044C92.0452 125.926 92.7124 126.97 93.006 127.987C93.3106 129.063 93.163 129.987 92.5821 130.592C92.1739 131.024 91.5899 131.245 90.8928 131.245ZM87.2096 123.822C86.9829 123.809 86.7561 123.844 86.5433 123.923C86.3304 124.001 86.1361 124.123 85.9724 124.281C85.5548 124.719 85.4574 125.428 85.6992 126.282C85.9567 127.193 86.5627 128.138 87.4058 128.942C88.2489 129.746 89.2207 130.309 90.1423 130.524C91.0058 130.725 91.7123 130.597 92.1284 130.159C92.5444 129.721 92.6433 129.011 92.4016 128.158C92.1441 127.246 91.5381 126.301 90.695 125.497C89.8519 124.692 88.88 124.13 87.9569 123.915C87.7126 123.856 87.4624 123.825 87.2111 123.822H87.2096Z" fill="#FC4A50"/>
<path d="M83.8752 147.355C83.8109 147.355 83.7481 147.335 83.6953 147.298C83.6425 147.262 83.6023 147.21 83.5801 147.149C82.4293 144.009 80.0507 141.464 80.0272 141.439C79.9791 141.377 79.956 141.3 79.9622 141.222C79.9684 141.144 80.0036 141.071 80.0608 141.017C80.118 140.964 80.1931 140.933 80.2714 140.933C80.3497 140.932 80.4256 140.96 80.484 141.012C80.5861 141.119 82.9741 143.681 84.1704 146.936C84.1847 146.974 84.1912 147.016 84.1895 147.057C84.1878 147.098 84.178 147.139 84.1607 147.176C84.1433 147.214 84.1188 147.247 84.0884 147.275C84.058 147.303 84.0224 147.325 83.9836 147.339C83.9486 147.35 83.912 147.356 83.8752 147.355Z" fill="black"/>
<path d="M85.0054 147.68C84.9221 147.68 84.8423 147.647 84.7834 147.588C84.7245 147.529 84.6914 147.449 84.6914 147.366V144.631C84.6914 144.548 84.7245 144.468 84.7834 144.409C84.8423 144.35 84.9221 144.317 85.0054 144.317C85.0887 144.317 85.1685 144.35 85.2274 144.409C85.2863 144.468 85.3194 144.548 85.3194 144.631V147.366C85.3194 147.407 85.3113 147.448 85.2955 147.486C85.2797 147.524 85.2566 147.559 85.2274 147.588C85.1983 147.617 85.1637 147.64 85.1256 147.656C85.0875 147.672 85.0466 147.68 85.0054 147.68Z" fill="black"/>
<path d="M90.8931 151.479C90.8931 150.825 90.6334 150.198 90.1711 149.736C89.7088 149.274 89.0819 149.014 88.4282 149.014H87.8787V147.151H81.079V149.019H80.5311C80.2074 149.019 79.8868 149.083 79.5878 149.207C79.2887 149.33 79.017 149.512 78.7881 149.741C78.5592 149.97 78.3777 150.242 78.2538 150.541C78.1299 150.84 78.0662 151.16 78.0662 151.484C78.0662 152.138 78.3259 152.765 78.7881 153.227C79.2504 153.689 79.8773 153.949 80.5311 153.949C79.8776 153.949 79.2509 154.208 78.7887 154.67C78.3265 155.132 78.0666 155.759 78.0662 156.412V156.412C78.0662 156.736 78.1299 157.056 78.2538 157.355C78.3777 157.654 78.5592 157.926 78.7881 158.155C79.017 158.384 79.2887 158.565 79.5878 158.689C79.8868 158.813 80.2074 158.877 80.5311 158.877H88.425C88.7487 158.877 89.0692 158.813 89.3683 158.689C89.6674 158.565 89.9391 158.384 90.168 158.155C90.3969 157.926 90.5784 157.654 90.7023 157.355C90.8262 157.056 90.8899 156.736 90.8899 156.412V156.412C90.8895 155.759 90.6296 155.132 90.1674 154.67C89.7052 154.208 89.0785 153.949 88.425 153.949C88.7494 153.949 89.0706 153.886 89.3704 153.762C89.6701 153.638 89.9424 153.456 90.1717 153.226C90.401 152.997 90.5827 152.724 90.7065 152.425C90.8303 152.125 90.8937 151.803 90.8931 151.479V151.479Z" fill="#2490F6"/>
<path d="M88.527 153.641H85.7434V154.269H88.527V153.641Z" fill="black"/>
<path d="M81.8404 153.625H80.3818V154.253H81.8404V153.625Z" fill="black"/>
<path d="M84.4779 147.73C86.3889 147.73 87.9381 147.407 87.9381 147.009C87.9381 146.611 86.3889 146.289 84.4779 146.289C82.5668 146.289 81.0176 146.611 81.0176 147.009C81.0176 147.407 82.5668 147.73 84.4779 147.73Z" fill="black"/>
<path d="M85.0054 144.632C85.9071 144.632 86.6382 143.901 86.6382 143C86.6382 142.098 85.9071 141.367 85.0054 141.367C84.1036 141.367 83.3726 142.098 83.3726 143C83.3726 143.901 84.1036 144.632 85.0054 144.632Z" fill="#FFBB45"/>
<path d="M79.6677 142.306C80.6336 142.306 81.4167 141.523 81.4167 140.557C81.4167 139.591 80.6336 138.808 79.6677 138.808C78.7017 138.808 77.9187 139.591 77.9187 140.557C77.9187 141.523 78.7017 142.306 79.6677 142.306Z" fill="#FFBB45"/>
<path d="M77.0531 185.172L65.0644 190.727C64.7481 190.873 64.6105 191.248 64.757 191.565L64.9887 192.065C65.1352 192.381 65.5104 192.518 65.8267 192.372L77.8155 186.817C78.1317 186.671 78.2693 186.295 78.1228 185.979L77.8911 185.479C77.7446 185.163 77.3694 185.025 77.0531 185.172Z" fill="black"/>
<path d="M77.6389 181.361L71.6729 182.931L63.6125 186.664L64.9879 189.633C65.1138 189.905 65.3422 190.115 65.6231 190.218C65.9039 190.321 66.2141 190.308 66.4856 190.183L77.0941 185.267L77.6389 181.361Z" fill="#F2EACC"/>
<path d="M76.2637 187.539L83.0493 184.399C83.2982 184.283 83.491 184.073 83.5854 183.815C83.6799 183.557 83.6683 183.272 83.5532 183.022V183.022C83.0786 181.998 82.2166 181.204 81.1567 180.815C80.0968 180.426 78.9258 180.474 77.9012 180.948V180.948C76.8768 181.423 76.0829 182.285 75.694 183.345C75.305 184.405 75.353 185.576 75.8273 186.6L76.2637 187.539Z" fill="black"/>
<path d="M40.5964 199.019C40.52 199.02 40.4459 198.992 40.3881 198.942C40.3303 198.892 40.2927 198.823 40.2824 198.747L36.0575 167.533C36.052 167.491 36.0546 167.449 36.0652 167.409C36.0759 167.369 36.0943 167.331 36.1195 167.298C36.1448 167.265 36.1762 167.237 36.2122 167.216C36.2482 167.195 36.2879 167.182 36.3291 167.176C36.3704 167.171 36.4123 167.173 36.4525 167.184C36.4928 167.195 36.5305 167.213 36.5636 167.238C36.5967 167.263 36.6245 167.295 36.6454 167.331C36.6663 167.367 36.68 167.407 36.6855 167.448L40.9073 198.663C40.9184 198.745 40.8964 198.828 40.8461 198.895C40.7958 198.961 40.7212 199.004 40.6388 199.016L40.5964 199.019Z" fill="black"/>
<path d="M17.6792 199.019H17.6352C17.5528 199.007 17.4784 198.963 17.4283 198.897C17.3783 198.83 17.3567 198.746 17.3683 198.664L21.7816 167.446C21.7933 167.363 21.8375 167.288 21.9046 167.237C21.9718 167.186 22.0563 167.164 22.1396 167.176C22.2228 167.188 22.2981 167.232 22.3487 167.299C22.3994 167.366 22.4213 167.451 22.4096 167.534L17.99 198.749C17.9794 198.824 17.9422 198.892 17.8851 198.942C17.8279 198.991 17.7548 199.019 17.6792 199.019Z" fill="black"/>
<path d="M39.0343 188.672H19.4187C19.3355 188.672 19.2556 188.639 19.1967 188.58C19.1378 188.522 19.1047 188.442 19.1047 188.358C19.1047 188.275 19.1378 188.195 19.1967 188.136C19.2556 188.078 19.3355 188.044 19.4187 188.044H39.0343C39.1176 188.044 39.1975 188.078 39.2564 188.136C39.3152 188.195 39.3483 188.275 39.3483 188.358C39.3483 188.442 39.3152 188.522 39.2564 188.58C39.1975 188.639 39.1176 188.672 39.0343 188.672Z" fill="black"/>
<path d="M19.4203 167.49H38.4267C39.625 167.49 40.5964 166.519 40.5964 165.32V162.293C40.5964 161.095 39.625 160.124 38.4267 160.124H19.4203C18.2219 160.124 17.2505 161.095 17.2505 162.293V165.32C17.2505 166.519 18.2219 167.49 19.4203 167.49Z" fill="#FC4A50"/>
<path d="M18.7499 151.646H38.2288V143.681H20.0969C19.4851 145.044 19.0625 146.484 18.8409 147.961C18.662 149.181 18.6314 150.418 18.7499 151.646V151.646Z" fill="black"/>
<path d="M57.887 196.983H44.6739C44.3253 196.983 44.0427 197.265 44.0427 197.614V198.165C44.0427 198.513 44.3253 198.796 44.6739 198.796H57.887C58.2356 198.796 58.5181 198.513 58.5181 198.165V197.614C58.5181 197.265 58.2356 196.983 57.887 196.983Z" fill="black"/>
<path d="M60.0236 193.764L53.9492 192.681H45.0662V195.962C45.0662 196.261 45.1851 196.549 45.3968 196.76C45.6085 196.972 45.8956 197.091 46.195 197.091H57.8868L60.0236 193.764Z" fill="#F2EACC"/>
<path d="M67.5549 186.489L71.2067 183.82C72.3412 182.991 73.1005 181.746 73.318 180.357C73.5355 178.969 73.1935 177.552 72.367 176.415L56.3765 154.489C55.1609 152.822 53.3328 151.706 51.2944 151.387C49.2561 151.068 47.1744 151.571 45.5074 152.787V152.787C43.8404 154.003 42.7246 155.831 42.4054 157.869C42.0863 159.907 42.5899 161.989 43.8055 163.656L59.5401 185.234C60.4366 186.463 61.7847 187.286 63.2877 187.521C64.7908 187.756 66.3257 187.385 67.5549 186.489V186.489Z" fill="black"/>
<path d="M29.6081 162.81H57.3971V157.349C57.3971 155.249 56.5626 153.234 55.0772 151.749C53.5918 150.263 51.5771 149.429 49.4764 149.429H18.728V151.93C18.728 153.359 19.0094 154.773 19.5562 156.093C20.103 157.413 20.9044 158.613 21.9147 159.623C22.925 160.633 24.1245 161.435 25.4445 161.982C26.7645 162.528 28.1793 162.81 29.6081 162.81Z" fill="black"/>
<path d="M47.5688 193.45H52.0873C53.4938 193.45 54.8428 192.891 55.8374 191.897C56.832 190.902 57.3907 189.553 57.3907 188.146V162.139H41.832V187.713C41.8318 188.467 41.9801 189.213 42.2683 189.909C42.5565 190.605 42.9791 191.237 43.5118 191.77C44.0446 192.303 44.6771 192.725 45.3732 193.014C46.0693 193.302 46.8154 193.45 47.5688 193.45V193.45Z" fill="black"/>
<path d="M65.6899 186.597C65.6396 186.597 65.5899 186.585 65.5451 186.562C65.5003 186.539 65.4616 186.506 65.4324 186.465L56.777 174.183C56.7535 174.149 56.7369 174.111 56.7282 174.07C56.7195 174.03 56.7189 173.988 56.7263 173.947C56.7338 173.907 56.7491 173.868 56.7716 173.833C56.794 173.798 56.8231 173.768 56.8571 173.745C56.8911 173.721 56.9294 173.705 56.9698 173.696C57.0103 173.687 57.052 173.687 57.0927 173.694C57.1334 173.702 57.1722 173.717 57.2069 173.739C57.2416 173.762 57.2716 173.791 57.2951 173.825L65.9458 186.102C65.9697 186.136 65.9866 186.174 65.9957 186.214C66.0049 186.255 66.006 186.296 65.999 186.337C65.992 186.378 65.977 186.417 65.955 186.452C65.9329 186.486 65.9042 186.517 65.8704 186.54C65.8175 186.577 65.7545 186.597 65.6899 186.597V186.597Z" fill="white"/>
<path d="M46.7587 193.704C46.6754 193.704 46.5956 193.671 46.5367 193.612C46.4778 193.553 46.4447 193.474 46.4447 193.39V161.491C46.4439 160.477 46.0405 159.504 45.3232 158.787C44.6058 158.069 43.6331 157.666 42.6186 157.665H30.4072C28.9578 157.663 27.5683 157.087 26.5434 156.062C25.5186 155.037 24.9421 153.648 24.9404 152.198V149.429C24.9404 149.345 24.9735 149.266 25.0324 149.207C25.0913 149.148 25.1712 149.115 25.2544 149.115C25.3377 149.115 25.4176 149.148 25.4765 149.207C25.5353 149.266 25.5684 149.345 25.5684 149.429V152.198C25.5697 153.481 26.0799 154.711 26.987 155.618C27.8942 156.526 29.1242 157.036 30.4072 157.037H42.6186C43.7994 157.039 44.9314 157.508 45.7663 158.343C46.6013 159.178 47.0711 160.31 47.0727 161.491V193.39C47.0727 193.474 47.0396 193.553 46.9807 193.612C46.9219 193.671 46.842 193.704 46.7587 193.704Z" fill="white"/>
<path d="M56.1755 198.796H63.655C63.9298 198.796 64.1934 198.687 64.3877 198.492C64.582 198.298 64.6912 198.034 64.6912 197.76C64.6912 196.631 64.2428 195.548 63.4447 194.749C62.6465 193.951 61.5639 193.502 60.4349 193.502V193.502C59.3057 193.502 58.2227 193.95 57.4242 194.749C56.6257 195.547 56.1771 196.63 56.1771 197.76L56.1755 198.796Z" fill="black"/>
<path d="M57.0328 182.471C56.9495 182.471 56.8696 182.438 56.8107 182.379C56.7518 182.32 56.7188 182.24 56.7188 182.157V156.368C56.7188 156.285 56.7518 156.205 56.8107 156.146C56.8696 156.087 56.9495 156.054 57.0328 156.054C57.116 156.054 57.1959 156.087 57.2548 156.146C57.3137 156.205 57.3468 156.285 57.3468 156.368V182.157C57.3468 182.24 57.3137 182.32 57.2548 182.379C57.1959 182.438 57.116 182.471 57.0328 182.471Z" fill="white"/>
<path d="M60.0798 132.32C60.0492 132.344 60.0237 132.364 60.0042 132.379C59.989 132.391 59.9738 132.403 59.9585 132.414L60.1096 132.614L60.0346 132.514L60.1097 132.614L60.1098 132.613L60.1103 132.613L60.1106 132.613L60.112 132.612L60.1185 132.607L60.1432 132.588C60.1474 132.585 60.152 132.581 60.1569 132.577C62.1588 131.043 63.542 129.926 64.2528 129.223C64.2571 129.218 64.2616 129.214 64.2663 129.209C64.36 129.117 64.5425 128.937 64.7644 128.791C65.0022 128.635 65.2557 128.537 65.4788 128.589L65.4814 128.59C65.5725 128.609 65.6551 128.657 65.7179 128.726C65.8646 128.889 65.8869 129.205 65.7104 129.549L65.551 129.86L65.8714 129.721C66.0224 129.655 66.1929 129.65 66.3473 129.708C66.5017 129.765 66.628 129.88 66.6997 130.028L66.6997 130.028L66.7017 130.032C66.8782 130.366 66.7237 130.648 66.5101 131.009C66.4218 131.157 66.321 131.298 66.2086 131.429L66.1562 131.49L66.1904 131.563C66.309 131.817 66.3552 132.098 66.3238 132.375C66.3019 132.56 66.245 132.739 66.1561 132.903L66.156 132.903L66.1539 132.907C64.7668 135.704 62.2138 137.174 59.9937 137.946C58.8847 138.331 57.8625 138.541 57.1176 138.654C56.7453 138.71 56.4425 138.743 56.2333 138.761C56.1287 138.77 56.0475 138.776 55.9927 138.779C55.9653 138.781 55.9445 138.782 55.9306 138.782L55.9151 138.783L55.9114 138.783L55.9106 138.783L55.9104 138.783L55.8481 138.786L55.8124 138.837L47.0694 151.344L44.6505 140.991L51.742 134.637L51.7421 134.637C51.9579 134.443 52.1405 134.22 52.3171 134.005C52.3371 133.98 52.3571 133.956 52.377 133.931C52.5748 133.691 52.7709 133.463 53.0132 133.273C53.4397 132.944 53.9053 132.67 54.3993 132.456L54.3998 132.455C54.9406 132.218 55.4984 132.098 56.0716 131.996C56.1883 131.975 56.3059 131.955 56.4242 131.935C56.8824 131.857 57.3504 131.777 57.8144 131.647C58.5584 131.453 59.249 131.093 59.8345 130.594L59.8346 130.595L59.8368 130.593C60.0048 130.443 60.1588 130.271 60.3075 130.105C60.3587 130.048 60.4093 129.992 60.4596 129.938C60.6601 129.721 60.8626 129.524 61.1077 129.383C61.2453 129.305 61.4224 129.222 61.5897 129.196C61.7543 129.169 61.8863 129.199 61.9772 129.314C62.152 129.538 62.1472 129.825 62.0044 130.164C61.8616 130.503 61.5906 130.866 61.2851 131.204C60.981 131.539 60.6494 131.842 60.3932 132.061C60.2652 132.171 60.1564 132.259 60.0798 132.32Z" fill="#F2EACC" stroke="black" stroke-width="0.25"/>
<path d="M66.2439 131.581C66.2439 131.581 64.4698 134.237 62.7554 135.062Z" fill="black"/>
<path d="M65.8216 129.604C65.8216 129.604 63.3536 132.901 61.7961 133.537Z" fill="black"/>
<path d="M30.382 116.52L33.858 116.159C35.4424 115.994 36.8966 115.207 37.9008 113.971C38.905 112.734 39.3771 111.149 39.2133 109.565L38.8773 106.342C38.8052 105.644 38.5962 104.967 38.2623 104.35C37.9284 103.733 37.4761 103.188 36.9314 102.746C36.3866 102.304 35.76 101.973 35.0875 101.773C34.4149 101.574 33.7096 101.508 33.0118 101.581L30.3083 101.862C28.3522 102.066 26.5572 103.038 25.3175 104.565C24.0778 106.092 23.495 108.048 23.697 110.004L23.821 111.195C23.9849 112.771 24.7682 114.217 25.9986 115.216C27.2291 116.215 28.8058 116.684 30.382 116.52V116.52Z" fill="black"/>
<path d="M26.5104 112.353C26.4228 111.82 26.5501 111.274 26.8644 110.835C27.1787 110.395 27.6544 110.098 28.1872 110.009C28.2818 109.995 28.3772 109.986 28.4729 109.984L27.9831 104.635L35.629 104.195C36.4154 104.151 37.1905 104.399 37.805 104.892C38.4195 105.385 38.83 106.087 38.9574 106.864L39.1144 107.806C39.2665 108.728 39.6702 109.59 40.2809 110.296V110.296C40.4112 110.442 40.4817 110.631 40.4782 110.826C40.4747 111.021 40.3975 111.208 40.2621 111.348L39.7801 111.843L40.1098 113.835C40.1753 114.231 40.1543 114.636 40.0483 115.023C39.9424 115.411 39.7539 115.77 39.4958 116.077C39.2378 116.385 38.9163 116.632 38.5534 116.804C38.1905 116.975 37.7949 117.066 37.3937 117.069L35.4139 117.088L35.5709 120.454L29.3066 120.748C29.2135 119.579 29.1213 118.409 29.0303 117.239C28.9643 116.171 28.8989 115.104 28.834 114.036C28.3032 114.118 27.7616 113.987 27.3266 113.672C26.8916 113.357 26.5984 112.883 26.5104 112.353V112.353Z" fill="#F2EACC"/>
<path d="M29.0257 121.073L28.7211 117.258L28.5453 114.371H28.517C27.9623 114.367 27.4265 114.168 27.0043 113.808C26.5821 113.448 26.3005 112.951 26.2091 112.403V112.403C26.1082 111.789 26.2546 111.16 26.6161 110.654C26.9777 110.147 27.5251 109.804 28.1387 109.7L27.6473 104.34L35.6229 103.881C36.4859 103.832 37.3369 104.103 38.012 104.643C38.6871 105.183 39.1386 105.953 39.2794 106.806L39.4364 107.748C39.5797 108.614 39.9602 109.422 40.5354 110.085C40.7192 110.289 40.8185 110.556 40.8133 110.831C40.808 111.106 40.6986 111.369 40.5071 111.567L40.135 111.947L40.4396 113.782C40.5129 114.222 40.4898 114.674 40.3721 115.105C40.2543 115.535 40.0446 115.936 39.7574 116.278C39.4702 116.62 39.1124 116.896 38.7084 117.086C38.3045 117.277 37.864 117.378 37.4174 117.382L35.7642 117.398L35.9212 120.753L29.0257 121.073ZM29.1356 113.667L29.3523 117.215L29.6051 120.417L35.2571 120.153L35.1001 116.774L37.4048 116.752C37.7608 116.749 38.1119 116.669 38.4339 116.517C38.756 116.365 39.0413 116.146 39.2703 115.873C39.4994 115.601 39.6666 115.282 39.7606 114.938C39.8546 114.595 39.8731 114.235 39.8148 113.884L39.4584 111.735L40.0518 111.127C40.1314 111.042 40.1757 110.93 40.1757 110.813C40.1757 110.696 40.1314 110.584 40.0518 110.499C39.4015 109.747 38.9707 108.831 38.8068 107.85L38.6498 106.908C38.535 106.208 38.1647 105.576 37.6106 105.133C37.0564 104.689 36.3578 104.467 35.6496 104.509L28.3239 104.93L28.8153 110.29L28.4794 110.298C28.3984 110.3 28.3177 110.307 28.2376 110.318C27.8096 110.416 27.435 110.674 27.1899 111.038C26.9449 111.402 26.8478 111.846 26.9184 112.28C26.9889 112.713 27.2219 113.103 27.5699 113.371C27.9179 113.638 28.3548 113.764 28.7918 113.721L29.1356 113.667Z" fill="black"/>
<path d="M36.1408 110.493C36.4139 110.493 36.6353 110.271 36.6353 109.998C36.6353 109.725 36.4139 109.504 36.1408 109.504C35.8677 109.504 35.6462 109.725 35.6462 109.998C35.6462 110.271 35.8677 110.493 36.1408 110.493Z" fill="black"/>
<path d="M28.8575 113.176C28.6896 113.175 28.5253 113.127 28.384 113.036C28.2427 112.945 28.1303 112.816 28.0601 112.664C27.9898 112.511 27.9646 112.342 27.9874 112.175C28.0102 112.009 28.0802 111.853 28.1889 111.725C28.2976 111.597 28.4407 111.503 28.6012 111.453C28.7617 111.404 28.933 111.401 29.0948 111.446C29.2567 111.491 29.4023 111.581 29.5147 111.706C29.627 111.831 29.7013 111.985 29.7289 112.151C29.7482 112.265 29.7447 112.382 29.7186 112.495C29.6925 112.607 29.6444 112.714 29.577 112.808C29.5096 112.902 29.4242 112.982 29.3258 113.043C29.2273 113.104 29.1178 113.145 29.0035 113.163C28.9554 113.172 28.9065 113.176 28.8575 113.176ZM28.8575 112.042C28.8434 112.041 28.8292 112.041 28.8151 112.042C28.7823 112.048 28.7509 112.059 28.7227 112.077C28.6944 112.094 28.6699 112.117 28.6505 112.144C28.6311 112.171 28.6172 112.202 28.6096 112.234C28.6021 112.267 28.6009 112.3 28.6063 112.333C28.6198 112.396 28.6568 112.452 28.7099 112.49C28.7369 112.509 28.7674 112.523 28.7997 112.531C28.8321 112.538 28.8656 112.539 28.8983 112.534C28.9643 112.523 29.0231 112.486 29.0619 112.431C29.1008 112.377 29.1165 112.309 29.1056 112.243C29.1004 112.21 29.0887 112.179 29.0712 112.151C29.0537 112.122 29.0307 112.098 29.0035 112.078C28.9607 112.052 28.9109 112.039 28.8607 112.042H28.8575Z" fill="black"/>
<path d="M35.0355 120.2C34.2159 120.024 33.9867 120.151 30.3255 119.983L25.6155 119.767C24.221 119.79 22.8719 120.266 21.7721 121.123C19.4878 122.94 19.3904 125.692 19.3826 126.094C19.6181 131.955 19.8541 137.817 20.0906 143.678L41.0831 143.819C41.4944 142.865 42.0722 141.496 42.7316 139.838C44.3754 135.71 45.1981 133.619 45.1792 132.302C45.1353 129.22 43.2309 126.964 41.4599 124.865C40.0029 123.13 38.0797 120.853 35.0355 120.2Z" fill="#2490F6"/>
<path d="M29.4415 112.625H29.4305C29.3893 112.623 29.3487 112.614 29.3111 112.597C29.2736 112.58 29.2398 112.555 29.2116 112.525C29.1835 112.495 29.1616 112.459 29.1471 112.421C29.1327 112.382 29.126 112.341 29.1275 112.3C29.1325 112.155 29.0995 112.011 29.0318 111.883C28.964 111.755 28.8638 111.647 28.7413 111.57C28.6229 111.502 28.4903 111.462 28.354 111.455C28.2177 111.447 28.0815 111.471 27.9563 111.526C27.8807 111.561 27.7942 111.565 27.7159 111.536C27.6376 111.508 27.5738 111.449 27.5386 111.374C27.5035 111.298 27.4997 111.211 27.5283 111.133C27.5569 111.055 27.6154 110.991 27.6909 110.956C27.9108 110.858 28.1511 110.814 28.3915 110.828C28.6319 110.842 28.8654 110.913 29.0725 111.036C29.2887 111.172 29.4653 111.362 29.5846 111.588C29.7039 111.814 29.7618 112.067 29.7523 112.322C29.7495 112.403 29.7156 112.479 29.6577 112.536C29.5998 112.592 29.5223 112.624 29.4415 112.625V112.625Z" fill="black"/>
<path d="M35.9635 104.188C35.9635 104.188 37.163 110.769 28.4605 110.287L28.0005 104.635L35.9635 104.188Z" fill="black"/>
<path d="M35.3308 116.773C35.3591 117.401 35.3884 118.029 35.4188 118.657L31.8329 117.06C31.8076 117.049 31.7868 117.03 31.7739 117.006C31.761 116.982 31.7569 116.954 31.7623 116.927C31.7676 116.9 31.7821 116.876 31.8033 116.858C31.8244 116.841 31.8509 116.831 31.8784 116.831L35.3308 116.773Z" fill="black"/>
<path d="M36.6636 114.689C36.2771 114.678 35.9017 114.558 35.58 114.343C35.2584 114.129 35.0034 113.828 34.844 113.476C34.8102 113.402 34.7935 113.322 34.7953 113.241C34.7971 113.16 34.8173 113.08 34.8543 113.008C34.8914 112.936 34.9444 112.874 35.0092 112.825C35.0741 112.777 35.1491 112.744 35.2286 112.728L37.7406 112.25C37.8169 112.236 37.8952 112.24 37.97 112.26C38.0448 112.28 38.1144 112.316 38.1741 112.365C38.2338 112.414 38.282 112.476 38.3156 112.546C38.3492 112.616 38.3673 112.692 38.3686 112.769C38.3781 113.554 37.9542 114.278 37.3136 114.558C37.1084 114.646 36.8871 114.691 36.6636 114.689ZM35.472 113.322C35.8347 113.969 36.582 114.193 37.0655 113.981C37.4502 113.815 37.7124 113.383 37.7406 112.882L35.472 113.322Z" fill="black"/>
<path d="M50.5266 137.181H38.1707C36.9421 137.181 35.946 138.177 35.946 139.406V151.762C35.946 152.99 36.9421 153.986 38.1707 153.986H50.5266C51.7553 153.986 52.7513 152.99 52.7513 151.762V139.406C52.7513 138.177 51.7553 137.181 50.5266 137.181Z" fill="#FFBB45"/>
<path d="M44.3489 153.946C44.2656 153.946 44.1858 153.913 44.1269 153.854C44.068 153.795 44.0349 153.715 44.0349 153.632V137.558C44.0349 137.475 44.068 137.395 44.1269 137.336C44.1858 137.277 44.2656 137.244 44.3489 137.244C44.4322 137.244 44.5121 137.277 44.5709 137.336C44.6298 137.395 44.6629 137.475 44.6629 137.558V153.632C44.6629 153.715 44.6298 153.795 44.5709 153.854C44.5121 153.913 44.4322 153.946 44.3489 153.946Z" fill="#FB6D6D"/>
<path d="M35.8009 118.479L28.854 118.848L28.9883 121.377L35.9352 121.008L35.8009 118.479Z" fill="#2490F6"/>
<path d="M24.3861 110.083C24.3861 110.083 18.8315 109.05 13.7102 112.314C11.3935 113.783 9.60691 115.955 8.6108 118.511C8.1398 119.715 7.81795 121.115 7.99379 122.47C8.3753 125.43 11.4337 127.265 14.1498 126.033C15.8469 125.263 17.7702 123.271 19.4422 118.718C19.4422 118.718 21.0986 113.851 24.8964 113.537L24.3861 110.083Z" fill="black"/>
<path d="M47.2998 127.011L31.8269 134.892C31.4166 135.101 31.2534 135.603 31.4623 136.013L32.3102 137.678C32.5192 138.088 33.0212 138.251 33.4315 138.042L48.9044 130.162C49.3147 129.953 49.4779 129.451 49.269 129.041L48.4211 127.376C48.2121 126.966 47.7101 126.802 47.2998 127.011Z" fill="#FFBB45"/>
<path d="M40.7739 134.446L40.775 134.446C40.8354 134.412 40.9061 134.402 40.9734 134.418C41.0399 134.433 41.0984 134.473 41.1378 134.528C41.1697 134.579 41.184 134.639 41.1786 134.698C41.1732 134.759 41.1477 134.816 41.1063 134.86L41.1063 134.86L41.1039 134.863L37.7629 138.67C36.9682 139.576 35.933 140.237 34.7775 140.578C34.7774 140.578 34.7773 140.578 34.7773 140.578L33.1056 141.066L33.1053 141.066C31.9954 141.393 30.9551 141.921 30.0361 142.624L23.4641 147.648L23.4633 147.649C22.851 148.125 22.149 148.474 21.3992 148.673C20.6494 148.873 19.8671 148.92 19.0988 148.81L19.0988 148.81C18.4441 148.718 17.8162 148.488 17.2562 148.136C15.984 147.324 15.274 145.902 14.923 144.445C14.3848 142.211 14.838 140.115 15.3206 137.884L15.3302 137.839L15.3302 137.839L15.3381 137.803C15.6464 136.382 16.3238 133.26 17.3428 130.131L17.3428 130.131C18.3034 127.179 19.0303 124.947 19.8207 123.367C20.61 121.789 21.4493 120.889 22.6203 120.566C23.3256 120.371 24.1663 120.381 24.9572 120.593C25.7479 120.805 26.4789 121.217 26.9729 121.817C27.8083 122.834 27.8738 124.277 27.8865 124.557C27.9101 125.159 27.8338 125.76 27.6609 126.336L27.6606 126.337C27.4763 126.971 27.1846 127.99 26.8006 129.332C26.1328 131.665 25.1856 134.974 24.037 138.936L23.9519 139.23L24.2183 139.08L28.7179 136.552L28.7181 136.552C29.2154 136.272 29.6476 135.889 29.9866 135.43L29.9871 135.429C30.8783 134.203 32.0615 133.218 33.4294 132.565C33.8815 132.354 34.3512 132.183 34.833 132.053C35.3015 131.962 35.7781 131.92 36.2553 131.927C36.3428 131.931 36.4269 131.963 36.4945 132.019C36.5624 132.075 36.61 132.152 36.6299 132.237C36.6498 132.323 36.6408 132.413 36.6045 132.493C36.5691 132.572 36.5097 132.636 36.435 132.678C34.4093 133.464 33.5733 134.235 33.2545 134.836C33.0938 135.139 33.0665 135.396 33.0832 135.581C33.0915 135.673 33.1104 135.746 33.1281 135.798C33.1369 135.823 33.1454 135.844 33.1521 135.858C33.1535 135.862 33.1549 135.864 33.1562 135.867C33.2339 136.175 33.3813 136.408 33.5798 136.578C33.7802 136.749 34.0258 136.85 34.2885 136.902C34.8104 137.005 35.4204 136.922 35.9426 136.796L35.9432 136.795C36.5665 136.642 37.1671 136.407 37.7299 136.098C37.73 136.098 37.7301 136.098 37.7303 136.098L40.7739 134.446Z" fill="#F2EACC" stroke="black" stroke-width="0.25"/>
<path d="M94.7155 78.204C93.9423 78.204 93.1864 77.9748 92.5436 77.5452C91.9007 77.1156 91.3996 76.5051 91.1037 75.7908C90.8078 75.0764 90.7304 74.2904 90.8813 73.5321C91.0321 72.7737 91.4044 72.0772 91.9512 71.5304C92.4979 70.9837 93.1945 70.6114 93.9528 70.4606C94.7111 70.3097 95.4971 70.3871 96.2115 70.683C96.9258 70.9789 97.5364 71.48 97.9659 72.1228C98.3955 72.7657 98.6247 73.5216 98.6247 74.2947C98.6235 75.3312 98.2112 76.3248 97.4784 77.0577C96.7455 77.7905 95.7519 78.2028 94.7155 78.204V78.204ZM94.7155 71.0134C94.0665 71.0134 93.4321 71.2059 92.8925 71.5664C92.3529 71.927 91.9323 72.4395 91.6839 73.039C91.4356 73.6386 91.3706 74.2984 91.4972 74.9349C91.6238 75.5714 91.9363 76.1561 92.3952 76.615C92.8541 77.0739 93.4388 77.3864 94.0753 77.513C94.7118 77.6396 95.3716 77.5746 95.9711 77.3263C96.5707 77.0779 97.0832 76.6573 97.4438 76.1177C97.8043 75.5781 97.9967 74.9437 97.9967 74.2947C97.9959 73.4247 97.6499 72.5906 97.0348 71.9754C96.4196 71.3602 95.5855 71.0143 94.7155 71.0134V71.0134Z" fill="#FFBB45"/>
<path d="M95.7421 62.0283C95.7421 61.4604 95.2821 61 94.7146 61C94.1471 61 93.687 61.4604 93.687 62.0283V68.9081C93.687 69.476 94.1471 69.9364 94.7146 69.9364C95.2821 69.9364 95.7421 69.476 95.7421 68.9081V62.0283Z" fill="black"/>
<path d="M94.5523 67.4433C92.1775 67.4783 89.8561 68.153 87.8325 69.3964C85.8089 70.6397 84.158 72.4057 83.0536 74.5083C83.0161 74.58 82.9977 74.6601 83.0002 74.741C83.0027 74.8218 83.026 74.9007 83.0678 74.9699C83.1096 75.0392 83.1685 75.0965 83.2389 75.1364C83.3093 75.1762 83.3888 75.1973 83.4697 75.1975H105.961C106.043 75.1974 106.122 75.1764 106.193 75.1365C106.264 75.0965 106.323 75.039 106.364 74.9695C106.406 74.9 106.429 74.8209 106.432 74.7399C106.434 74.6588 106.415 74.5785 106.378 74.5067C105.246 72.3561 103.544 70.559 101.458 69.3129C99.3715 68.0668 96.9822 67.4199 94.5523 67.4433Z" fill="#FC4A50"/>
<path d="M87.8702 72.6925C86.3598 72.6925 85.1305 71.6751 85.1117 71.6594C85.048 71.6057 85.0082 71.5289 85.0011 71.4458C84.9941 71.3628 85.0203 71.2804 85.074 71.2167C85.1277 71.153 85.2045 71.1132 85.2876 71.1061C85.3706 71.0991 85.453 71.1253 85.5167 71.179V71.179C85.6141 71.259 87.8874 73.1305 89.8201 71.1978L90.0101 71.0063L90.2283 71.1633C90.7201 71.4978 91.2639 71.7487 91.8375 71.9059C93.015 72.2199 94.0073 71.9765 94.7907 71.1947L94.976 71.0094L95.1911 71.157C95.2853 71.2229 97.5461 72.7396 99.0909 71.1947L99.2856 71L99.5039 71.1664C99.9677 71.4968 100.485 71.7448 101.033 71.8996C102.156 72.2058 103.116 71.9671 103.89 71.1947C103.919 71.1631 103.954 71.1377 103.992 71.1199C104.031 71.1021 104.073 71.0923 104.115 71.0912C104.158 71.0901 104.2 71.0976 104.24 71.1134C104.279 71.1291 104.315 71.1527 104.345 71.1827C104.375 71.2127 104.399 71.2485 104.415 71.288C104.431 71.3275 104.438 71.3698 104.437 71.4123C104.436 71.4548 104.427 71.4967 104.409 71.5354C104.392 71.5741 104.366 71.6088 104.335 71.6374C102.451 73.5308 100.067 72.2764 99.3422 71.8148C97.9292 73.0096 96.0451 72.4083 95.0482 71.8148C93.1642 73.4728 90.8092 72.2607 90.0776 71.8148C89.4795 72.3764 88.6906 72.69 87.8702 72.6925V72.6925Z" fill="#FFBB45"/>
<path d="M51.1484 115.05C51.0554 115.05 50.9629 115.036 50.8737 115.01C50.7205 114.963 50.5821 114.877 50.4721 114.76C50.362 114.644 50.284 114.501 50.2457 114.346L48.66 108.081C48.6199 107.921 48.623 107.753 48.669 107.595C48.715 107.436 48.8022 107.292 48.9217 107.178C49.0412 107.065 49.1888 106.984 49.3493 106.946C49.5099 106.908 49.6778 106.913 49.8359 106.96L56.2132 108.894C56.3714 108.942 56.514 109.032 56.6264 109.153C56.7388 109.274 56.817 109.423 56.853 109.584C56.8889 109.746 56.8813 109.914 56.831 110.071C56.7806 110.228 56.6894 110.37 56.5665 110.48L51.7702 114.809C51.6004 114.964 51.3786 115.05 51.1484 115.05V115.05ZM49.5596 107.547C49.4824 107.549 49.4087 107.579 49.3524 107.632C49.3128 107.669 49.284 107.716 49.2691 107.768C49.2541 107.82 49.2536 107.875 49.2676 107.927L50.858 114.19C50.8701 114.242 50.8956 114.289 50.9321 114.327C50.9685 114.366 51.0144 114.394 51.0652 114.408C51.1154 114.424 51.1689 114.427 51.2202 114.415C51.2716 114.404 51.3189 114.378 51.3572 114.342L56.152 110.014C56.1922 109.978 56.2221 109.932 56.2386 109.88C56.2551 109.829 56.2577 109.774 56.246 109.721C56.2344 109.669 56.2089 109.62 56.1723 109.58C56.1356 109.541 56.0891 109.512 56.0374 109.496L49.6585 107.562C49.6267 107.551 49.5931 107.546 49.5596 107.547V107.547Z" fill="#2490F6"/>
<path d="M57.7456 126.419C59.7425 126.419 61.3613 124.8 61.3613 122.803C61.3613 120.806 59.7425 119.187 57.7456 119.187C55.7487 119.187 54.1299 120.806 54.1299 122.803C54.1299 124.8 55.7487 126.419 57.7456 126.419Z" fill="#FC4A50"/>
<path d="M62.1741 106.174L59.4061 111.395C58.9569 112.242 59.2796 113.293 60.1269 113.742L65.3481 116.51C66.1954 116.959 67.2464 116.637 67.6956 115.789L70.4635 110.568C70.9127 109.721 70.59 108.67 69.7427 108.221L64.5215 105.453C63.6743 105.004 62.6232 105.326 62.1741 106.174Z" fill="#FFBB45"/>
<path d="M57.7455 126.733C57.6783 126.733 57.6128 126.711 57.5588 126.671C57.5048 126.631 57.4652 126.574 57.4457 126.51C56.2917 122.69 58.8806 120.701 60.4114 120.178C60.4903 120.151 60.5766 120.157 60.6512 120.194C60.7258 120.231 60.7827 120.296 60.8094 120.375C60.836 120.454 60.8302 120.54 60.7933 120.615C60.7563 120.69 60.6913 120.746 60.6123 120.773C60.4553 120.828 56.7831 122.144 58.047 126.328C58.0709 126.408 58.0622 126.493 58.0227 126.567C57.9833 126.64 57.9163 126.695 57.8366 126.719C57.8071 126.728 57.7764 126.733 57.7455 126.733V126.733Z" fill="#FFBB45"/>
<path d="M54.783 125.179C54.7218 125.178 54.662 125.16 54.611 125.127C54.56 125.093 54.5199 125.045 54.4957 124.989C54.4715 124.932 54.4643 124.87 54.4749 124.81C54.4855 124.75 54.5135 124.694 54.5554 124.649C55.1567 124.021 55.4471 123.365 55.4189 122.709C55.3749 121.696 54.5836 120.982 54.5758 120.982C54.5428 120.955 54.5155 120.922 54.4956 120.885C54.4756 120.848 54.4635 120.806 54.4599 120.764C54.4563 120.722 54.4612 120.679 54.4745 120.639C54.4877 120.599 54.509 120.562 54.537 120.53C54.565 120.498 54.5992 120.472 54.6374 120.454C54.6757 120.436 54.7172 120.425 54.7596 120.424C54.8019 120.422 54.8442 120.429 54.8838 120.444C54.9235 120.459 54.9597 120.482 54.9903 120.511C55.0311 120.545 55.9872 121.396 56.0453 122.679C56.083 123.514 55.7313 124.324 55.0107 125.086C54.9809 125.116 54.9454 125.14 54.9063 125.155C54.8672 125.171 54.8252 125.179 54.783 125.179Z" fill="#FFBB45"/>
<path d="M120.178 175.059H101.15C100.453 175.059 99.8875 175.624 99.8875 176.321V179.037C99.8875 179.734 100.453 180.3 101.15 180.3H120.178C120.875 180.3 121.44 179.734 121.44 179.037V176.321C121.44 175.624 120.875 175.059 120.178 175.059Z" fill="#FC4A50"/>
<path d="M101.169 180.386C101.12 180.386 101.071 180.374 101.028 180.352C100.984 180.33 100.946 180.298 100.917 180.259C100.893 180.226 100.875 180.188 100.864 180.148C100.854 180.108 100.852 180.067 100.858 180.026C100.864 179.985 100.877 179.946 100.898 179.911C100.919 179.875 100.947 179.844 100.98 179.819L103.855 177.675L100.977 175.452C100.911 175.401 100.868 175.326 100.857 175.243C100.846 175.161 100.869 175.077 100.92 175.011C100.97 174.945 101.045 174.902 101.128 174.891C101.211 174.881 101.294 174.903 101.36 174.954L104.893 177.684L101.357 180.323C101.303 180.364 101.236 180.386 101.169 180.386Z" fill="#FFBB45"/>
<path d="M121.16 177.993H104.373C104.29 177.993 104.21 177.96 104.151 177.901C104.092 177.843 104.059 177.763 104.059 177.679C104.059 177.596 104.092 177.516 104.151 177.457C104.21 177.398 104.29 177.365 104.373 177.365H121.16C121.243 177.365 121.323 177.398 121.382 177.457C121.44 177.516 121.474 177.596 121.474 177.679C121.474 177.763 121.44 177.843 121.382 177.901C121.323 177.96 121.243 177.993 121.16 177.993Z" fill="#FFBB45"/>
<path d="M122.685 180.311H97.7161C96.5906 180.311 95.6782 181.223 95.6782 182.349V195.201C95.6782 196.326 96.5906 197.238 97.7161 197.238H122.685C123.811 197.238 124.723 196.326 124.723 195.201V182.349C124.723 181.223 123.811 180.311 122.685 180.311Z" fill="#2490F6"/>
<path d="M119.36 197.193C119.277 197.193 119.197 197.16 119.138 197.101C119.079 197.042 119.046 196.962 119.046 196.879V188.189C119.046 188.106 119.079 188.026 119.138 187.967C119.197 187.908 119.277 187.875 119.36 187.875C119.443 187.875 119.523 187.908 119.582 187.967C119.641 188.026 119.674 188.106 119.674 188.189V196.879C119.674 196.962 119.641 197.042 119.582 197.101C119.523 197.16 119.443 197.193 119.36 197.193Z" fill="black"/>
<path d="M102.319 182.906H98.0818C97.6084 182.906 97.2246 183.29 97.2246 183.763V185.927C97.2246 186.4 97.6084 186.784 98.0818 186.784H102.319C102.793 186.784 103.176 186.4 103.176 185.927V183.763C103.176 183.29 102.793 182.906 102.319 182.906Z" fill="white"/>
<path d="M102.511 188.72H97.7132C97.6299 188.72 97.55 188.686 97.4911 188.628C97.4322 188.569 97.3992 188.489 97.3992 188.406C97.3992 188.322 97.4322 188.242 97.4911 188.184C97.55 188.125 97.6299 188.092 97.7132 188.092H102.511C102.594 188.092 102.674 188.125 102.733 188.184C102.792 188.242 102.825 188.322 102.825 188.406C102.825 188.489 102.792 188.569 102.733 188.628C102.674 188.686 102.594 188.72 102.511 188.72Z" fill="black"/>
<path d="M101.243 190.186H97.7132C97.6299 190.186 97.55 190.153 97.4911 190.094C97.4322 190.035 97.3992 189.955 97.3992 189.872C97.3992 189.789 97.4322 189.709 97.4911 189.65C97.55 189.591 97.6299 189.558 97.7132 189.558H101.243C101.326 189.558 101.406 189.591 101.465 189.65C101.523 189.709 101.557 189.789 101.557 189.872C101.557 189.955 101.523 190.035 101.465 190.094C101.406 190.153 101.326 190.186 101.243 190.186V190.186Z" fill="black"/>
<path d="M119.332 188.503C119.043 188.503 118.759 188.434 118.503 188.3C118.247 188.166 118.028 187.971 117.864 187.734L113.131 181.361C113.106 181.328 113.088 181.29 113.078 181.25C113.068 181.21 113.066 181.169 113.072 181.128C113.078 181.087 113.092 181.048 113.113 181.012C113.134 180.977 113.162 180.946 113.195 180.921C113.228 180.897 113.266 180.879 113.306 180.869C113.346 180.859 113.387 180.857 113.428 180.863C113.469 180.869 113.508 180.883 113.544 180.904C113.579 180.925 113.61 180.953 113.635 180.986L118.368 187.368C118.477 187.529 118.625 187.659 118.798 187.748C118.97 187.837 119.163 187.881 119.357 187.876C119.551 187.871 119.741 187.817 119.909 187.719C120.077 187.622 120.217 187.484 120.318 187.318L123.805 181.038C123.845 180.965 123.913 180.911 123.993 180.888C124.073 180.865 124.159 180.875 124.232 180.915C124.305 180.956 124.359 181.023 124.382 181.103C124.405 181.183 124.395 181.269 124.354 181.342L120.861 187.622C120.707 187.88 120.491 188.095 120.232 188.247C119.974 188.399 119.681 188.483 119.381 188.492L119.332 188.503Z" fill="black"/>
<path d="M112.791 197.35C112.708 197.35 112.628 197.317 112.569 197.258C112.511 197.199 112.477 197.119 112.477 197.036V182.906C112.408 180.664 113.89 180.187 113.961 180.168C114.039 180.148 114.122 180.159 114.192 180.199C114.262 180.238 114.315 180.303 114.338 180.38C114.362 180.457 114.355 180.541 114.319 180.613C114.283 180.685 114.221 180.74 114.145 180.768C114.093 180.785 113.046 181.151 113.105 182.896V197.036C113.105 197.119 113.072 197.199 113.013 197.258C112.955 197.317 112.875 197.35 112.791 197.35V197.35Z" fill="black"/>
<path d="M31.0508 121.359C30.9506 121.359 30.8542 121.321 30.7812 121.252C30.7083 121.184 30.6643 121.09 30.6583 120.99L30.5468 119.057C30.5438 119.006 30.551 118.954 30.568 118.905C30.5849 118.856 30.6113 118.812 30.6457 118.773C30.68 118.734 30.7216 118.703 30.7681 118.68C30.8145 118.658 30.865 118.645 30.9165 118.642C30.9681 118.639 31.0197 118.646 31.0685 118.663C31.1172 118.68 31.1622 118.706 31.2007 118.741C31.2393 118.775 31.2707 118.817 31.2932 118.863C31.3157 118.91 31.3288 118.96 31.3318 119.012L31.4448 120.944C31.4478 120.996 31.4406 121.048 31.4235 121.096C31.4065 121.145 31.38 121.19 31.3456 121.228C31.3112 121.267 31.2695 121.298 31.223 121.321C31.1764 121.343 31.1259 121.356 31.0743 121.359H31.0508Z" fill="black"/>
<path d="M33.5394 121.23C33.4395 121.23 33.3435 121.191 33.2709 121.123C33.1982 121.054 33.1545 120.961 33.1485 120.861L33.037 118.927C33.0312 118.823 33.0669 118.721 33.1364 118.643C33.2059 118.565 33.3034 118.518 33.4075 118.512C33.5116 118.507 33.6138 118.542 33.6915 118.612C33.7692 118.681 33.8162 118.779 33.822 118.883L33.9335 120.816C33.9395 120.919 33.904 121.021 33.8348 121.099C33.7656 121.177 33.6684 121.224 33.5645 121.23H33.5394Z" fill="black"/>
<line x1="24.0643" y1="139.107" x2="19.0643" y2="142.107" stroke="black" stroke-width="0.25"/>
</g>
<defs>
<clipPath id="clip0_417_818">
<rect width="135" height="205" rx="22" fill="white"/>
</clipPath>
</defs>
</svg>
