<svg width="135" height="205" viewBox="0 0 135 205" fill="none" xmlns="http://www.w3.org/2000/svg">
<g clip-path="url(#clip0_425_996)">
<rect width="135" height="205" rx="22" fill="#FC4A50"/>
<path d="M12.795 45.6V44.77H14.675V52H13.755V45.6H12.795ZM17.5582 48.24C17.1848 48.0933 16.8982 47.88 16.6982 47.6C16.4982 47.32 16.3982 46.98 16.3982 46.58C16.3982 46.22 16.4882 45.8967 16.6682 45.61C16.8482 45.3167 17.1148 45.0867 17.4682 44.92C17.8282 44.7467 18.2615 44.66 18.7682 44.66C19.2748 44.66 19.7048 44.7467 20.0582 44.92C20.4182 45.0867 20.6882 45.3167 20.8682 45.61C21.0548 45.8967 21.1482 46.22 21.1482 46.58C21.1482 46.9667 21.0448 47.3067 20.8382 47.6C20.6315 47.8867 20.3482 48.1 19.9882 48.24C20.4015 48.3667 20.7282 48.59 20.9682 48.91C21.2148 49.2233 21.3382 49.6033 21.3382 50.05C21.3382 50.4833 21.2315 50.8633 21.0182 51.19C20.8048 51.51 20.5015 51.76 20.1082 51.94C19.7215 52.1133 19.2748 52.2 18.7682 52.2C18.2615 52.2 17.8148 52.1133 17.4282 51.94C17.0482 51.76 16.7515 51.51 16.5382 51.19C16.3248 50.8633 16.2182 50.4833 16.2182 50.05C16.2182 49.6033 16.3382 49.22 16.5782 48.9C16.8182 48.58 17.1448 48.36 17.5582 48.24ZM20.2682 46.69C20.2682 46.2833 20.1348 45.97 19.8682 45.75C19.6015 45.53 19.2348 45.42 18.7682 45.42C18.3082 45.42 17.9448 45.53 17.6782 45.75C17.4115 45.97 17.2782 46.2867 17.2782 46.7C17.2782 47.0733 17.4148 47.3733 17.6882 47.6C17.9682 47.8267 18.3282 47.94 18.7682 47.94C19.2148 47.94 19.5748 47.8267 19.8482 47.6C20.1282 47.3667 20.2682 47.0633 20.2682 46.69ZM18.7682 48.64C18.2748 48.64 17.8715 48.7567 17.5582 48.99C17.2448 49.2167 17.0882 49.56 17.0882 50.02C17.0882 50.4467 17.2382 50.79 17.5382 51.05C17.8448 51.31 18.2548 51.44 18.7682 51.44C19.2815 51.44 19.6882 51.31 19.9882 51.05C20.2882 50.79 20.4382 50.4467 20.4382 50.02C20.4382 49.5733 20.2848 49.2333 19.9782 49C19.6715 48.76 19.2682 48.64 18.7682 48.64ZM22.9868 52.06C22.8134 52.06 22.6668 52 22.5468 51.88C22.4268 51.76 22.3668 51.6133 22.3668 51.44C22.3668 51.2667 22.4268 51.12 22.5468 51C22.6668 50.88 22.8134 50.82 22.9868 50.82C23.1534 50.82 23.2934 50.88 23.4068 51C23.5268 51.12 23.5868 51.2667 23.5868 51.44C23.5868 51.6133 23.5268 51.76 23.4068 51.88C23.2934 52 23.1534 52.06 22.9868 52.06ZM24.6464 48.31C24.6464 47.1633 24.833 46.27 25.2064 45.63C25.5797 44.9833 26.233 44.66 27.1664 44.66C28.093 44.66 28.743 44.9833 29.1164 45.63C29.4897 46.27 29.6764 47.1633 29.6764 48.31C29.6764 49.4767 29.4897 50.3833 29.1164 51.03C28.743 51.6767 28.093 52 27.1664 52C26.233 52 25.5797 51.6767 25.2064 51.03C24.833 50.3833 24.6464 49.4767 24.6464 48.31ZM28.7764 48.31C28.7764 47.73 28.7364 47.24 28.6564 46.84C28.583 46.4333 28.4264 46.1067 28.1864 45.86C27.953 45.6133 27.613 45.49 27.1664 45.49C26.713 45.49 26.3664 45.6133 26.1264 45.86C25.893 46.1067 25.7364 46.4333 25.6564 46.84C25.583 47.24 25.5464 47.73 25.5464 48.31C25.5464 48.91 25.583 49.4133 25.6564 49.82C25.7364 50.2267 25.893 50.5533 26.1264 50.8C26.3664 51.0467 26.713 51.17 27.1664 51.17C27.613 51.17 27.953 51.0467 28.1864 50.8C28.4264 50.5533 28.583 50.2267 28.6564 49.82C28.7364 49.4133 28.7764 48.91 28.7764 48.31ZM30.9257 48.31C30.9257 47.1633 31.1123 46.27 31.4857 45.63C31.859 44.9833 32.5123 44.66 33.4457 44.66C34.3723 44.66 35.0223 44.9833 35.3957 45.63C35.769 46.27 35.9557 47.1633 35.9557 48.31C35.9557 49.4767 35.769 50.3833 35.3957 51.03C35.0223 51.6767 34.3723 52 33.4457 52C32.5123 52 31.859 51.6767 31.4857 51.03C31.1123 50.3833 30.9257 49.4767 30.9257 48.31ZM35.0557 48.31C35.0557 47.73 35.0157 47.24 34.9357 46.84C34.8623 46.4333 34.7057 46.1067 34.4657 45.86C34.2323 45.6133 33.8923 45.49 33.4457 45.49C32.9923 45.49 32.6457 45.6133 32.4057 45.86C32.1723 46.1067 32.0157 46.4333 31.9357 46.84C31.8623 47.24 31.8257 47.73 31.8257 48.31C31.8257 48.91 31.8623 49.4133 31.9357 49.82C32.0157 50.2267 32.1723 50.5533 32.4057 50.8C32.6457 51.0467 32.9923 51.17 33.4457 51.17C33.8923 51.17 34.2323 51.0467 34.4657 50.8C34.7057 50.5533 34.8623 50.2267 34.9357 49.82C35.0157 49.4133 35.0557 48.91 35.0557 48.31ZM43.821 47.95V48.72H39.831V47.95H43.821ZM47.8048 45.6V44.77H49.6848V52H48.7648V45.6H47.8048ZM52.4179 50.06C52.4846 50.44 52.6379 50.7333 52.8779 50.94C53.1246 51.1467 53.4546 51.25 53.8679 51.25C54.4213 51.25 54.8279 51.0333 55.0879 50.6C55.3546 50.1667 55.4813 49.4367 55.4679 48.41C55.3279 48.71 55.0946 48.9467 54.7679 49.12C54.4413 49.2867 54.0779 49.37 53.6779 49.37C53.2313 49.37 52.8313 49.28 52.4779 49.1C52.1313 48.9133 51.8579 48.6433 51.6579 48.29C51.4579 47.9367 51.3579 47.51 51.3579 47.01C51.3579 46.2967 51.5646 45.7233 51.9779 45.29C52.3913 44.85 52.9779 44.63 53.7379 44.63C54.6713 44.63 55.3246 44.9333 55.6979 45.54C56.0779 46.1467 56.2679 47.05 56.2679 48.25C56.2679 49.09 56.1913 49.7833 56.0379 50.33C55.8913 50.8767 55.6379 51.2933 55.2779 51.58C54.9246 51.8667 54.4379 52.01 53.8179 52.01C53.1379 52.01 52.6079 51.8267 52.2279 51.46C51.8479 51.0933 51.6313 50.6267 51.5779 50.06H52.4179ZM53.8279 48.6C54.2746 48.6 54.6413 48.4633 54.9279 48.19C55.2146 47.91 55.3579 47.5333 55.3579 47.06C55.3579 46.56 55.2179 46.1567 54.9379 45.85C54.6579 45.5433 54.2646 45.39 53.7579 45.39C53.2913 45.39 52.9179 45.5367 52.6379 45.83C52.3646 46.1233 52.2279 46.51 52.2279 46.99C52.2279 47.4767 52.3646 47.8667 52.6379 48.16C52.9113 48.4533 53.3079 48.6 53.8279 48.6ZM57.9868 52.06C57.8134 52.06 57.6668 52 57.5468 51.88C57.4268 51.76 57.3668 51.6133 57.3668 51.44C57.3668 51.2667 57.4268 51.12 57.5468 51C57.6668 50.88 57.8134 50.82 57.9868 50.82C58.1534 50.82 58.2934 50.88 58.4068 51C58.5268 51.12 58.5868 51.2667 58.5868 51.44C58.5868 51.6133 58.5268 51.76 58.4068 51.88C58.2934 52 58.1534 52.06 57.9868 52.06ZM59.6464 48.31C59.6464 47.1633 59.833 46.27 60.2064 45.63C60.5797 44.9833 61.233 44.66 62.1664 44.66C63.093 44.66 63.743 44.9833 64.1164 45.63C64.4897 46.27 64.6764 47.1633 64.6764 48.31C64.6764 49.4767 64.4897 50.3833 64.1164 51.03C63.743 51.6767 63.093 52 62.1664 52C61.233 52 60.5797 51.6767 60.2064 51.03C59.833 50.3833 59.6464 49.4767 59.6464 48.31ZM63.7764 48.31C63.7764 47.73 63.7364 47.24 63.6564 46.84C63.583 46.4333 63.4264 46.1067 63.1864 45.86C62.953 45.6133 62.613 45.49 62.1664 45.49C61.713 45.49 61.3664 45.6133 61.1264 45.86C60.893 46.1067 60.7364 46.4333 60.6564 46.84C60.583 47.24 60.5464 47.73 60.5464 48.31C60.5464 48.91 60.583 49.4133 60.6564 49.82C60.7364 50.2267 60.893 50.5533 61.1264 50.8C61.3664 51.0467 61.713 51.17 62.1664 51.17C62.613 51.17 62.953 51.0467 63.1864 50.8C63.4264 50.5533 63.583 50.2267 63.6564 49.82C63.7364 49.4133 63.7764 48.91 63.7764 48.31ZM65.9257 48.31C65.9257 47.1633 66.1123 46.27 66.4857 45.63C66.859 44.9833 67.5123 44.66 68.4457 44.66C69.3723 44.66 70.0223 44.9833 70.3957 45.63C70.769 46.27 70.9557 47.1633 70.9557 48.31C70.9557 49.4767 70.769 50.3833 70.3957 51.03C70.0223 51.6767 69.3723 52 68.4457 52C67.5123 52 66.859 51.6767 66.4857 51.03C66.1123 50.3833 65.9257 49.4767 65.9257 48.31ZM70.0557 48.31C70.0557 47.73 70.0157 47.24 69.9357 46.84C69.8623 46.4333 69.7057 46.1067 69.4657 45.86C69.2323 45.6133 68.8923 45.49 68.4457 45.49C67.9923 45.49 67.6457 45.6133 67.4057 45.86C67.1723 46.1067 67.0157 46.4333 66.9357 46.84C66.8623 47.24 66.8257 47.73 66.8257 48.31C66.8257 48.91 66.8623 49.4133 66.9357 49.82C67.0157 50.2267 67.1723 50.5533 67.4057 50.8C67.6457 51.0467 67.9923 51.17 68.4457 51.17C68.8923 51.17 69.2323 51.0467 69.4657 50.8C69.7057 50.5533 69.8623 50.2267 69.9357 49.82C70.0157 49.4133 70.0557 48.91 70.0557 48.31Z" fill="white"/>
<path d="M25.684 18.66V27H24.316V21.288L21.772 27H20.824L18.268 21.288V27H16.9V18.66H18.376L21.304 25.2L24.22 18.66H25.684ZM28.178 19.512C27.93 19.512 27.722 19.428 27.554 19.26C27.386 19.092 27.302 18.884 27.302 18.636C27.302 18.388 27.386 18.18 27.554 18.012C27.722 17.844 27.93 17.76 28.178 17.76C28.418 17.76 28.622 17.844 28.79 18.012C28.958 18.18 29.042 18.388 29.042 18.636C29.042 18.884 28.958 19.092 28.79 19.26C28.622 19.428 28.418 19.512 28.178 19.512ZM28.85 20.388V27H27.482V20.388H28.85ZM33.9821 20.28C34.5021 20.28 34.9661 20.388 35.3741 20.604C35.7901 20.82 36.1141 21.14 36.3461 21.564C36.5781 21.988 36.6941 22.5 36.6941 23.1V27H35.3381V23.304C35.3381 22.712 35.1901 22.26 34.8941 21.948C34.5981 21.628 34.1941 21.468 33.6821 21.468C33.1701 21.468 32.7621 21.628 32.4581 21.948C32.1621 22.26 32.0141 22.712 32.0141 23.304V27H30.6461V20.388H32.0141V21.144C32.2381 20.872 32.5221 20.66 32.8661 20.508C33.2181 20.356 33.5901 20.28 33.9821 20.28ZM37.9831 23.664C37.9831 23 38.1191 22.412 38.3911 21.9C38.6711 21.388 39.0471 20.992 39.5191 20.712C39.9991 20.424 40.5311 20.28 41.1151 20.28C41.5471 20.28 41.9711 20.376 42.3871 20.568C42.8111 20.752 43.1471 21 43.3951 21.312V18.12H44.7751V27H43.3951V26.004C43.1711 26.324 42.8591 26.588 42.4591 26.796C42.0671 27.004 41.6151 27.108 41.1031 27.108C40.5271 27.108 39.9991 26.964 39.5191 26.676C39.0471 26.38 38.6711 25.972 38.3911 25.452C38.1191 24.924 37.9831 24.328 37.9831 23.664ZM43.3951 23.688C43.3951 23.232 43.2991 22.836 43.1071 22.5C42.9231 22.164 42.6791 21.908 42.3751 21.732C42.0711 21.556 41.7431 21.468 41.3911 21.468C41.0391 21.468 40.7111 21.556 40.4071 21.732C40.1031 21.9 39.8551 22.152 39.6631 22.488C39.4791 22.816 39.3871 23.208 39.3871 23.664C39.3871 24.12 39.4791 24.52 39.6631 24.864C39.8551 25.208 40.1031 25.472 40.4071 25.656C40.7191 25.832 41.0471 25.92 41.3911 25.92C41.7431 25.92 42.0711 25.832 42.3751 25.656C42.6791 25.48 42.9231 25.224 43.1071 24.888C43.2991 24.544 43.3951 24.144 43.3951 23.688ZM51.6479 22.08V23.232H46.7159V22.08H51.6479ZM62.3754 18.66V27H61.0074V21.288L58.4634 27H57.5154L54.9594 21.288V27H53.5914V18.66H55.0674L57.9954 25.2L60.9114 18.66H62.3754ZM63.7174 23.664C63.7174 23 63.8534 22.412 64.1254 21.9C64.4054 21.388 64.7814 20.992 65.2534 20.712C65.7334 20.424 66.2614 20.28 66.8374 20.28C67.3574 20.28 67.8094 20.384 68.1934 20.592C68.5854 20.792 68.8974 21.044 69.1294 21.348V20.388H70.5094V27H69.1294V26.016C68.8974 26.328 68.5814 26.588 68.1814 26.796C67.7814 27.004 67.3254 27.108 66.8134 27.108C66.2454 27.108 65.7254 26.964 65.2534 26.676C64.7814 26.38 64.4054 25.972 64.1254 25.452C63.8534 24.924 63.7174 24.328 63.7174 23.664ZM69.1294 23.688C69.1294 23.232 69.0334 22.836 68.8414 22.5C68.6574 22.164 68.4134 21.908 68.1094 21.732C67.8054 21.556 67.4774 21.468 67.1254 21.468C66.7734 21.468 66.4454 21.556 66.1414 21.732C65.8374 21.9 65.5894 22.152 65.3974 22.488C65.2134 22.816 65.1214 23.208 65.1214 23.664C65.1214 24.12 65.2134 24.52 65.3974 24.864C65.5894 25.208 65.8374 25.472 66.1414 25.656C66.4534 25.832 66.7814 25.92 67.1254 25.92C67.4774 25.92 67.8054 25.832 68.1094 25.656C68.4134 25.48 68.6574 25.224 68.8414 24.888C69.0334 24.544 69.1294 24.144 69.1294 23.688ZM73.6743 21.36C73.9063 21.056 74.2223 20.8 74.6223 20.592C75.0223 20.384 75.4743 20.28 75.9783 20.28C76.5543 20.28 77.0783 20.424 77.5503 20.712C78.0303 20.992 78.4063 21.388 78.6783 21.9C78.9503 22.412 79.0863 23 79.0863 23.664C79.0863 24.328 78.9503 24.924 78.6783 25.452C78.4063 25.972 78.0303 26.38 77.5503 26.676C77.0783 26.964 76.5543 27.108 75.9783 27.108C75.4743 27.108 75.0263 27.008 74.6343 26.808C74.2423 26.6 73.9223 26.344 73.6743 26.04V30.144H72.3063V20.388H73.6743V21.36ZM77.6943 23.664C77.6943 23.208 77.5983 22.816 77.4062 22.488C77.2223 22.152 76.9743 21.9 76.6623 21.732C76.3583 21.556 76.0303 21.468 75.6783 21.468C75.3343 21.468 75.0063 21.556 74.6943 21.732C74.3903 21.908 74.1423 22.164 73.9503 22.5C73.7663 22.836 73.6743 23.232 73.6743 23.688C73.6743 24.144 73.7663 24.544 73.9503 24.888C74.1423 25.224 74.3903 25.48 74.6943 25.656C75.0063 25.832 75.3343 25.92 75.6783 25.92C76.0303 25.92 76.3583 25.832 76.6623 25.656C76.9743 25.472 77.2223 25.208 77.4062 24.864C77.5983 24.52 77.6943 24.12 77.6943 23.664ZM81.8071 21.36C82.0391 21.056 82.3551 20.8 82.7551 20.592C83.1551 20.384 83.6071 20.28 84.1111 20.28C84.6871 20.28 85.2111 20.424 85.6831 20.712C86.1631 20.992 86.5391 21.388 86.8111 21.9C87.0831 22.412 87.2191 23 87.2191 23.664C87.2191 24.328 87.0831 24.924 86.8111 25.452C86.5391 25.972 86.1631 26.38 85.6831 26.676C85.2111 26.964 84.6871 27.108 84.1111 27.108C83.6071 27.108 83.1591 27.008 82.7671 26.808C82.3751 26.6 82.0551 26.344 81.8071 26.04V30.144H80.4391V20.388H81.8071V21.36ZM85.8271 23.664C85.8271 23.208 85.7311 22.816 85.5391 22.488C85.3551 22.152 85.1071 21.9 84.7951 21.732C84.4911 21.556 84.1631 21.468 83.8111 21.468C83.4671 21.468 83.1391 21.556 82.8271 21.732C82.5231 21.908 82.2751 22.164 82.0831 22.5C81.8991 22.836 81.8071 23.232 81.8071 23.688C81.8071 24.144 81.8991 24.544 82.0831 24.888C82.2751 25.224 82.5231 25.48 82.8271 25.656C83.1391 25.832 83.4671 25.92 83.8111 25.92C84.1631 25.92 84.4911 25.832 84.7951 25.656C85.1071 25.472 85.3551 25.208 85.5391 24.864C85.7311 24.52 85.8271 24.12 85.8271 23.664ZM89.2679 19.512C89.0199 19.512 88.8119 19.428 88.6439 19.26C88.4759 19.092 88.3919 18.884 88.3919 18.636C88.3919 18.388 88.4759 18.18 88.6439 18.012C88.8119 17.844 89.0199 17.76 89.2679 17.76C89.5079 17.76 89.7119 17.844 89.8799 18.012C90.0479 18.18 90.1319 18.388 90.1319 18.636C90.1319 18.884 90.0479 19.092 89.8799 19.26C89.7119 19.428 89.5079 19.512 89.2679 19.512ZM89.9399 20.388V27H88.5719V20.388H89.9399ZM95.0719 20.28C95.5919 20.28 96.0559 20.388 96.4639 20.604C96.8799 20.82 97.2039 21.14 97.4359 21.564C97.6679 21.988 97.7839 22.5 97.7839 23.1V27H96.4279V23.304C96.4279 22.712 96.2799 22.26 95.9839 21.948C95.6879 21.628 95.2839 21.468 94.7719 21.468C94.2599 21.468 93.8519 21.628 93.5479 21.948C93.2519 22.26 93.1039 22.712 93.1039 23.304V27H91.7359V20.388H93.1039V21.144C93.3279 20.872 93.6119 20.66 93.9559 20.508C94.3079 20.356 94.6799 20.28 95.0719 20.28ZM102.193 20.28C102.705 20.28 103.157 20.384 103.549 20.592C103.949 20.792 104.261 21.044 104.485 21.348V20.388H105.865V27.108C105.865 27.716 105.737 28.256 105.481 28.728C105.225 29.208 104.853 29.584 104.365 29.856C103.885 30.128 103.309 30.264 102.637 30.264C101.741 30.264 100.997 30.052 100.405 29.628C99.8129 29.212 99.4769 28.644 99.3969 27.924H100.753C100.857 28.268 101.077 28.544 101.413 28.752C101.757 28.968 102.165 29.076 102.637 29.076C103.189 29.076 103.633 28.908 103.969 28.572C104.313 28.236 104.485 27.748 104.485 27.108V26.004C104.253 26.316 103.937 26.58 103.537 26.796C103.145 27.004 102.697 27.108 102.193 27.108C101.617 27.108 101.089 26.964 100.609 26.676C100.137 26.38 99.7609 25.972 99.4809 25.452C99.2089 24.924 99.0729 24.328 99.0729 23.664C99.0729 23 99.2089 22.412 99.4809 21.9C99.7609 21.388 100.137 20.992 100.609 20.712C101.089 20.424 101.617 20.28 102.193 20.28ZM104.485 23.688C104.485 23.232 104.389 22.836 104.197 22.5C104.013 22.164 103.769 21.908 103.465 21.732C103.161 21.556 102.833 21.468 102.481 21.468C102.129 21.468 101.801 21.556 101.497 21.732C101.193 21.9 100.945 22.152 100.753 22.488C100.569 22.816 100.477 23.208 100.477 23.664C100.477 24.12 100.569 24.52 100.753 24.864C100.945 25.208 101.193 25.472 101.497 25.656C101.809 25.832 102.137 25.92 102.481 25.92C102.833 25.92 103.161 25.832 103.465 25.656C103.769 25.48 104.013 25.224 104.197 24.888C104.389 24.544 104.485 24.144 104.485 23.688Z" fill="white"/>
<path d="M73.4624 181.014C93.7839 181.014 110.258 178.472 110.258 175.337C110.258 172.201 93.7839 169.66 73.4624 169.66C53.141 169.66 36.6672 172.201 36.6672 175.337C36.6672 178.472 53.141 181.014 73.4624 181.014Z" fill="#FFBB45"/>
<path d="M51.508 163.905L51.3161 164.319C51.1948 164.581 51.3087 164.891 51.5706 165.013L61.4976 169.612C61.7595 169.734 62.0701 169.62 62.1915 169.358L62.3833 168.944C62.5046 168.682 62.3907 168.371 62.1288 168.25L52.2018 163.65C51.94 163.529 51.6293 163.643 51.508 163.905Z" fill="black"/>
<path d="M51.7173 160.488L56.6573 161.788L63.3302 164.881L62.1914 167.34C62.0869 167.565 61.8975 167.739 61.6647 167.825C61.432 167.91 61.1749 167.899 60.9499 167.795L52.1658 163.726L51.7173 160.488Z" fill="white"/>
<path d="M61.3413 168.14C61.1684 168.14 60.9975 168.102 60.8408 168.029L51.928 163.902L51.408 160.132L56.7692 161.548L63.6761 164.76L62.4268 167.456C62.3295 167.661 62.1757 167.835 61.9835 167.956C61.7912 168.077 61.5685 168.141 61.3413 168.14V168.14ZM52.4051 163.55L61.0592 167.56C61.1399 167.598 61.2274 167.62 61.3166 167.624C61.4057 167.628 61.4948 167.614 61.5785 167.583C61.6623 167.552 61.7392 167.505 61.8047 167.445C61.8702 167.384 61.923 167.311 61.9601 167.23L62.991 165.006L56.569 162.03L52.0281 160.835L52.4051 163.55Z" fill="black"/>
<path d="M52.8599 165.608L47.2413 163.008C47.0347 162.912 46.8746 162.738 46.7961 162.524C46.7176 162.31 46.7271 162.074 46.8227 161.867V161.867C47.2159 161.019 47.9298 160.362 48.8074 160.041C49.685 159.719 50.6545 159.759 51.5027 160.151V160.151C51.9227 160.346 52.3002 160.621 52.6138 160.962C52.9274 161.302 53.1708 161.701 53.3301 162.136C53.4895 162.571 53.5616 163.032 53.5425 163.495C53.5234 163.957 53.4134 164.412 53.2187 164.831L52.8599 165.608Z" fill="black"/>
<path d="M97.082 110.796L94.2 110.971C92.8831 111.051 91.5884 110.605 90.6005 109.73C89.6127 108.856 89.0127 107.625 88.9323 106.308L88.7698 103.629C88.7346 103.049 88.814 102.468 89.0034 101.919C89.1928 101.37 89.4885 100.864 89.8736 100.429C90.2587 99.9949 90.7257 99.6404 91.2479 99.3863C91.7701 99.1323 92.3372 98.9836 92.9169 98.9488L95.1632 98.8123C96.7887 98.7149 98.3863 99.2667 99.6051 100.347C100.824 101.426 101.564 102.946 101.663 104.571L101.723 105.559C101.802 106.869 101.357 108.157 100.487 109.139C99.6167 110.121 98.3919 110.717 97.082 110.796V110.796Z" fill="black"/>
<path d="M47.8718 175.68C47.8099 175.681 47.7496 175.66 47.702 175.62C47.6543 175.581 47.6223 175.525 47.6118 175.464L40.6399 135.423L30.0059 175.443C29.9866 175.508 29.9431 175.562 29.8846 175.595C29.826 175.628 29.7569 175.637 29.6918 175.621C29.6267 175.604 29.5706 175.562 29.5354 175.505C29.5001 175.448 29.4885 175.379 29.5028 175.313L40.7439 133L48.1279 175.38C48.1397 175.447 48.1245 175.516 48.0855 175.573C48.0466 175.629 47.9871 175.667 47.9199 175.68C47.9039 175.681 47.8878 175.681 47.8718 175.68Z" fill="black"/>
<path d="M88.3681 130.592H35.722C35.0909 130.592 34.5793 131.104 34.5793 131.735V133.069C34.5793 133.7 35.0909 134.211 35.722 134.211H88.3681C88.9992 134.211 89.5108 133.7 89.5108 133.069V131.735C89.5108 131.104 88.9992 130.592 88.3681 130.592Z" fill="black"/>
<path d="M78.2101 100.361H45.1251C43.7451 100.361 42.6265 101.479 42.6265 102.859V123.307C42.6265 124.687 43.7451 125.805 45.1251 125.805H78.2101C79.59 125.805 80.7087 124.687 80.7087 123.307V102.859C80.7087 101.479 79.59 100.361 78.2101 100.361Z" fill="black"/>
<path d="M76.2835 102.556H47.0517C45.9999 102.556 45.1472 103.409 45.1472 104.461V122.217C45.1472 123.269 45.9999 124.122 47.0517 124.122H76.2835C77.3353 124.122 78.188 123.269 78.188 122.217V104.461C78.188 103.409 77.3353 102.556 76.2835 102.556Z" fill="white"/>
<path d="M63.9737 106.16H55.6771C54.9404 106.16 54.3433 106.757 54.3433 107.494V119.861C54.3433 120.597 54.9404 121.194 55.6771 121.194H63.9737C64.7103 121.194 65.3075 120.597 65.3075 119.861V107.494C65.3075 106.757 64.7103 106.16 63.9737 106.16Z" fill="#2ED82E"/>
<path d="M51.3741 105.752H48.4452C48.1371 105.752 47.8875 106.001 47.8875 106.309V109.238C47.8875 109.546 48.1371 109.796 48.4452 109.796H51.3741C51.6821 109.796 51.9317 109.546 51.9317 109.238V106.309C51.9317 106.001 51.6821 105.752 51.3741 105.752Z" fill="#2ED82E"/>
<path d="M51.2661 111.698H48.5531C48.1854 111.698 47.8875 111.996 47.8875 112.363V115.077C47.8875 115.444 48.1854 115.742 48.5531 115.742H51.2661C51.6338 115.742 51.9317 115.444 51.9317 115.077V112.363C51.9317 111.996 51.6338 111.698 51.2661 111.698Z" fill="#FC4A50"/>
<path d="M51.2584 117.643H48.5609C48.1889 117.643 47.8875 117.944 47.8875 118.316V121.014C47.8875 121.386 48.1889 121.687 48.5609 121.687H51.2584C51.6303 121.687 51.9317 121.386 51.9317 121.014V118.316C51.9317 117.944 51.6303 117.643 51.2584 117.643Z" fill="#FFBB45"/>
<path d="M76.139 106.714H67.4602C67.3912 106.714 67.3251 106.686 67.2763 106.638C67.2276 106.589 67.2002 106.523 67.2002 106.454C67.2002 106.385 67.2276 106.319 67.2763 106.27C67.3251 106.221 67.3912 106.194 67.4602 106.194H76.139C76.208 106.194 76.2741 106.221 76.3228 106.27C76.3716 106.319 76.399 106.385 76.399 106.454C76.399 106.523 76.3716 106.589 76.3228 106.638C76.2741 106.686 76.208 106.714 76.139 106.714Z" fill="black"/>
<path d="M76.139 109.12H67.4602C67.3912 109.12 67.3251 109.093 67.2763 109.044C67.2276 108.995 67.2002 108.929 67.2002 108.86C67.2002 108.791 67.2276 108.725 67.2763 108.676C67.3251 108.627 67.3912 108.6 67.4602 108.6H76.139C76.208 108.6 76.2741 108.627 76.3228 108.676C76.3716 108.725 76.399 108.791 76.399 108.86C76.399 108.929 76.3716 108.995 76.3228 109.044C76.2741 109.093 76.208 109.12 76.139 109.12Z" fill="black"/>
<path d="M73.4441 111.515H67.4641C67.3951 111.515 67.329 111.487 67.2803 111.438C67.2315 111.39 67.2041 111.324 67.2041 111.255C67.2041 111.186 67.2315 111.12 67.2803 111.071C67.329 111.022 67.3951 110.995 67.4641 110.995H73.4441C73.5131 110.995 73.5792 111.022 73.6279 111.071C73.6767 111.12 73.7041 111.186 73.7041 111.255C73.7041 111.324 73.6767 111.39 73.6279 111.438C73.5792 111.487 73.5131 111.515 73.4441 111.515Z" fill="black"/>
<path d="M71.9792 113.324H68.3626C67.7257 113.324 67.2095 113.84 67.2095 114.477C67.2095 115.114 67.7257 115.63 68.3626 115.63H71.9792C72.616 115.63 73.1323 115.114 73.1323 114.477C73.1323 113.84 72.616 113.324 71.9792 113.324Z" fill="#FC4A50"/>
<path d="M75.5397 115.561C76.1378 115.561 76.6226 115.077 76.6226 114.479C76.6226 113.881 76.1378 113.396 75.5397 113.396C74.9416 113.396 74.4568 113.881 74.4568 114.479C74.4568 115.077 74.9416 115.561 75.5397 115.561Z" fill="#FFBB45"/>
<path d="M62.0108 130.592H52.9524L56.6613 125.805H66.0915L62.0108 130.592Z" fill="black"/>
<path d="M101.181 147.361C101.16 147.361 101.138 147.358 101.117 147.353C101.084 147.345 101.053 147.33 101.026 147.309C100.998 147.289 100.975 147.263 100.958 147.234C100.94 147.205 100.929 147.172 100.924 147.138C100.919 147.105 100.92 147.07 100.929 147.037L104.35 133.517C104.368 133.45 104.411 133.393 104.47 133.358C104.53 133.323 104.601 133.313 104.668 133.33C104.735 133.347 104.792 133.39 104.827 133.45C104.862 133.509 104.872 133.58 104.855 133.647L101.433 147.167C101.419 147.223 101.386 147.272 101.34 147.307C101.295 147.342 101.239 147.361 101.181 147.361Z" fill="black"/>
<path d="M82.3895 175.112C82.3778 175.113 82.366 175.113 82.3544 175.112C82.3204 175.107 82.2878 175.096 82.2582 175.079C82.2286 175.062 82.2026 175.039 82.1819 175.012C82.1611 174.985 82.1459 174.954 82.1371 174.921C82.1283 174.888 82.1262 174.853 82.1307 174.819L85.6317 148.974C85.6362 148.94 85.6474 148.907 85.6646 148.877C85.6819 148.847 85.7048 148.821 85.7322 148.8C85.7595 148.779 85.7907 148.764 85.824 148.755C85.8573 148.746 85.892 148.744 85.9261 148.749C85.9602 148.753 85.9932 148.764 86.023 148.782C86.0528 148.799 86.0789 148.822 86.0999 148.849C86.1208 148.876 86.1362 148.908 86.145 148.941C86.1539 148.974 86.1562 149.009 86.1517 149.043L82.6469 174.887C82.6384 174.949 82.6076 175.006 82.5603 175.048C82.513 175.089 82.4523 175.112 82.3895 175.112V175.112Z" fill="black"/>
<path d="M105 119.584L102.363 131.2C102.14 132.18 102.754 133.154 103.734 133.376L105.719 133.827C106.699 134.049 107.673 133.436 107.895 132.456L110.532 120.84C110.755 119.86 110.141 118.886 109.161 118.664L107.176 118.213C106.197 117.991 105.222 118.604 105 119.584Z" fill="#2ED82E"/>
<path d="M101.364 175.112C101.301 175.113 101.24 175.09 101.192 175.049C101.144 175.008 101.113 174.951 101.104 174.888L97.45 149.042C97.4404 148.973 97.4585 148.903 97.5005 148.847C97.5424 148.792 97.6047 148.755 97.6736 148.745C97.7426 148.736 97.8126 148.754 97.8682 148.796C97.9237 148.838 97.9604 148.9 97.97 148.969L101.623 174.816C101.633 174.884 101.615 174.953 101.573 175.008C101.532 175.063 101.47 175.1 101.402 175.109C101.39 175.112 101.377 175.112 101.364 175.112V175.112Z" fill="black"/>
<path d="M100.154 166.545H83.5491C83.4801 166.545 83.414 166.518 83.3652 166.469C83.3165 166.42 83.2891 166.354 83.2891 166.285C83.2891 166.216 83.3165 166.15 83.3652 166.101C83.414 166.052 83.4801 166.025 83.5491 166.025H100.154C100.223 166.025 100.289 166.052 100.338 166.101C100.387 166.15 100.414 166.216 100.414 166.285C100.414 166.354 100.387 166.42 100.338 166.469C100.289 166.518 100.223 166.545 100.154 166.545Z" fill="black"/>
<path d="M99.9238 142.906H84.186C83.1938 142.906 82.3894 143.71 82.3894 144.702V147.209C82.3894 148.201 83.1938 149.005 84.186 149.005H99.9238C100.916 149.005 101.72 148.201 101.72 147.209V144.702C101.72 143.71 100.916 142.906 99.9238 142.906Z" fill="#2ED82E"/>
<path d="M102.199 103.426C104.328 103.426 106.053 101.7 106.053 99.5715C106.053 97.4427 104.328 95.717 102.199 95.717C100.07 95.717 98.3445 97.4427 98.3445 99.5715C98.3445 101.7 100.07 103.426 102.199 103.426Z" fill="black"/>
<path d="M109.276 101.265C112.134 101.265 114.45 98.9489 114.45 96.0914C114.45 93.2339 112.134 90.9174 109.276 90.9174C106.419 90.9174 104.102 93.2339 104.102 96.0914C104.102 98.9489 106.419 101.265 109.276 101.265Z" fill="black"/>
<path d="M99.6807 106.867C99.6807 106.419 99.5027 105.989 99.1858 105.672C98.8688 105.355 98.439 105.177 97.9907 105.177C97.9116 105.178 97.8325 105.184 97.7541 105.195L97.4304 100.76L91.1215 101.437C90.4736 101.506 89.8741 101.812 89.4385 102.297C89.0029 102.781 88.7619 103.41 88.762 104.062V104.775C88.7677 105.603 88.5377 106.414 88.099 107.115L88.0873 107.132V107.139C88.0395 107.211 88.0075 107.293 87.9937 107.378C87.9798 107.464 87.9844 107.551 88.007 107.635C88.0296 107.719 88.0698 107.796 88.1249 107.863C88.18 107.93 88.2488 107.985 88.3265 108.023L88.7659 108.239V109.91C88.7659 110.243 88.8378 110.571 88.9768 110.873C89.1157 111.175 89.3184 111.443 89.571 111.659C89.8235 111.875 90.1198 112.034 90.4395 112.125C90.7592 112.215 91.0948 112.236 91.4231 112.184L93.0429 111.932L93.3679 114.71L98.525 114.102L98.1753 111.136H98.1909L98.0024 108.556C98.4484 108.553 98.8751 108.373 99.1894 108.057C99.5038 107.741 99.6804 107.313 99.6807 106.867V106.867Z" fill="#C39D78"/>
<path d="M93.1405 114.999L92.8142 112.24L91.4622 112.451C91.0968 112.508 90.7234 112.485 90.3676 112.384C90.0119 112.283 89.6822 112.106 89.4013 111.866C89.1204 111.625 88.895 111.327 88.7404 110.991C88.5858 110.655 88.5058 110.289 88.506 109.919V108.408L88.2109 108.263C88.101 108.21 88.0037 108.134 87.9255 108.04C87.8473 107.946 87.7899 107.836 87.7572 107.719C87.7245 107.598 87.7175 107.473 87.7365 107.349C87.7556 107.226 87.8002 107.108 87.8677 107.004L87.882 106.981C88.296 106.322 88.5125 105.557 88.506 104.778V104.064C88.5046 103.348 88.7685 102.658 89.2468 102.125C89.7251 101.593 90.3837 101.256 91.0956 101.181L97.6723 100.475L97.9973 104.92C98.4829 104.929 98.9474 105.12 99.2998 105.454C99.6522 105.789 99.8672 106.243 99.9027 106.727C99.9381 107.211 99.7915 107.692 99.4915 108.074C99.1915 108.456 98.7597 108.712 98.2807 108.792L98.4666 111.355L98.8176 114.329L93.1405 114.999ZM93.2705 111.639L93.5981 114.421L98.2391 113.874L97.8907 110.919H97.9167L97.7256 108.3H98.0038C98.383 108.299 98.7463 108.147 99.0138 107.878C99.2812 107.609 99.4309 107.245 99.4299 106.866C99.4288 106.487 99.2772 106.123 99.0083 105.856C98.7394 105.588 98.3752 105.439 97.996 105.44C97.929 105.44 97.8621 105.446 97.7958 105.455L97.5202 105.494L97.19 101.05L91.1476 101.7C90.5634 101.761 90.0229 102.037 89.6303 102.474C89.2378 102.911 89.0211 103.478 89.0221 104.066V104.779C89.0285 105.657 88.7836 106.519 88.3162 107.262L88.3032 107.283C88.2746 107.327 88.2556 107.375 88.2473 107.427C88.239 107.478 88.2417 107.531 88.2551 107.581C88.2678 107.628 88.2906 107.672 88.3217 107.709C88.3529 107.746 88.3918 107.777 88.4358 107.798L89.0221 108.084V109.918C89.0221 110.213 89.086 110.504 89.2092 110.772C89.3324 111.039 89.512 111.277 89.7358 111.469C89.9596 111.66 90.2222 111.801 90.5056 111.882C90.789 111.963 91.0865 111.981 91.3777 111.936L93.2705 111.639Z" fill="black"/>
<path d="M90.4301 110.182C90.3639 110.182 90.2978 110.176 90.2325 110.165C89.9813 110.122 89.7483 110.006 89.5617 109.832C89.51 109.786 89.4789 109.721 89.4752 109.651C89.4716 109.582 89.4957 109.514 89.5422 109.462C89.5887 109.41 89.6539 109.379 89.7234 109.375C89.7929 109.372 89.861 109.396 89.9127 109.442C90.0256 109.547 90.1658 109.618 90.317 109.647C90.798 109.726 91.1763 109.257 91.1802 109.257C91.2236 109.205 91.2852 109.173 91.352 109.166C91.4188 109.159 91.4856 109.178 91.5385 109.22C91.5915 109.261 91.6263 109.321 91.6359 109.388C91.6454 109.454 91.6289 109.522 91.5897 109.576C91.5624 109.606 91.1035 110.182 90.4301 110.182Z" fill="black"/>
<path d="M91.4947 106.658C91.7209 106.658 91.9042 106.474 91.9042 106.248C91.9042 106.022 91.7209 105.839 91.4947 105.839C91.2685 105.839 91.0852 106.022 91.0852 106.248C91.0852 106.474 91.2685 106.658 91.4947 106.658Z" fill="black"/>
<path d="M97.8193 107.745C97.681 107.745 97.5457 107.704 97.4307 107.627C97.3157 107.55 97.226 107.441 97.1731 107.313C97.1202 107.185 97.1063 107.044 97.1333 106.909C97.1603 106.773 97.2269 106.648 97.3247 106.551C97.4225 106.453 97.5472 106.386 97.6828 106.359C97.8185 106.332 97.9591 106.346 98.0869 106.399C98.2147 106.452 98.324 106.542 98.4008 106.657C98.4777 106.772 98.5187 106.907 98.5187 107.045C98.5187 107.231 98.445 107.409 98.3138 107.54C98.1827 107.671 98.0048 107.745 97.8193 107.745V107.745ZM97.8193 106.866C97.7838 106.866 97.7491 106.876 97.7196 106.896C97.6901 106.916 97.6671 106.944 97.6535 106.977C97.64 107.009 97.6364 107.045 97.6433 107.08C97.6502 107.115 97.6673 107.147 97.6924 107.172C97.7175 107.197 97.7495 107.214 97.7843 107.221C97.8191 107.228 97.8551 107.225 97.8879 107.211C97.9207 107.197 97.9487 107.174 97.9684 107.145C97.9882 107.115 97.9987 107.081 97.9987 107.045C97.9987 106.998 97.9798 106.952 97.9461 106.918C97.9125 106.885 97.8669 106.866 97.8193 106.866V106.866Z" fill="black"/>
<path d="M93.6331 114.008L101.545 113.649C102.728 113.583 103.89 113.987 104.777 114.774C105.917 115.814 106.809 117.723 105.567 121.194L103.82 124.451L93.9399 123.255L92.233 126.575L86.032 127.284C85.8786 127.301 85.4041 126.484 85.3378 126.381C84.8442 125.629 84.5228 124.777 84.3966 123.887C84.0716 121.349 85.9566 119.311 87.4165 117.456C88.9661 115.477 91.0253 114.126 93.6331 114.008Z" fill="#2490F6"/>
<path d="M97.3954 107.42C97.3344 107.421 97.2749 107.4 97.2274 107.362C97.1798 107.324 97.1473 107.27 97.1354 107.21C97.1001 107.035 97.1113 106.854 97.1679 106.685C97.2244 106.516 97.3244 106.364 97.4578 106.246C97.5869 106.138 97.7398 106.062 97.9039 106.025C98.0679 105.988 98.2385 105.99 98.4016 106.031C98.4345 106.04 98.4654 106.056 98.4923 106.077C98.5193 106.098 98.5418 106.124 98.5586 106.154C98.5755 106.184 98.5863 106.216 98.5905 106.25C98.5946 106.284 98.5921 106.319 98.5829 106.352C98.5738 106.385 98.5583 106.415 98.5372 106.442C98.5162 106.469 98.49 106.492 98.4603 106.509C98.4305 106.526 98.3977 106.536 98.3638 106.541C98.3299 106.545 98.2954 106.542 98.2625 106.533C98.1828 106.514 98.0998 106.513 98.0198 106.531C97.9398 106.548 97.8649 106.584 97.801 106.636C97.7361 106.694 97.6876 106.768 97.6603 106.851C97.6329 106.934 97.6276 107.022 97.645 107.108C97.6518 107.141 97.652 107.176 97.6455 107.209C97.639 107.243 97.626 107.275 97.6072 107.303C97.5883 107.332 97.5641 107.356 97.5357 107.375C97.5074 107.394 97.4757 107.408 97.4422 107.414C97.4267 107.417 97.4111 107.419 97.3954 107.42V107.42Z" fill="black"/>
<path d="M91.1243 101.44C91.1243 101.44 91.0398 106.677 97.8076 105.19L97.4332 100.762L91.1243 101.44Z" fill="black"/>
<path d="M91.5896 108.523C90.5158 108.523 89.6396 107.511 89.6396 106.264C89.6396 105.017 90.5145 104.005 91.5896 104.005C92.6647 104.005 93.5396 105.019 93.5396 106.264C93.5396 107.509 92.6647 108.523 91.5896 108.523ZM91.5896 104.525C90.8018 104.525 90.1596 105.305 90.1596 106.264C90.1596 107.223 90.8005 108.003 91.5896 108.003C92.3787 108.003 93.0196 107.223 93.0196 106.264C93.0196 105.305 92.38 104.525 91.5896 104.525V104.525Z" fill="black"/>
<path d="M100.497 135.886H90.5601V129.289H99.742C100.391 131.424 100.648 133.659 100.502 135.886H100.497Z" fill="black"/>
<path d="M75.4449 130.592H70.3255C70.0403 130.593 69.7589 130.527 69.5036 130.4C69.2482 130.273 69.0259 130.088 68.8543 129.86C68.6827 129.632 68.5664 129.368 68.5146 129.087C68.4629 128.807 68.4771 128.518 68.5562 128.244V128.244C68.6635 127.876 68.8874 127.553 69.1943 127.323C69.5011 127.093 69.8744 126.969 70.2579 126.969H75.5112C75.881 126.969 76.2416 127.084 76.5424 127.3C76.8431 127.515 77.069 127.819 77.1882 128.169V128.169C77.2816 128.445 77.3078 128.74 77.2645 129.029C77.2212 129.317 77.1097 129.592 76.9392 129.828C76.7688 130.065 76.5443 130.258 76.2844 130.391C76.0245 130.524 75.7367 130.593 75.4449 130.592V130.592Z" fill="#F3EAD6"/>
<path d="M93.7865 123.255L92.1043 126.575L82.4154 127.54C82.0532 127.576 81.6882 127.506 81.365 127.338L77.1699 125.159C77.1699 125.159 75.7048 124.339 73.5871 125.223L70.0199 126.842C69.8702 126.906 69.7444 127.016 69.6605 127.156C69.5765 127.296 69.5386 127.459 69.5519 127.622V127.629C69.5608 127.696 69.5839 127.76 69.6196 127.817C69.6552 127.874 69.7027 127.922 69.7588 127.959C69.8149 127.996 69.8782 128.021 69.9446 128.031C70.0109 128.041 70.0788 128.037 70.1434 128.019L73.9199 126.96L72.1506 128.56C71.8902 128.794 71.7085 129.102 71.6306 129.443C71.511 129.998 71.6553 130.751 73.0931 131.094C73.0931 131.094 73.7548 132.205 74.8806 131.614C74.8871 131.614 75.047 131.756 75.06 131.765C75.2358 131.9 75.4238 132.019 75.6216 132.12C76.2412 132.428 76.9192 132.6 77.6106 132.625C78.0396 132.646 78.4426 132.459 78.4985 131.993L78.8599 132.031C79.9866 132.146 81.1085 132.312 82.2256 132.528L90.7705 134.18C93.1105 134.512 94.7849 134.011 95.639 133.673C98.135 132.686 99.7522 130.931 101.05 128.702L103.52 124.45L93.7865 123.255Z" fill="#C39D78"/>
<path d="M92.298 134.552C91.776 134.551 91.2547 134.513 90.738 134.439H90.725L82.1749 132.78C81.0725 132.567 79.948 132.402 78.8326 132.286L78.6922 132.272C78.5336 132.671 78.1202 132.909 77.5963 132.883C76.8678 132.855 76.1536 132.673 75.5007 132.348C75.2893 132.24 75.0878 132.113 74.8988 131.969L74.8481 131.925L74.839 131.917C73.929 132.298 73.2296 131.746 72.9293 131.317C71.3082 130.892 71.2575 129.928 71.3693 129.384C71.4588 128.989 71.6708 128.632 71.9751 128.364L72.9267 127.503L70.2045 128.264C70.1045 128.292 69.9996 128.298 69.8969 128.283C69.7942 128.267 69.6961 128.229 69.6091 128.173C69.522 128.116 69.4481 128.041 69.3923 127.953C69.3365 127.866 69.3 127.767 69.2854 127.664C69.2621 127.446 69.3088 127.225 69.4188 127.034C69.5288 126.844 69.6965 126.693 69.8977 126.604L73.4792 124.983C75.6957 124.057 77.2323 124.893 77.2973 124.929L81.4794 127.103C81.7591 127.249 82.0756 127.309 82.3894 127.277L91.9353 126.327L93.6357 122.971L103.95 124.24L101.276 128.834C99.7834 131.397 98.0258 133.011 95.7365 133.916C94.6408 134.344 93.474 134.559 92.298 134.552V134.552ZM90.8121 133.924C92.5151 134.164 94.1076 133.999 95.5428 133.433C97.745 132.562 99.3739 131.063 100.823 128.573L103.101 124.66L93.9399 123.536L92.2759 126.819L82.4453 127.798C82.0327 127.84 81.6171 127.76 81.2493 127.568L77.0594 125.391C76.997 125.357 75.6606 124.642 73.6963 125.464L70.1265 127.078C70.0272 127.12 69.9432 127.191 69.8862 127.282C69.8291 127.374 69.8018 127.48 69.808 127.588C69.8118 127.618 69.822 127.647 69.838 127.673C69.8539 127.699 69.8752 127.721 69.9005 127.738C69.9257 127.755 69.9543 127.766 69.9843 127.771C70.0143 127.777 70.0451 127.775 70.0745 127.767L74.9157 126.41L72.33 128.75C72.1066 128.945 71.9502 129.205 71.8828 129.494C71.7411 130.15 72.1675 130.602 73.1516 130.836L73.2582 130.862L73.3141 130.957C73.37 131.048 73.8835 131.84 74.7584 131.38C74.9222 131.294 75.0301 131.39 75.1939 131.536L75.2238 131.563C75.3872 131.686 75.5612 131.795 75.7438 131.887C76.3307 132.177 76.9722 132.339 77.6262 132.363C77.7965 132.37 78.1969 132.35 78.2424 131.96L78.2723 131.7L78.8898 131.763C80.0195 131.879 81.1596 132.047 82.2776 132.264L90.8121 133.924Z" fill="black"/>
<path d="M79.0134 173.426H68.0726C67.784 173.426 67.55 173.66 67.55 173.948V174.405C67.55 174.693 67.784 174.927 68.0726 174.927H79.0134C79.3021 174.927 79.5361 174.693 79.5361 174.405V173.948C79.5361 173.66 79.3021 173.426 79.0134 173.426Z" fill="black"/>
<path d="M66.3032 170.762L71.3316 169.865H78.687V172.577C78.687 172.825 78.5885 173.063 78.4133 173.238C78.238 173.413 78.0002 173.512 77.7523 173.512H68.0699L66.3032 170.762Z" fill="white"/>
<path d="M77.7524 173.772H67.9309L65.873 170.575L71.333 169.605H78.9484V172.577C78.9481 172.894 78.8219 173.198 78.5977 173.422C78.3734 173.646 78.0694 173.772 77.7524 173.772V173.772ZM68.2143 173.252H77.7524C77.9313 173.251 78.1027 173.18 78.2292 173.054C78.3556 172.927 78.4268 172.756 78.4271 172.577V170.125H71.3551L66.7323 170.949L68.2143 173.252Z" fill="black"/>
<path d="M60.0659 164.737L57.0434 162.527C56.5774 162.187 56.1829 161.759 55.8824 161.266C55.5819 160.774 55.3813 160.227 55.2921 159.658C55.2029 159.088 55.2268 158.506 55.3624 157.945C55.4981 157.385 55.7428 156.857 56.0827 156.391L69.2517 138.331C69.75 137.647 70.3781 137.069 71.1001 136.628C71.8221 136.187 72.6239 135.893 73.4597 135.762C74.2955 135.631 75.1488 135.666 75.971 135.865C76.7932 136.064 77.5682 136.423 78.2516 136.922V136.922C78.9352 137.42 79.5139 138.048 79.9547 138.77C80.3955 139.492 80.6898 140.294 80.8206 141.13C80.9515 141.966 80.9164 142.819 80.7174 143.641C80.5184 144.463 80.1593 145.238 79.6608 145.922L66.7024 163.698C65.96 164.716 64.8438 165.397 63.5992 165.592C62.3547 165.786 61.0837 165.479 60.0659 164.737V164.737Z" fill="black"/>
<path d="M91.4883 145.13H68.4783V140.609C68.4786 138.869 69.1699 137.201 70.4 135.971C71.6302 134.741 73.2985 134.05 75.0381 134.05H100.497V136.121C100.497 138.51 99.5481 140.802 97.8586 142.491C96.1691 144.181 93.8776 145.13 91.4883 145.13V145.13Z" fill="black"/>
<path d="M76.6162 170.501H72.88C71.7152 170.501 70.5981 170.038 69.7744 169.215C68.9506 168.391 68.4876 167.274 68.4873 166.109V144.575H81.3703V165.751C81.3705 166.375 81.2476 166.993 81.0087 167.57C80.7698 168.146 80.4196 168.67 79.978 169.111C79.5365 169.552 79.0123 169.902 78.4354 170.141C77.8586 170.379 77.2404 170.501 76.6162 170.501Z" fill="black"/>
<path d="M61.6103 164.828C61.5627 164.827 61.5161 164.814 61.4756 164.789C61.435 164.765 61.402 164.729 61.3802 164.687C61.3583 164.645 61.3485 164.597 61.3517 164.55C61.3549 164.503 61.371 164.457 61.3984 164.418L68.2702 154.668C68.31 154.612 68.3706 154.573 68.4386 154.562C68.5066 154.55 68.5765 154.566 68.6329 154.606C68.6892 154.645 68.7275 154.706 68.7392 154.774C68.7509 154.842 68.7351 154.912 68.6953 154.968L61.8235 164.718C61.7993 164.752 61.7673 164.78 61.7302 164.799C61.6931 164.818 61.6519 164.828 61.6103 164.828V164.828Z" fill="white"/>
<path d="M77.2871 170.713C77.2181 170.713 77.152 170.685 77.1033 170.637C77.0545 170.588 77.0271 170.522 77.0271 170.453V144.039C77.0278 143.061 77.4165 142.123 78.108 141.432C78.7995 140.74 79.7371 140.351 80.7152 140.35H90.8266C91.8889 140.349 92.9074 139.926 93.6585 139.175C94.4097 138.424 94.8322 137.406 94.8332 136.343V134.05C94.8332 133.981 94.8606 133.915 94.9094 133.866C94.9581 133.817 95.0242 133.79 95.0932 133.79C95.1622 133.79 95.2283 133.817 95.2771 133.866C95.3258 133.915 95.3532 133.981 95.3532 134.05V136.343C95.3518 137.543 94.8745 138.694 94.0259 139.543C93.1773 140.391 92.0267 140.869 90.8266 140.87H80.7152C79.8751 140.871 79.0696 141.205 78.4757 141.799C77.8817 142.394 77.5478 143.199 77.5471 144.039V170.453C77.5471 170.522 77.5197 170.588 77.4709 170.637C77.4222 170.685 77.3561 170.713 77.2871 170.713Z" fill="white"/>
<path d="M73.0907 131.35C73.0347 131.35 72.9802 131.331 72.9355 131.298C72.8907 131.264 72.8581 131.217 72.8424 131.163C72.2392 129.097 74.4531 127.821 74.4765 127.808C74.5062 127.79 74.539 127.779 74.5729 127.775C74.6069 127.771 74.6414 127.773 74.6745 127.782C74.7076 127.791 74.7386 127.806 74.7657 127.827C74.7929 127.848 74.8156 127.874 74.8327 127.904C74.8498 127.933 74.8608 127.966 74.8652 128C74.8696 128.034 74.8673 128.069 74.8584 128.102C74.8494 128.135 74.8341 128.166 74.8132 128.193C74.7922 128.22 74.7662 128.243 74.7365 128.26V128.26C74.3975 128.469 74.0932 128.73 73.8343 129.032C73.3143 129.659 73.144 130.326 73.3468 131.017C73.3661 131.083 73.3583 131.155 73.3252 131.215C73.292 131.276 73.2362 131.32 73.17 131.34C73.1442 131.347 73.1175 131.35 73.0907 131.35V131.35Z" fill="black"/>
<path d="M74.8795 131.87C74.8371 131.87 74.7955 131.859 74.7581 131.839C74.7207 131.819 74.6887 131.791 74.665 131.756C74.5245 131.565 74.4271 131.346 74.3795 131.114C74.332 130.882 74.3353 130.642 74.3894 130.411C74.6494 129.317 75.9715 128.572 76.0287 128.541C76.0586 128.522 76.0921 128.509 76.1271 128.503C76.1621 128.498 76.1979 128.499 76.2322 128.508C76.2666 128.517 76.2988 128.532 76.3269 128.554C76.355 128.576 76.3783 128.603 76.3955 128.634C76.4128 128.665 76.4235 128.699 76.427 128.734C76.4305 128.769 76.4268 128.805 76.4161 128.839C76.4053 128.873 76.3878 128.904 76.3646 128.931C76.3413 128.957 76.3129 128.979 76.2809 128.994C76.2601 129.007 75.1005 129.665 74.8951 130.532C74.8584 130.693 74.8571 130.859 74.8915 131.02C74.9258 131.181 74.995 131.332 75.094 131.463C75.1208 131.502 75.1363 131.548 75.1391 131.595C75.1418 131.642 75.1316 131.689 75.1095 131.731C75.0874 131.773 75.0543 131.808 75.0138 131.833C74.9733 131.857 74.9268 131.87 74.8795 131.87V131.87Z" fill="black"/>
<path d="M78.4974 132.26C78.4335 132.26 78.3717 132.237 78.3238 132.195C78.2758 132.153 78.2451 132.095 78.2374 132.031C78.1867 131.615 77.3404 131.121 76.9374 130.951L76.5786 130.798L77.824 129.592C77.8742 129.548 77.9394 129.525 78.0062 129.528C78.073 129.53 78.1363 129.558 78.1828 129.607C78.2293 129.655 78.2555 129.719 78.256 129.785C78.2565 129.852 78.2312 129.917 78.1854 129.966L77.4873 130.642C77.9436 130.886 78.6794 131.37 78.7522 131.969C78.7603 132.037 78.741 132.106 78.6987 132.16C78.6563 132.214 78.5942 132.249 78.526 132.257L78.4974 132.26Z" fill="black"/>
<path d="M69.4882 174.929H63.2963C63.0684 174.929 62.8498 174.838 62.6887 174.677C62.5275 174.516 62.437 174.297 62.437 174.069V174.069C62.4374 173.134 62.8089 172.238 63.47 171.577C64.1311 170.916 65.0277 170.544 65.9626 170.544V170.544C66.8977 170.544 67.7944 170.915 68.4556 171.576C69.1168 172.238 69.4882 173.134 69.4882 174.069V174.929Z" fill="black"/>
<path d="M93.2796 106.152C93.2106 106.156 93.143 106.132 93.0915 106.086C93.0401 106.04 93.0091 105.975 93.0053 105.906C93.0015 105.837 93.0252 105.77 93.0713 105.718C93.1174 105.667 93.182 105.636 93.251 105.632L97.3512 105.178C97.4201 105.171 97.4893 105.191 97.5434 105.234C97.5975 105.278 97.6322 105.341 97.6398 105.41C97.6474 105.479 97.6272 105.548 97.5838 105.602C97.5405 105.656 97.4773 105.691 97.4084 105.698L93.3082 106.151L93.2796 106.152Z" fill="black"/>
<path d="M93.0742 111.672L93.2575 113.232L95.9719 111.442C95.991 111.43 96.0053 111.411 96.0124 111.39C96.0195 111.368 96.0189 111.345 96.0108 111.323C96.0027 111.302 95.9876 111.285 95.968 111.273C95.9484 111.262 95.9254 111.258 95.903 111.261L93.0742 111.672Z" fill="black"/>
<path d="M93.7865 123.515C93.7508 123.515 93.7154 123.508 93.6825 123.494C93.6202 123.466 93.5716 123.414 93.5472 123.35C93.5229 123.286 93.5248 123.215 93.5525 123.152L94.6185 120.698C94.6318 120.666 94.6512 120.637 94.6757 120.613C94.7002 120.589 94.7293 120.57 94.7612 120.557C94.7932 120.544 94.8274 120.537 94.8618 120.538C94.8962 120.538 94.9303 120.546 94.9619 120.559C94.9935 120.573 95.022 120.593 95.0459 120.618C95.0698 120.643 95.0885 120.672 95.1009 120.704C95.1134 120.736 95.1193 120.77 95.1184 120.805C95.1175 120.839 95.1098 120.873 95.0956 120.905L94.0283 123.359C94.0079 123.406 93.974 123.446 93.931 123.473C93.888 123.501 93.8377 123.516 93.7865 123.515Z" fill="black"/>
<path d="M68.5615 161.004C68.4926 161.004 68.4264 160.977 68.3777 160.928C68.3289 160.879 68.3015 160.813 68.3015 160.744V139.591C68.3015 139.522 68.3289 139.456 68.3777 139.407C68.4264 139.358 68.4926 139.331 68.5615 139.331C68.6305 139.331 68.6966 139.358 68.7454 139.407C68.7941 139.456 68.8215 139.522 68.8215 139.591V160.744C68.8215 160.813 68.7941 160.879 68.7454 160.928C68.6966 160.977 68.6305 161.004 68.5615 161.004Z" fill="white"/>
<path d="M41.2718 100.84C42.9942 100.84 44.3905 99.444 44.3905 97.7216C44.3905 95.9992 42.9942 94.6029 41.2718 94.6029C39.5494 94.6029 38.1531 95.9992 38.1531 97.7216C38.1531 99.444 39.5494 100.84 41.2718 100.84Z" fill="#FFBB45"/>
<path d="M41.4457 106.764C43.0156 103.783 42.5332 100.442 40.3682 99.302C38.2031 98.162 35.1754 99.6547 33.6055 102.636C32.0356 105.617 32.518 108.958 34.6831 110.098C36.8481 111.239 39.8758 109.746 41.4457 106.764Z" fill="#FFBB45"/>
<path d="M40.7463 117.805C41.3836 113.299 38.931 109.226 35.2683 108.708C31.6056 108.19 28.1198 111.423 27.4825 115.93C26.8452 120.436 29.2978 124.509 32.9605 125.027C36.6232 125.545 40.109 122.312 40.7463 117.805Z" fill="#FFBB45"/>
<path d="M17.5897 110.826C19.1822 110.826 20.4731 109.535 20.4731 107.942C20.4731 106.35 19.1822 105.059 17.5897 105.059C15.9972 105.059 14.7063 106.35 14.7063 107.942C14.7063 109.535 15.9972 110.826 17.5897 110.826Z" fill="#FFBB45"/>
<path d="M20.6887 119.675C22.8606 119.166 24.0851 116.464 23.4236 113.639C22.762 110.814 20.465 108.937 18.2931 109.445C16.1211 109.954 14.8966 112.656 15.5582 115.481C16.2197 118.306 18.5167 120.184 20.6887 119.675Z" fill="#FFBB45"/>
<path d="M23.4067 132.393C26.5603 131.85 28.575 128.263 27.9067 124.382C27.2385 120.501 24.1403 117.795 20.9867 118.338C17.8331 118.882 15.8183 122.468 16.4866 126.349C17.1549 130.23 20.2531 132.936 23.4067 132.393Z" fill="#FFBB45"/>
<path d="M27.1486 145.242C27.085 145.242 27.0233 145.219 26.9754 145.177C26.9275 145.136 26.8966 145.077 26.8886 145.014C25.3533 132.835 21.1231 122.25 21.0802 122.15C21.0663 122.118 21.0588 122.084 21.0584 122.049C21.0579 122.014 21.0645 121.979 21.0777 121.947C21.0908 121.915 21.1103 121.886 21.135 121.861C21.1597 121.837 21.1891 121.817 21.2215 121.804C21.2538 121.791 21.2884 121.785 21.3232 121.786C21.358 121.786 21.3924 121.794 21.4242 121.808C21.456 121.822 21.4846 121.843 21.5084 121.868C21.5322 121.893 21.5506 121.923 21.5625 121.956C21.6054 122.061 25.8603 132.701 27.4125 144.949C27.4169 144.983 27.4145 145.018 27.4055 145.051C27.3965 145.084 27.381 145.115 27.36 145.142C27.339 145.169 27.3128 145.192 27.283 145.209C27.2532 145.225 27.2204 145.236 27.1863 145.24L27.1486 145.242Z" fill="black"/>
<path d="M30.2895 145.376C30.2205 145.376 30.1544 145.348 30.1057 145.3C30.0569 145.251 30.0295 145.185 30.0295 145.116C29.997 132.896 31.7195 123.098 33.169 117.024C34.742 110.437 36.3501 106.685 36.3631 106.65C36.3911 106.588 36.4426 106.539 36.5063 106.514C36.57 106.49 36.6409 106.491 36.7036 106.518C36.7663 106.545 36.8158 106.596 36.8414 106.659C36.8669 106.723 36.8665 106.794 36.8402 106.857C36.8246 106.893 35.2334 110.614 33.6708 117.163C32.2291 123.206 30.517 132.962 30.5508 145.113C30.5508 145.182 30.5234 145.248 30.4747 145.297C30.4259 145.346 30.3598 145.373 30.2908 145.373L30.2895 145.376Z" fill="black"/>
<path d="M31.7831 145.116H25.2259C23.2465 145.116 21.6418 146.72 21.6418 148.7V173.478C21.6418 175.457 23.2465 177.062 25.2259 177.062H31.7831C33.7626 177.062 35.3672 175.457 35.3672 173.478V148.7C35.3672 146.72 33.7626 145.116 31.7831 145.116Z" fill="#2490F6"/>
<path d="M22.31 175.355C22.2592 175.355 22.2094 175.34 22.1668 175.312C22.1243 175.284 22.091 175.244 22.0708 175.198C22.0431 175.135 22.0412 175.064 22.0656 175C22.0899 174.936 22.1385 174.884 22.2008 174.856C24.2351 173.975 26.424 173.506 28.6406 173.478C30.8572 173.449 33.0575 173.861 35.1137 174.689C35.1756 174.717 35.2245 174.767 35.25 174.829C35.2756 174.892 35.2758 174.962 35.2506 175.024C35.2254 175.087 35.1768 175.137 35.1151 175.165C35.0535 175.192 34.9835 175.195 34.92 175.172C32.9273 174.369 30.7951 173.97 28.647 173.998C26.4989 174.025 24.3776 174.479 22.4062 175.333C22.3759 175.346 22.3432 175.354 22.31 175.355V175.355Z" fill="black"/>
<path d="M33.464 150.416H23.74C23.671 150.416 23.6049 150.388 23.5561 150.34C23.5074 150.291 23.48 150.225 23.48 150.156C23.48 150.087 23.5074 150.021 23.5561 149.972C23.6049 149.923 23.671 149.896 23.74 149.896H33.464C33.5329 149.896 33.5991 149.923 33.6478 149.972C33.6966 150.021 33.724 150.087 33.724 150.156C33.724 150.225 33.6966 150.291 33.6478 150.34C33.5991 150.388 33.5329 150.416 33.464 150.416Z" fill="black"/>
<path d="M30.9692 173.997C30.9003 173.997 30.8341 173.969 30.7854 173.92C30.7366 173.872 30.7092 173.805 30.7092 173.737V150.233C30.7092 150.164 30.7366 150.097 30.7854 150.049C30.8341 150 30.9003 149.973 30.9692 149.973C31.0382 149.973 31.1043 150 31.1531 150.049C31.2018 150.097 31.2292 150.164 31.2292 150.233V173.737C31.2292 173.805 31.2018 173.872 31.1531 173.92C31.1043 173.969 31.0382 173.997 30.9692 173.997Z" fill="black"/>
<path d="M26.2283 173.997C26.1593 173.997 26.0932 173.969 26.0444 173.92C25.9957 173.872 25.9683 173.805 25.9683 173.737V150.233C25.9683 150.164 25.9957 150.097 26.0444 150.049C26.0932 150 26.1593 149.973 26.2283 149.973C26.2972 149.973 26.3634 150 26.4121 150.049C26.4609 150.097 26.4883 150.164 26.4883 150.233V173.737C26.4883 173.805 26.4609 173.872 26.4121 173.92C26.3634 173.969 26.2972 173.997 26.2283 173.997Z" fill="black"/>
</g>
<defs>
<clipPath id="clip0_425_996">
<rect width="135" height="205" rx="22" fill="white"/>
</clipPath>
</defs>
</svg>
