<svg width="135" height="205" viewBox="0 0 135 205" fill="none" xmlns="http://www.w3.org/2000/svg">
<g clip-path="url(#clip0_43_859)">
<rect width="135" height="205" rx="22" fill="#2ED82E"/>
<path d="M13.5831 64.6V63.77H15.4631V71H14.5431V64.6H13.5831ZM17.0263 67.31C17.0263 66.1633 17.2129 65.27 17.5863 64.63C17.9596 63.9833 18.6129 63.66 19.5463 63.66C20.4729 63.66 21.1229 63.9833 21.4963 64.63C21.8696 65.27 22.0562 66.1633 22.0562 67.31C22.0562 68.4767 21.8696 69.3833 21.4963 70.03C21.1229 70.6767 20.4729 71 19.5463 71C18.6129 71 17.9596 70.6767 17.5863 70.03C17.2129 69.3833 17.0263 68.4767 17.0263 67.31ZM21.1563 67.31C21.1563 66.73 21.1163 66.24 21.0363 65.84C20.9629 65.4333 20.8063 65.1067 20.5663 64.86C20.3329 64.6133 19.9929 64.49 19.5463 64.49C19.0929 64.49 18.7463 64.6133 18.5063 64.86C18.2729 65.1067 18.1163 65.4333 18.0363 65.84C17.9629 66.24 17.9263 66.73 17.9263 67.31C17.9263 67.91 17.9629 68.4133 18.0363 68.82C18.1163 69.2267 18.2729 69.5533 18.5063 69.8C18.7463 70.0467 19.0929 70.17 19.5463 70.17C19.9929 70.17 20.3329 70.0467 20.5663 69.8C20.8063 69.5533 20.9629 69.2267 21.0363 68.82C21.1163 68.4133 21.1563 67.91 21.1563 67.31ZM23.7455 71.06C23.5722 71.06 23.4255 71 23.3055 70.88C23.1855 70.76 23.1255 70.6133 23.1255 70.44C23.1255 70.2667 23.1855 70.12 23.3055 70C23.4255 69.88 23.5722 69.82 23.7455 69.82C23.9122 69.82 24.0522 69.88 24.1655 70C24.2855 70.12 24.3455 70.2667 24.3455 70.44C24.3455 70.6133 24.2855 70.76 24.1655 70.88C24.0522 71 23.9122 71.06 23.7455 71.06ZM25.4052 67.31C25.4052 66.1633 25.5918 65.27 25.9652 64.63C26.3385 63.9833 26.9918 63.66 27.9252 63.66C28.8518 63.66 29.5018 63.9833 29.8752 64.63C30.2485 65.27 30.4352 66.1633 30.4352 67.31C30.4352 68.4767 30.2485 69.3833 29.8752 70.03C29.5018 70.6767 28.8518 71 27.9252 71C26.9918 71 26.3385 70.6767 25.9652 70.03C25.5918 69.3833 25.4052 68.4767 25.4052 67.31ZM29.5352 67.31C29.5352 66.73 29.4952 66.24 29.4152 65.84C29.3418 65.4333 29.1852 65.1067 28.9452 64.86C28.7118 64.6133 28.3718 64.49 27.9252 64.49C27.4718 64.49 27.1252 64.6133 26.8852 64.86C26.6518 65.1067 26.4952 65.4333 26.4152 65.84C26.3418 66.24 26.3052 66.73 26.3052 67.31C26.3052 67.91 26.3418 68.4133 26.4152 68.82C26.4952 69.2267 26.6518 69.5533 26.8852 69.8C27.1252 70.0467 27.4718 70.17 27.9252 70.17C28.3718 70.17 28.7118 70.0467 28.9452 69.8C29.1852 69.5533 29.3418 69.2267 29.4152 68.82C29.4952 68.4133 29.5352 67.91 29.5352 67.31ZM31.6845 67.31C31.6845 66.1633 31.8711 65.27 32.2445 64.63C32.6178 63.9833 33.2711 63.66 34.2045 63.66C35.1311 63.66 35.7811 63.9833 36.1545 64.63C36.5278 65.27 36.7145 66.1633 36.7145 67.31C36.7145 68.4767 36.5278 69.3833 36.1545 70.03C35.7811 70.6767 35.1311 71 34.2045 71C33.2711 71 32.6178 70.6767 32.2445 70.03C31.8711 69.3833 31.6845 68.4767 31.6845 67.31ZM35.8145 67.31C35.8145 66.73 35.7745 66.24 35.6945 65.84C35.6211 65.4333 35.4645 65.1067 35.2245 64.86C34.9911 64.6133 34.6511 64.49 34.2045 64.49C33.7511 64.49 33.4045 64.6133 33.1645 64.86C32.9311 65.1067 32.7745 65.4333 32.6945 65.84C32.6211 66.24 32.5845 66.73 32.5845 67.31C32.5845 67.91 32.6211 68.4133 32.6945 68.82C32.7745 69.2267 32.9311 69.5533 33.1645 69.8C33.4045 70.0467 33.7511 70.17 34.2045 70.17C34.6511 70.17 34.9911 70.0467 35.2245 69.8C35.4645 69.5533 35.6211 69.2267 35.6945 68.82C35.7745 68.4133 35.8145 67.91 35.8145 67.31ZM44.5798 66.95V67.72H40.5898V66.95H44.5798ZM48.5636 64.6V63.77H50.4436V71H49.5236V64.6H48.5636ZM51.8967 70.27C52.7434 69.59 53.4067 69.0333 53.8867 68.6C54.3667 68.16 54.7701 67.7033 55.0967 67.23C55.4301 66.75 55.5967 66.28 55.5967 65.82C55.5967 65.3867 55.4901 65.0467 55.2767 64.8C55.0701 64.5467 54.7334 64.42 54.2667 64.42C53.8134 64.42 53.4601 64.5633 53.2067 64.85C52.9601 65.13 52.8267 65.5067 52.8067 65.98H51.9267C51.9534 65.2333 52.1801 64.6567 52.6067 64.25C53.0334 63.8433 53.5834 63.64 54.2567 63.64C54.9434 63.64 55.4867 63.83 55.8867 64.21C56.2934 64.59 56.4967 65.1133 56.4967 65.78C56.4967 66.3333 56.3301 66.8733 55.9967 67.4C55.6701 67.92 55.2967 68.38 54.8767 68.78C54.4567 69.1733 53.9201 69.6333 53.2667 70.16H56.7067V70.92H51.8967V70.27ZM58.1987 71.06C58.0253 71.06 57.8787 71 57.7587 70.88C57.6387 70.76 57.5787 70.6133 57.5787 70.44C57.5787 70.2667 57.6387 70.12 57.7587 70C57.8787 69.88 58.0253 69.82 58.1987 69.82C58.3653 69.82 58.5053 69.88 58.6187 70C58.7387 70.12 58.7987 70.2667 58.7987 70.44C58.7987 70.6133 58.7387 70.76 58.6187 70.88C58.5053 71 58.3653 71.06 58.1987 71.06ZM59.8583 67.31C59.8583 66.1633 60.0449 65.27 60.4183 64.63C60.7916 63.9833 61.4449 63.66 62.3783 63.66C63.3049 63.66 63.9549 63.9833 64.3283 64.63C64.7016 65.27 64.8883 66.1633 64.8883 67.31C64.8883 68.4767 64.7016 69.3833 64.3283 70.03C63.9549 70.6767 63.3049 71 62.3783 71C61.4449 71 60.7916 70.6767 60.4183 70.03C60.0449 69.3833 59.8583 68.4767 59.8583 67.31ZM63.9883 67.31C63.9883 66.73 63.9483 66.24 63.8683 65.84C63.7949 65.4333 63.6383 65.1067 63.3983 64.86C63.1649 64.6133 62.8249 64.49 62.3783 64.49C61.9249 64.49 61.5783 64.6133 61.3383 64.86C61.1049 65.1067 60.9483 65.4333 60.8683 65.84C60.7949 66.24 60.7583 66.73 60.7583 67.31C60.7583 67.91 60.7949 68.4133 60.8683 68.82C60.9483 69.2267 61.1049 69.5533 61.3383 69.8C61.5783 70.0467 61.9249 70.17 62.3783 70.17C62.8249 70.17 63.1649 70.0467 63.3983 69.8C63.6383 69.5533 63.7949 69.2267 63.8683 68.82C63.9483 68.4133 63.9883 67.91 63.9883 67.31ZM66.1376 67.31C66.1376 66.1633 66.3242 65.27 66.6976 64.63C67.0709 63.9833 67.7242 63.66 68.6576 63.66C69.5842 63.66 70.2342 63.9833 70.6076 64.63C70.9809 65.27 71.1676 66.1633 71.1676 67.31C71.1676 68.4767 70.9809 69.3833 70.6076 70.03C70.2342 70.6767 69.5842 71 68.6576 71C67.7242 71 67.0709 70.6767 66.6976 70.03C66.3242 69.3833 66.1376 68.4767 66.1376 67.31ZM70.2676 67.31C70.2676 66.73 70.2276 66.24 70.1476 65.84C70.0742 65.4333 69.9176 65.1067 69.6776 64.86C69.4442 64.6133 69.1042 64.49 68.6576 64.49C68.2042 64.49 67.8576 64.6133 67.6176 64.86C67.3842 65.1067 67.2276 65.4333 67.1476 65.84C67.0742 66.24 67.0376 66.73 67.0376 67.31C67.0376 67.91 67.0742 68.4133 67.1476 68.82C67.2276 69.2267 67.3842 69.5533 67.6176 69.8C67.8576 70.0467 68.2042 70.17 68.6576 70.17C69.1042 70.17 69.4442 70.0467 69.6776 69.8C69.9176 69.5533 70.0742 69.2267 70.1476 68.82C70.2276 68.4133 70.2676 67.91 70.2676 67.31Z" fill="white"/>
<path d="M18.268 25.896H21.088V27H16.9V18.66H18.268V25.896ZM22.928 19.512C22.68 19.512 22.472 19.428 22.304 19.26C22.136 19.092 22.052 18.884 22.052 18.636C22.052 18.388 22.136 18.18 22.304 18.012C22.472 17.844 22.68 17.76 22.928 17.76C23.168 17.76 23.372 17.844 23.54 18.012C23.708 18.18 23.792 18.388 23.792 18.636C23.792 18.884 23.708 19.092 23.54 19.26C23.372 19.428 23.168 19.512 22.928 19.512ZM23.6 20.388V27H22.232V20.388H23.6ZM26.7641 21.348C26.9641 21.012 27.2281 20.752 27.5561 20.568C27.8921 20.376 28.2881 20.28 28.7441 20.28V21.696H28.3961C27.8601 21.696 27.4521 21.832 27.1721 22.104C26.9001 22.376 26.7641 22.848 26.7641 23.52V27H25.3961V20.388H26.7641V21.348ZM36.0616 23.532C36.0616 23.78 36.0456 24.004 36.0136 24.204H30.9616C31.0016 24.732 31.1976 25.156 31.5496 25.476C31.9016 25.796 32.3336 25.956 32.8456 25.956C33.5816 25.956 34.1016 25.648 34.4056 25.032H35.8816C35.6816 25.64 35.3176 26.14 34.7896 26.532C34.2696 26.916 33.6216 27.108 32.8456 27.108C32.2136 27.108 31.6456 26.968 31.1416 26.688C30.6456 26.4 30.2536 26 29.9656 25.488C29.6856 24.968 29.5456 24.368 29.5456 23.688C29.5456 23.008 29.6816 22.412 29.9536 21.9C30.2336 21.38 30.6216 20.98 31.1176 20.7C31.6216 20.42 32.1976 20.28 32.8456 20.28C33.4696 20.28 34.0256 20.416 34.5136 20.688C35.0016 20.96 35.3816 21.344 35.6536 21.84C35.9256 22.328 36.0616 22.892 36.0616 23.532ZM34.6336 23.1C34.6256 22.596 34.4456 22.192 34.0936 21.888C33.7416 21.584 33.3056 21.432 32.7856 21.432C32.3136 21.432 31.9096 21.584 31.5736 21.888C31.2376 22.184 31.0376 22.588 30.9736 23.1H34.6336ZM22.888 38.388V45H21.52V44.22C21.304 44.492 21.02 44.708 20.668 44.868C20.324 45.02 19.956 45.096 19.564 45.096C19.044 45.096 18.576 44.988 18.16 44.772C17.752 44.556 17.428 44.236 17.188 43.812C16.956 43.388 16.84 42.876 16.84 42.276V38.388H18.196V42.072C18.196 42.664 18.344 43.12 18.64 43.44C18.936 43.752 19.34 43.908 19.852 43.908C20.364 43.908 20.768 43.752 21.064 43.44C21.368 43.12 21.52 42.664 21.52 42.072V38.388H22.888ZM28.029 38.28C28.549 38.28 29.013 38.388 29.421 38.604C29.837 38.82 30.161 39.14 30.393 39.564C30.625 39.988 30.741 40.5 30.741 41.1V45H29.385V41.304C29.385 40.712 29.237 40.26 28.941 39.948C28.645 39.628 28.241 39.468 27.729 39.468C27.217 39.468 26.809 39.628 26.505 39.948C26.209 40.26 26.061 40.712 26.061 41.304V45H24.693V38.388H26.061V39.144C26.285 38.872 26.569 38.66 26.913 38.508C27.265 38.356 27.637 38.28 28.029 38.28ZM36.9711 36.12V45H35.6031V36.12H36.9711ZM39.4632 37.512C39.2152 37.512 39.0072 37.428 38.8392 37.26C38.6712 37.092 38.5872 36.884 38.5872 36.636C38.5872 36.388 38.6712 36.18 38.8392 36.012C39.0072 35.844 39.2152 35.76 39.4632 35.76C39.7032 35.76 39.9072 35.844 40.0752 36.012C40.2432 36.18 40.3272 36.388 40.3272 36.636C40.3272 36.884 40.2432 37.092 40.0752 37.26C39.9072 37.428 39.7032 37.512 39.4632 37.512ZM40.1352 38.388V45H38.7672V38.388H40.1352ZM44.4873 43.776L46.3593 38.388H47.8112L45.2913 45H43.6593L41.1513 38.388H42.6152L44.4873 43.776ZM50.2133 39.348C50.4133 39.012 50.6773 38.752 51.0053 38.568C51.3413 38.376 51.7373 38.28 52.1933 38.28V39.696H51.8453C51.3093 39.696 50.9013 39.832 50.6213 40.104C50.3493 40.376 50.2133 40.848 50.2133 41.52V45H48.8453V38.388H50.2133V39.348ZM59.5108 41.532C59.5108 41.78 59.4948 42.004 59.4628 42.204H54.4108C54.4508 42.732 54.6468 43.156 54.9988 43.476C55.3508 43.796 55.7828 43.956 56.2948 43.956C57.0308 43.956 57.5508 43.648 57.8548 43.032H59.3308C59.1308 43.64 58.7668 44.14 58.2388 44.532C57.7188 44.916 57.0708 45.108 56.2948 45.108C55.6628 45.108 55.0948 44.968 54.5908 44.688C54.0948 44.4 53.7028 44 53.4148 43.488C53.1348 42.968 52.9948 42.368 52.9948 41.688C52.9948 41.008 53.1308 40.412 53.4028 39.9C53.6828 39.38 54.0708 38.98 54.5668 38.7C55.0708 38.42 55.6468 38.28 56.2948 38.28C56.9188 38.28 57.4748 38.416 57.9628 38.688C58.4508 38.96 58.8308 39.344 59.1028 39.84C59.3748 40.328 59.5108 40.892 59.5108 41.532ZM58.0828 41.1C58.0748 40.596 57.8948 40.192 57.5428 39.888C57.1908 39.584 56.7548 39.432 56.2348 39.432C55.7628 39.432 55.3588 39.584 55.0228 39.888C54.6868 40.184 54.4868 40.588 54.4228 41.1H58.0828Z" fill="white"/>
<path d="M160.13 206.724L151.023 80.532C150.339 71.0588 139.663 65.8787 131.792 71.2075L27.0548 142.19C19.1929 147.519 20.0479 159.363 28.5941 163.508L142.424 218.714C150.986 222.861 160.816 216.193 160.13 206.724Z" fill="#FC4A50"/>
<path d="M98.4189 120.81C92.1126 120.603 86.8437 115.769 85.9537 109.371L83.7188 93.328L92.1235 92.156C92.7569 92.0813 95.4086 91.8393 97.7892 93.6811C98.7356 94.4091 99.5327 95.4028 100.217 96.8807C101.557 99.7745 107.228 114.773 101.025 119.603C100.257 120.195 99.3667 120.607 98.4189 120.81V120.81Z" fill="#343434"/>
<path d="M125.362 195.769H74.8573L70.7769 134.253C77.8961 131.137 85.3509 128.852 92.9936 127.444C103.914 125.442 112.562 125.358 120.379 126.33C122.043 149.526 123.697 172.573 125.362 195.769Z" fill="#2490F6"/>
<path d="M97.953 120.206L95.951 114.711C97.9221 114.631 99.4982 112.918 99.4982 110.811C99.4982 108.651 97.8475 106.902 95.8091 106.902C94.9354 106.904 94.0931 107.228 93.4431 107.812L89.6739 97.4539L74.2202 102.428C73.504 102.658 72.8401 103.027 72.2666 103.514C71.6931 104.001 71.2211 104.596 70.8776 105.265C70.5342 105.935 70.326 106.665 70.265 107.415C70.2039 108.165 70.2913 108.919 70.522 109.635L74.708 122.643C75.3454 124.615 76.7391 126.254 78.5833 127.199C80.4275 128.145 82.5716 128.321 84.5451 127.688L86.7928 126.683L88.671 130.698C88.7519 130.875 88.8922 131.019 89.0678 131.104C92.3311 132.673 95.9729 132.289 98.2151 130.194C99.7639 128.751 100.621 127.451 100.869 126.601C100.923 126.402 100.902 126.19 100.809 126.006L97.953 120.206Z" fill="#F2EACC"/>
<path d="M86.7964 126.69L93.5704 123.596C93.6154 123.577 93.6657 123.573 93.713 123.586C93.7603 123.599 93.8018 123.628 93.8305 123.668C93.8592 123.707 93.8734 123.756 93.8708 123.805C93.8682 123.854 93.8489 123.9 93.8161 123.937L88.2833 129.87L86.7964 126.69Z" fill="#343434"/>
<path d="M95.4998 112.427C95.238 112.427 94.982 112.35 94.7642 112.205C94.5463 112.06 94.3765 111.853 94.276 111.612C94.1756 111.37 94.1492 111.104 94.2 110.847C94.2509 110.59 94.3767 110.354 94.5617 110.169C94.7467 109.984 94.9824 109.858 95.2391 109.806C95.4959 109.755 95.762 109.781 96.0039 109.881C96.2457 109.981 96.4525 110.151 96.598 110.369C96.7434 110.586 96.8211 110.842 96.8211 111.104C96.8211 111.455 96.6819 111.791 96.4342 112.039C96.1864 112.287 95.8504 112.427 95.4998 112.427V112.427ZM95.4998 110.511C95.3819 110.51 95.2666 110.545 95.1684 110.61C95.0703 110.675 94.9937 110.768 94.9485 110.877C94.9032 110.986 94.8913 111.106 94.9142 111.221C94.9371 111.337 94.9938 111.443 95.0771 111.527C95.1605 111.61 95.2667 111.667 95.3823 111.69C95.4979 111.712 95.6177 111.701 95.7265 111.655C95.8354 111.61 95.9283 111.533 95.9935 111.435C96.0588 111.337 96.0934 111.222 96.0931 111.104C96.0931 110.947 96.0306 110.796 95.9193 110.684C95.808 110.573 95.6571 110.511 95.4998 110.511V110.511Z" fill="#343434"/>
<path d="M94.5679 111.69C94.4782 111.691 94.3914 111.658 94.3242 111.599C94.257 111.539 94.2142 111.457 94.2039 111.368C94.1111 110.58 94.2912 109.943 94.739 109.471C95.5798 108.585 97.054 108.667 97.1159 108.671C97.2124 108.677 97.3026 108.721 97.3666 108.793C97.4306 108.866 97.4632 108.961 97.4571 109.057C97.4511 109.154 97.4069 109.244 97.3344 109.308C97.2619 109.372 97.1669 109.405 97.0704 109.399C97.0595 109.399 95.8692 109.335 95.2649 109.974C94.9701 110.285 94.8609 110.713 94.9264 111.284C94.9372 111.38 94.9097 111.476 94.8501 111.551C94.7904 111.626 94.7034 111.675 94.6079 111.686L94.5679 111.69Z" fill="#343434"/>
<path d="M81.1562 121.884C80.6861 121.889 80.2214 121.783 79.8003 121.574C79.7211 121.524 79.6644 121.445 79.642 121.354C79.6197 121.263 79.6335 121.166 79.6805 121.085C79.7274 121.004 79.804 120.944 79.8942 120.918C79.9843 120.891 80.0811 120.901 80.1643 120.945C80.248 120.99 82.1208 122.004 84.0373 119.298C84.0638 119.256 84.0985 119.22 84.1392 119.193C84.1799 119.165 84.2259 119.146 84.2742 119.136C84.3226 119.127 84.3723 119.127 84.4205 119.138C84.4687 119.148 84.5142 119.168 84.5544 119.197C84.5946 119.225 84.6286 119.261 84.6543 119.303C84.6801 119.345 84.697 119.392 84.7041 119.441C84.7113 119.49 84.7084 119.539 84.6958 119.587C84.6831 119.635 84.661 119.679 84.6306 119.718C83.3875 121.474 82.0917 121.884 81.1562 121.884Z" fill="#343434"/>
<path d="M83.3912 112.139C83.8314 112.139 84.1883 111.783 84.1883 111.342C84.1883 110.902 83.8314 110.545 83.3912 110.545C82.9509 110.545 82.594 110.902 82.594 111.342C82.594 111.783 82.9509 112.139 83.3912 112.139Z" fill="#343434"/>
<path d="M74.0601 115.516C74.5004 115.516 74.8573 115.159 74.8573 114.718C74.8573 114.278 74.5004 113.921 74.0601 113.921C73.6198 113.921 73.2629 114.278 73.2629 114.718C73.2629 115.159 73.6198 115.516 74.0601 115.516Z" fill="#343434"/>
<path d="M73.8581 119.083C72.029 119.083 70.331 117.609 69.8924 115.507C69.3973 113.141 70.6841 110.862 72.7589 110.427C73.2725 110.325 73.8021 110.336 74.311 110.46C74.8198 110.583 75.2956 110.816 75.7054 111.142C76.5935 111.836 77.2026 112.827 77.4217 113.932V113.932C77.6642 115.033 77.5027 116.184 76.9667 117.175C76.7221 117.639 76.3794 118.043 75.9626 118.36C75.5458 118.677 75.0649 118.899 74.5534 119.012C74.3246 119.059 74.0917 119.083 73.8581 119.083V119.083ZM73.4596 111.075C73.2761 111.076 73.0931 111.095 72.9136 111.133C71.2301 111.484 70.1963 113.377 70.6094 115.35C71.0226 117.323 72.7279 118.642 74.4096 118.291C74.8188 118.2 75.2032 118.02 75.5358 117.765C75.8685 117.51 76.1413 117.185 76.3352 116.813C76.7847 115.975 76.9177 115.004 76.7101 114.076V114.076C76.53 113.139 76.0174 112.299 75.2668 111.71C74.7499 111.308 74.1147 111.087 73.4596 111.082V111.075Z" fill="#343434"/>
<path d="M77.376 114.076C77.2897 114.075 77.2064 114.044 77.141 113.988C77.0756 113.931 77.0324 113.854 77.019 113.768C77.0057 113.683 77.0231 113.596 77.0682 113.522C77.1132 113.448 77.183 113.393 77.265 113.366L80.5519 112.307C80.6415 112.285 80.7363 112.297 80.8169 112.342C80.8976 112.387 80.9581 112.461 80.9864 112.549C81.0146 112.637 81.0083 112.732 80.9689 112.816C80.9295 112.899 80.8598 112.965 80.774 112.999L77.4889 114.06C77.4522 114.07 77.4142 114.076 77.376 114.076V114.076Z" fill="#343434"/>
<path d="M79.0106 117.96C78.8249 117.965 78.6404 117.929 78.47 117.855C78.2996 117.781 78.1474 117.671 78.0241 117.532C77.6601 117.09 77.722 116.484 77.8949 116.1C78.0182 115.831 78.2183 115.604 78.47 115.448L76.9722 111.444C76.9446 111.355 76.9521 111.26 76.993 111.176C77.0339 111.093 77.1052 111.028 77.1922 110.995C77.2792 110.963 77.3754 110.965 77.4611 111.001C77.5467 111.037 77.6153 111.104 77.6528 111.189L79.4 115.847L79.036 115.967C78.9315 116.001 78.8349 116.057 78.7521 116.129C78.6692 116.202 78.6018 116.29 78.5537 116.389C78.4882 116.533 78.41 116.857 78.5756 117.053C78.7412 117.25 79.1216 117.308 79.4747 117.081C79.5145 117.051 79.5599 117.03 79.6081 117.019C79.6563 117.008 79.7063 117.007 79.755 117.015C79.8037 117.024 79.8501 117.043 79.8914 117.07C79.9327 117.097 79.9679 117.133 79.9951 117.174C80.0222 117.216 80.0406 117.262 80.0492 117.311C80.0578 117.36 80.0563 117.409 80.0449 117.458C80.0335 117.506 80.0124 117.551 79.9829 117.591C79.9534 117.631 79.9161 117.664 79.8732 117.689C79.618 117.861 79.3183 117.955 79.0106 117.96V117.96Z" fill="#343434"/>
<path d="M81.8192 103.695C86.4258 102.732 89.5819 99.1856 88.8687 95.7745C88.1554 92.3634 83.8429 90.379 79.2364 91.3422C74.6298 92.3054 71.4737 95.8514 72.1869 99.2626C72.9002 102.674 77.2127 104.658 81.8192 103.695Z" fill="#343434"/>
<path d="M95.871 103.722L91.3046 104.909C90.0617 105.231 88.7415 105.047 87.6343 104.397C86.5272 103.746 85.7237 102.682 85.4005 101.44L84.4377 97.7342L93.6906 95.33L95.871 103.722Z" fill="#343434"/>
<path d="M70.2307 108.37C73.6724 108.37 76.4624 105.58 76.4624 102.139C76.4624 98.6969 73.6724 95.9069 70.2307 95.9069C66.789 95.9069 63.999 98.6969 63.999 102.139C63.999 105.58 66.789 108.37 70.2307 108.37Z" fill="#343434"/>
<path d="M87.226 110.538C87.1412 110.538 87.059 110.509 86.9935 110.455C86.9281 110.401 86.8836 110.326 86.8676 110.242C86.8516 110.159 86.8652 110.073 86.9061 109.999C86.9469 109.924 87.0124 109.867 87.0913 109.835L93.9054 107.105C93.9503 107.085 93.9989 107.073 94.0483 107.072C94.0977 107.071 94.1469 107.079 94.1928 107.098C94.2387 107.116 94.2805 107.143 94.3154 107.178C94.3504 107.213 94.3779 107.255 94.3962 107.301C94.4145 107.347 94.4233 107.396 94.422 107.445C94.4206 107.495 94.4093 107.543 94.3886 107.588C94.3678 107.633 94.3382 107.673 94.3014 107.706C94.2647 107.74 94.2216 107.765 94.1747 107.781L87.3607 110.511C87.3178 110.528 87.2721 110.537 87.226 110.538Z" fill="#343434"/>
<path d="M61.4948 168.543L59.9023 189.812L60.4611 195.03H74.8081L73.101 169.286L61.4948 168.543Z" fill="#F2EACC"/>
<path d="M75.1976 195.394H60.1335L59.5383 189.817L61.16 168.159L73.4431 168.944L75.1976 195.394ZM60.7887 194.666H74.4187L72.7588 169.628L61.8388 168.929L60.2682 189.806L60.7887 194.666Z" fill="#343434"/>
<path d="M70.7768 134.254C70.1659 134.502 69.5782 134.802 69.0205 135.153C64.8527 137.782 63.4804 142.615 62.4248 147.331C61.3037 152.345 59.653 163.88 59.0742 172.838C63.5951 173.126 68.8731 173.415 73.394 173.705L70.7768 134.254Z" fill="#2490F6"/>
<path d="M160.519 112.561H116.874C116.777 112.561 116.685 112.523 116.617 112.454C116.548 112.386 116.51 112.294 116.51 112.197C116.51 112.1 116.548 112.008 116.617 111.94C116.685 111.871 116.777 111.833 116.874 111.833H160.519C160.616 111.833 160.709 111.871 160.777 111.94C160.845 112.008 160.883 112.1 160.883 112.197C160.883 112.294 160.845 112.386 160.777 112.454C160.709 112.523 160.616 112.561 160.519 112.561Z" fill="#343434"/>
<path d="M139.051 112.361H120.938C120.573 112.36 120.223 112.215 119.965 111.957C119.707 111.699 119.561 111.35 119.56 110.985V108.409C119.561 108.044 119.706 107.694 119.964 107.436C120.223 107.178 120.573 107.032 120.938 107.032H139.051C139.416 107.032 139.766 107.178 140.024 107.436C140.283 107.694 140.428 108.044 140.428 108.409V110.987C140.427 111.351 140.281 111.7 140.023 111.958C139.765 112.215 139.415 112.36 139.051 112.361V112.361ZM120.938 107.758C120.853 107.758 120.768 107.775 120.689 107.807C120.611 107.84 120.539 107.888 120.479 107.948C120.418 108.009 120.37 108.08 120.338 108.159C120.305 108.238 120.288 108.322 120.288 108.408V110.985C120.289 111.157 120.357 111.322 120.479 111.443C120.601 111.564 120.766 111.633 120.938 111.633H139.051C139.223 111.633 139.388 111.564 139.509 111.443C139.631 111.322 139.7 111.157 139.7 110.985V108.409C139.7 108.237 139.632 108.072 139.51 107.95C139.388 107.828 139.223 107.76 139.051 107.76L120.938 107.758Z" fill="#343434"/>
<path d="M139.049 102.502H120.938C120.378 102.502 119.924 102.956 119.924 103.516V106.091C119.924 106.651 120.378 107.105 120.938 107.105H139.049C139.609 107.105 140.063 106.651 140.063 106.091V103.516C140.063 102.956 139.609 102.502 139.049 102.502Z" fill="#2490F6"/>
<path d="M93.13 136.555C90.7148 136.532 88.3557 135.824 86.3269 134.513C86.2501 134.458 86.1974 134.376 86.1798 134.284C86.1622 134.192 86.181 134.096 86.2323 134.017C86.2835 133.938 86.3634 133.883 86.455 133.861C86.5466 133.84 86.6428 133.855 86.7236 133.903C87.8539 134.631 90.9096 136.291 94.7735 135.703C100.101 134.895 102.74 130.569 103.215 129.71C103.237 129.666 103.267 129.627 103.305 129.595C103.342 129.564 103.385 129.54 103.432 129.525C103.479 129.511 103.528 129.506 103.577 129.511C103.626 129.516 103.673 129.53 103.716 129.554C103.759 129.578 103.797 129.61 103.827 129.648C103.857 129.687 103.879 129.731 103.892 129.779C103.904 129.826 103.907 129.875 103.901 129.924C103.894 129.972 103.877 130.019 103.852 130.061C103.348 130.971 100.547 135.563 94.8827 136.422C94.3027 136.511 93.7168 136.555 93.13 136.555Z" fill="white"/>
<path d="M83.99 115.288C82.17 115.288 80.4974 113.872 80.0733 111.846C79.5983 109.555 80.896 107.342 82.9744 106.905C85.0529 106.468 87.1295 107.981 87.6081 110.272C88.0868 112.563 86.7873 114.78 84.7107 115.213C84.4738 115.264 84.2322 115.289 83.99 115.288V115.288ZM83.6897 107.558C83.4983 107.558 83.3074 107.577 83.12 107.617C81.4365 107.97 80.39 109.801 80.7868 111.697C81.1835 113.594 82.8743 114.853 84.5578 114.502C86.2413 114.15 87.2878 112.318 86.8911 110.421C86.538 108.738 85.173 107.558 83.6933 107.558H83.6897Z" fill="#343434"/>
<path d="M117.742 161.323L73.03 166.501L72.4985 160.182L116.441 154.991L117.742 161.323Z" fill="white"/>
<path d="M120.929 175.215L73.4959 180.579L73.0391 173.747L119.435 168.334L120.929 175.215Z" fill="white"/>
<path d="M88.3434 153.37C88.3434 153.37 82.3847 153.898 79.2762 148.559C78.9844 148.056 78.587 147.621 78.1114 147.285C77.2942 146.71 76.0711 146.35 74.8081 147.793C74.8081 147.793 72.7551 145.076 71.239 146.628C71.239 146.628 70.158 147.999 71.603 150.309C71.603 150.309 69.2935 151.268 71.5812 155.306C71.9325 155.927 72.2746 156.553 72.5786 157.197C73.8089 159.793 78.1842 167.162 88.6128 168.232C89.2926 168.305 89.9374 168.571 90.471 168.998L115.194 188.627C117.471 190.452 120.132 191.739 122.976 192.392C127.046 193.302 134.371 192.826 138.162 187.54C140.388 184.393 141.35 180.524 140.856 176.7L139.707 167.364L119.116 170.738L98.3297 157.705C97.6358 157.268 97.0706 156.654 96.6917 155.927C95.4851 153.625 92.4457 148.283 89.0732 145.959C88.9567 145.879 88.8421 145.8 88.7292 145.717C88.0012 145.171 87.0912 144.719 86.1721 144.705C84.7161 144.683 83.4822 146.028 84.3813 147.393C84.7762 147.993 85.4114 148.485 85.9993 148.889C86.6088 149.304 87.1273 149.838 87.5229 150.461C87.9185 151.083 88.1828 151.779 88.2997 152.507C88.343 152.792 88.3577 153.081 88.3434 153.37Z" fill="#F2EACC"/>
<path d="M81.8789 157.163C81.8233 157.162 81.7685 157.149 81.7188 157.124C80.7502 156.652 79.8426 156.065 79.0161 155.373C76.2151 153.024 74.9902 150.001 74.4551 147.879C74.431 147.785 74.4451 147.686 74.4942 147.602C74.5434 147.519 74.6236 147.459 74.7172 147.435C74.8109 147.411 74.9103 147.425 74.9935 147.474C75.0768 147.523 75.1372 147.603 75.1613 147.697C75.6691 149.715 76.8321 152.587 79.4838 154.813C80.2628 155.466 81.1185 156.021 82.0318 156.467C82.1061 156.503 82.1659 156.563 82.2015 156.638C82.2371 156.712 82.2464 156.797 82.2278 156.877C82.2091 156.957 82.1638 157.029 82.0991 157.08C82.0344 157.132 81.9542 157.159 81.8716 157.159L81.8789 157.163Z" fill="#343434"/>
<path d="M79.5419 160.238C79.4856 160.239 79.43 160.226 79.3799 160.2C78.8915 159.981 78.4368 159.693 78.0295 159.345C77.8894 159.232 77.7128 159.092 77.4835 158.906C74.7535 156.793 72.6095 153.865 71.27 150.438C71.2501 150.393 71.2395 150.344 71.2388 150.295C71.2381 150.246 71.2474 150.197 71.2661 150.152C71.2847 150.107 71.3124 150.065 71.3474 150.031C71.3824 149.996 71.4241 149.969 71.4698 149.951C71.5155 149.933 71.5644 149.925 71.6135 149.926C71.6626 149.928 71.7109 149.939 71.7555 149.96C71.8001 149.98 71.8401 150.01 71.873 150.046C71.9059 150.083 71.9311 150.126 71.947 150.172C73.2411 153.477 75.3086 156.298 77.9294 158.331C78.1715 158.513 78.3498 158.662 78.4918 158.777C78.8588 159.093 79.2703 159.354 79.713 159.551C79.7855 159.588 79.8435 159.648 79.8776 159.722C79.9117 159.796 79.92 159.88 79.9011 159.959C79.8823 160.038 79.8373 160.109 79.7735 160.159C79.7097 160.21 79.6307 160.238 79.5492 160.238H79.5419Z" fill="#343434"/>
<path d="M90.1672 195.761H59.5657V189.156H90.1672C90.5739 189.157 90.9639 189.319 91.2515 189.606C91.5391 189.894 91.7009 190.284 91.7014 190.691V194.229C91.7009 194.635 91.5391 195.025 91.2514 195.313C90.9637 195.6 90.5738 195.761 90.1672 195.761V195.761Z" fill="#343434"/>
<path d="M63.0126 195.761H27.215C26.548 195.768 25.8967 195.559 25.3581 195.165C24.8196 194.772 24.4227 194.215 24.2265 193.577L15.4596 163.857C14.8917 161.931 16.3823 160.013 18.448 160.013H52.2127C52.9089 160.006 53.587 160.235 54.1373 160.662C54.6875 161.088 55.0777 161.688 55.2448 162.364L63.0126 195.761Z" fill="#343434"/>
<path d="M37.0141 185.668C39.7541 185.668 41.9754 183.446 41.9754 180.706C41.9754 177.966 39.7541 175.745 37.0141 175.745C34.274 175.745 32.0527 177.966 32.0527 180.706C32.0527 183.446 34.274 185.668 37.0141 185.668Z" fill="#FC4A50"/>
<path d="M35.9238 177.166C35.8423 177.166 35.7632 177.139 35.6992 177.088C35.6351 177.038 35.5899 176.967 35.5708 176.888L34.9774 174.458C34.9661 174.412 34.964 174.364 34.9713 174.316C34.9786 174.269 34.9952 174.224 35.02 174.183C35.0448 174.142 35.0775 174.106 35.1161 174.078C35.1547 174.05 35.1985 174.029 35.245 174.018C35.2915 174.006 35.3397 174.004 35.387 174.012C35.4343 174.019 35.4797 174.036 35.5206 174.06C35.5615 174.085 35.5971 174.118 35.6254 174.157C35.6537 174.195 35.6741 174.239 35.6854 174.285L36.2769 176.715C36.2902 176.769 36.2911 176.825 36.2795 176.879C36.268 176.933 36.2443 176.983 36.2103 177.027C36.1762 177.07 36.1328 177.105 36.0832 177.13C36.0335 177.154 35.9791 177.166 35.9238 177.166V177.166Z" fill="#6DC8C2"/>
<path d="M143.753 167.113L119.565 171.16L110.684 125.788L116.988 125.877C120.9 125.91 124.697 127.196 127.825 129.546C129.454 130.777 130.841 132.301 131.912 134.04C132.682 135.303 133.275 136.665 133.676 138.089L143.753 167.113Z" fill="#2490F6"/>
<path d="M124.847 174.163C124.784 174.165 124.721 174.149 124.665 174.118L119.251 171.129C119.17 171.081 119.112 171.003 119.087 170.912C119.063 170.821 119.075 170.724 119.12 170.642C119.166 170.56 119.241 170.498 119.331 170.47C119.421 170.442 119.518 170.45 119.602 170.492L125.016 173.481C125.088 173.52 125.143 173.582 125.175 173.657C125.207 173.731 125.213 173.815 125.192 173.893C125.171 173.972 125.125 174.041 125.06 174.09C124.995 174.139 124.916 174.165 124.834 174.163H124.847Z" fill="#343434"/>
<path d="M61.1034 138.391H17.458C17.3615 138.391 17.2689 138.353 17.2006 138.285C17.1323 138.216 17.094 138.124 17.094 138.027C17.094 137.931 17.1323 137.838 17.2006 137.77C17.2689 137.702 17.3615 137.663 17.458 137.663H61.1034C61.2 137.663 61.2925 137.702 61.3608 137.77C61.4291 137.838 61.4674 137.931 61.4674 138.027C61.4674 138.124 61.4291 138.216 61.3608 138.285C61.2925 138.353 61.2 138.391 61.1034 138.391Z" fill="#343434"/>
<path d="M47.6845 137.501C51.2558 137.501 54.1509 134.606 54.1509 131.035C54.1509 127.463 51.2558 124.568 47.6845 124.568C44.1131 124.568 41.218 127.463 41.218 131.035C41.218 134.606 44.1131 137.501 47.6845 137.501Z" fill="white"/>
<path d="M34.5004 138.113H25.2038C24.3444 138.112 23.5205 137.77 22.9129 137.162C22.3052 136.555 21.9634 135.731 21.9624 134.871V121.507C21.9624 120.647 22.3038 119.822 22.9116 119.214C23.5194 118.605 24.3438 118.263 25.2038 118.262H34.5058C35.3652 118.263 36.1891 118.605 36.7968 119.213C37.4045 119.82 37.7463 120.644 37.7473 121.504V134.868C37.7473 135.294 37.6633 135.716 37.5001 136.11C37.3369 136.504 37.0977 136.862 36.7962 137.163C36.4946 137.464 36.1367 137.703 35.7428 137.866C35.3489 138.029 34.9267 138.113 34.5004 138.113ZM25.2038 118.99C24.5375 118.991 23.8988 119.256 23.4276 119.727C22.9565 120.199 22.6914 120.837 22.6904 121.504V134.868C22.6902 135.198 22.755 135.525 22.8812 135.831C23.0073 136.136 23.1924 136.413 23.4258 136.647C23.6592 136.881 23.9363 137.066 24.2414 137.193C24.5465 137.319 24.8735 137.385 25.2038 137.385H34.5058C35.1721 137.384 35.8109 137.119 36.282 136.648C36.7532 136.177 37.0183 135.538 37.0193 134.871V121.507C37.0193 121.177 36.9541 120.849 36.8275 120.544C36.7009 120.238 36.5153 119.96 36.2814 119.727C36.0475 119.493 35.7698 119.308 35.4642 119.181C35.1586 119.055 34.8311 118.99 34.5004 118.99H25.2038Z" fill="#343434"/>
<path d="M37.185 133.312H22.321C22.2245 133.312 22.1319 133.273 22.0636 133.205C21.9954 133.137 21.957 133.044 21.957 132.948C21.957 132.851 21.9954 132.758 22.0636 132.69C22.1319 132.622 22.2245 132.584 22.321 132.584H37.185C37.2815 132.584 37.3741 132.622 37.4424 132.69C37.5106 132.758 37.549 132.851 37.549 132.948C37.549 133.044 37.5106 133.137 37.4424 133.205C37.3741 133.273 37.2815 133.312 37.185 133.312V133.312Z" fill="#343434"/>
<path d="M28.298 136.375C28.7855 136.375 29.1807 135.979 29.1807 135.492C29.1807 135.004 28.7855 134.609 28.298 134.609C27.8105 134.609 27.4153 135.004 27.4153 135.492C27.4153 135.979 27.8105 136.375 28.298 136.375Z" fill="white"/>
<path d="M31.3956 136.375C31.8831 136.375 32.2783 135.979 32.2783 135.492C32.2783 135.004 31.8831 134.609 31.3956 134.609C30.9081 134.609 30.5129 135.004 30.5129 135.492C30.5129 135.979 30.9081 136.375 31.3956 136.375Z" fill="white"/>
<path d="M46.3286 126.259C46.2455 126.259 46.1649 126.23 46.1004 126.178C46.0358 126.126 45.9911 126.053 45.9737 125.972C45.0273 121.604 46.0956 118.615 47.1585 116.872C48.3196 114.977 49.7065 114.131 49.7593 114.096C49.842 114.046 49.9412 114.032 50.0349 114.055C50.1286 114.078 50.2091 114.138 50.2588 114.221C50.3086 114.304 50.3234 114.403 50.3 114.497C50.2766 114.59 50.217 114.671 50.1342 114.72C49.9158 114.853 44.9836 117.956 46.6762 125.812C46.6962 125.906 46.6781 126.004 46.6259 126.085C46.5738 126.166 46.4917 126.222 46.3977 126.243C46.3752 126.25 46.352 126.256 46.3286 126.259V126.259Z" fill="#343434"/>
<path d="M54.5058 114.622L52.9388 114.282C52.9261 114.196 52.9097 114.1 52.8897 114.025L54.2583 113.257C54.5165 113.083 54.6998 112.819 54.7718 112.516C54.8439 112.213 54.7994 111.894 54.6471 111.623C54.4949 111.351 54.246 111.147 53.9501 111.051C53.6542 110.954 53.3328 110.973 53.0498 111.102L51.6102 111.91C51.5866 111.923 51.5684 111.939 51.5465 111.954C51.4774 111.903 51.4064 111.854 51.3336 111.808L51.6503 110.343C51.7195 110.022 51.6584 109.687 51.4804 109.411C51.3024 109.135 51.0221 108.941 50.7011 108.872C50.3801 108.802 50.0448 108.864 49.7688 109.042C49.4929 109.22 49.2989 109.5 49.2297 109.821L48.913 111.277C48.7905 111.293 48.6689 111.316 48.549 111.346C48.5229 111.297 48.4943 111.25 48.4634 111.204L47.4697 109.89C47.2721 109.628 46.9784 109.455 46.6533 109.41C46.3282 109.364 45.9983 109.449 45.7362 109.647C45.4741 109.845 45.3012 110.138 45.2557 110.464C45.2101 110.789 45.2955 111.119 45.4932 111.381L46.4869 112.7C46.4869 112.711 46.5051 112.718 46.5142 112.729C46.4796 112.777 46.4505 112.826 46.4178 112.873L44.9017 112.545C44.5807 112.476 44.2454 112.537 43.9694 112.715C43.6933 112.893 43.4991 113.173 43.4293 113.494V113.494C43.3948 113.653 43.3919 113.817 43.4209 113.977C43.4499 114.137 43.5102 114.29 43.5982 114.426C43.6863 114.563 43.8004 114.681 43.9342 114.774C44.0679 114.866 44.2186 114.932 44.3775 114.966L45.8809 115.292C45.8809 115.328 45.89 115.365 45.8954 115.401H45.8827L44.4412 116.209C44.1674 116.376 43.9691 116.643 43.888 116.953C43.8069 117.264 43.8492 117.594 44.0062 117.873C44.1632 118.153 44.4225 118.361 44.7297 118.454C45.0369 118.546 45.368 118.516 45.6534 118.369L47.0948 117.561C47.1057 117.561 47.113 117.547 47.1239 117.541C47.2396 117.638 47.3611 117.727 47.4879 117.809L47.1731 119.265C47.1343 119.426 47.128 119.592 47.1547 119.756C47.1813 119.919 47.2403 120.075 47.3283 120.215C47.4162 120.355 47.5312 120.476 47.6666 120.571C47.802 120.666 47.955 120.732 48.1166 120.767C48.2782 120.802 48.4452 120.804 48.6076 120.774C48.7701 120.743 48.9248 120.68 49.0626 120.589C49.2004 120.498 49.3185 120.38 49.41 120.242C49.5015 120.104 49.5646 119.95 49.5955 119.787L49.9085 118.331C49.9995 118.318 50.0905 118.302 50.1797 118.282L51.1425 119.556C51.2349 119.698 51.3553 119.819 51.4963 119.913C51.6374 120.006 51.7961 120.07 51.9626 120.099C52.1292 120.129 52.3001 120.125 52.4648 120.086C52.6295 120.047 52.7845 119.975 52.9203 119.874C53.056 119.773 53.1697 119.645 53.2543 119.499C53.3389 119.352 53.3926 119.19 53.412 119.022C53.4315 118.854 53.4164 118.684 53.3675 118.522C53.3187 118.36 53.2372 118.209 53.1281 118.08L52.2727 116.943C52.3273 116.868 52.3801 116.791 52.4292 116.711L53.9817 117.048C54.1406 117.083 54.3048 117.085 54.4649 117.056C54.6249 117.027 54.7777 116.967 54.9144 116.879C55.0512 116.791 55.1692 116.677 55.2618 116.543C55.3544 116.41 55.4197 116.259 55.4541 116.1V116.1C55.4894 115.941 55.4928 115.776 55.4642 115.615C55.4356 115.454 55.3755 115.301 55.2874 115.164C55.1993 115.026 55.0849 114.908 54.9507 114.815C54.8166 114.722 54.6654 114.656 54.5058 114.622V114.622Z" fill="#2490F6"/>
<path d="M49.4428 116.447C50.3484 116.447 51.0826 115.713 51.0826 114.808C51.0826 113.902 50.3484 113.168 49.4428 113.168C48.5371 113.168 47.803 113.902 47.803 114.808C47.803 115.713 48.5371 116.447 49.4428 116.447Z" fill="white"/>
<path d="M46.6575 127.701C47.5245 127.554 48.1295 126.86 48.0088 126.153C47.8881 125.445 47.0875 124.992 46.2205 125.139C45.3535 125.287 44.7485 125.981 44.8691 126.688C44.9898 127.396 45.7905 127.849 46.6575 127.701Z" fill="#343434"/>
<path d="M44.4831 136.402C44.4044 136.402 44.3279 136.376 44.2652 136.328C44.2024 136.281 44.1567 136.214 44.135 136.139C44.1133 136.063 44.1166 135.982 44.1446 135.909C44.1726 135.835 44.2237 135.773 44.2902 135.73C45.2103 135.153 46.26 134.814 47.3442 134.744C48.6864 134.669 50.0197 135.005 51.1662 135.707C51.2469 135.758 51.3042 135.839 51.3258 135.932C51.3474 136.025 51.3315 136.123 51.2815 136.204C51.2316 136.286 51.1516 136.344 51.0589 136.367C50.9661 136.39 50.868 136.376 50.7858 136.327C49.7663 135.704 48.5811 135.405 47.3878 135.472C46.4258 135.534 45.4943 135.835 44.6779 136.347C44.6192 136.383 44.5518 136.402 44.4831 136.402V136.402Z" fill="#343434"/>
</g>
<defs>
<clipPath id="clip0_43_859">
<rect width="135" height="205" rx="22" fill="white"/>
</clipPath>
</defs>
</svg>
