<svg width="135" height="100" viewBox="0 0 135 100" fill="none" xmlns="http://www.w3.org/2000/svg">
<rect width="134.503" height="100" rx="20" fill="#FC4A50"/>
<path d="M37.8398 64.3255V63.4955H39.7198V70.7255H38.7998V64.3255H37.8398ZM45.8929 64.2855H42.3829V66.5655C42.5362 66.3521 42.7629 66.1788 43.0629 66.0455C43.3629 65.9055 43.6862 65.8355 44.0329 65.8355C44.5862 65.8355 45.0362 65.9521 45.3829 66.1855C45.7296 66.4121 45.9762 66.7088 46.1229 67.0755C46.2762 67.4355 46.3529 67.8188 46.3529 68.2255C46.3529 68.7055 46.2629 69.1355 46.0829 69.5155C45.9029 69.8955 45.6262 70.1955 45.2529 70.4155C44.8862 70.6355 44.4296 70.7455 43.8829 70.7455C43.1829 70.7455 42.6162 70.5655 42.1829 70.2055C41.7496 69.8455 41.4862 69.3655 41.3929 68.7655H42.2829C42.3696 69.1455 42.5529 69.4421 42.8329 69.6555C43.1129 69.8688 43.4662 69.9755 43.8929 69.9755C44.4196 69.9755 44.8162 69.8188 45.0829 69.5055C45.3496 69.1855 45.4829 68.7655 45.4829 68.2455C45.4829 67.7255 45.3496 67.3255 45.0829 67.0455C44.8162 66.7588 44.4229 66.6155 43.9029 66.6155C43.5496 66.6155 43.2396 66.7021 42.9729 66.8755C42.7129 67.0421 42.5229 67.2721 42.4029 67.5655H41.5429V63.4855H45.8929V64.2855ZM48.0022 70.7855C47.8289 70.7855 47.6822 70.7255 47.5622 70.6055C47.4422 70.4855 47.3822 70.3388 47.3822 70.1655C47.3822 69.9921 47.4422 69.8455 47.5622 69.7255C47.6822 69.6055 47.8289 69.5455 48.0022 69.5455C48.1689 69.5455 48.3089 69.6055 48.4222 69.7255C48.5422 69.8455 48.6022 69.9921 48.6022 70.1655C48.6022 70.3388 48.5422 70.4855 48.4222 70.6055C48.3089 70.7255 48.1689 70.7855 48.0022 70.7855ZM49.6618 67.0355C49.6618 65.8888 49.8485 64.9955 50.2218 64.3555C50.5951 63.7088 51.2485 63.3855 52.1818 63.3855C53.1085 63.3855 53.7585 63.7088 54.1318 64.3555C54.5051 64.9955 54.6918 65.8888 54.6918 67.0355C54.6918 68.2021 54.5051 69.1088 54.1318 69.7555C53.7585 70.4021 53.1085 70.7255 52.1818 70.7255C51.2485 70.7255 50.5951 70.4021 50.2218 69.7555C49.8485 69.1088 49.6618 68.2021 49.6618 67.0355ZM53.7918 67.0355C53.7918 66.4555 53.7518 65.9655 53.6718 65.5655C53.5985 65.1588 53.4418 64.8321 53.2018 64.5855C52.9685 64.3388 52.6285 64.2155 52.1818 64.2155C51.7285 64.2155 51.3818 64.3388 51.1418 64.5855C50.9085 64.8321 50.7518 65.1588 50.6718 65.5655C50.5985 65.9655 50.5618 66.4555 50.5618 67.0355C50.5618 67.6355 50.5985 68.1388 50.6718 68.5455C50.7518 68.9521 50.9085 69.2788 51.1418 69.5255C51.3818 69.7721 51.7285 69.8955 52.1818 69.8955C52.6285 69.8955 52.9685 69.7721 53.2018 69.5255C53.4418 69.2788 53.5985 68.9521 53.6718 68.5455C53.7518 68.1388 53.7918 67.6355 53.7918 67.0355ZM55.9411 67.0355C55.9411 65.8888 56.1278 64.9955 56.5011 64.3555C56.8744 63.7088 57.5278 63.3855 58.4611 63.3855C59.3878 63.3855 60.0378 63.7088 60.4111 64.3555C60.7844 64.9955 60.9711 65.8888 60.9711 67.0355C60.9711 68.2021 60.7844 69.1088 60.4111 69.7555C60.0378 70.4021 59.3878 70.7255 58.4611 70.7255C57.5278 70.7255 56.8744 70.4021 56.5011 69.7555C56.1278 69.1088 55.9411 68.2021 55.9411 67.0355ZM60.0711 67.0355C60.0711 66.4555 60.0311 65.9655 59.9511 65.5655C59.8778 65.1588 59.7211 64.8321 59.4811 64.5855C59.2478 64.3388 58.9078 64.2155 58.4611 64.2155C58.0078 64.2155 57.6611 64.3388 57.4211 64.5855C57.1878 64.8321 57.0311 65.1588 56.9511 65.5655C56.8778 65.9655 56.8411 66.4555 56.8411 67.0355C56.8411 67.6355 56.8778 68.1388 56.9511 68.5455C57.0311 68.9521 57.1878 69.2788 57.4211 69.5255C57.6611 69.7721 58.0078 69.8955 58.4611 69.8955C58.9078 69.8955 59.2478 69.7721 59.4811 69.5255C59.7211 69.2788 59.8778 68.9521 59.9511 68.5455C60.0311 68.1388 60.0711 67.6355 60.0711 67.0355ZM68.8364 66.6755V67.4455H64.8464V66.6755H68.8364ZM72.8202 64.3255V63.4955H74.7002V70.7255H73.7802V64.3255H72.8202ZM80.8734 64.2855H77.3634V66.5655C77.5167 66.3521 77.7434 66.1788 78.0434 66.0455C78.3434 65.9055 78.6667 65.8355 79.0134 65.8355C79.5667 65.8355 80.0167 65.9521 80.3634 66.1855C80.71 66.4121 80.9567 66.7088 81.1034 67.0755C81.2567 67.4355 81.3334 67.8188 81.3334 68.2255C81.3334 68.7055 81.2434 69.1355 81.0634 69.5155C80.8834 69.8955 80.6067 70.1955 80.2334 70.4155C79.8667 70.6355 79.41 70.7455 78.8634 70.7455C78.1634 70.7455 77.5967 70.5655 77.1634 70.2055C76.73 69.8455 76.4667 69.3655 76.3734 68.7655H77.2634C77.35 69.1455 77.5334 69.4421 77.8134 69.6555C78.0934 69.8688 78.4467 69.9755 78.8734 69.9755C79.4 69.9755 79.7967 69.8188 80.0634 69.5055C80.33 69.1855 80.4634 68.7655 80.4634 68.2455C80.4634 67.7255 80.33 67.3255 80.0634 67.0455C79.7967 66.7588 79.4034 66.6155 78.8834 66.6155C78.53 66.6155 78.22 66.7021 77.9534 66.8755C77.6934 67.0421 77.5034 67.2721 77.3834 67.5655H76.5234V63.4855H80.8734V64.2855ZM82.9827 70.7855C82.8093 70.7855 82.6627 70.7255 82.5427 70.6055C82.4227 70.4855 82.3627 70.3388 82.3627 70.1655C82.3627 69.9921 82.4227 69.8455 82.5427 69.7255C82.6627 69.6055 82.8093 69.5455 82.9827 69.5455C83.1493 69.5455 83.2893 69.6055 83.4027 69.7255C83.5227 69.8455 83.5827 69.9921 83.5827 70.1655C83.5827 70.3388 83.5227 70.4855 83.4027 70.6055C83.2893 70.7255 83.1493 70.7855 82.9827 70.7855ZM84.6223 65.3155C84.6689 64.7021 84.9056 64.2221 85.3323 63.8755C85.7589 63.5288 86.3123 63.3555 86.9923 63.3555C87.4456 63.3555 87.8356 63.4388 88.1623 63.6055C88.4956 63.7655 88.7456 63.9855 88.9123 64.2655C89.0856 64.5455 89.1723 64.8621 89.1723 65.2155C89.1723 65.6288 89.0523 65.9855 88.8123 66.2855C88.5789 66.5855 88.2723 66.7788 87.8923 66.8655V66.9155C88.3256 67.0221 88.6689 67.2321 88.9223 67.5455C89.1756 67.8588 89.3023 68.2688 89.3023 68.7755C89.3023 69.1555 89.2156 69.4988 89.0423 69.8055C88.8689 70.1055 88.6089 70.3421 88.2623 70.5155C87.9156 70.6888 87.4989 70.7755 87.0123 70.7755C86.3056 70.7755 85.7256 70.5921 85.2723 70.2255C84.8189 69.8521 84.5656 69.3255 84.5123 68.6455H85.3923C85.4389 69.0455 85.6023 69.3721 85.8823 69.6255C86.1623 69.8788 86.5356 70.0055 87.0023 70.0055C87.4689 70.0055 87.8223 69.8855 88.0623 69.6455C88.3089 69.3988 88.4323 69.0821 88.4323 68.6955C88.4323 68.1955 88.2656 67.8355 87.9323 67.6155C87.5989 67.3955 87.0956 67.2855 86.4223 67.2855H86.1923V66.5255H86.4323C87.0456 66.5188 87.5089 66.4188 87.8223 66.2255C88.1356 66.0255 88.2923 65.7188 88.2923 65.3055C88.2923 64.9521 88.1756 64.6688 87.9423 64.4555C87.7156 64.2421 87.3889 64.1355 86.9623 64.1355C86.5489 64.1355 86.2156 64.2421 85.9623 64.4555C85.7089 64.6688 85.5589 64.9555 85.5123 65.3155H84.6223ZM90.5309 67.0355C90.5309 65.8888 90.7176 64.9955 91.0909 64.3555C91.4643 63.7088 92.1176 63.3855 93.0509 63.3855C93.9776 63.3855 94.6276 63.7088 95.0009 64.3555C95.3743 64.9955 95.5609 65.8888 95.5609 67.0355C95.5609 68.2021 95.3743 69.1088 95.0009 69.7555C94.6276 70.4021 93.9776 70.7255 93.0509 70.7255C92.1176 70.7255 91.4643 70.4021 91.0909 69.7555C90.7176 69.1088 90.5309 68.2021 90.5309 67.0355ZM94.6609 67.0355C94.6609 66.4555 94.6209 65.9655 94.5409 65.5655C94.4676 65.1588 94.3109 64.8321 94.0709 64.5855C93.8376 64.3388 93.4976 64.2155 93.0509 64.2155C92.5976 64.2155 92.2509 64.3388 92.0109 64.5855C91.7776 64.8321 91.6209 65.1588 91.5409 65.5655C91.4676 65.9655 91.4309 66.4555 91.4309 67.0355C91.4309 67.6355 91.4676 68.1388 91.5409 68.5455C91.6209 68.9521 91.7776 69.2788 92.0109 69.5255C92.2509 69.7721 92.5976 69.8955 93.0509 69.8955C93.4976 69.8955 93.8376 69.7721 94.0709 69.5255C94.3109 69.2788 94.4676 68.9521 94.5409 68.5455C94.6209 68.1388 94.6609 67.6355 94.6609 67.0355Z" fill="white"/>
<path d="M48.1402 26.7255L46.2202 23.3895H45.1762V26.7255H43.8082V18.3855H46.6882C47.3282 18.3855 47.8682 18.4975 48.3082 18.7215C48.7562 18.9455 49.0882 19.2455 49.3042 19.6215C49.5282 19.9975 49.6402 20.4175 49.6402 20.8815C49.6402 21.4255 49.4802 21.9215 49.1602 22.3695C48.8482 22.8095 48.3642 23.1095 47.7082 23.2695L49.7722 26.7255H48.1402ZM45.1762 22.2975H46.6882C47.2002 22.2975 47.5842 22.1695 47.8402 21.9135C48.1042 21.6575 48.2362 21.3135 48.2362 20.8815C48.2362 20.4495 48.1082 20.1135 47.8522 19.8735C47.5962 19.6255 47.2082 19.5015 46.6882 19.5015H45.1762V22.2975ZM57.4502 23.2575C57.4502 23.5055 57.4342 23.7295 57.4022 23.9295H52.3502C52.3902 24.4575 52.5862 24.8815 52.9382 25.2015C53.2902 25.5215 53.7222 25.6815 54.2342 25.6815C54.9702 25.6815 55.4902 25.3735 55.7942 24.7575H57.2702C57.0702 25.3655 56.7062 25.8655 56.1782 26.2575C55.6582 26.6415 55.0102 26.8335 54.2342 26.8335C53.6022 26.8335 53.0342 26.6935 52.5302 26.4135C52.0342 26.1255 51.6422 25.7255 51.3542 25.2135C51.0742 24.6935 50.9342 24.0935 50.9342 23.4135C50.9342 22.7335 51.0702 22.1375 51.3422 21.6255C51.6222 21.1055 52.0102 20.7055 52.5062 20.4255C53.0102 20.1455 53.5862 20.0055 54.2342 20.0055C54.8582 20.0055 55.4142 20.1415 55.9022 20.4135C56.3902 20.6855 56.7702 21.0695 57.0422 21.5655C57.3142 22.0535 57.4502 22.6175 57.4502 23.2575ZM56.0222 22.8255C56.0142 22.3215 55.8342 21.9175 55.4822 21.6135C55.1302 21.3095 54.6942 21.1575 54.1742 21.1575C53.7022 21.1575 53.2982 21.3095 52.9622 21.6135C52.6262 21.9095 52.4262 22.3135 52.3622 22.8255H56.0222ZM55.4342 18.3375L52.7822 19.6455V18.6375L55.4342 17.1735V18.3375ZM64.7845 20.1135V26.7255H63.4165V25.9455C63.2005 26.2175 62.9165 26.4335 62.5645 26.5935C62.2205 26.7455 61.8525 26.8215 61.4605 26.8215C60.9405 26.8215 60.4725 26.7135 60.0565 26.4975C59.6485 26.2815 59.3245 25.9615 59.0845 25.5375C58.8525 25.1135 58.7365 24.6015 58.7365 24.0015V20.1135H60.0925V23.7975C60.0925 24.3895 60.2405 24.8455 60.5365 25.1655C60.8325 25.4775 61.2365 25.6335 61.7485 25.6335C62.2605 25.6335 62.6645 25.4775 62.9605 25.1655C63.2645 24.8455 63.4165 24.3895 63.4165 23.7975V20.1135H64.7845ZM69.9255 20.0055C70.4455 20.0055 70.9095 20.1135 71.3175 20.3295C71.7335 20.5455 72.0575 20.8655 72.2895 21.2895C72.5215 21.7135 72.6375 22.2255 72.6375 22.8255V26.7255H71.2815V23.0295C71.2815 22.4375 71.1335 21.9855 70.8375 21.6735C70.5415 21.3535 70.1375 21.1935 69.6255 21.1935C69.1135 21.1935 68.7055 21.3535 68.4015 21.6735C68.1055 21.9855 67.9575 22.4375 67.9575 23.0295V26.7255H66.5895V20.1135H67.9575V20.8695C68.1815 20.5975 68.4655 20.3855 68.8095 20.2335C69.1615 20.0815 69.5335 20.0055 69.9255 20.0055ZM75.0784 19.2375C74.8304 19.2375 74.6224 19.1535 74.4544 18.9855C74.2864 18.8175 74.2024 18.6095 74.2024 18.3615C74.2024 18.1135 74.2864 17.9055 74.4544 17.7375C74.6224 17.5695 74.8304 17.4855 75.0784 17.4855C75.3184 17.4855 75.5224 17.5695 75.6904 17.7375C75.8584 17.9055 75.9424 18.1135 75.9424 18.3615C75.9424 18.6095 75.8584 18.8175 75.6904 18.9855C75.5224 19.1535 75.3184 19.2375 75.0784 19.2375ZM75.7504 20.1135V26.7255H74.3824V20.1135H75.7504ZM80.4145 26.8335C79.7905 26.8335 79.2265 26.6935 78.7225 26.4135C78.2185 26.1255 77.8225 25.7255 77.5345 25.2135C77.2465 24.6935 77.1025 24.0935 77.1025 23.4135C77.1025 22.7415 77.2505 22.1455 77.5465 21.6255C77.8425 21.1055 78.2465 20.7055 78.7585 20.4255C79.2705 20.1455 79.8425 20.0055 80.4745 20.0055C81.1065 20.0055 81.6785 20.1455 82.1905 20.4255C82.7025 20.7055 83.1065 21.1055 83.4025 21.6255C83.6985 22.1455 83.8465 22.7415 83.8465 23.4135C83.8465 24.0855 83.6945 24.6815 83.3905 25.2015C83.0865 25.7215 82.6705 26.1255 82.1425 26.4135C81.6225 26.6935 81.0465 26.8335 80.4145 26.8335ZM80.4145 25.6455C80.7665 25.6455 81.0945 25.5615 81.3985 25.3935C81.7105 25.2255 81.9625 24.9735 82.1545 24.6375C82.3465 24.3015 82.4425 23.8935 82.4425 23.4135C82.4425 22.9335 82.3505 22.5295 82.1665 22.2015C81.9825 21.8655 81.7385 21.6135 81.4345 21.4455C81.1305 21.2775 80.8025 21.1935 80.4505 21.1935C80.0985 21.1935 79.7705 21.2775 79.4665 21.4455C79.1705 21.6135 78.9345 21.8655 78.7585 22.2015C78.5825 22.5295 78.4945 22.9335 78.4945 23.4135C78.4945 24.1255 78.6745 24.6775 79.0345 25.0695C79.4025 25.4535 79.8625 25.6455 80.4145 25.6455ZM88.5348 20.0055C89.0548 20.0055 89.5188 20.1135 89.9268 20.3295C90.3428 20.5455 90.6668 20.8655 90.8988 21.2895C91.1308 21.7135 91.2468 22.2255 91.2468 22.8255V26.7255H89.8908V23.0295C89.8908 22.4375 89.7428 21.9855 89.4468 21.6735C89.1508 21.3535 88.7468 21.1935 88.2348 21.1935C87.7228 21.1935 87.3148 21.3535 87.0108 21.6735C86.7148 21.9855 86.5668 22.4375 86.5668 23.0295V26.7255H85.1988V20.1135H86.5668V20.8695C86.7908 20.5975 87.0748 20.3855 87.4188 20.2335C87.7708 20.0815 88.1428 20.0055 88.5348 20.0055ZM52.0551 39.0855C52.2871 38.7815 52.6031 38.5255 53.0031 38.3175C53.4031 38.1095 53.8551 38.0055 54.3591 38.0055C54.9351 38.0055 55.4591 38.1495 55.9311 38.4375C56.4111 38.7175 56.7871 39.1135 57.0591 39.6255C57.3311 40.1375 57.4671 40.7255 57.4671 41.3895C57.4671 42.0535 57.3311 42.6495 57.0591 43.1775C56.7871 43.6975 56.4111 44.1055 55.9311 44.4015C55.4591 44.6895 54.9351 44.8335 54.3591 44.8335C53.8551 44.8335 53.4071 44.7335 53.0151 44.5335C52.6231 44.3255 52.3031 44.0695 52.0551 43.7655V47.8695H50.6871V38.1135H52.0551V39.0855ZM56.0751 41.3895C56.0751 40.9335 55.9791 40.5415 55.7871 40.2135C55.6031 39.8775 55.3551 39.6255 55.0431 39.4575C54.7391 39.2815 54.4111 39.1935 54.0591 39.1935C53.7151 39.1935 53.3871 39.2815 53.0751 39.4575C52.7711 39.6335 52.5231 39.8895 52.3311 40.2255C52.1471 40.5615 52.0551 40.9575 52.0551 41.4135C52.0551 41.8695 52.1471 42.2695 52.3311 42.6135C52.5231 42.9495 52.7711 43.2055 53.0751 43.3815C53.3871 43.5575 53.7151 43.6455 54.0591 43.6455C54.4111 43.6455 54.7391 43.5575 55.0431 43.3815C55.3551 43.1975 55.6031 42.9335 55.7871 42.5895C55.9791 42.2455 56.0751 41.8455 56.0751 41.3895ZM60.1879 39.0735C60.3879 38.7375 60.6519 38.4775 60.9799 38.2935C61.3159 38.1015 61.7119 38.0055 62.1679 38.0055V39.4215H61.8199C61.2839 39.4215 60.8759 39.5575 60.5959 39.8295C60.3239 40.1015 60.1879 40.5735 60.1879 41.2455V44.7255H58.8199V38.1135H60.1879V39.0735ZM66.2934 44.8335C65.6694 44.8335 65.1054 44.6935 64.6014 44.4135C64.0974 44.1255 63.7014 43.7255 63.4134 43.2135C63.1254 42.6935 62.9814 42.0935 62.9814 41.4135C62.9814 40.7415 63.1294 40.1455 63.4254 39.6255C63.7214 39.1055 64.1254 38.7055 64.6374 38.4255C65.1494 38.1455 65.7214 38.0055 66.3534 38.0055C66.9854 38.0055 67.5574 38.1455 68.0694 38.4255C68.5814 38.7055 68.9854 39.1055 69.2814 39.6255C69.5774 40.1455 69.7254 40.7415 69.7254 41.4135C69.7254 42.0855 69.5734 42.6815 69.2694 43.2015C68.9654 43.7215 68.5494 44.1255 68.0214 44.4135C67.5014 44.6935 66.9254 44.8335 66.2934 44.8335ZM66.2934 43.6455C66.6454 43.6455 66.9734 43.5615 67.2774 43.3935C67.5894 43.2255 67.8414 42.9735 68.0334 42.6375C68.2254 42.3015 68.3214 41.8935 68.3214 41.4135C68.3214 40.9335 68.2294 40.5295 68.0454 40.2015C67.8614 39.8655 67.6174 39.6135 67.3134 39.4455C67.0094 39.2775 66.6814 39.1935 66.3294 39.1935C65.9774 39.1935 65.6494 39.2775 65.3454 39.4455C65.0494 39.6135 64.8134 39.8655 64.6374 40.2015C64.4614 40.5295 64.3734 40.9335 64.3734 41.4135C64.3734 42.1255 64.5534 42.6775 64.9134 43.0695C65.2814 43.4535 65.7414 43.6455 66.2934 43.6455ZM71.7737 37.2375C71.5257 37.2375 71.3177 37.1535 71.1497 36.9855C70.9817 36.8175 70.8977 36.6095 70.8977 36.3615C70.8977 36.1135 70.9817 35.9055 71.1497 35.7375C71.3177 35.5695 71.5257 35.4855 71.7737 35.4855C72.0137 35.4855 72.2177 35.5695 72.3857 35.7375C72.5537 35.9055 72.6377 36.1135 72.6377 36.3615C72.6377 36.6095 72.5537 36.8175 72.3857 36.9855C72.2177 37.1535 72.0137 37.2375 71.7737 37.2375ZM72.4457 46.0215C72.4457 46.6695 72.2817 47.1375 71.9537 47.4255C71.6337 47.7215 71.1657 47.8695 70.5497 47.8695H69.8417V46.7175H70.3097C70.5897 46.7175 70.7857 46.6615 70.8977 46.5495C71.0177 46.4455 71.0777 46.2695 71.0777 46.0215V38.1135H72.4457V46.0215ZM80.3018 41.2575C80.3018 41.5055 80.2858 41.7295 80.2538 41.9295H75.2018C75.2418 42.4575 75.4378 42.8815 75.7898 43.2015C76.1418 43.5215 76.5738 43.6815 77.0858 43.6815C77.8218 43.6815 78.3418 43.3735 78.6458 42.7575H80.1218C79.9218 43.3655 79.5578 43.8655 79.0298 44.2575C78.5098 44.6415 77.8618 44.8335 77.0858 44.8335C76.4538 44.8335 75.8858 44.6935 75.3818 44.4135C74.8858 44.1255 74.4938 43.7255 74.2058 43.2135C73.9258 42.6935 73.7858 42.0935 73.7858 41.4135C73.7858 40.7335 73.9218 40.1375 74.1938 39.6255C74.4738 39.1055 74.8618 38.7055 75.3578 38.4255C75.8618 38.1455 76.4378 38.0055 77.0858 38.0055C77.7098 38.0055 78.2658 38.1415 78.7538 38.4135C79.2418 38.6855 79.6218 39.0695 79.8938 39.5655C80.1658 40.0535 80.3018 40.6175 80.3018 41.2575ZM78.8738 40.8255C78.8658 40.3215 78.6858 39.9175 78.3338 39.6135C77.9818 39.3095 77.5458 39.1575 77.0258 39.1575C76.5538 39.1575 76.1498 39.3095 75.8138 39.6135C75.4778 39.9095 75.2778 40.3135 75.2138 40.8255H78.8738ZM83.244 39.2295V42.8895C83.244 43.1375 83.3 43.3175 83.412 43.4295C83.532 43.5335 83.732 43.5855 84.012 43.5855H84.852V44.7255H83.772C83.156 44.7255 82.684 44.5815 82.356 44.2935C82.028 44.0055 81.864 43.5375 81.864 42.8895V39.2295H81.084V38.1135H81.864V36.4695H83.244V38.1135H84.852V39.2295H83.244Z" fill="white"/>
</svg>
