<svg width="135" height="205" viewBox="0 0 135 205" fill="none" xmlns="http://www.w3.org/2000/svg">
<rect x="0.0471191" y="105" width="134.503" height="100" rx="20" fill="#343434"/>
<path d="M49.4025 138.66L46.2705 147H44.6865L41.5425 138.66H43.0065L45.4785 145.596L47.9625 138.66H49.4025ZM53.4145 147.108C52.7905 147.108 52.2265 146.968 51.7225 146.688C51.2185 146.4 50.8225 146 50.5345 145.488C50.2465 144.968 50.1025 144.368 50.1025 143.688C50.1025 143.016 50.2505 142.42 50.5465 141.9C50.8425 141.38 51.2465 140.98 51.7585 140.7C52.2705 140.42 52.8425 140.28 53.4745 140.28C54.1065 140.28 54.6785 140.42 55.1905 140.7C55.7025 140.98 56.1065 141.38 56.4025 141.9C56.6985 142.42 56.8465 143.016 56.8465 143.688C56.8465 144.36 56.6945 144.956 56.3905 145.476C56.0865 145.996 55.6705 146.4 55.1425 146.688C54.6225 146.968 54.0465 147.108 53.4145 147.108ZM53.4145 145.92C53.7665 145.92 54.0945 145.836 54.3985 145.668C54.7105 145.5 54.9625 145.248 55.1545 144.912C55.3465 144.576 55.4425 144.168 55.4425 143.688C55.4425 143.208 55.3505 142.804 55.1665 142.476C54.9825 142.14 54.7385 141.888 54.4345 141.72C54.1305 141.552 53.8025 141.468 53.4505 141.468C53.0985 141.468 52.7705 141.552 52.4665 141.72C52.1705 141.888 51.9345 142.14 51.7585 142.476C51.5825 142.804 51.4945 143.208 51.4945 143.688C51.4945 144.4 51.6745 144.952 52.0345 145.344C52.4025 145.728 52.8625 145.92 53.4145 145.92ZM58.8948 139.512C58.6468 139.512 58.4388 139.428 58.2708 139.26C58.1028 139.092 58.0188 138.884 58.0188 138.636C58.0188 138.388 58.1028 138.18 58.2708 138.012C58.4388 137.844 58.6468 137.76 58.8948 137.76C59.1348 137.76 59.3388 137.844 59.5068 138.012C59.6748 138.18 59.7588 138.388 59.7588 138.636C59.7588 138.884 59.6748 139.092 59.5068 139.26C59.3388 139.428 59.1348 139.512 58.8948 139.512ZM59.5668 140.388V147H58.1988V140.388H59.5668ZM62.7309 141.348C62.9309 141.012 63.1949 140.752 63.5229 140.568C63.8589 140.376 64.2549 140.28 64.7109 140.28V141.696H64.3629C63.8269 141.696 63.4189 141.832 63.1389 142.104C62.8669 142.376 62.7309 142.848 62.7309 143.52V147H61.3629V140.388H62.7309V141.348ZM70.4535 141.36C70.6855 141.056 71.0015 140.8 71.4015 140.592C71.8015 140.384 72.2535 140.28 72.7575 140.28C73.3335 140.28 73.8575 140.424 74.3295 140.712C74.8095 140.992 75.1855 141.388 75.4575 141.9C75.7295 142.412 75.8655 143 75.8655 143.664C75.8655 144.328 75.7295 144.924 75.4575 145.452C75.1855 145.972 74.8095 146.38 74.3295 146.676C73.8575 146.964 73.3335 147.108 72.7575 147.108C72.2535 147.108 71.8055 147.008 71.4135 146.808C71.0215 146.6 70.7015 146.344 70.4535 146.04V150.144H69.0855V140.388H70.4535V141.36ZM74.4735 143.664C74.4735 143.208 74.3775 142.816 74.1855 142.488C74.0015 142.152 73.7535 141.9 73.4415 141.732C73.1375 141.556 72.8095 141.468 72.4575 141.468C72.1135 141.468 71.7855 141.556 71.4735 141.732C71.1695 141.908 70.9215 142.164 70.7295 142.5C70.5455 142.836 70.4535 143.232 70.4535 143.688C70.4535 144.144 70.5455 144.544 70.7295 144.888C70.9215 145.224 71.1695 145.48 71.4735 145.656C71.7855 145.832 72.1135 145.92 72.4575 145.92C72.8095 145.92 73.1375 145.832 73.4415 145.656C73.7535 145.472 74.0015 145.208 74.1855 144.864C74.3775 144.52 74.4735 144.12 74.4735 143.664ZM78.5864 138.12V147H77.2184V138.12H78.5864ZM86.3704 140.388V147H85.0024V146.22C84.7864 146.492 84.5024 146.708 84.1504 146.868C83.8064 147.02 83.4384 147.096 83.0464 147.096C82.5264 147.096 82.0584 146.988 81.6424 146.772C81.2344 146.556 80.9104 146.236 80.6704 145.812C80.4384 145.388 80.3224 144.876 80.3224 144.276V140.388H81.6784V144.072C81.6784 144.664 81.8264 145.12 82.1224 145.44C82.4184 145.752 82.8224 145.908 83.3344 145.908C83.8464 145.908 84.2504 145.752 84.5464 145.44C84.8504 145.12 85.0024 144.664 85.0024 144.072V140.388H86.3704ZM90.5754 147.108C90.0554 147.108 89.5874 147.016 89.1714 146.832C88.7634 146.64 88.4394 146.384 88.1994 146.064C87.9594 145.736 87.8314 145.372 87.8154 144.972H89.2314C89.2554 145.252 89.3874 145.488 89.6274 145.68C89.8754 145.864 90.1834 145.956 90.5514 145.956C90.9354 145.956 91.2314 145.884 91.4394 145.74C91.6554 145.588 91.7634 145.396 91.7634 145.164C91.7634 144.916 91.6434 144.732 91.4034 144.612C91.1714 144.492 90.7994 144.36 90.2874 144.216C89.7914 144.08 89.3874 143.948 89.0754 143.82C88.7634 143.692 88.4914 143.496 88.2594 143.232C88.0354 142.968 87.9234 142.62 87.9234 142.188C87.9234 141.836 88.0274 141.516 88.2354 141.228C88.4434 140.932 88.7394 140.7 89.1234 140.532C89.5154 140.364 89.9634 140.28 90.4674 140.28C91.2194 140.28 91.8234 140.472 92.2794 140.856C92.7434 141.232 92.9914 141.748 93.0234 142.404H91.6554C91.6314 142.108 91.5114 141.872 91.2954 141.696C91.0794 141.52 90.7874 141.432 90.4194 141.432C90.0594 141.432 89.7834 141.5 89.5914 141.636C89.3994 141.772 89.3034 141.952 89.3034 142.176C89.3034 142.352 89.3674 142.5 89.4954 142.62C89.6234 142.74 89.7794 142.836 89.9634 142.908C90.1474 142.972 90.4194 143.056 90.7794 143.16C91.2594 143.288 91.6514 143.42 91.9554 143.556C92.2674 143.684 92.5354 143.876 92.7594 144.132C92.9834 144.388 93.0994 144.728 93.1074 145.152C93.1074 145.528 93.0034 145.864 92.7954 146.16C92.5874 146.456 92.2914 146.688 91.9074 146.856C91.5314 147.024 91.0874 147.108 90.5754 147.108Z" fill="white"/>
<path d="M34.593 169.73H32.463V171.89H31.613V169.73H29.493V168.96H31.613V166.79H32.463V168.96H34.593V169.73ZM36.0492 167.59C36.0959 166.977 36.3326 166.497 36.7592 166.15C37.1859 165.803 37.7392 165.63 38.4192 165.63C38.8726 165.63 39.2626 165.713 39.5892 165.88C39.9226 166.04 40.1726 166.26 40.3392 166.54C40.5126 166.82 40.5992 167.137 40.5992 167.49C40.5992 167.903 40.4792 168.26 40.2392 168.56C40.0059 168.86 39.6992 169.053 39.3192 169.14V169.19C39.7526 169.297 40.0959 169.507 40.3492 169.82C40.6026 170.133 40.7292 170.543 40.7292 171.05C40.7292 171.43 40.6426 171.773 40.4692 172.08C40.2959 172.38 40.0359 172.617 39.6892 172.79C39.3426 172.963 38.9259 173.05 38.4392 173.05C37.7326 173.05 37.1526 172.867 36.6992 172.5C36.2459 172.127 35.9926 171.6 35.9392 170.92H36.8192C36.8659 171.32 37.0292 171.647 37.3092 171.9C37.5892 172.153 37.9626 172.28 38.4292 172.28C38.8959 172.28 39.2492 172.16 39.4892 171.92C39.7359 171.673 39.8592 171.357 39.8592 170.97C39.8592 170.47 39.6926 170.11 39.3592 169.89C39.0259 169.67 38.5226 169.56 37.8492 169.56H37.6192V168.8H37.8592C38.4726 168.793 38.9359 168.693 39.2492 168.5C39.5626 168.3 39.7192 167.993 39.7192 167.58C39.7192 167.227 39.6026 166.943 39.3692 166.73C39.1426 166.517 38.8159 166.41 38.3892 166.41C37.9759 166.41 37.6426 166.517 37.3892 166.73C37.1359 166.943 36.9859 167.23 36.9392 167.59H36.0492ZM49.7739 170.05C49.7739 170.223 49.7639 170.407 49.7439 170.6H45.3639C45.3972 171.14 45.5806 171.563 45.9139 171.87C46.2539 172.17 46.6639 172.32 47.1439 172.32C47.5372 172.32 47.8639 172.23 48.1239 172.05C48.3906 171.863 48.5772 171.617 48.6839 171.31H49.6639C49.5172 171.837 49.2239 172.267 48.7839 172.6C48.3439 172.927 47.7972 173.09 47.1439 173.09C46.6239 173.09 46.1572 172.973 45.7439 172.74C45.3372 172.507 45.0172 172.177 44.7839 171.75C44.5506 171.317 44.4339 170.817 44.4339 170.25C44.4339 169.683 44.5472 169.187 44.7739 168.76C45.0006 168.333 45.3172 168.007 45.7239 167.78C46.1372 167.547 46.6106 167.43 47.1439 167.43C47.6639 167.43 48.1239 167.543 48.5239 167.77C48.9239 167.997 49.2306 168.31 49.4439 168.71C49.6639 169.103 49.7739 169.55 49.7739 170.05ZM48.8339 169.86C48.8339 169.513 48.7572 169.217 48.6039 168.97C48.4506 168.717 48.2406 168.527 47.9739 168.4C47.7139 168.267 47.4239 168.2 47.1039 168.2C46.6439 168.2 46.2506 168.347 45.9239 168.64C45.6039 168.933 45.4206 169.34 45.3739 169.86H48.8339ZM48.0839 165.97L45.9539 167.11V166.43L48.0839 165.18V165.97ZM53.0151 172.16L54.7151 167.52H55.6851L53.5351 173H52.4751L50.3251 167.52H51.3051L53.0151 172.16ZM61.5805 170.05C61.5805 170.223 61.5705 170.407 61.5505 170.6H57.1705C57.2039 171.14 57.3872 171.563 57.7205 171.87C58.0605 172.17 58.4705 172.32 58.9505 172.32C59.3439 172.32 59.6705 172.23 59.9305 172.05C60.1972 171.863 60.3839 171.617 60.4905 171.31H61.4705C61.3239 171.837 61.0305 172.267 60.5905 172.6C60.1505 172.927 59.6039 173.09 58.9505 173.09C58.4305 173.09 57.9639 172.973 57.5505 172.74C57.1439 172.507 56.8239 172.177 56.5905 171.75C56.3572 171.317 56.2405 170.817 56.2405 170.25C56.2405 169.683 56.3539 169.187 56.5805 168.76C56.8072 168.333 57.1239 168.007 57.5305 167.78C57.9439 167.547 58.4172 167.43 58.9505 167.43C59.4705 167.43 59.9305 167.543 60.3305 167.77C60.7305 167.997 61.0372 168.31 61.2505 168.71C61.4705 169.103 61.5805 169.55 61.5805 170.05ZM60.6405 169.86C60.6405 169.513 60.5639 169.217 60.4105 168.97C60.2572 168.717 60.0472 168.527 59.7805 168.4C59.5205 168.267 59.2305 168.2 58.9105 168.2C58.4505 168.2 58.0572 168.347 57.7305 168.64C57.4105 168.933 57.2272 169.34 57.1805 169.86H60.6405ZM59.8905 165.97L57.7605 167.11V166.43L59.8905 165.18V165.97ZM65.4517 167.42C66.1184 167.42 66.6584 167.623 67.0717 168.03C67.4851 168.43 67.6917 169.01 67.6917 169.77V173H66.7917V169.9C66.7917 169.353 66.6551 168.937 66.3817 168.65C66.1084 168.357 65.7351 168.21 65.2617 168.21C64.7817 168.21 64.3984 168.36 64.1117 168.66C63.8317 168.96 63.6917 169.397 63.6917 169.97V173H62.7817V167.52H63.6917V168.3C63.8717 168.02 64.1151 167.803 64.4217 167.65C64.7351 167.497 65.0784 167.42 65.4517 167.42ZM74.1782 170.05C74.1782 170.223 74.1682 170.407 74.1482 170.6H69.7682C69.8015 171.14 69.9849 171.563 70.3182 171.87C70.6582 172.17 71.0682 172.32 71.5482 172.32C71.9415 172.32 72.2682 172.23 72.5282 172.05C72.7949 171.863 72.9815 171.617 73.0882 171.31H74.0682C73.9215 171.837 73.6282 172.267 73.1882 172.6C72.7482 172.927 72.2015 173.09 71.5482 173.09C71.0282 173.09 70.5615 172.973 70.1482 172.74C69.7415 172.507 69.4215 172.177 69.1882 171.75C68.9549 171.317 68.8382 170.817 68.8382 170.25C68.8382 169.683 68.9515 169.187 69.1782 168.76C69.4049 168.333 69.7215 168.007 70.1282 167.78C70.5415 167.547 71.0149 167.43 71.5482 167.43C72.0682 167.43 72.5282 167.543 72.9282 167.77C73.3282 167.997 73.6349 168.31 73.8482 168.71C74.0682 169.103 74.1782 169.55 74.1782 170.05ZM73.2382 169.86C73.2382 169.513 73.1615 169.217 73.0082 168.97C72.8549 168.717 72.6449 168.527 72.3782 168.4C72.1182 168.267 71.8282 168.2 71.5082 168.2C71.0482 168.2 70.6549 168.347 70.3282 168.64C70.0082 168.933 69.8249 169.34 69.7782 169.86H73.2382ZM81.9694 167.42C82.396 167.42 82.776 167.51 83.1094 167.69C83.4427 167.863 83.706 168.127 83.8994 168.48C84.0927 168.833 84.1894 169.263 84.1894 169.77V173H83.2894V169.9C83.2894 169.353 83.1527 168.937 82.8794 168.65C82.6127 168.357 82.2494 168.21 81.7894 168.21C81.316 168.21 80.9394 168.363 80.6594 168.67C80.3794 168.97 80.2394 169.407 80.2394 169.98V173H79.3394V169.9C79.3394 169.353 79.2027 168.937 78.9294 168.65C78.6627 168.357 78.2994 168.21 77.8394 168.21C77.366 168.21 76.9894 168.363 76.7094 168.67C76.4294 168.97 76.2894 169.407 76.2894 169.98V173H75.3794V167.52H76.2894V168.31C76.4694 168.023 76.7094 167.803 77.0094 167.65C77.316 167.497 77.6527 167.42 78.0194 167.42C78.4794 167.42 78.886 167.523 79.2394 167.73C79.5927 167.937 79.856 168.24 80.0294 168.64C80.1827 168.253 80.436 167.953 80.7894 167.74C81.1427 167.527 81.536 167.42 81.9694 167.42ZM90.6821 170.05C90.6821 170.223 90.6721 170.407 90.6521 170.6H86.2721C86.3054 171.14 86.4888 171.563 86.8221 171.87C87.1621 172.17 87.5721 172.32 88.0521 172.32C88.4454 172.32 88.7721 172.23 89.0321 172.05C89.2988 171.863 89.4854 171.617 89.5921 171.31H90.5721C90.4254 171.837 90.1321 172.267 89.6921 172.6C89.2521 172.927 88.7054 173.09 88.0521 173.09C87.5321 173.09 87.0654 172.973 86.6521 172.74C86.2454 172.507 85.9254 172.177 85.6921 171.75C85.4588 171.317 85.3421 170.817 85.3421 170.25C85.3421 169.683 85.4554 169.187 85.6821 168.76C85.9088 168.333 86.2254 168.007 86.6321 167.78C87.0454 167.547 87.5188 167.43 88.0521 167.43C88.5721 167.43 89.0321 167.543 89.4321 167.77C89.8321 167.997 90.1388 168.31 90.3521 168.71C90.5721 169.103 90.6821 169.55 90.6821 170.05ZM89.7421 169.86C89.7421 169.513 89.6654 169.217 89.5121 168.97C89.3588 168.717 89.1488 168.527 88.8821 168.4C88.6221 168.267 88.3321 168.2 88.0121 168.2C87.5521 168.2 87.1588 168.347 86.8321 168.64C86.5121 168.933 86.3288 169.34 86.2821 169.86H89.7421ZM94.5533 167.42C95.2199 167.42 95.7599 167.623 96.1733 168.03C96.5866 168.43 96.7933 169.01 96.7933 169.77V173H95.8933V169.9C95.8933 169.353 95.7566 168.937 95.4833 168.65C95.2099 168.357 94.8366 168.21 94.3633 168.21C93.8833 168.21 93.4999 168.36 93.2133 168.66C92.9333 168.96 92.7933 169.397 92.7933 169.97V173H91.8833V167.52H92.7933V168.3C92.9733 168.02 93.2166 167.803 93.5233 167.65C93.8366 167.497 94.1799 167.42 94.5533 167.42ZM99.3898 168.27V171.5C99.3898 171.767 99.4464 171.957 99.5598 172.07C99.6731 172.177 99.8698 172.23 100.15 172.23H100.82V173H99.9998C99.4931 173 99.1131 172.883 98.8598 172.65C98.6064 172.417 98.4798 172.033 98.4798 171.5V168.27H97.7698V167.52H98.4798V166.14H99.3898V167.52H100.82V168.27H99.3898ZM103.862 173.09C103.442 173.09 103.066 173.02 102.732 172.88C102.399 172.733 102.136 172.533 101.942 172.28C101.749 172.02 101.642 171.723 101.622 171.39H102.562C102.589 171.663 102.716 171.887 102.942 172.06C103.176 172.233 103.479 172.32 103.852 172.32C104.199 172.32 104.472 172.243 104.672 172.09C104.872 171.937 104.972 171.743 104.972 171.51C104.972 171.27 104.866 171.093 104.652 170.98C104.439 170.86 104.109 170.743 103.662 170.63C103.256 170.523 102.922 170.417 102.662 170.31C102.409 170.197 102.189 170.033 102.002 169.82C101.822 169.6 101.732 169.313 101.732 168.96C101.732 168.68 101.816 168.423 101.982 168.19C102.149 167.957 102.386 167.773 102.692 167.64C102.999 167.5 103.349 167.43 103.742 167.43C104.349 167.43 104.839 167.583 105.212 167.89C105.586 168.197 105.786 168.617 105.812 169.15H104.902C104.882 168.863 104.766 168.633 104.552 168.46C104.346 168.287 104.066 168.2 103.712 168.2C103.386 168.2 103.126 168.27 102.932 168.41C102.739 168.55 102.642 168.733 102.642 168.96C102.642 169.14 102.699 169.29 102.812 169.41C102.932 169.523 103.079 169.617 103.252 169.69C103.432 169.757 103.679 169.833 103.992 169.92C104.386 170.027 104.706 170.133 104.952 170.24C105.199 170.34 105.409 170.493 105.582 170.7C105.762 170.907 105.856 171.177 105.862 171.51C105.862 171.81 105.779 172.08 105.612 172.32C105.446 172.56 105.209 172.75 104.902 172.89C104.602 173.023 104.256 173.09 103.862 173.09Z" fill="white"/>
<rect width="134.503" height="100" rx="20" fill="#2ED82E"/>
<path d="M36.7509 64.3255V63.4955H38.6309V70.7255H37.7109V64.3255H36.7509ZM41.364 68.7855C41.4307 69.1655 41.584 69.4588 41.824 69.6655C42.0707 69.8721 42.4007 69.9755 42.814 69.9755C43.3674 69.9755 43.774 69.7588 44.034 69.3255C44.3007 68.8921 44.4274 68.1621 44.414 67.1355C44.274 67.4355 44.0407 67.6721 43.714 67.8455C43.3874 68.0121 43.024 68.0955 42.624 68.0955C42.1774 68.0955 41.7774 68.0055 41.424 67.8255C41.0774 67.6388 40.804 67.3688 40.604 67.0155C40.404 66.6621 40.304 66.2355 40.304 65.7355C40.304 65.0221 40.5107 64.4488 40.924 64.0155C41.3374 63.5755 41.924 63.3555 42.684 63.3555C43.6174 63.3555 44.2707 63.6588 44.644 64.2655C45.024 64.8721 45.214 65.7755 45.214 66.9755C45.214 67.8155 45.1374 68.5088 44.984 69.0555C44.8374 69.6021 44.584 70.0188 44.224 70.3055C43.8707 70.5921 43.384 70.7355 42.764 70.7355C42.084 70.7355 41.554 70.5521 41.174 70.1855C40.794 69.8188 40.5774 69.3521 40.524 68.7855H41.364ZM42.774 67.3255C43.2207 67.3255 43.5874 67.1888 43.874 66.9155C44.1607 66.6355 44.304 66.2588 44.304 65.7855C44.304 65.2855 44.164 64.8821 43.884 64.5755C43.604 64.2688 43.2107 64.1155 42.704 64.1155C42.2374 64.1155 41.864 64.2621 41.584 64.5555C41.3107 64.8488 41.174 65.2355 41.174 65.7155C41.174 66.2021 41.3107 66.5921 41.584 66.8855C41.8574 67.1788 42.254 67.3255 42.774 67.3255ZM46.9329 70.7855C46.7595 70.7855 46.6129 70.7255 46.4929 70.6055C46.3729 70.4855 46.3129 70.3388 46.3129 70.1655C46.3129 69.9921 46.3729 69.8455 46.4929 69.7255C46.6129 69.6055 46.7595 69.5455 46.9329 69.5455C47.0995 69.5455 47.2395 69.6055 47.3529 69.7255C47.4729 69.8455 47.5329 69.9921 47.5329 70.1655C47.5329 70.3388 47.4729 70.4855 47.3529 70.6055C47.2395 70.7255 47.0995 70.7855 46.9329 70.7855ZM48.5725 65.3155C48.6191 64.7021 48.8558 64.2221 49.2825 63.8755C49.7091 63.5288 50.2625 63.3555 50.9425 63.3555C51.3958 63.3555 51.7858 63.4388 52.1125 63.6055C52.4458 63.7655 52.6958 63.9855 52.8625 64.2655C53.0358 64.5455 53.1225 64.8621 53.1225 65.2155C53.1225 65.6288 53.0025 65.9855 52.7625 66.2855C52.5291 66.5855 52.2225 66.7788 51.8425 66.8655V66.9155C52.2758 67.0221 52.6191 67.2321 52.8725 67.5455C53.1258 67.8588 53.2525 68.2688 53.2525 68.7755C53.2525 69.1555 53.1658 69.4988 52.9925 69.8055C52.8191 70.1055 52.5591 70.3421 52.2125 70.5155C51.8658 70.6888 51.4491 70.7755 50.9625 70.7755C50.2558 70.7755 49.6758 70.5921 49.2225 70.2255C48.7691 69.8521 48.5158 69.3255 48.4625 68.6455H49.3425C49.3891 69.0455 49.5525 69.3721 49.8325 69.6255C50.1125 69.8788 50.4858 70.0055 50.9525 70.0055C51.4191 70.0055 51.7725 69.8855 52.0125 69.6455C52.2591 69.3988 52.3825 69.0821 52.3825 68.6955C52.3825 68.1955 52.2158 67.8355 51.8825 67.6155C51.5491 67.3955 51.0458 67.2855 50.3725 67.2855H50.1425V66.5255H50.3825C50.9958 66.5188 51.4591 66.4188 51.7725 66.2255C52.0858 66.0255 52.2425 65.7188 52.2425 65.3055C52.2425 64.9521 52.1258 64.6688 51.8925 64.4555C51.6658 64.2421 51.3391 64.1355 50.9125 64.1355C50.4991 64.1355 50.1658 64.2421 49.9125 64.4555C49.6591 64.6688 49.5091 64.9555 49.4625 65.3155H48.5725ZM54.4811 67.0355C54.4811 65.8888 54.6678 64.9955 55.0411 64.3555C55.4145 63.7088 56.0678 63.3855 57.0011 63.3855C57.9278 63.3855 58.5778 63.7088 58.9511 64.3555C59.3245 64.9955 59.5111 65.8888 59.5111 67.0355C59.5111 68.2021 59.3245 69.1088 58.9511 69.7555C58.5778 70.4021 57.9278 70.7255 57.0011 70.7255C56.0678 70.7255 55.4145 70.4021 55.0411 69.7555C54.6678 69.1088 54.4811 68.2021 54.4811 67.0355ZM58.6111 67.0355C58.6111 66.4555 58.5711 65.9655 58.4911 65.5655C58.4178 65.1588 58.2611 64.8321 58.0211 64.5855C57.7878 64.3388 57.4478 64.2155 57.0011 64.2155C56.5478 64.2155 56.2011 64.3388 55.9611 64.5855C55.7278 64.8321 55.5711 65.1588 55.4911 65.5655C55.4178 65.9655 55.3811 66.4555 55.3811 67.0355C55.3811 67.6355 55.4178 68.1388 55.4911 68.5455C55.5711 68.9521 55.7278 69.2788 55.9611 69.5255C56.2011 69.7721 56.5478 69.8955 57.0011 69.8955C57.4478 69.8955 57.7878 69.7721 58.0211 69.5255C58.2611 69.2788 58.4178 68.9521 58.4911 68.5455C58.5711 68.1388 58.6111 67.6355 58.6111 67.0355ZM67.3764 66.6755V67.4455H63.3864V66.6755H67.3764ZM71.4903 69.9955C72.3369 69.3155 73.0003 68.7588 73.4803 68.3255C73.9603 67.8855 74.3636 67.4288 74.6903 66.9555C75.0236 66.4755 75.1903 66.0055 75.1903 65.5455C75.1903 65.1121 75.0836 64.7721 74.8703 64.5255C74.6636 64.2721 74.3269 64.1455 73.8603 64.1455C73.4069 64.1455 73.0536 64.2888 72.8003 64.5755C72.5536 64.8555 72.4203 65.2321 72.4003 65.7055H71.5203C71.5469 64.9588 71.7736 64.3821 72.2003 63.9755C72.6269 63.5688 73.1769 63.3655 73.8503 63.3655C74.5369 63.3655 75.0803 63.5555 75.4803 63.9355C75.8869 64.3155 76.0903 64.8388 76.0903 65.5055C76.0903 66.0588 75.9236 66.5988 75.5903 67.1255C75.2636 67.6455 74.8903 68.1055 74.4703 68.5055C74.0503 68.8988 73.5136 69.3588 72.8603 69.8855H76.3003V70.6455H71.4903V69.9955ZM77.3522 67.0355C77.3522 65.8888 77.5389 64.9955 77.9122 64.3555C78.2856 63.7088 78.9389 63.3855 79.8722 63.3855C80.7989 63.3855 81.4489 63.7088 81.8222 64.3555C82.1956 64.9955 82.3822 65.8888 82.3822 67.0355C82.3822 68.2021 82.1956 69.1088 81.8222 69.7555C81.4489 70.4021 80.7989 70.7255 79.8722 70.7255C78.9389 70.7255 78.2856 70.4021 77.9122 69.7555C77.5389 69.1088 77.3522 68.2021 77.3522 67.0355ZM81.4822 67.0355C81.4822 66.4555 81.4422 65.9655 81.3622 65.5655C81.2889 65.1588 81.1322 64.8321 80.8922 64.5855C80.6589 64.3388 80.3189 64.2155 79.8722 64.2155C79.4189 64.2155 79.0722 64.3388 78.8322 64.5855C78.5989 64.8321 78.4422 65.1588 78.3622 65.5655C78.2889 65.9655 78.2522 66.4555 78.2522 67.0355C78.2522 67.6355 78.2889 68.1388 78.3622 68.5455C78.4422 68.9521 78.5989 69.2788 78.8322 69.5255C79.0722 69.7721 79.4189 69.8955 79.8722 69.8955C80.3189 69.8955 80.6589 69.7721 80.8922 69.5255C81.1322 69.2788 81.2889 68.9521 81.3622 68.5455C81.4422 68.1388 81.4822 67.6355 81.4822 67.0355ZM84.0715 70.7855C83.8982 70.7855 83.7515 70.7255 83.6315 70.6055C83.5115 70.4855 83.4515 70.3388 83.4515 70.1655C83.4515 69.9921 83.5115 69.8455 83.6315 69.7255C83.7515 69.6055 83.8982 69.5455 84.0715 69.5455C84.2382 69.5455 84.3782 69.6055 84.4915 69.7255C84.6115 69.8455 84.6715 69.9921 84.6715 70.1655C84.6715 70.3388 84.6115 70.4855 84.4915 70.6055C84.3782 70.7255 84.2382 70.7855 84.0715 70.7855ZM85.7111 65.3155C85.7578 64.7021 85.9945 64.2221 86.4211 63.8755C86.8478 63.5288 87.4011 63.3555 88.0811 63.3555C88.5345 63.3555 88.9245 63.4388 89.2511 63.6055C89.5845 63.7655 89.8345 63.9855 90.0011 64.2655C90.1745 64.5455 90.2611 64.8621 90.2611 65.2155C90.2611 65.6288 90.1411 65.9855 89.9011 66.2855C89.6678 66.5855 89.3611 66.7788 88.9811 66.8655V66.9155C89.4145 67.0221 89.7578 67.2321 90.0111 67.5455C90.2645 67.8588 90.3911 68.2688 90.3911 68.7755C90.3911 69.1555 90.3045 69.4988 90.1311 69.8055C89.9578 70.1055 89.6978 70.3421 89.3511 70.5155C89.0045 70.6888 88.5878 70.7755 88.1011 70.7755C87.3945 70.7755 86.8145 70.5921 86.3611 70.2255C85.9078 69.8521 85.6545 69.3255 85.6011 68.6455H86.4811C86.5278 69.0455 86.6911 69.3721 86.9711 69.6255C87.2511 69.8788 87.6245 70.0055 88.0911 70.0055C88.5578 70.0055 88.9111 69.8855 89.1511 69.6455C89.3978 69.3988 89.5211 69.0821 89.5211 68.6955C89.5211 68.1955 89.3545 67.8355 89.0211 67.6155C88.6878 67.3955 88.1845 67.2855 87.5111 67.2855H87.2811V66.5255H87.5211C88.1345 66.5188 88.5978 66.4188 88.9111 66.2255C89.2245 66.0255 89.3811 65.7188 89.3811 65.3055C89.3811 64.9521 89.2645 64.6688 89.0311 64.4555C88.8045 64.2421 88.4778 64.1355 88.0511 64.1355C87.6378 64.1355 87.3045 64.2421 87.0511 64.4555C86.7978 64.6688 86.6478 64.9555 86.6011 65.3155H85.7111ZM91.6198 67.0355C91.6198 65.8888 91.8065 64.9955 92.1798 64.3555C92.5531 63.7088 93.2065 63.3855 94.1398 63.3855C95.0665 63.3855 95.7165 63.7088 96.0898 64.3555C96.4631 64.9955 96.6498 65.8888 96.6498 67.0355C96.6498 68.2021 96.4631 69.1088 96.0898 69.7555C95.7165 70.4021 95.0665 70.7255 94.1398 70.7255C93.2065 70.7255 92.5531 70.4021 92.1798 69.7555C91.8065 69.1088 91.6198 68.2021 91.6198 67.0355ZM95.7498 67.0355C95.7498 66.4555 95.7098 65.9655 95.6298 65.5655C95.5565 65.1588 95.3998 64.8321 95.1598 64.5855C94.9265 64.3388 94.5865 64.2155 94.1398 64.2155C93.6865 64.2155 93.3398 64.3388 93.0998 64.5855C92.8665 64.8321 92.7098 65.1588 92.6298 65.5655C92.5565 65.9655 92.5198 66.4555 92.5198 67.0355C92.5198 67.6355 92.5565 68.1388 92.6298 68.5455C92.7098 68.9521 92.8665 69.2788 93.0998 69.5255C93.3398 69.7721 93.6865 69.8955 94.1398 69.8955C94.5865 69.8955 94.9265 69.7721 95.1598 69.5255C95.3998 69.2788 95.5565 68.9521 95.6298 68.5455C95.7098 68.1388 95.7498 67.6355 95.7498 67.0355Z" fill="white"/>
<path d="M40.7448 22.5375C40.7448 21.7215 40.9328 20.9895 41.3088 20.3415C41.6928 19.6935 42.2088 19.1895 42.8568 18.8295C43.5128 18.4615 44.2288 18.2775 45.0048 18.2775C45.8928 18.2775 46.6808 18.4975 47.3688 18.9375C48.0648 19.3695 48.5688 19.9855 48.8808 20.7855H47.2368C47.0208 20.3455 46.7208 20.0175 46.3368 19.8015C45.9528 19.5855 45.5088 19.4775 45.0048 19.4775C44.4528 19.4775 43.9608 19.6015 43.5288 19.8495C43.0968 20.0975 42.7568 20.4535 42.5088 20.9175C42.2688 21.3815 42.1488 21.9215 42.1488 22.5375C42.1488 23.1535 42.2688 23.6935 42.5088 24.1575C42.7568 24.6215 43.0968 24.9815 43.5288 25.2375C43.9608 25.4855 44.4528 25.6095 45.0048 25.6095C45.5088 25.6095 45.9528 25.5015 46.3368 25.2855C46.7208 25.0695 47.0208 24.7415 47.2368 24.3015H48.8808C48.5688 25.1015 48.0648 25.7175 47.3688 26.1495C46.6808 26.5815 45.8928 26.7975 45.0048 26.7975C44.2208 26.7975 43.5048 26.6175 42.8568 26.2575C42.2088 25.8895 41.6928 25.3815 41.3088 24.7335C40.9328 24.0855 40.7448 23.3535 40.7448 22.5375ZM53.35 26.8335C52.726 26.8335 52.162 26.6935 51.658 26.4135C51.154 26.1255 50.758 25.7255 50.47 25.2135C50.182 24.6935 50.038 24.0935 50.038 23.4135C50.038 22.7415 50.186 22.1455 50.482 21.6255C50.778 21.1055 51.182 20.7055 51.694 20.4255C52.206 20.1455 52.778 20.0055 53.41 20.0055C54.042 20.0055 54.614 20.1455 55.126 20.4255C55.638 20.7055 56.042 21.1055 56.338 21.6255C56.634 22.1455 56.782 22.7415 56.782 23.4135C56.782 24.0855 56.63 24.6815 56.326 25.2015C56.022 25.7215 55.606 26.1255 55.078 26.4135C54.558 26.6935 53.982 26.8335 53.35 26.8335ZM53.35 25.6455C53.702 25.6455 54.03 25.5615 54.334 25.3935C54.646 25.2255 54.898 24.9735 55.09 24.6375C55.282 24.3015 55.378 23.8935 55.378 23.4135C55.378 22.9335 55.286 22.5295 55.102 22.2015C54.918 21.8655 54.674 21.6135 54.37 21.4455C54.066 21.2775 53.738 21.1935 53.386 21.1935C53.034 21.1935 52.706 21.2775 52.402 21.4455C52.106 21.6135 51.87 21.8655 51.694 22.2015C51.518 22.5295 51.43 22.9335 51.43 23.4135C51.43 24.1255 51.61 24.6775 51.97 25.0695C52.338 25.4535 52.798 25.6455 53.35 25.6455ZM64.1224 20.1135V26.7255H62.7544V25.9455C62.5384 26.2175 62.2544 26.4335 61.9024 26.5935C61.5584 26.7455 61.1904 26.8215 60.7984 26.8215C60.2784 26.8215 59.8104 26.7135 59.3944 26.4975C58.9864 26.2815 58.6624 25.9615 58.4224 25.5375C58.1904 25.1135 58.0744 24.6015 58.0744 24.0015V20.1135H59.4304V23.7975C59.4304 24.3895 59.5784 24.8455 59.8744 25.1655C60.1704 25.4775 60.5744 25.6335 61.0864 25.6335C61.5984 25.6335 62.0024 25.4775 62.2984 25.1655C62.6024 24.8455 62.7544 24.3895 62.7544 23.7975V20.1135H64.1224ZM67.2953 21.0735C67.4953 20.7375 67.7593 20.4775 68.0873 20.2935C68.4233 20.1015 68.8193 20.0055 69.2753 20.0055V21.4215H68.9273C68.3913 21.4215 67.9833 21.5575 67.7033 21.8295C67.4313 22.1015 67.2953 22.5735 67.2953 23.2455V26.7255H65.9273V20.1135H67.2953V21.0735ZM72.9328 26.8335C72.4128 26.8335 71.9448 26.7415 71.5288 26.5575C71.1208 26.3655 70.7968 26.1095 70.5568 25.7895C70.3168 25.4615 70.1888 25.0975 70.1728 24.6975H71.5888C71.6128 24.9775 71.7448 25.2135 71.9848 25.4055C72.2328 25.5895 72.5408 25.6815 72.9088 25.6815C73.2928 25.6815 73.5888 25.6095 73.7968 25.4655C74.0128 25.3135 74.1208 25.1215 74.1208 24.8895C74.1208 24.6415 74.0008 24.4575 73.7608 24.3375C73.5288 24.2175 73.1568 24.0855 72.6448 23.9415C72.1488 23.8055 71.7448 23.6735 71.4328 23.5455C71.1208 23.4175 70.8488 23.2215 70.6168 22.9575C70.3928 22.6935 70.2808 22.3455 70.2808 21.9135C70.2808 21.5615 70.3848 21.2415 70.5928 20.9535C70.8008 20.6575 71.0968 20.4255 71.4808 20.2575C71.8728 20.0895 72.3208 20.0055 72.8248 20.0055C73.5768 20.0055 74.1808 20.1975 74.6368 20.5815C75.1008 20.9575 75.3488 21.4735 75.3808 22.1295H74.0128C73.9888 21.8335 73.8688 21.5975 73.6528 21.4215C73.4368 21.2455 73.1448 21.1575 72.7768 21.1575C72.4168 21.1575 72.1408 21.2255 71.9488 21.3615C71.7568 21.4975 71.6608 21.6775 71.6608 21.9015C71.6608 22.0775 71.7248 22.2255 71.8528 22.3455C71.9808 22.4655 72.1368 22.5615 72.3208 22.6335C72.5048 22.6975 72.7768 22.7815 73.1368 22.8855C73.6168 23.0135 74.0088 23.1455 74.3128 23.2815C74.6248 23.4095 74.8928 23.6015 75.1168 23.8575C75.3408 24.1135 75.4568 24.4535 75.4648 24.8775C75.4648 25.2535 75.3608 25.5895 75.1528 25.8855C74.9448 26.1815 74.6488 26.4135 74.2648 26.5815C73.8888 26.7495 73.4448 26.8335 72.9328 26.8335ZM79.6042 23.3895C79.6042 22.7255 79.7402 22.1375 80.0122 21.6255C80.2922 21.1135 80.6682 20.7175 81.1402 20.4375C81.6202 20.1495 82.1522 20.0055 82.7362 20.0055C83.1682 20.0055 83.5922 20.1015 84.0082 20.2935C84.4322 20.4775 84.7682 20.7255 85.0162 21.0375V17.8455H86.3962V26.7255H85.0162V25.7295C84.7922 26.0495 84.4802 26.3135 84.0802 26.5215C83.6882 26.7295 83.2362 26.8335 82.7242 26.8335C82.1482 26.8335 81.6202 26.6895 81.1402 26.4015C80.6682 26.1055 80.2922 25.6975 80.0122 25.1775C79.7402 24.6495 79.6042 24.0535 79.6042 23.3895ZM85.0162 23.4135C85.0162 22.9575 84.9202 22.5615 84.7282 22.2255C84.5442 21.8895 84.3002 21.6335 83.9962 21.4575C83.6922 21.2815 83.3642 21.1935 83.0122 21.1935C82.6602 21.1935 82.3322 21.2815 82.0282 21.4575C81.7242 21.6255 81.4762 21.8775 81.2842 22.2135C81.1002 22.5415 81.0082 22.9335 81.0082 23.3895C81.0082 23.8455 81.1002 24.2455 81.2842 24.5895C81.4762 24.9335 81.7242 25.1975 82.0282 25.3815C82.3402 25.5575 82.6682 25.6455 83.0122 25.6455C83.3642 25.6455 83.6922 25.5575 83.9962 25.3815C84.3002 25.2055 84.5442 24.9495 84.7282 24.6135C84.9202 24.2695 85.0162 23.8695 85.0162 23.4135ZM94.253 23.2575C94.253 23.5055 94.237 23.7295 94.205 23.9295H89.153C89.193 24.4575 89.389 24.8815 89.741 25.2015C90.093 25.5215 90.525 25.6815 91.037 25.6815C91.773 25.6815 92.293 25.3735 92.597 24.7575H94.073C93.873 25.3655 93.509 25.8655 92.981 26.2575C92.461 26.6415 91.813 26.8335 91.037 26.8335C90.405 26.8335 89.837 26.6935 89.333 26.4135C88.837 26.1255 88.445 25.7255 88.157 25.2135C87.877 24.6935 87.737 24.0935 87.737 23.4135C87.737 22.7335 87.873 22.1375 88.145 21.6255C88.425 21.1055 88.813 20.7055 89.309 20.4255C89.813 20.1455 90.389 20.0055 91.037 20.0055C91.661 20.0055 92.217 20.1415 92.705 20.4135C93.193 20.6855 93.573 21.0695 93.845 21.5655C94.117 22.0535 94.253 22.6175 94.253 23.2575ZM92.825 22.8255C92.817 22.3215 92.637 21.9175 92.285 21.6135C91.933 21.3095 91.497 21.1575 90.977 21.1575C90.505 21.1575 90.101 21.3095 89.765 21.6135C89.429 21.9095 89.229 22.3135 89.165 22.8255H92.825ZM58.9008 38.1135L54.8448 47.8335H53.4288L54.7728 44.6175L52.1688 38.1135H53.6928L55.5528 43.1535L57.4848 38.1135H58.9008ZM62.8012 44.8335C62.1772 44.8335 61.6132 44.6935 61.1092 44.4135C60.6052 44.1255 60.2092 43.7255 59.9212 43.2135C59.6332 42.6935 59.4892 42.0935 59.4892 41.4135C59.4892 40.7415 59.6372 40.1455 59.9332 39.6255C60.2292 39.1055 60.6332 38.7055 61.1452 38.4255C61.6572 38.1455 62.2292 38.0055 62.8612 38.0055C63.4932 38.0055 64.0652 38.1455 64.5772 38.4255C65.0892 38.7055 65.4932 39.1055 65.7892 39.6255C66.0852 40.1455 66.2332 40.7415 66.2332 41.4135C66.2332 42.0855 66.0812 42.6815 65.7772 43.2015C65.4732 43.7215 65.0572 44.1255 64.5292 44.4135C64.0092 44.6935 63.4332 44.8335 62.8012 44.8335ZM62.8012 43.6455C63.1532 43.6455 63.4812 43.5615 63.7852 43.3935C64.0972 43.2255 64.3492 42.9735 64.5412 42.6375C64.7332 42.3015 64.8292 41.8935 64.8292 41.4135C64.8292 40.9335 64.7372 40.5295 64.5532 40.2015C64.3692 39.8655 64.1252 39.6135 63.8212 39.4455C63.5172 39.2775 63.1892 39.1935 62.8372 39.1935C62.4852 39.1935 62.1572 39.2775 61.8532 39.4455C61.5572 39.6135 61.3212 39.8655 61.1452 40.2015C60.9692 40.5295 60.8812 40.9335 60.8812 41.4135C60.8812 42.1255 61.0612 42.6775 61.4212 43.0695C61.7892 43.4535 62.2492 43.6455 62.8012 43.6455ZM70.2495 38.0055C70.7615 38.0055 71.2135 38.1095 71.6055 38.3175C72.0055 38.5175 72.3175 38.7695 72.5415 39.0735V38.1135H73.9215V44.8335C73.9215 45.4415 73.7935 45.9815 73.5375 46.4535C73.2815 46.9335 72.9095 47.3095 72.4215 47.5815C71.9415 47.8535 71.3655 47.9895 70.6935 47.9895C69.7975 47.9895 69.0535 47.7775 68.4615 47.3535C67.8695 46.9375 67.5335 46.3695 67.4535 45.6495H68.8095C68.9135 45.9935 69.1335 46.2695 69.4695 46.4775C69.8135 46.6935 70.2215 46.8015 70.6935 46.8015C71.2455 46.8015 71.6895 46.6335 72.0255 46.2975C72.3695 45.9615 72.5415 45.4735 72.5415 44.8335V43.7295C72.3095 44.0415 71.9935 44.3055 71.5935 44.5215C71.2015 44.7295 70.7535 44.8335 70.2495 44.8335C69.6735 44.8335 69.1455 44.6895 68.6655 44.4015C68.1935 44.1055 67.8175 43.6975 67.5375 43.1775C67.2655 42.6495 67.1295 42.0535 67.1295 41.3895C67.1295 40.7255 67.2655 40.1375 67.5375 39.6255C67.8175 39.1135 68.1935 38.7175 68.6655 38.4375C69.1455 38.1495 69.6735 38.0055 70.2495 38.0055ZM72.5415 41.4135C72.5415 40.9575 72.4455 40.5615 72.2535 40.2255C72.0695 39.8895 71.8255 39.6335 71.5215 39.4575C71.2175 39.2815 70.8895 39.1935 70.5375 39.1935C70.1855 39.1935 69.8575 39.2815 69.5535 39.4575C69.2495 39.6255 69.0015 39.8775 68.8095 40.2135C68.6255 40.5415 68.5335 40.9335 68.5335 41.3895C68.5335 41.8455 68.6255 42.2455 68.8095 42.5895C69.0015 42.9335 69.2495 43.1975 69.5535 43.3815C69.8655 43.5575 70.1935 43.6455 70.5375 43.6455C70.8895 43.6455 71.2175 43.5575 71.5215 43.3815C71.8255 43.2055 72.0695 42.9495 72.2535 42.6135C72.4455 42.2695 72.5415 41.8695 72.5415 41.4135ZM75.2624 41.3895C75.2624 40.7255 75.3984 40.1375 75.6704 39.6255C75.9504 39.1135 76.3264 38.7175 76.7984 38.4375C77.2784 38.1495 77.8064 38.0055 78.3824 38.0055C78.9024 38.0055 79.3544 38.1095 79.7384 38.3175C80.1304 38.5175 80.4424 38.7695 80.6744 39.0735V38.1135H82.0544V44.7255H80.6744V43.7415C80.4424 44.0535 80.1264 44.3135 79.7264 44.5215C79.3264 44.7295 78.8704 44.8335 78.3584 44.8335C77.7904 44.8335 77.2704 44.6895 76.7984 44.4015C76.3264 44.1055 75.9504 43.6975 75.6704 43.1775C75.3984 42.6495 75.2624 42.0535 75.2624 41.3895ZM80.6744 41.4135C80.6744 40.9575 80.5784 40.5615 80.3864 40.2255C80.2024 39.8895 79.9584 39.6335 79.6544 39.4575C79.3504 39.2815 79.0224 39.1935 78.6704 39.1935C78.3184 39.1935 77.9904 39.2815 77.6864 39.4575C77.3824 39.6255 77.1344 39.8775 76.9424 40.2135C76.7584 40.5415 76.6664 40.9335 76.6664 41.3895C76.6664 41.8455 76.7584 42.2455 76.9424 42.5895C77.1344 42.9335 77.3824 43.1975 77.6864 43.3815C77.9984 43.5575 78.3264 43.6455 78.6704 43.6455C79.0224 43.6455 79.3504 43.5575 79.6544 43.3815C79.9584 43.2055 80.2024 42.9495 80.3864 42.6135C80.5784 42.2695 80.6744 41.8695 80.6744 41.4135Z" fill="white"/>
</svg>
