<svg width="135" height="100" viewBox="0 0 135 100" fill="none" xmlns="http://www.w3.org/2000/svg">
<rect x="0.0471191" width="134.503" height="100" rx="20" fill="#343434"/>
<path d="M49.4025 33.66L46.2705 42H44.6865L41.5425 33.66H43.0065L45.4785 40.596L47.9625 33.66H49.4025ZM53.4145 42.108C52.7905 42.108 52.2265 41.968 51.7225 41.688C51.2185 41.4 50.8225 41 50.5345 40.488C50.2465 39.968 50.1025 39.368 50.1025 38.688C50.1025 38.016 50.2505 37.42 50.5465 36.9C50.8425 36.38 51.2465 35.98 51.7585 35.7C52.2705 35.42 52.8425 35.28 53.4745 35.28C54.1065 35.28 54.6785 35.42 55.1905 35.7C55.7025 35.98 56.1065 36.38 56.4025 36.9C56.6985 37.42 56.8465 38.016 56.8465 38.688C56.8465 39.36 56.6945 39.956 56.3905 40.476C56.0865 40.996 55.6705 41.4 55.1425 41.688C54.6225 41.968 54.0465 42.108 53.4145 42.108ZM53.4145 40.92C53.7665 40.92 54.0945 40.836 54.3985 40.668C54.7105 40.5 54.9625 40.248 55.1545 39.912C55.3465 39.576 55.4425 39.168 55.4425 38.688C55.4425 38.208 55.3505 37.804 55.1665 37.476C54.9825 37.14 54.7385 36.888 54.4345 36.72C54.1305 36.552 53.8025 36.468 53.4505 36.468C53.0985 36.468 52.7705 36.552 52.4665 36.72C52.1705 36.888 51.9345 37.14 51.7585 37.476C51.5825 37.804 51.4945 38.208 51.4945 38.688C51.4945 39.4 51.6745 39.952 52.0345 40.344C52.4025 40.728 52.8625 40.92 53.4145 40.92ZM58.8948 34.512C58.6468 34.512 58.4388 34.428 58.2708 34.26C58.1028 34.092 58.0188 33.884 58.0188 33.636C58.0188 33.388 58.1028 33.18 58.2708 33.012C58.4388 32.844 58.6468 32.76 58.8948 32.76C59.1348 32.76 59.3388 32.844 59.5068 33.012C59.6748 33.18 59.7588 33.388 59.7588 33.636C59.7588 33.884 59.6748 34.092 59.5068 34.26C59.3388 34.428 59.1348 34.512 58.8948 34.512ZM59.5668 35.388V42H58.1988V35.388H59.5668ZM62.7309 36.348C62.9309 36.012 63.1949 35.752 63.5229 35.568C63.8589 35.376 64.2549 35.28 64.7109 35.28V36.696H64.3629C63.8269 36.696 63.4189 36.832 63.1389 37.104C62.8669 37.376 62.7309 37.848 62.7309 38.52V42H61.3629V35.388H62.7309V36.348ZM70.4535 36.36C70.6855 36.056 71.0015 35.8 71.4015 35.592C71.8015 35.384 72.2535 35.28 72.7575 35.28C73.3335 35.28 73.8575 35.424 74.3295 35.712C74.8095 35.992 75.1855 36.388 75.4575 36.9C75.7295 37.412 75.8655 38 75.8655 38.664C75.8655 39.328 75.7295 39.924 75.4575 40.452C75.1855 40.972 74.8095 41.38 74.3295 41.676C73.8575 41.964 73.3335 42.108 72.7575 42.108C72.2535 42.108 71.8055 42.008 71.4135 41.808C71.0215 41.6 70.7015 41.344 70.4535 41.04V45.144H69.0855V35.388H70.4535V36.36ZM74.4735 38.664C74.4735 38.208 74.3775 37.816 74.1855 37.488C74.0015 37.152 73.7535 36.9 73.4415 36.732C73.1375 36.556 72.8095 36.468 72.4575 36.468C72.1135 36.468 71.7855 36.556 71.4735 36.732C71.1695 36.908 70.9215 37.164 70.7295 37.5C70.5455 37.836 70.4535 38.232 70.4535 38.688C70.4535 39.144 70.5455 39.544 70.7295 39.888C70.9215 40.224 71.1695 40.48 71.4735 40.656C71.7855 40.832 72.1135 40.92 72.4575 40.92C72.8095 40.92 73.1375 40.832 73.4415 40.656C73.7535 40.472 74.0015 40.208 74.1855 39.864C74.3775 39.52 74.4735 39.12 74.4735 38.664ZM78.5864 33.12V42H77.2184V33.12H78.5864ZM86.3704 35.388V42H85.0024V41.22C84.7864 41.492 84.5024 41.708 84.1504 41.868C83.8064 42.02 83.4384 42.096 83.0464 42.096C82.5264 42.096 82.0584 41.988 81.6424 41.772C81.2344 41.556 80.9104 41.236 80.6704 40.812C80.4384 40.388 80.3224 39.876 80.3224 39.276V35.388H81.6784V39.072C81.6784 39.664 81.8264 40.12 82.1224 40.44C82.4184 40.752 82.8224 40.908 83.3344 40.908C83.8464 40.908 84.2504 40.752 84.5464 40.44C84.8504 40.12 85.0024 39.664 85.0024 39.072V35.388H86.3704ZM90.5754 42.108C90.0554 42.108 89.5874 42.016 89.1714 41.832C88.7634 41.64 88.4394 41.384 88.1994 41.064C87.9594 40.736 87.8314 40.372 87.8154 39.972H89.2314C89.2554 40.252 89.3874 40.488 89.6274 40.68C89.8754 40.864 90.1834 40.956 90.5514 40.956C90.9354 40.956 91.2314 40.884 91.4394 40.74C91.6554 40.588 91.7634 40.396 91.7634 40.164C91.7634 39.916 91.6434 39.732 91.4034 39.612C91.1714 39.492 90.7994 39.36 90.2874 39.216C89.7914 39.08 89.3874 38.948 89.0754 38.82C88.7634 38.692 88.4914 38.496 88.2594 38.232C88.0354 37.968 87.9234 37.62 87.9234 37.188C87.9234 36.836 88.0274 36.516 88.2354 36.228C88.4434 35.932 88.7394 35.7 89.1234 35.532C89.5154 35.364 89.9634 35.28 90.4674 35.28C91.2194 35.28 91.8234 35.472 92.2794 35.856C92.7434 36.232 92.9914 36.748 93.0234 37.404H91.6554C91.6314 37.108 91.5114 36.872 91.2954 36.696C91.0794 36.52 90.7874 36.432 90.4194 36.432C90.0594 36.432 89.7834 36.5 89.5914 36.636C89.3994 36.772 89.3034 36.952 89.3034 37.176C89.3034 37.352 89.3674 37.5 89.4954 37.62C89.6234 37.74 89.7794 37.836 89.9634 37.908C90.1474 37.972 90.4194 38.056 90.7794 38.16C91.2594 38.288 91.6514 38.42 91.9554 38.556C92.2674 38.684 92.5354 38.876 92.7594 39.132C92.9834 39.388 93.0994 39.728 93.1074 40.152C93.1074 40.528 93.0034 40.864 92.7954 41.16C92.5874 41.456 92.2914 41.688 91.9074 41.856C91.5314 42.024 91.0874 42.108 90.5754 42.108Z" fill="white"/>
<path d="M34.593 64.73H32.463V66.89H31.613V64.73H29.493V63.96H31.613V61.79H32.463V63.96H34.593V64.73ZM36.0492 62.59C36.0959 61.9767 36.3326 61.4967 36.7592 61.15C37.1859 60.8033 37.7392 60.63 38.4192 60.63C38.8726 60.63 39.2626 60.7133 39.5892 60.88C39.9226 61.04 40.1726 61.26 40.3392 61.54C40.5126 61.82 40.5992 62.1367 40.5992 62.49C40.5992 62.9033 40.4792 63.26 40.2392 63.56C40.0059 63.86 39.6992 64.0533 39.3192 64.14V64.19C39.7526 64.2967 40.0959 64.5067 40.3492 64.82C40.6026 65.1333 40.7292 65.5433 40.7292 66.05C40.7292 66.43 40.6426 66.7733 40.4692 67.08C40.2959 67.38 40.0359 67.6167 39.6892 67.79C39.3426 67.9633 38.9259 68.05 38.4392 68.05C37.7326 68.05 37.1526 67.8667 36.6992 67.5C36.2459 67.1267 35.9926 66.6 35.9392 65.92H36.8192C36.8659 66.32 37.0292 66.6467 37.3092 66.9C37.5892 67.1533 37.9626 67.28 38.4292 67.28C38.8959 67.28 39.2492 67.16 39.4892 66.92C39.7359 66.6733 39.8592 66.3567 39.8592 65.97C39.8592 65.47 39.6926 65.11 39.3592 64.89C39.0259 64.67 38.5226 64.56 37.8492 64.56H37.6192V63.8H37.8592C38.4726 63.7933 38.9359 63.6933 39.2492 63.5C39.5626 63.3 39.7192 62.9933 39.7192 62.58C39.7192 62.2267 39.6026 61.9433 39.3692 61.73C39.1426 61.5167 38.8159 61.41 38.3892 61.41C37.9759 61.41 37.6426 61.5167 37.3892 61.73C37.1359 61.9433 36.9859 62.23 36.9392 62.59H36.0492ZM49.7739 65.05C49.7739 65.2233 49.7639 65.4067 49.7439 65.6H45.3639C45.3972 66.14 45.5806 66.5633 45.9139 66.87C46.2539 67.17 46.6639 67.32 47.1439 67.32C47.5372 67.32 47.8639 67.23 48.1239 67.05C48.3906 66.8633 48.5772 66.6167 48.6839 66.31H49.6639C49.5172 66.8367 49.2239 67.2667 48.7839 67.6C48.3439 67.9267 47.7972 68.09 47.1439 68.09C46.6239 68.09 46.1572 67.9733 45.7439 67.74C45.3372 67.5067 45.0172 67.1767 44.7839 66.75C44.5506 66.3167 44.4339 65.8167 44.4339 65.25C44.4339 64.6833 44.5472 64.1867 44.7739 63.76C45.0006 63.3333 45.3172 63.0067 45.7239 62.78C46.1372 62.5467 46.6106 62.43 47.1439 62.43C47.6639 62.43 48.1239 62.5433 48.5239 62.77C48.9239 62.9967 49.2306 63.31 49.4439 63.71C49.6639 64.1033 49.7739 64.55 49.7739 65.05ZM48.8339 64.86C48.8339 64.5133 48.7572 64.2167 48.6039 63.97C48.4506 63.7167 48.2406 63.5267 47.9739 63.4C47.7139 63.2667 47.4239 63.2 47.1039 63.2C46.6439 63.2 46.2506 63.3467 45.9239 63.64C45.6039 63.9333 45.4206 64.34 45.3739 64.86H48.8339ZM48.0839 60.97L45.9539 62.11V61.43L48.0839 60.18V60.97ZM53.0151 67.16L54.7151 62.52H55.6851L53.5351 68H52.4751L50.3251 62.52H51.3051L53.0151 67.16ZM61.5805 65.05C61.5805 65.2233 61.5705 65.4067 61.5505 65.6H57.1705C57.2039 66.14 57.3872 66.5633 57.7205 66.87C58.0605 67.17 58.4705 67.32 58.9505 67.32C59.3439 67.32 59.6705 67.23 59.9305 67.05C60.1972 66.8633 60.3839 66.6167 60.4905 66.31H61.4705C61.3239 66.8367 61.0305 67.2667 60.5905 67.6C60.1505 67.9267 59.6039 68.09 58.9505 68.09C58.4305 68.09 57.9639 67.9733 57.5505 67.74C57.1439 67.5067 56.8239 67.1767 56.5905 66.75C56.3572 66.3167 56.2405 65.8167 56.2405 65.25C56.2405 64.6833 56.3539 64.1867 56.5805 63.76C56.8072 63.3333 57.1239 63.0067 57.5305 62.78C57.9439 62.5467 58.4172 62.43 58.9505 62.43C59.4705 62.43 59.9305 62.5433 60.3305 62.77C60.7305 62.9967 61.0372 63.31 61.2505 63.71C61.4705 64.1033 61.5805 64.55 61.5805 65.05ZM60.6405 64.86C60.6405 64.5133 60.5639 64.2167 60.4105 63.97C60.2572 63.7167 60.0472 63.5267 59.7805 63.4C59.5205 63.2667 59.2305 63.2 58.9105 63.2C58.4505 63.2 58.0572 63.3467 57.7305 63.64C57.4105 63.9333 57.2272 64.34 57.1805 64.86H60.6405ZM59.8905 60.97L57.7605 62.11V61.43L59.8905 60.18V60.97ZM65.4517 62.42C66.1184 62.42 66.6584 62.6233 67.0717 63.03C67.4851 63.43 67.6917 64.01 67.6917 64.77V68H66.7917V64.9C66.7917 64.3533 66.6551 63.9367 66.3817 63.65C66.1084 63.3567 65.7351 63.21 65.2617 63.21C64.7817 63.21 64.3984 63.36 64.1117 63.66C63.8317 63.96 63.6917 64.3967 63.6917 64.97V68H62.7817V62.52H63.6917V63.3C63.8717 63.02 64.1151 62.8033 64.4217 62.65C64.7351 62.4967 65.0784 62.42 65.4517 62.42ZM74.1782 65.05C74.1782 65.2233 74.1682 65.4067 74.1482 65.6H69.7682C69.8015 66.14 69.9849 66.5633 70.3182 66.87C70.6582 67.17 71.0682 67.32 71.5482 67.32C71.9415 67.32 72.2682 67.23 72.5282 67.05C72.7949 66.8633 72.9815 66.6167 73.0882 66.31H74.0682C73.9215 66.8367 73.6282 67.2667 73.1882 67.6C72.7482 67.9267 72.2015 68.09 71.5482 68.09C71.0282 68.09 70.5615 67.9733 70.1482 67.74C69.7415 67.5067 69.4215 67.1767 69.1882 66.75C68.9549 66.3167 68.8382 65.8167 68.8382 65.25C68.8382 64.6833 68.9515 64.1867 69.1782 63.76C69.4049 63.3333 69.7215 63.0067 70.1282 62.78C70.5415 62.5467 71.0149 62.43 71.5482 62.43C72.0682 62.43 72.5282 62.5433 72.9282 62.77C73.3282 62.9967 73.6349 63.31 73.8482 63.71C74.0682 64.1033 74.1782 64.55 74.1782 65.05ZM73.2382 64.86C73.2382 64.5133 73.1615 64.2167 73.0082 63.97C72.8549 63.7167 72.6449 63.5267 72.3782 63.4C72.1182 63.2667 71.8282 63.2 71.5082 63.2C71.0482 63.2 70.6549 63.3467 70.3282 63.64C70.0082 63.9333 69.8249 64.34 69.7782 64.86H73.2382ZM81.9694 62.42C82.396 62.42 82.776 62.51 83.1094 62.69C83.4427 62.8633 83.706 63.1267 83.8994 63.48C84.0927 63.8333 84.1894 64.2633 84.1894 64.77V68H83.2894V64.9C83.2894 64.3533 83.1527 63.9367 82.8794 63.65C82.6127 63.3567 82.2494 63.21 81.7894 63.21C81.316 63.21 80.9394 63.3633 80.6594 63.67C80.3794 63.97 80.2394 64.4067 80.2394 64.98V68H79.3394V64.9C79.3394 64.3533 79.2027 63.9367 78.9294 63.65C78.6627 63.3567 78.2994 63.21 77.8394 63.21C77.366 63.21 76.9894 63.3633 76.7094 63.67C76.4294 63.97 76.2894 64.4067 76.2894 64.98V68H75.3794V62.52H76.2894V63.31C76.4694 63.0233 76.7094 62.8033 77.0094 62.65C77.316 62.4967 77.6527 62.42 78.0194 62.42C78.4794 62.42 78.886 62.5233 79.2394 62.73C79.5927 62.9367 79.856 63.24 80.0294 63.64C80.1827 63.2533 80.436 62.9533 80.7894 62.74C81.1427 62.5267 81.536 62.42 81.9694 62.42ZM90.6821 65.05C90.6821 65.2233 90.6721 65.4067 90.6521 65.6H86.2721C86.3054 66.14 86.4888 66.5633 86.8221 66.87C87.1621 67.17 87.5721 67.32 88.0521 67.32C88.4454 67.32 88.7721 67.23 89.0321 67.05C89.2988 66.8633 89.4854 66.6167 89.5921 66.31H90.5721C90.4254 66.8367 90.1321 67.2667 89.6921 67.6C89.2521 67.9267 88.7054 68.09 88.0521 68.09C87.5321 68.09 87.0654 67.9733 86.6521 67.74C86.2454 67.5067 85.9254 67.1767 85.6921 66.75C85.4588 66.3167 85.3421 65.8167 85.3421 65.25C85.3421 64.6833 85.4554 64.1867 85.6821 63.76C85.9088 63.3333 86.2254 63.0067 86.6321 62.78C87.0454 62.5467 87.5188 62.43 88.0521 62.43C88.5721 62.43 89.0321 62.5433 89.4321 62.77C89.8321 62.9967 90.1388 63.31 90.3521 63.71C90.5721 64.1033 90.6821 64.55 90.6821 65.05ZM89.7421 64.86C89.7421 64.5133 89.6654 64.2167 89.5121 63.97C89.3588 63.7167 89.1488 63.5267 88.8821 63.4C88.6221 63.2667 88.3321 63.2 88.0121 63.2C87.5521 63.2 87.1588 63.3467 86.8321 63.64C86.5121 63.9333 86.3288 64.34 86.2821 64.86H89.7421ZM94.5533 62.42C95.2199 62.42 95.7599 62.6233 96.1733 63.03C96.5866 63.43 96.7933 64.01 96.7933 64.77V68H95.8933V64.9C95.8933 64.3533 95.7566 63.9367 95.4833 63.65C95.2099 63.3567 94.8366 63.21 94.3633 63.21C93.8833 63.21 93.4999 63.36 93.2133 63.66C92.9333 63.96 92.7933 64.3967 92.7933 64.97V68H91.8833V62.52H92.7933V63.3C92.9733 63.02 93.2166 62.8033 93.5233 62.65C93.8366 62.4967 94.1799 62.42 94.5533 62.42ZM99.3898 63.27V66.5C99.3898 66.7667 99.4464 66.9567 99.5598 67.07C99.6731 67.1767 99.8698 67.23 100.15 67.23H100.82V68H99.9998C99.4931 68 99.1131 67.8833 98.8598 67.65C98.6064 67.4167 98.4798 67.0333 98.4798 66.5V63.27H97.7698V62.52H98.4798V61.14H99.3898V62.52H100.82V63.27H99.3898ZM103.862 68.09C103.442 68.09 103.066 68.02 102.732 67.88C102.399 67.7333 102.136 67.5333 101.942 67.28C101.749 67.02 101.642 66.7233 101.622 66.39H102.562C102.589 66.6633 102.716 66.8867 102.942 67.06C103.176 67.2333 103.479 67.32 103.852 67.32C104.199 67.32 104.472 67.2433 104.672 67.09C104.872 66.9367 104.972 66.7433 104.972 66.51C104.972 66.27 104.866 66.0933 104.652 65.98C104.439 65.86 104.109 65.7433 103.662 65.63C103.256 65.5233 102.922 65.4167 102.662 65.31C102.409 65.1967 102.189 65.0333 102.002 64.82C101.822 64.6 101.732 64.3133 101.732 63.96C101.732 63.68 101.816 63.4233 101.982 63.19C102.149 62.9567 102.386 62.7733 102.692 62.64C102.999 62.5 103.349 62.43 103.742 62.43C104.349 62.43 104.839 62.5833 105.212 62.89C105.586 63.1967 105.786 63.6167 105.812 64.15H104.902C104.882 63.8633 104.766 63.6333 104.552 63.46C104.346 63.2867 104.066 63.2 103.712 63.2C103.386 63.2 103.126 63.27 102.932 63.41C102.739 63.55 102.642 63.7333 102.642 63.96C102.642 64.14 102.699 64.29 102.812 64.41C102.932 64.5233 103.079 64.6167 103.252 64.69C103.432 64.7567 103.679 64.8333 103.992 64.92C104.386 65.0267 104.706 65.1333 104.952 65.24C105.199 65.34 105.409 65.4933 105.582 65.7C105.762 65.9067 105.856 66.1767 105.862 66.51C105.862 66.81 105.779 67.08 105.612 67.32C105.446 67.56 105.209 67.75 104.902 67.89C104.602 68.0233 104.256 68.09 103.862 68.09Z" fill="white"/>
</svg>
