<svg width="135" height="100" viewBox="0 0 135 100" fill="none" xmlns="http://www.w3.org/2000/svg">
<rect width="134.503" height="100" rx="20" fill="#2ED82E"/>
<path d="M36.7509 64.3255V63.4955H38.6309V70.7255H37.7109V64.3255H36.7509ZM41.364 68.7855C41.4307 69.1655 41.584 69.4588 41.824 69.6655C42.0707 69.8721 42.4007 69.9755 42.814 69.9755C43.3674 69.9755 43.774 69.7588 44.034 69.3255C44.3007 68.8921 44.4274 68.1621 44.414 67.1355C44.274 67.4355 44.0407 67.6721 43.714 67.8455C43.3874 68.0121 43.024 68.0955 42.624 68.0955C42.1774 68.0955 41.7774 68.0055 41.424 67.8255C41.0774 67.6388 40.804 67.3688 40.604 67.0155C40.404 66.6621 40.304 66.2355 40.304 65.7355C40.304 65.0221 40.5107 64.4488 40.924 64.0155C41.3374 63.5755 41.924 63.3555 42.684 63.3555C43.6174 63.3555 44.2707 63.6588 44.644 64.2655C45.024 64.8721 45.214 65.7755 45.214 66.9755C45.214 67.8155 45.1374 68.5088 44.984 69.0555C44.8374 69.6021 44.584 70.0188 44.224 70.3055C43.8707 70.5921 43.384 70.7355 42.764 70.7355C42.084 70.7355 41.554 70.5521 41.174 70.1855C40.794 69.8188 40.5774 69.3521 40.524 68.7855H41.364ZM42.774 67.3255C43.2207 67.3255 43.5874 67.1888 43.874 66.9155C44.1607 66.6355 44.304 66.2588 44.304 65.7855C44.304 65.2855 44.164 64.8821 43.884 64.5755C43.604 64.2688 43.2107 64.1155 42.704 64.1155C42.2374 64.1155 41.864 64.2621 41.584 64.5555C41.3107 64.8488 41.174 65.2355 41.174 65.7155C41.174 66.2021 41.3107 66.5921 41.584 66.8855C41.8574 67.1788 42.254 67.3255 42.774 67.3255ZM46.9329 70.7855C46.7595 70.7855 46.6129 70.7255 46.4929 70.6055C46.3729 70.4855 46.3129 70.3388 46.3129 70.1655C46.3129 69.9921 46.3729 69.8455 46.4929 69.7255C46.6129 69.6055 46.7595 69.5455 46.9329 69.5455C47.0995 69.5455 47.2395 69.6055 47.3529 69.7255C47.4729 69.8455 47.5329 69.9921 47.5329 70.1655C47.5329 70.3388 47.4729 70.4855 47.3529 70.6055C47.2395 70.7255 47.0995 70.7855 46.9329 70.7855ZM48.5725 65.3155C48.6191 64.7021 48.8558 64.2221 49.2825 63.8755C49.7091 63.5288 50.2625 63.3555 50.9425 63.3555C51.3958 63.3555 51.7858 63.4388 52.1125 63.6055C52.4458 63.7655 52.6958 63.9855 52.8625 64.2655C53.0358 64.5455 53.1225 64.8621 53.1225 65.2155C53.1225 65.6288 53.0025 65.9855 52.7625 66.2855C52.5291 66.5855 52.2225 66.7788 51.8425 66.8655V66.9155C52.2758 67.0221 52.6191 67.2321 52.8725 67.5455C53.1258 67.8588 53.2525 68.2688 53.2525 68.7755C53.2525 69.1555 53.1658 69.4988 52.9925 69.8055C52.8191 70.1055 52.5591 70.3421 52.2125 70.5155C51.8658 70.6888 51.4491 70.7755 50.9625 70.7755C50.2558 70.7755 49.6758 70.5921 49.2225 70.2255C48.7691 69.8521 48.5158 69.3255 48.4625 68.6455H49.3425C49.3891 69.0455 49.5525 69.3721 49.8325 69.6255C50.1125 69.8788 50.4858 70.0055 50.9525 70.0055C51.4191 70.0055 51.7725 69.8855 52.0125 69.6455C52.2591 69.3988 52.3825 69.0821 52.3825 68.6955C52.3825 68.1955 52.2158 67.8355 51.8825 67.6155C51.5491 67.3955 51.0458 67.2855 50.3725 67.2855H50.1425V66.5255H50.3825C50.9958 66.5188 51.4591 66.4188 51.7725 66.2255C52.0858 66.0255 52.2425 65.7188 52.2425 65.3055C52.2425 64.9521 52.1258 64.6688 51.8925 64.4555C51.6658 64.2421 51.3391 64.1355 50.9125 64.1355C50.4991 64.1355 50.1658 64.2421 49.9125 64.4555C49.6591 64.6688 49.5091 64.9555 49.4625 65.3155H48.5725ZM54.4811 67.0355C54.4811 65.8888 54.6678 64.9955 55.0411 64.3555C55.4145 63.7088 56.0678 63.3855 57.0011 63.3855C57.9278 63.3855 58.5778 63.7088 58.9511 64.3555C59.3245 64.9955 59.5111 65.8888 59.5111 67.0355C59.5111 68.2021 59.3245 69.1088 58.9511 69.7555C58.5778 70.4021 57.9278 70.7255 57.0011 70.7255C56.0678 70.7255 55.4145 70.4021 55.0411 69.7555C54.6678 69.1088 54.4811 68.2021 54.4811 67.0355ZM58.6111 67.0355C58.6111 66.4555 58.5711 65.9655 58.4911 65.5655C58.4178 65.1588 58.2611 64.8321 58.0211 64.5855C57.7878 64.3388 57.4478 64.2155 57.0011 64.2155C56.5478 64.2155 56.2011 64.3388 55.9611 64.5855C55.7278 64.8321 55.5711 65.1588 55.4911 65.5655C55.4178 65.9655 55.3811 66.4555 55.3811 67.0355C55.3811 67.6355 55.4178 68.1388 55.4911 68.5455C55.5711 68.9521 55.7278 69.2788 55.9611 69.5255C56.2011 69.7721 56.5478 69.8955 57.0011 69.8955C57.4478 69.8955 57.7878 69.7721 58.0211 69.5255C58.2611 69.2788 58.4178 68.9521 58.4911 68.5455C58.5711 68.1388 58.6111 67.6355 58.6111 67.0355ZM67.3764 66.6755V67.4455H63.3864V66.6755H67.3764ZM71.4903 69.9955C72.3369 69.3155 73.0003 68.7588 73.4803 68.3255C73.9603 67.8855 74.3636 67.4288 74.6903 66.9555C75.0236 66.4755 75.1903 66.0055 75.1903 65.5455C75.1903 65.1121 75.0836 64.7721 74.8703 64.5255C74.6636 64.2721 74.3269 64.1455 73.8603 64.1455C73.4069 64.1455 73.0536 64.2888 72.8003 64.5755C72.5536 64.8555 72.4203 65.2321 72.4003 65.7055H71.5203C71.5469 64.9588 71.7736 64.3821 72.2003 63.9755C72.6269 63.5688 73.1769 63.3655 73.8503 63.3655C74.5369 63.3655 75.0803 63.5555 75.4803 63.9355C75.8869 64.3155 76.0903 64.8388 76.0903 65.5055C76.0903 66.0588 75.9236 66.5988 75.5903 67.1255C75.2636 67.6455 74.8903 68.1055 74.4703 68.5055C74.0503 68.8988 73.5136 69.3588 72.8603 69.8855H76.3003V70.6455H71.4903V69.9955ZM77.3522 67.0355C77.3522 65.8888 77.5389 64.9955 77.9122 64.3555C78.2856 63.7088 78.9389 63.3855 79.8722 63.3855C80.7989 63.3855 81.4489 63.7088 81.8222 64.3555C82.1956 64.9955 82.3822 65.8888 82.3822 67.0355C82.3822 68.2021 82.1956 69.1088 81.8222 69.7555C81.4489 70.4021 80.7989 70.7255 79.8722 70.7255C78.9389 70.7255 78.2856 70.4021 77.9122 69.7555C77.5389 69.1088 77.3522 68.2021 77.3522 67.0355ZM81.4822 67.0355C81.4822 66.4555 81.4422 65.9655 81.3622 65.5655C81.2889 65.1588 81.1322 64.8321 80.8922 64.5855C80.6589 64.3388 80.3189 64.2155 79.8722 64.2155C79.4189 64.2155 79.0722 64.3388 78.8322 64.5855C78.5989 64.8321 78.4422 65.1588 78.3622 65.5655C78.2889 65.9655 78.2522 66.4555 78.2522 67.0355C78.2522 67.6355 78.2889 68.1388 78.3622 68.5455C78.4422 68.9521 78.5989 69.2788 78.8322 69.5255C79.0722 69.7721 79.4189 69.8955 79.8722 69.8955C80.3189 69.8955 80.6589 69.7721 80.8922 69.5255C81.1322 69.2788 81.2889 68.9521 81.3622 68.5455C81.4422 68.1388 81.4822 67.6355 81.4822 67.0355ZM84.0715 70.7855C83.8982 70.7855 83.7515 70.7255 83.6315 70.6055C83.5115 70.4855 83.4515 70.3388 83.4515 70.1655C83.4515 69.9921 83.5115 69.8455 83.6315 69.7255C83.7515 69.6055 83.8982 69.5455 84.0715 69.5455C84.2382 69.5455 84.3782 69.6055 84.4915 69.7255C84.6115 69.8455 84.6715 69.9921 84.6715 70.1655C84.6715 70.3388 84.6115 70.4855 84.4915 70.6055C84.3782 70.7255 84.2382 70.7855 84.0715 70.7855ZM85.7111 65.3155C85.7578 64.7021 85.9945 64.2221 86.4211 63.8755C86.8478 63.5288 87.4011 63.3555 88.0811 63.3555C88.5345 63.3555 88.9245 63.4388 89.2511 63.6055C89.5845 63.7655 89.8345 63.9855 90.0011 64.2655C90.1745 64.5455 90.2611 64.8621 90.2611 65.2155C90.2611 65.6288 90.1411 65.9855 89.9011 66.2855C89.6678 66.5855 89.3611 66.7788 88.9811 66.8655V66.9155C89.4145 67.0221 89.7578 67.2321 90.0111 67.5455C90.2645 67.8588 90.3911 68.2688 90.3911 68.7755C90.3911 69.1555 90.3045 69.4988 90.1311 69.8055C89.9578 70.1055 89.6978 70.3421 89.3511 70.5155C89.0045 70.6888 88.5878 70.7755 88.1011 70.7755C87.3945 70.7755 86.8145 70.5921 86.3611 70.2255C85.9078 69.8521 85.6545 69.3255 85.6011 68.6455H86.4811C86.5278 69.0455 86.6911 69.3721 86.9711 69.6255C87.2511 69.8788 87.6245 70.0055 88.0911 70.0055C88.5578 70.0055 88.9111 69.8855 89.1511 69.6455C89.3978 69.3988 89.5211 69.0821 89.5211 68.6955C89.5211 68.1955 89.3545 67.8355 89.0211 67.6155C88.6878 67.3955 88.1845 67.2855 87.5111 67.2855H87.2811V66.5255H87.5211C88.1345 66.5188 88.5978 66.4188 88.9111 66.2255C89.2245 66.0255 89.3811 65.7188 89.3811 65.3055C89.3811 64.9521 89.2645 64.6688 89.0311 64.4555C88.8045 64.2421 88.4778 64.1355 88.0511 64.1355C87.6378 64.1355 87.3045 64.2421 87.0511 64.4555C86.7978 64.6688 86.6478 64.9555 86.6011 65.3155H85.7111ZM91.6198 67.0355C91.6198 65.8888 91.8065 64.9955 92.1798 64.3555C92.5531 63.7088 93.2065 63.3855 94.1398 63.3855C95.0665 63.3855 95.7165 63.7088 96.0898 64.3555C96.4631 64.9955 96.6498 65.8888 96.6498 67.0355C96.6498 68.2021 96.4631 69.1088 96.0898 69.7555C95.7165 70.4021 95.0665 70.7255 94.1398 70.7255C93.2065 70.7255 92.5531 70.4021 92.1798 69.7555C91.8065 69.1088 91.6198 68.2021 91.6198 67.0355ZM95.7498 67.0355C95.7498 66.4555 95.7098 65.9655 95.6298 65.5655C95.5565 65.1588 95.3998 64.8321 95.1598 64.5855C94.9265 64.3388 94.5865 64.2155 94.1398 64.2155C93.6865 64.2155 93.3398 64.3388 93.0998 64.5855C92.8665 64.8321 92.7098 65.1588 92.6298 65.5655C92.5565 65.9655 92.5198 66.4555 92.5198 67.0355C92.5198 67.6355 92.5565 68.1388 92.6298 68.5455C92.7098 68.9521 92.8665 69.2788 93.0998 69.5255C93.3398 69.7721 93.6865 69.8955 94.1398 69.8955C94.5865 69.8955 94.9265 69.7721 95.1598 69.5255C95.3998 69.2788 95.5565 68.9521 95.6298 68.5455C95.7098 68.1388 95.7498 67.6355 95.7498 67.0355Z" fill="white"/>
<path d="M40.7448 22.5375C40.7448 21.7215 40.9328 20.9895 41.3088 20.3415C41.6928 19.6935 42.2088 19.1895 42.8568 18.8295C43.5128 18.4615 44.2288 18.2775 45.0048 18.2775C45.8928 18.2775 46.6808 18.4975 47.3688 18.9375C48.0648 19.3695 48.5688 19.9855 48.8808 20.7855H47.2368C47.0208 20.3455 46.7208 20.0175 46.3368 19.8015C45.9528 19.5855 45.5088 19.4775 45.0048 19.4775C44.4528 19.4775 43.9608 19.6015 43.5288 19.8495C43.0968 20.0975 42.7568 20.4535 42.5088 20.9175C42.2688 21.3815 42.1488 21.9215 42.1488 22.5375C42.1488 23.1535 42.2688 23.6935 42.5088 24.1575C42.7568 24.6215 43.0968 24.9815 43.5288 25.2375C43.9608 25.4855 44.4528 25.6095 45.0048 25.6095C45.5088 25.6095 45.9528 25.5015 46.3368 25.2855C46.7208 25.0695 47.0208 24.7415 47.2368 24.3015H48.8808C48.5688 25.1015 48.0648 25.7175 47.3688 26.1495C46.6808 26.5815 45.8928 26.7975 45.0048 26.7975C44.2208 26.7975 43.5048 26.6175 42.8568 26.2575C42.2088 25.8895 41.6928 25.3815 41.3088 24.7335C40.9328 24.0855 40.7448 23.3535 40.7448 22.5375ZM53.35 26.8335C52.726 26.8335 52.162 26.6935 51.658 26.4135C51.154 26.1255 50.758 25.7255 50.47 25.2135C50.182 24.6935 50.038 24.0935 50.038 23.4135C50.038 22.7415 50.186 22.1455 50.482 21.6255C50.778 21.1055 51.182 20.7055 51.694 20.4255C52.206 20.1455 52.778 20.0055 53.41 20.0055C54.042 20.0055 54.614 20.1455 55.126 20.4255C55.638 20.7055 56.042 21.1055 56.338 21.6255C56.634 22.1455 56.782 22.7415 56.782 23.4135C56.782 24.0855 56.63 24.6815 56.326 25.2015C56.022 25.7215 55.606 26.1255 55.078 26.4135C54.558 26.6935 53.982 26.8335 53.35 26.8335ZM53.35 25.6455C53.702 25.6455 54.03 25.5615 54.334 25.3935C54.646 25.2255 54.898 24.9735 55.09 24.6375C55.282 24.3015 55.378 23.8935 55.378 23.4135C55.378 22.9335 55.286 22.5295 55.102 22.2015C54.918 21.8655 54.674 21.6135 54.37 21.4455C54.066 21.2775 53.738 21.1935 53.386 21.1935C53.034 21.1935 52.706 21.2775 52.402 21.4455C52.106 21.6135 51.87 21.8655 51.694 22.2015C51.518 22.5295 51.43 22.9335 51.43 23.4135C51.43 24.1255 51.61 24.6775 51.97 25.0695C52.338 25.4535 52.798 25.6455 53.35 25.6455ZM64.1224 20.1135V26.7255H62.7544V25.9455C62.5384 26.2175 62.2544 26.4335 61.9024 26.5935C61.5584 26.7455 61.1904 26.8215 60.7984 26.8215C60.2784 26.8215 59.8104 26.7135 59.3944 26.4975C58.9864 26.2815 58.6624 25.9615 58.4224 25.5375C58.1904 25.1135 58.0744 24.6015 58.0744 24.0015V20.1135H59.4304V23.7975C59.4304 24.3895 59.5784 24.8455 59.8744 25.1655C60.1704 25.4775 60.5744 25.6335 61.0864 25.6335C61.5984 25.6335 62.0024 25.4775 62.2984 25.1655C62.6024 24.8455 62.7544 24.3895 62.7544 23.7975V20.1135H64.1224ZM67.2953 21.0735C67.4953 20.7375 67.7593 20.4775 68.0873 20.2935C68.4233 20.1015 68.8193 20.0055 69.2753 20.0055V21.4215H68.9273C68.3913 21.4215 67.9833 21.5575 67.7033 21.8295C67.4313 22.1015 67.2953 22.5735 67.2953 23.2455V26.7255H65.9273V20.1135H67.2953V21.0735ZM72.9328 26.8335C72.4128 26.8335 71.9448 26.7415 71.5288 26.5575C71.1208 26.3655 70.7968 26.1095 70.5568 25.7895C70.3168 25.4615 70.1888 25.0975 70.1728 24.6975H71.5888C71.6128 24.9775 71.7448 25.2135 71.9848 25.4055C72.2328 25.5895 72.5408 25.6815 72.9088 25.6815C73.2928 25.6815 73.5888 25.6095 73.7968 25.4655C74.0128 25.3135 74.1208 25.1215 74.1208 24.8895C74.1208 24.6415 74.0008 24.4575 73.7608 24.3375C73.5288 24.2175 73.1568 24.0855 72.6448 23.9415C72.1488 23.8055 71.7448 23.6735 71.4328 23.5455C71.1208 23.4175 70.8488 23.2215 70.6168 22.9575C70.3928 22.6935 70.2808 22.3455 70.2808 21.9135C70.2808 21.5615 70.3848 21.2415 70.5928 20.9535C70.8008 20.6575 71.0968 20.4255 71.4808 20.2575C71.8728 20.0895 72.3208 20.0055 72.8248 20.0055C73.5768 20.0055 74.1808 20.1975 74.6368 20.5815C75.1008 20.9575 75.3488 21.4735 75.3808 22.1295H74.0128C73.9888 21.8335 73.8688 21.5975 73.6528 21.4215C73.4368 21.2455 73.1448 21.1575 72.7768 21.1575C72.4168 21.1575 72.1408 21.2255 71.9488 21.3615C71.7568 21.4975 71.6608 21.6775 71.6608 21.9015C71.6608 22.0775 71.7248 22.2255 71.8528 22.3455C71.9808 22.4655 72.1368 22.5615 72.3208 22.6335C72.5048 22.6975 72.7768 22.7815 73.1368 22.8855C73.6168 23.0135 74.0088 23.1455 74.3128 23.2815C74.6248 23.4095 74.8928 23.6015 75.1168 23.8575C75.3408 24.1135 75.4568 24.4535 75.4648 24.8775C75.4648 25.2535 75.3608 25.5895 75.1528 25.8855C74.9448 26.1815 74.6488 26.4135 74.2648 26.5815C73.8888 26.7495 73.4448 26.8335 72.9328 26.8335ZM79.6042 23.3895C79.6042 22.7255 79.7402 22.1375 80.0122 21.6255C80.2922 21.1135 80.6682 20.7175 81.1402 20.4375C81.6202 20.1495 82.1522 20.0055 82.7362 20.0055C83.1682 20.0055 83.5922 20.1015 84.0082 20.2935C84.4322 20.4775 84.7682 20.7255 85.0162 21.0375V17.8455H86.3962V26.7255H85.0162V25.7295C84.7922 26.0495 84.4802 26.3135 84.0802 26.5215C83.6882 26.7295 83.2362 26.8335 82.7242 26.8335C82.1482 26.8335 81.6202 26.6895 81.1402 26.4015C80.6682 26.1055 80.2922 25.6975 80.0122 25.1775C79.7402 24.6495 79.6042 24.0535 79.6042 23.3895ZM85.0162 23.4135C85.0162 22.9575 84.9202 22.5615 84.7282 22.2255C84.5442 21.8895 84.3002 21.6335 83.9962 21.4575C83.6922 21.2815 83.3642 21.1935 83.0122 21.1935C82.6602 21.1935 82.3322 21.2815 82.0282 21.4575C81.7242 21.6255 81.4762 21.8775 81.2842 22.2135C81.1002 22.5415 81.0082 22.9335 81.0082 23.3895C81.0082 23.8455 81.1002 24.2455 81.2842 24.5895C81.4762 24.9335 81.7242 25.1975 82.0282 25.3815C82.3402 25.5575 82.6682 25.6455 83.0122 25.6455C83.3642 25.6455 83.6922 25.5575 83.9962 25.3815C84.3002 25.2055 84.5442 24.9495 84.7282 24.6135C84.9202 24.2695 85.0162 23.8695 85.0162 23.4135ZM94.253 23.2575C94.253 23.5055 94.237 23.7295 94.205 23.9295H89.153C89.193 24.4575 89.389 24.8815 89.741 25.2015C90.093 25.5215 90.525 25.6815 91.037 25.6815C91.773 25.6815 92.293 25.3735 92.597 24.7575H94.073C93.873 25.3655 93.509 25.8655 92.981 26.2575C92.461 26.6415 91.813 26.8335 91.037 26.8335C90.405 26.8335 89.837 26.6935 89.333 26.4135C88.837 26.1255 88.445 25.7255 88.157 25.2135C87.877 24.6935 87.737 24.0935 87.737 23.4135C87.737 22.7335 87.873 22.1375 88.145 21.6255C88.425 21.1055 88.813 20.7055 89.309 20.4255C89.813 20.1455 90.389 20.0055 91.037 20.0055C91.661 20.0055 92.217 20.1415 92.705 20.4135C93.193 20.6855 93.573 21.0695 93.845 21.5655C94.117 22.0535 94.253 22.6175 94.253 23.2575ZM92.825 22.8255C92.817 22.3215 92.637 21.9175 92.285 21.6135C91.933 21.3095 91.497 21.1575 90.977 21.1575C90.505 21.1575 90.101 21.3095 89.765 21.6135C89.429 21.9095 89.229 22.3135 89.165 22.8255H92.825ZM58.9008 38.1135L54.8448 47.8335H53.4288L54.7728 44.6175L52.1688 38.1135H53.6928L55.5528 43.1535L57.4848 38.1135H58.9008ZM62.8012 44.8335C62.1772 44.8335 61.6132 44.6935 61.1092 44.4135C60.6052 44.1255 60.2092 43.7255 59.9212 43.2135C59.6332 42.6935 59.4892 42.0935 59.4892 41.4135C59.4892 40.7415 59.6372 40.1455 59.9332 39.6255C60.2292 39.1055 60.6332 38.7055 61.1452 38.4255C61.6572 38.1455 62.2292 38.0055 62.8612 38.0055C63.4932 38.0055 64.0652 38.1455 64.5772 38.4255C65.0892 38.7055 65.4932 39.1055 65.7892 39.6255C66.0852 40.1455 66.2332 40.7415 66.2332 41.4135C66.2332 42.0855 66.0812 42.6815 65.7772 43.2015C65.4732 43.7215 65.0572 44.1255 64.5292 44.4135C64.0092 44.6935 63.4332 44.8335 62.8012 44.8335ZM62.8012 43.6455C63.1532 43.6455 63.4812 43.5615 63.7852 43.3935C64.0972 43.2255 64.3492 42.9735 64.5412 42.6375C64.7332 42.3015 64.8292 41.8935 64.8292 41.4135C64.8292 40.9335 64.7372 40.5295 64.5532 40.2015C64.3692 39.8655 64.1252 39.6135 63.8212 39.4455C63.5172 39.2775 63.1892 39.1935 62.8372 39.1935C62.4852 39.1935 62.1572 39.2775 61.8532 39.4455C61.5572 39.6135 61.3212 39.8655 61.1452 40.2015C60.9692 40.5295 60.8812 40.9335 60.8812 41.4135C60.8812 42.1255 61.0612 42.6775 61.4212 43.0695C61.7892 43.4535 62.2492 43.6455 62.8012 43.6455ZM70.2495 38.0055C70.7615 38.0055 71.2135 38.1095 71.6055 38.3175C72.0055 38.5175 72.3175 38.7695 72.5415 39.0735V38.1135H73.9215V44.8335C73.9215 45.4415 73.7935 45.9815 73.5375 46.4535C73.2815 46.9335 72.9095 47.3095 72.4215 47.5815C71.9415 47.8535 71.3655 47.9895 70.6935 47.9895C69.7975 47.9895 69.0535 47.7775 68.4615 47.3535C67.8695 46.9375 67.5335 46.3695 67.4535 45.6495H68.8095C68.9135 45.9935 69.1335 46.2695 69.4695 46.4775C69.8135 46.6935 70.2215 46.8015 70.6935 46.8015C71.2455 46.8015 71.6895 46.6335 72.0255 46.2975C72.3695 45.9615 72.5415 45.4735 72.5415 44.8335V43.7295C72.3095 44.0415 71.9935 44.3055 71.5935 44.5215C71.2015 44.7295 70.7535 44.8335 70.2495 44.8335C69.6735 44.8335 69.1455 44.6895 68.6655 44.4015C68.1935 44.1055 67.8175 43.6975 67.5375 43.1775C67.2655 42.6495 67.1295 42.0535 67.1295 41.3895C67.1295 40.7255 67.2655 40.1375 67.5375 39.6255C67.8175 39.1135 68.1935 38.7175 68.6655 38.4375C69.1455 38.1495 69.6735 38.0055 70.2495 38.0055ZM72.5415 41.4135C72.5415 40.9575 72.4455 40.5615 72.2535 40.2255C72.0695 39.8895 71.8255 39.6335 71.5215 39.4575C71.2175 39.2815 70.8895 39.1935 70.5375 39.1935C70.1855 39.1935 69.8575 39.2815 69.5535 39.4575C69.2495 39.6255 69.0015 39.8775 68.8095 40.2135C68.6255 40.5415 68.5335 40.9335 68.5335 41.3895C68.5335 41.8455 68.6255 42.2455 68.8095 42.5895C69.0015 42.9335 69.2495 43.1975 69.5535 43.3815C69.8655 43.5575 70.1935 43.6455 70.5375 43.6455C70.8895 43.6455 71.2175 43.5575 71.5215 43.3815C71.8255 43.2055 72.0695 42.9495 72.2535 42.6135C72.4455 42.2695 72.5415 41.8695 72.5415 41.4135ZM75.2624 41.3895C75.2624 40.7255 75.3984 40.1375 75.6704 39.6255C75.9504 39.1135 76.3264 38.7175 76.7984 38.4375C77.2784 38.1495 77.8064 38.0055 78.3824 38.0055C78.9024 38.0055 79.3544 38.1095 79.7384 38.3175C80.1304 38.5175 80.4424 38.7695 80.6744 39.0735V38.1135H82.0544V44.7255H80.6744V43.7415C80.4424 44.0535 80.1264 44.3135 79.7264 44.5215C79.3264 44.7295 78.8704 44.8335 78.3584 44.8335C77.7904 44.8335 77.2704 44.6895 76.7984 44.4015C76.3264 44.1055 75.9504 43.6975 75.6704 43.1775C75.3984 42.6495 75.2624 42.0535 75.2624 41.3895ZM80.6744 41.4135C80.6744 40.9575 80.5784 40.5615 80.3864 40.2255C80.2024 39.8895 79.9584 39.6335 79.6544 39.4575C79.3504 39.2815 79.0224 39.1935 78.6704 39.1935C78.3184 39.1935 77.9904 39.2815 77.6864 39.4575C77.3824 39.6255 77.1344 39.8775 76.9424 40.2135C76.7584 40.5415 76.6664 40.9335 76.6664 41.3895C76.6664 41.8455 76.7584 42.2455 76.9424 42.5895C77.1344 42.9335 77.3824 43.1975 77.6864 43.3815C77.9984 43.5575 78.3264 43.6455 78.6704 43.6455C79.0224 43.6455 79.3504 43.5575 79.6544 43.3815C79.9584 43.2055 80.2024 42.9495 80.3864 42.6135C80.5784 42.2695 80.6744 41.8695 80.6744 41.4135Z" fill="white"/>
</svg>
